G04 DipTrace 3.3.1.3*
G04 BottomSilk.gbr*
%MOIN*%
G04 #@! TF.FileFunction,Legend,Bot*
G04 #@! TF.Part,Single*
%ADD10C,0.009843*%
%ADD19C,0.031451*%
%ADD26C,0.015404*%
%ADD28C,0.015422*%
%ADD31O,0.016542X0.016422*%
%ADD36C,0.01542*%
%ADD91C,0.00772*%
%FSLAX26Y26*%
G04*
G70*
G90*
G75*
G01*
G04 BotSilk*
%LPD*%
X1611881Y2314841D2*
D10*
X1663022D1*
X789842Y2319272D2*
Y2268130D1*
X1046643Y4422450D2*
X1331840D1*
X1001719Y4467330D2*
X1046643Y4422450D1*
Y4752450D2*
X1331840D1*
X1001719Y4707570D2*
X1046643Y4752450D1*
X1001719Y4536267D2*
Y4467330D1*
Y4707570D2*
Y4638633D1*
X1331840Y4536267D2*
Y4422450D1*
Y4752450D2*
Y4638633D1*
D19*
X969919Y4524453D3*
X871092Y4863022D2*
D10*
Y4811881D1*
X958593Y3325521D2*
Y3274379D1*
X1046643Y3384951D2*
X1331840D1*
X1001719Y3429831D2*
X1046643Y3384951D1*
Y3714951D2*
X1331840D1*
X1001719Y3670071D2*
X1046643Y3714951D1*
X1001719Y3498768D2*
Y3429831D1*
Y3670071D2*
Y3601134D1*
X1331840Y3498768D2*
Y3384951D1*
Y3714951D2*
Y3601134D1*
D19*
X969919Y3486954D3*
X669272Y2416310D2*
D10*
X618130D1*
X700522Y3053810D2*
X649381D1*
X1316311Y3118130D2*
Y3169272D1*
X662332Y3055630D2*
Y3106772D1*
X681083Y2199379D2*
Y2250521D1*
X787864Y2618915D2*
X764304D1*
X787864Y2555986D2*
X764304D1*
X780449D2*
Y2618915D1*
X787898Y2555986D2*
Y2618915D1*
X787864Y2725165D2*
X764304D1*
X787864Y2662236D2*
X764304D1*
X780449D2*
Y2725165D1*
X787898Y2662236D2*
Y2725165D1*
X947902Y2106201D2*
X756202D1*
X1056202D2*
X756202D1*
X1056202Y1906201D2*
X756202D1*
X1056202Y2106201D2*
Y1906201D1*
X756202Y2106201D2*
Y1906201D1*
X1594171Y2216110D2*
X1562671D1*
X1594171Y2271228D2*
X1562671D1*
X1052542Y2237920D2*
Y2206420D1*
X997424Y2237920D2*
Y2206420D1*
D26*
X1630802Y678993D3*
X1621601Y729135D2*
D10*
X1503496D1*
Y748820D1*
X1621601D1*
Y729135D1*
D26*
X1631604Y845910D3*
X1640805Y795768D2*
D10*
X1758909D1*
Y776083D1*
X1640805D1*
Y795768D1*
D26*
X1381604Y845910D3*
X1390805Y795768D2*
D10*
X1508909D1*
Y776083D1*
X1390805D1*
Y795768D1*
D26*
X1868300Y672741D3*
X1859100Y722883D2*
D10*
X1740995D1*
Y742568D1*
X1859100D1*
Y722883D1*
D28*
X2216492Y876386D3*
X2266634Y885587D2*
D10*
Y1003692D1*
X2286319D1*
Y885587D1*
X2266634D1*
D28*
X1991492Y876386D3*
X2041634Y885587D2*
D10*
Y1003692D1*
X2061319D1*
Y885587D1*
X2041634D1*
D28*
X2216492Y1326385D3*
X2266634Y1335585D2*
D10*
Y1453690D1*
X2286319D1*
Y1335585D1*
X2266634D1*
D28*
X1991492Y1326385D3*
X2041634Y1335585D2*
D10*
Y1453690D1*
X2061319D1*
Y1335585D1*
X2041634D1*
D28*
X2216492Y1176386D3*
X2266634Y1185587D2*
D10*
Y1303692D1*
X2286319D1*
Y1185587D1*
X2266634D1*
D28*
X1991492Y1176386D3*
X2041634Y1185587D2*
D10*
Y1303692D1*
X2061319D1*
Y1185587D1*
X2041634D1*
D28*
X2216492Y1476386D3*
X2266634Y1485587D2*
D10*
Y1603692D1*
X2286319D1*
Y1485587D1*
X2266634D1*
D28*
X1991492Y1476386D3*
X2041634Y1485587D2*
D10*
Y1603692D1*
X2061319D1*
Y1485587D1*
X2041634D1*
D28*
X2216492Y1626385D3*
X2266634Y1635585D2*
D10*
Y1753690D1*
X2286319D1*
Y1635585D1*
X2266634D1*
D28*
X1991492Y1626385D3*
X2041634Y1635585D2*
D10*
Y1753690D1*
X2061319D1*
Y1635585D1*
X2041634D1*
D28*
X2216492Y1776386D3*
X2266634Y1785587D2*
D10*
Y1903692D1*
X2286319D1*
Y1785587D1*
X2266634D1*
D28*
X1991492Y1776386D3*
X2041634Y1785587D2*
D10*
Y1903692D1*
X2061319D1*
Y1785587D1*
X2041634D1*
D28*
X2216492Y1926385D3*
X2266634Y1935585D2*
D10*
Y2053690D1*
X2286319D1*
Y1935585D1*
X2266634D1*
D28*
X1991492Y1926385D3*
X2041634Y1935585D2*
D10*
Y2053690D1*
X2061319D1*
Y1935585D1*
X2041634D1*
D28*
X2216492Y2076386D3*
X2266634Y2085587D2*
D10*
Y2203692D1*
X2286319D1*
Y2085587D1*
X2266634D1*
D28*
X1991492Y2076386D3*
X2041634Y2085587D2*
D10*
Y2203692D1*
X2061319D1*
Y2085587D1*
X2041634D1*
D28*
X2216492Y2376386D3*
X2266634Y2385587D2*
D10*
Y2503692D1*
X2286319D1*
Y2385587D1*
X2266634D1*
D28*
X1991492Y2376386D3*
X2041634Y2385587D2*
D10*
Y2503692D1*
X2061319D1*
Y2385587D1*
X2041634D1*
D28*
X2216492Y2526386D3*
X2266634Y2535587D2*
D10*
Y2653692D1*
X2286319D1*
Y2535587D1*
X2266634D1*
D28*
X1991492Y2526386D3*
X2041634Y2535587D2*
D10*
Y2653692D1*
X2061319D1*
Y2535587D1*
X2041634D1*
D28*
X2216492Y2676386D3*
X2266634Y2685587D2*
D10*
Y2803692D1*
X2286319D1*
Y2685587D1*
X2266634D1*
D28*
X1991492Y2676386D3*
X2041634Y2685587D2*
D10*
Y2803692D1*
X2061319D1*
Y2685587D1*
X2041634D1*
D28*
X2216492Y2826386D3*
X2266634Y2835587D2*
D10*
Y2953692D1*
X2286319D1*
Y2835587D1*
X2266634D1*
D28*
X1991492Y2826386D3*
X2041634Y2835587D2*
D10*
Y2953692D1*
X2061319D1*
Y2835587D1*
X2041634D1*
D28*
X2216492Y3126386D3*
X2266634Y3135587D2*
D10*
Y3253692D1*
X2286319D1*
Y3135587D1*
X2266634D1*
D28*
X1991492Y3126386D3*
X2041634Y3135587D2*
D10*
Y3253692D1*
X2061319D1*
Y3135587D1*
X2041634D1*
D28*
X2216492Y3276386D3*
X2266634Y3285587D2*
D10*
Y3403692D1*
X2286319D1*
Y3285587D1*
X2266634D1*
D28*
X1991492Y3276386D3*
X2041634Y3285587D2*
D10*
Y3403692D1*
X2061319D1*
Y3285587D1*
X2041634D1*
D28*
X2216492Y3426386D3*
X2266634Y3435587D2*
D10*
Y3553692D1*
X2286319D1*
Y3435587D1*
X2266634D1*
D28*
X1997743Y3426386D3*
X2047884Y3435587D2*
D10*
Y3553692D1*
X2067570D1*
Y3435587D1*
X2047884D1*
D28*
X2216492Y3576386D3*
X2266634Y3585587D2*
D10*
Y3703692D1*
X2286319D1*
Y3585587D1*
X2266634D1*
D28*
X1991492Y3576386D3*
X2041634Y3585587D2*
D10*
Y3703692D1*
X2061319D1*
Y3585587D1*
X2041634D1*
D28*
X2216492Y4926386D3*
X2266634Y4935587D2*
D10*
Y5053692D1*
X2286319D1*
Y4935587D1*
X2266634D1*
D28*
X1991492Y4926386D3*
X2041634Y4935587D2*
D10*
Y5053692D1*
X2061319D1*
Y4935587D1*
X2041634D1*
D28*
X2216492Y4626386D3*
X2266634Y4635587D2*
D10*
Y4753692D1*
X2286319D1*
Y4635587D1*
X2266634D1*
D28*
X1991492Y4626386D3*
X2041634Y4635587D2*
D10*
Y4753692D1*
X2061319D1*
Y4635587D1*
X2041634D1*
D28*
X2216492Y4326386D3*
X2266634Y4335587D2*
D10*
Y4453692D1*
X2286319D1*
Y4335587D1*
X2266634D1*
D28*
X1991492Y4326386D3*
X2041634Y4335587D2*
D10*
Y4453692D1*
X2061319D1*
Y4335587D1*
X2041634D1*
D28*
X2216492Y4176386D3*
X2266634Y4185587D2*
D10*
Y4303692D1*
X2286319D1*
Y4185587D1*
X2266634D1*
D28*
X1991492Y4176386D3*
X2041634Y4185587D2*
D10*
Y4303692D1*
X2061319D1*
Y4185587D1*
X2041634D1*
D28*
X2216492Y4026386D3*
X2266634Y4035587D2*
D10*
Y4153692D1*
X2286319D1*
Y4035587D1*
X2266634D1*
D28*
X1991492Y4026386D3*
X2041634Y4035587D2*
D10*
Y4153692D1*
X2061319D1*
Y4035587D1*
X2041634D1*
D28*
X2216492Y3876386D3*
X2266634Y3885587D2*
D10*
Y4003692D1*
X2286319D1*
Y3885587D1*
X2266634D1*
D28*
X1991492Y3876386D3*
X2041634Y3885587D2*
D10*
Y4003692D1*
X2061319D1*
Y3885587D1*
X2041634D1*
X1362864Y974736D2*
X1339304D1*
X1362864Y1037665D2*
X1339304D1*
X1336007Y562665D2*
X1359566D1*
X1336007Y499736D2*
X1359566D1*
X1338073Y943916D2*
X1361633D1*
X1338073Y880987D2*
X1361633D1*
X1362864Y599736D2*
X1339304D1*
X1362864Y662665D2*
X1339304D1*
X1799738Y1268289D2*
Y1291848D1*
X1862667Y1268289D2*
Y1291848D1*
X1462236Y1880789D2*
Y1904348D1*
X1525165Y1880789D2*
Y1904348D1*
X1056613Y3080987D2*
X1033054D1*
X1056613Y3143916D2*
X1033054D1*
X931416Y3169113D2*
Y3145554D1*
X868487Y3169113D2*
Y3145554D1*
X1417508Y2551929D2*
X1189185D1*
Y2323565D1*
X1417508D1*
Y2551929D1*
D31*
X1469161Y2583044D3*
G36*
X1417508Y2551929D2*
Y2520436D1*
X1386015Y2551929D1*
X1417508D1*
G37*
X1449404Y1670873D2*
D10*
X1787997D1*
X1449404Y1568497D2*
X1787997D1*
Y1670873D2*
Y1568497D1*
X1449404Y1670873D2*
Y1639380D1*
Y1599991D2*
Y1568497D1*
Y1639380D2*
G02X1449404Y1599991I12J-19694D01*
G01*
Y3057339D2*
X1787997D1*
X1449404Y2954963D2*
X1787997D1*
Y3057339D2*
Y2954963D1*
X1449404Y3057339D2*
Y3025845D1*
Y2986456D2*
Y2954963D1*
Y3025845D2*
G02X1449404Y2986456I12J-19694D01*
G01*
X1183085Y4007923D2*
X1281491D1*
Y4037464D1*
Y4155549D2*
Y4185089D1*
X1183085D1*
D36*
X1124455Y3998826D3*
X1060061Y2380630D2*
D10*
Y2431772D1*
X1559139Y2393999D2*
D91*
X1554386Y2396376D1*
X1549577Y2401184D1*
X1547201Y2405938D1*
Y2415499D1*
X1549577Y2420308D1*
X1554386Y2425061D1*
X1559139Y2427493D1*
X1566324Y2429869D1*
X1578318D1*
X1585447Y2427493D1*
X1590256Y2425061D1*
X1595009Y2420308D1*
X1597441Y2415499D1*
Y2405937D1*
X1595009Y2401184D1*
X1590256Y2396376D1*
X1585447Y2393999D1*
X1556818Y2378560D2*
X1554386Y2373752D1*
X1547256Y2366567D1*
X1597441D1*
X879750Y2234513D2*
X882126Y2239266D1*
X886935Y2244075D1*
X891688Y2246451D1*
X901250D1*
X906058Y2244075D1*
X910811Y2239266D1*
X913243Y2234513D1*
X915620Y2227328D1*
Y2215335D1*
X913243Y2208205D1*
X910811Y2203396D1*
X906058Y2198643D1*
X901250Y2196211D1*
X891688D1*
X886935Y2198643D1*
X882126Y2203396D1*
X879750Y2208205D1*
X861879Y2234458D2*
Y2236835D1*
X859502Y2241643D1*
X857126Y2244020D1*
X852317Y2246396D1*
X842755D1*
X838002Y2244020D1*
X835626Y2241643D1*
X833194Y2236835D1*
Y2232081D1*
X835626Y2227273D1*
X840379Y2220143D1*
X864311Y2196211D1*
X830817D1*
X1173311Y4813735D2*
X1175687Y4818488D1*
X1180496Y4823297D1*
X1185249Y4825673D1*
X1194811D1*
X1199619Y4823297D1*
X1204372Y4818488D1*
X1206804Y4813735D1*
X1209181Y4806550D1*
Y4794556D1*
X1206804Y4787427D1*
X1204372Y4782618D1*
X1199619Y4777865D1*
X1194811Y4775433D1*
X1185249D1*
X1180496Y4777865D1*
X1175687Y4782618D1*
X1173311Y4787427D1*
X1153063Y4825618D2*
X1126810D1*
X1141125Y4806495D1*
X1133940D1*
X1129187Y4804118D1*
X1126810Y4801741D1*
X1124378Y4794556D1*
Y4789803D1*
X1126810Y4782618D1*
X1131563Y4777810D1*
X1138748Y4775433D1*
X1145933D1*
X1153063Y4777810D1*
X1155440Y4780242D1*
X1157872Y4784995D1*
X949688Y4928264D2*
X952065Y4933017D1*
X956873Y4937825D1*
X961626Y4940202D1*
X971188D1*
X975996Y4937825D1*
X980750Y4933017D1*
X983181Y4928264D1*
X985558Y4921079D1*
Y4909085D1*
X983181Y4901956D1*
X980750Y4897147D1*
X975996Y4892394D1*
X971188Y4889962D1*
X961626D1*
X956873Y4892394D1*
X952065Y4897147D1*
X949688Y4901956D1*
X910317Y4889962D2*
Y4940147D1*
X934249Y4906709D1*
X898379D1*
X904750Y3315763D2*
X907127Y3320516D1*
X911936Y3325324D1*
X916689Y3327701D1*
X926250D1*
X931059Y3325324D1*
X935812Y3320516D1*
X938244Y3315763D1*
X940620Y3308578D1*
Y3296584D1*
X938244Y3289454D1*
X935812Y3284646D1*
X931059Y3279893D1*
X926250Y3277461D1*
X916689D1*
X911936Y3279893D1*
X907127Y3284646D1*
X904750Y3289454D1*
X860626Y3327645D2*
X884503D1*
X886879Y3306146D1*
X884503Y3308522D1*
X877318Y3310954D1*
X870188D1*
X863003Y3308522D1*
X858194Y3303769D1*
X855818Y3296584D1*
Y3291831D1*
X858194Y3284646D1*
X863003Y3279837D1*
X870188Y3277461D1*
X877318D1*
X884503Y3279837D1*
X886879Y3282269D1*
X889311Y3287022D1*
X1172095Y3776236D2*
X1174472Y3780989D1*
X1179280Y3785798D1*
X1184033Y3788175D1*
X1193595D1*
X1198403Y3785798D1*
X1203156Y3780989D1*
X1205588Y3776236D1*
X1207965Y3769051D1*
Y3757058D1*
X1205588Y3749928D1*
X1203156Y3745120D1*
X1198403Y3740366D1*
X1193595Y3737935D1*
X1184033D1*
X1179280Y3740366D1*
X1174472Y3745120D1*
X1172095Y3749928D1*
X1127971Y3780989D2*
X1130347Y3785743D1*
X1137532Y3788119D1*
X1142286D1*
X1149471Y3785743D1*
X1154279Y3778558D1*
X1156656Y3766619D1*
Y3754681D1*
X1154279Y3745120D1*
X1149471Y3740311D1*
X1142286Y3737935D1*
X1139909D1*
X1132779Y3740311D1*
X1127971Y3745120D1*
X1125594Y3752305D1*
Y3754681D1*
X1127971Y3761866D1*
X1132779Y3766619D1*
X1139909Y3768996D1*
X1142286D1*
X1149471Y3766619D1*
X1154279Y3761866D1*
X1156656Y3754681D1*
X627888Y2482026D2*
X623135Y2484402D1*
X618327Y2489211D1*
X615950Y2493964D1*
Y2503525D1*
X618327Y2508334D1*
X623135Y2513087D1*
X627888Y2515519D1*
X635073Y2517895D1*
X647067D1*
X654197Y2515519D1*
X659005Y2513087D1*
X663758Y2508334D1*
X666190Y2503525D1*
Y2493964D1*
X663758Y2489211D1*
X659005Y2484402D1*
X654197Y2482025D1*
X632697Y2435470D2*
X639882Y2437901D1*
X644690Y2442655D1*
X647067Y2449840D1*
Y2452216D1*
X644690Y2459401D1*
X639882Y2464154D1*
X632697Y2466586D1*
X630320D1*
X623135Y2464154D1*
X618382Y2459401D1*
X616005Y2452216D1*
Y2449840D1*
X618382Y2442655D1*
X623135Y2437901D1*
X632697Y2435470D1*
X644690D1*
X656629Y2437901D1*
X663814Y2442655D1*
X666190Y2449840D1*
Y2454593D1*
X663814Y2461778D1*
X659005Y2464154D1*
X615388Y3203182D2*
X610635Y3205559D1*
X605827Y3210367D1*
X603450Y3215120D1*
Y3224682D1*
X605827Y3229490D1*
X610635Y3234244D1*
X615388Y3236675D1*
X622573Y3239052D1*
X634567D1*
X641697Y3236675D1*
X646505Y3234244D1*
X651258Y3229490D1*
X653690Y3224682D1*
Y3215120D1*
X651258Y3210367D1*
X646505Y3205559D1*
X641697Y3203182D1*
X613067Y3187743D2*
X610635Y3182934D1*
X603505Y3175749D1*
X653690D1*
X603505Y3145940D2*
X605882Y3153125D1*
X613067Y3157934D1*
X625005Y3160310D1*
X632190D1*
X644129Y3157934D1*
X651314Y3153125D1*
X653690Y3145940D1*
Y3141187D1*
X651314Y3134002D1*
X644129Y3129249D1*
X632190Y3126817D1*
X625005D1*
X613067Y3129249D1*
X605882Y3134002D1*
X603505Y3141187D1*
Y3145940D1*
X613067Y3129249D2*
X644129Y3157934D1*
X1392432Y3159513D2*
X1394809Y3164266D1*
X1399617Y3169075D1*
X1404370Y3171451D1*
X1413932D1*
X1418740Y3169075D1*
X1423494Y3164266D1*
X1425925Y3159513D1*
X1428302Y3152328D1*
Y3140335D1*
X1425925Y3133205D1*
X1423494Y3128396D1*
X1418740Y3123643D1*
X1413932Y3121211D1*
X1404370D1*
X1399617Y3123643D1*
X1394809Y3128396D1*
X1392432Y3133205D1*
X1376993Y3161835D2*
X1372184Y3164266D1*
X1364999Y3171396D1*
Y3121211D1*
X1349560Y3161835D2*
X1344752Y3164266D1*
X1337567Y3171396D1*
Y3121211D1*
X661409Y2902702D2*
Y2852462D1*
X644663D1*
X637478Y2854894D1*
X632669Y2859647D1*
X630292Y2864456D1*
X627916Y2871585D1*
Y2883579D1*
X630292Y2890764D1*
X632669Y2895517D1*
X637478Y2900325D1*
X644663Y2902702D1*
X661409D1*
X612477Y2893085D2*
X607668Y2895517D1*
X600483Y2902647D1*
Y2852462D1*
X778408Y2252701D2*
Y2202461D1*
X761662D1*
X754477Y2204893D1*
X749668Y2209646D1*
X747292Y2214454D1*
X744915Y2221584D1*
Y2233578D1*
X747292Y2240763D1*
X749668Y2245516D1*
X754477Y2250324D1*
X761662Y2252701D1*
X778408D1*
X727044Y2240707D2*
Y2243084D1*
X724667Y2247892D1*
X722291Y2250269D1*
X717482Y2252645D1*
X707921D1*
X703168Y2250269D1*
X700791Y2247892D1*
X698359Y2243084D1*
Y2238331D1*
X700791Y2233522D1*
X705544Y2226392D1*
X729476Y2202461D1*
X695983D1*
X679797Y2614857D2*
Y2564617D1*
X663050D1*
X655865Y2567049D1*
X651057Y2571802D1*
X648680Y2576610D1*
X646304Y2583740D1*
Y2595734D1*
X648680Y2602919D1*
X651057Y2607672D1*
X655865Y2612480D1*
X663050Y2614857D1*
X679797D1*
X626056Y2614802D2*
X599803D1*
X614118Y2595678D1*
X606933D1*
X602179Y2593302D1*
X599803Y2590925D1*
X597371Y2583740D1*
Y2578987D1*
X599803Y2571802D1*
X604556Y2566994D1*
X611741Y2564617D1*
X618926D1*
X626056Y2566994D1*
X628433Y2569425D1*
X630864Y2574179D1*
X674735Y2714857D2*
Y2664617D1*
X657988D1*
X650803Y2667049D1*
X645994Y2671802D1*
X643618Y2676610D1*
X641241Y2683740D1*
Y2695734D1*
X643618Y2702919D1*
X645994Y2707672D1*
X650803Y2712480D1*
X657988Y2714857D1*
X674735D1*
X601870Y2664617D2*
Y2714802D1*
X625802Y2681364D1*
X589932D1*
X924952Y1885673D2*
Y1847427D1*
X927328Y1840242D1*
X929760Y1837865D1*
X934514Y1835433D1*
X939322D1*
X944075Y1837865D1*
X946452Y1840242D1*
X948884Y1847427D1*
Y1852180D1*
X907081Y1873680D2*
Y1876056D1*
X904704Y1880865D1*
X902328Y1883241D1*
X897519Y1885618D1*
X887958D1*
X883204Y1883241D1*
X880828Y1880865D1*
X878396Y1876056D1*
Y1871303D1*
X880828Y1866495D1*
X885581Y1859365D1*
X909513Y1835433D1*
X876019D1*
X1612704Y2198420D2*
Y2148180D1*
X1584020D1*
X1568580Y2188803D2*
X1563772Y2191235D1*
X1556587Y2198365D1*
Y2148180D1*
X1076482Y2273454D2*
X1126722D1*
Y2244770D1*
X1088475Y2226899D2*
X1086099D1*
X1081290Y2224522D1*
X1078914Y2222145D1*
X1076537Y2217337D1*
Y2207775D1*
X1078914Y2203022D1*
X1081290Y2200646D1*
X1086099Y2198214D1*
X1090852D1*
X1095660Y2200646D1*
X1102790Y2205399D1*
X1126722Y2229330D1*
Y2195837D1*
X1589497Y871896D2*
X1594250Y869575D1*
X1599059Y864767D1*
X1601435Y859958D1*
X1603867Y852773D1*
Y840835D1*
X1601435Y833650D1*
X1599059Y828897D1*
X1594250Y824088D1*
X1589497Y821712D1*
X1579936D1*
X1575127Y824088D1*
X1570374Y828897D1*
X1567997Y833650D1*
X1565565Y840835D1*
Y852773D1*
X1567997Y859958D1*
X1570374Y864767D1*
X1575127Y869575D1*
X1579936Y871896D1*
X1589497D1*
X1582312Y831273D2*
X1567997Y816903D1*
X1550126Y862279D2*
X1545318Y864711D1*
X1538133Y871841D1*
Y821656D1*
X1733153Y914344D2*
X1737906Y912022D1*
X1742714Y907214D1*
X1745091Y902406D1*
X1747523Y895221D1*
Y883282D1*
X1745091Y876097D1*
X1742714Y871344D1*
X1737906Y866536D1*
X1733153Y864159D1*
X1723591D1*
X1718783Y866536D1*
X1714029Y871344D1*
X1711653Y876097D1*
X1709221Y883282D1*
Y895221D1*
X1711653Y902406D1*
X1714029Y907214D1*
X1718783Y912022D1*
X1723591Y914344D1*
X1733153D1*
X1725968Y873721D2*
X1711653Y859351D1*
X1691350Y902350D2*
Y904727D1*
X1688973Y909535D1*
X1686597Y911912D1*
X1681788Y914289D1*
X1672227D1*
X1667473Y911912D1*
X1665097Y909535D1*
X1662665Y904727D1*
Y899974D1*
X1665097Y895165D1*
X1669850Y888036D1*
X1693782Y864104D1*
X1660288D1*
X1351903Y808093D2*
X1356656Y805772D1*
X1361465Y800963D1*
X1363841Y796155D1*
X1366273Y788970D1*
Y777032D1*
X1363841Y769847D1*
X1361465Y765093D1*
X1356656Y760285D1*
X1351903Y757908D1*
X1342342D1*
X1337533Y760285D1*
X1332780Y765093D1*
X1330403Y769847D1*
X1327972Y777032D1*
Y788970D1*
X1330403Y796155D1*
X1332780Y800963D1*
X1337533Y805772D1*
X1342342Y808093D1*
X1351903D1*
X1344718Y767470D2*
X1330403Y753100D1*
X1307724Y808038D2*
X1281471D1*
X1295786Y788915D1*
X1288601D1*
X1283847Y786538D1*
X1281471Y784161D1*
X1279039Y776976D1*
Y772223D1*
X1281471Y765038D1*
X1286224Y760230D1*
X1293409Y757853D1*
X1300594D1*
X1307724Y760230D1*
X1310100Y762662D1*
X1312532Y767415D1*
X1838934Y653143D2*
X1843687Y650822D1*
X1848496Y646013D1*
X1850872Y641205D1*
X1853304Y634020D1*
Y622082D1*
X1850872Y614897D1*
X1848496Y610143D1*
X1843687Y605335D1*
X1838934Y602958D1*
X1829372D1*
X1824564Y605335D1*
X1819811Y610143D1*
X1817434Y614897D1*
X1815002Y622082D1*
Y634020D1*
X1817434Y641205D1*
X1819811Y646013D1*
X1824564Y650822D1*
X1829372Y653143D1*
X1838934D1*
X1831749Y612520D2*
X1817434Y598150D1*
X1775631Y602903D2*
Y653088D1*
X1799563Y619650D1*
X1763693D1*
X2259380Y852935D2*
X2261701Y857688D1*
X2266510Y862496D1*
X2271318Y864873D1*
X2278503Y867305D1*
X2290441D1*
X2297627Y864873D1*
X2302380Y862496D1*
X2307188Y857688D1*
X2309565Y852935D1*
Y843373D1*
X2307188Y838565D1*
X2302380Y833812D1*
X2297627Y831435D1*
X2290441Y829003D1*
X2278503D1*
X2271318Y831435D1*
X2266510Y833812D1*
X2261701Y838565D1*
X2259380Y843373D1*
Y852935D1*
X2300003Y845750D2*
X2314373Y831435D1*
X2259435Y784879D2*
Y808755D1*
X2280935Y811132D1*
X2278559Y808755D1*
X2276127Y801570D1*
Y794441D1*
X2278558Y787256D1*
X2283312Y782447D1*
X2290497Y780071D1*
X2295250D1*
X2302435Y782447D1*
X2307243Y787256D1*
X2309620Y794441D1*
Y801570D1*
X2307243Y808755D1*
X2304812Y811132D1*
X2300058Y813564D1*
X2078632Y1076915D2*
X2083385Y1074593D1*
X2088194Y1069785D1*
X2090570Y1064976D1*
X2093002Y1057791D1*
Y1045853D1*
X2090570Y1038668D1*
X2088194Y1033915D1*
X2083385Y1029107D1*
X2078632Y1026730D1*
X2069071D1*
X2064262Y1029107D1*
X2059509Y1033915D1*
X2057132Y1038668D1*
X2054701Y1045853D1*
Y1057791D1*
X2057132Y1064976D1*
X2059509Y1069785D1*
X2064262Y1074593D1*
X2069071Y1076915D1*
X2078632D1*
X2071447Y1036292D2*
X2057132Y1021921D1*
X2010576Y1069730D2*
X2012953Y1074483D1*
X2020138Y1076859D1*
X2024891D1*
X2032076Y1074483D1*
X2036885Y1067298D1*
X2039261Y1055360D1*
Y1043421D1*
X2036885Y1033860D1*
X2032076Y1029051D1*
X2024891Y1026675D1*
X2022515D1*
X2015385Y1029051D1*
X2010576Y1033860D1*
X2008200Y1041045D1*
Y1043421D1*
X2010576Y1050606D1*
X2015385Y1055360D1*
X2022515Y1057736D1*
X2024891D1*
X2032076Y1055360D1*
X2036885Y1050606D1*
X2039261Y1043421D1*
X2359380Y1415434D2*
X2361701Y1420187D1*
X2366510Y1424995D1*
X2371318Y1427372D1*
X2378503Y1429804D1*
X2390441D1*
X2397627Y1427372D1*
X2402380Y1424995D1*
X2407188Y1420187D1*
X2409565Y1415433D1*
Y1405872D1*
X2407188Y1401063D1*
X2402380Y1396310D1*
X2397627Y1393934D1*
X2390441Y1391502D1*
X2378503D1*
X2371318Y1393934D1*
X2366510Y1396310D1*
X2361701Y1401063D1*
X2359380Y1405872D1*
Y1415434D1*
X2400003Y1408248D2*
X2414373Y1393934D1*
X2409620Y1366501D2*
X2359435Y1342569D1*
Y1376063D1*
X2079821Y1526913D2*
X2084574Y1524592D1*
X2089382Y1519784D1*
X2091759Y1514975D1*
X2094191Y1507790D1*
Y1495852D1*
X2091759Y1488667D1*
X2089382Y1483914D1*
X2084574Y1479105D1*
X2079821Y1476729D1*
X2070259D1*
X2065450Y1479105D1*
X2060697Y1483914D1*
X2058321Y1488667D1*
X2055889Y1495852D1*
Y1507790D1*
X2058321Y1514975D1*
X2060697Y1519784D1*
X2065450Y1524592D1*
X2070259Y1526913D1*
X2079821D1*
X2072635Y1486290D2*
X2058321Y1471920D1*
X2028511Y1526858D2*
X2035641Y1524482D1*
X2038073Y1519728D1*
Y1514920D1*
X2035641Y1510167D1*
X2030888Y1507735D1*
X2021326Y1505358D1*
X2014141Y1502982D1*
X2009388Y1498173D1*
X2007011Y1493420D1*
Y1486235D1*
X2009388Y1481482D1*
X2011765Y1479050D1*
X2018950Y1476673D1*
X2028511D1*
X2035641Y1479050D1*
X2038073Y1481482D1*
X2040450Y1486235D1*
Y1493420D1*
X2038073Y1498173D1*
X2033265Y1502982D1*
X2026135Y1505358D1*
X2016573Y1507735D1*
X2011765Y1510167D1*
X2009388Y1514920D1*
Y1519728D1*
X2011765Y1524482D1*
X2018950Y1526858D1*
X2028511D1*
X2253131Y1151747D2*
X2255452Y1156500D1*
X2260260Y1161308D1*
X2265069Y1163685D1*
X2272254Y1166117D1*
X2284192D1*
X2291377Y1163685D1*
X2296130Y1161308D1*
X2300939Y1156500D1*
X2303315Y1151746D1*
Y1142185D1*
X2300939Y1137376D1*
X2296130Y1132623D1*
X2291377Y1130247D1*
X2284192Y1127815D1*
X2272254D1*
X2265069Y1130247D1*
X2260260Y1132623D1*
X2255452Y1137376D1*
X2253131Y1142185D1*
Y1151747D1*
X2293754Y1144561D2*
X2308124Y1130247D1*
X2269877Y1081259D2*
X2277062Y1083691D1*
X2281871Y1088444D1*
X2284247Y1095629D1*
Y1098006D1*
X2281871Y1105191D1*
X2277062Y1109944D1*
X2269877Y1112376D1*
X2267501D1*
X2260316Y1109944D1*
X2255563Y1105191D1*
X2253186Y1098006D1*
Y1095629D1*
X2255562Y1088444D1*
X2260316Y1083691D1*
X2269877Y1081259D1*
X2281871D1*
X2293809Y1083691D1*
X2300994Y1088444D1*
X2303371Y1095629D1*
Y1100382D1*
X2300994Y1107567D1*
X2296186Y1109944D1*
X1723058Y1285402D2*
X1725379Y1290155D1*
X1730188Y1294963D1*
X1734996Y1297340D1*
X1742181Y1299772D1*
X1754119D1*
X1761304Y1297340D1*
X1766057Y1294963D1*
X1770866Y1290155D1*
X1773243Y1285402D1*
Y1275840D1*
X1770866Y1271032D1*
X1766057Y1266279D1*
X1761304Y1263902D1*
X1754119Y1261470D1*
X1742181D1*
X1734996Y1263902D1*
X1730188Y1266279D1*
X1725379Y1271032D1*
X1723058Y1275840D1*
Y1285402D1*
X1763681Y1278217D2*
X1778051Y1263902D1*
X1732675Y1246031D2*
X1730243Y1241222D1*
X1723113Y1234037D1*
X1773298D1*
X1723113Y1204228D2*
X1725490Y1211413D1*
X1732675Y1216222D1*
X1744613Y1218598D1*
X1751798D1*
X1763736Y1216222D1*
X1770921Y1211413D1*
X1773298Y1204228D1*
Y1199475D1*
X1770921Y1192290D1*
X1763736Y1187537D1*
X1751798Y1185105D1*
X1744613D1*
X1732675Y1187537D1*
X1725490Y1192290D1*
X1723113Y1199475D1*
Y1204228D1*
X1732675Y1187537D2*
X1763736Y1216222D1*
X2359380Y1568401D2*
X2361701Y1573154D1*
X2366510Y1577963D1*
X2371318Y1580339D1*
X2378503Y1582771D1*
X2390441D1*
X2397627Y1580339D1*
X2402380Y1577963D1*
X2407188Y1573154D1*
X2409565Y1568401D1*
Y1558840D1*
X2407188Y1554031D1*
X2402380Y1549278D1*
X2397627Y1546901D1*
X2390441Y1544470D1*
X2378503D1*
X2371318Y1546901D1*
X2366510Y1549278D1*
X2361701Y1554031D1*
X2359380Y1558840D1*
Y1568401D1*
X2400003Y1561216D2*
X2414373Y1546901D1*
X2368997Y1529030D2*
X2366565Y1524222D1*
X2359435Y1517037D1*
X2409620D1*
X2368997Y1501598D2*
X2366565Y1496789D1*
X2359435Y1489604D1*
X2409620D1*
X1910558Y1579151D2*
X1912879Y1583904D1*
X1917688Y1588713D1*
X1922496Y1591089D1*
X1929681Y1593521D1*
X1941619D1*
X1948804Y1591089D1*
X1953557Y1588713D1*
X1958366Y1583904D1*
X1960743Y1579151D1*
Y1569590D1*
X1958366Y1564781D1*
X1953557Y1560028D1*
X1948804Y1557651D1*
X1941619Y1555219D1*
X1929681D1*
X1922496Y1557651D1*
X1917688Y1560028D1*
X1912879Y1564781D1*
X1910558Y1569590D1*
Y1579151D1*
X1951181Y1571966D2*
X1965551Y1557651D1*
X1920175Y1539780D2*
X1917743Y1534972D1*
X1910613Y1527787D1*
X1960798D1*
X1922551Y1509916D2*
X1920175D1*
X1915366Y1507539D1*
X1912990Y1505163D1*
X1910613Y1500354D1*
Y1490792D1*
X1912990Y1486039D1*
X1915366Y1483663D1*
X1920175Y1481231D1*
X1924928D1*
X1929736Y1483663D1*
X1936866Y1488416D1*
X1960798Y1512347D1*
Y1478854D1*
X2359380Y1729150D2*
X2361701Y1733903D1*
X2366510Y1738711D1*
X2371318Y1741088D1*
X2378503Y1743520D1*
X2390441D1*
X2397627Y1741088D1*
X2402380Y1738711D1*
X2407188Y1733903D1*
X2409565Y1729150D1*
Y1719588D1*
X2407188Y1714780D1*
X2402380Y1710027D1*
X2397627Y1707650D1*
X2390441Y1705218D1*
X2378503D1*
X2371318Y1707650D1*
X2366510Y1710027D1*
X2361701Y1714780D1*
X2359380Y1719588D1*
Y1729150D1*
X2400003Y1721965D2*
X2414373Y1707650D1*
X2368997Y1689779D2*
X2366565Y1684970D1*
X2359435Y1677785D1*
X2409620D1*
X2359435Y1657538D2*
Y1631285D1*
X2378559Y1645600D1*
Y1638415D1*
X2380935Y1633661D1*
X2383312Y1631285D1*
X2390497Y1628853D1*
X2395250D1*
X2402435Y1631285D1*
X2407243Y1636038D1*
X2409620Y1643223D1*
Y1650408D1*
X2407243Y1657538D1*
X2404812Y1659914D1*
X2400058Y1662346D1*
X1910558Y1730338D2*
X1912879Y1735091D1*
X1917688Y1739900D1*
X1922496Y1742276D1*
X1929681Y1744708D1*
X1941619D1*
X1948804Y1742276D1*
X1953557Y1739900D1*
X1958366Y1735091D1*
X1960743Y1730338D1*
Y1720776D1*
X1958366Y1715968D1*
X1953557Y1711215D1*
X1948804Y1708838D1*
X1941619Y1706406D1*
X1929681D1*
X1922496Y1708838D1*
X1917688Y1711215D1*
X1912879Y1715968D1*
X1910558Y1720777D1*
Y1730338D1*
X1951181Y1723153D2*
X1965551Y1708838D1*
X1920175Y1690967D2*
X1917743Y1686159D1*
X1910613Y1678974D1*
X1960798D1*
Y1639603D2*
X1910613D1*
X1944051Y1663534D1*
Y1627665D1*
X2359380Y1879151D2*
X2361701Y1883904D1*
X2366510Y1888713D1*
X2371318Y1891089D1*
X2378503Y1893521D1*
X2390441D1*
X2397627Y1891089D1*
X2402380Y1888713D1*
X2407188Y1883904D1*
X2409565Y1879151D1*
Y1869590D1*
X2407188Y1864781D1*
X2402380Y1860028D1*
X2397627Y1857651D1*
X2390441Y1855219D1*
X2378503D1*
X2371318Y1857651D1*
X2366510Y1860028D1*
X2361701Y1864781D1*
X2359380Y1869590D1*
Y1879151D1*
X2400003Y1871966D2*
X2414373Y1857651D1*
X2368997Y1839780D2*
X2366565Y1834972D1*
X2359435Y1827787D1*
X2409620D1*
X2359435Y1783663D2*
Y1807539D1*
X2380935Y1809916D1*
X2378559Y1807539D1*
X2376127Y1800354D1*
Y1793224D1*
X2378558Y1786039D1*
X2383312Y1781231D1*
X2390497Y1778854D1*
X2395250D1*
X2402435Y1781231D1*
X2407243Y1786039D1*
X2409620Y1793224D1*
Y1800354D1*
X2407243Y1807539D1*
X2404812Y1809916D1*
X2400058Y1812348D1*
X1910558Y1877935D2*
X1912879Y1882688D1*
X1917688Y1887497D1*
X1922496Y1889873D1*
X1929681Y1892305D1*
X1941619D1*
X1948804Y1889873D1*
X1953557Y1887497D1*
X1958366Y1882688D1*
X1960743Y1877935D1*
Y1868374D1*
X1958366Y1863565D1*
X1953558Y1858812D1*
X1948804Y1856435D1*
X1941619Y1854004D1*
X1929681D1*
X1922496Y1856435D1*
X1917688Y1858812D1*
X1912879Y1863565D1*
X1910558Y1868374D1*
Y1877935D1*
X1951181Y1870750D2*
X1965551Y1856435D1*
X1920175Y1838564D2*
X1917743Y1833756D1*
X1910613Y1826571D1*
X1960798D1*
X1917743Y1782447D2*
X1912990Y1784823D1*
X1910613Y1792008D1*
Y1796762D1*
X1912990Y1803947D1*
X1920175Y1808755D1*
X1932113Y1811132D1*
X1944051D1*
X1953613Y1808755D1*
X1958421Y1803947D1*
X1960798Y1796762D1*
Y1794385D1*
X1958421Y1787255D1*
X1953613Y1782447D1*
X1946428Y1780070D1*
X1944051D1*
X1936866Y1782447D1*
X1932113Y1787255D1*
X1929736Y1794385D1*
Y1796762D1*
X1932113Y1803947D1*
X1936866Y1808755D1*
X1944051Y1811132D1*
X2359380Y2029150D2*
X2361701Y2033903D1*
X2366510Y2038711D1*
X2371318Y2041088D1*
X2378503Y2043520D1*
X2390441D1*
X2397627Y2041088D1*
X2402380Y2038711D1*
X2407188Y2033903D1*
X2409565Y2029150D1*
Y2019588D1*
X2407188Y2014780D1*
X2402380Y2010027D1*
X2397627Y2007650D1*
X2390441Y2005218D1*
X2378503D1*
X2371318Y2007650D1*
X2366510Y2010027D1*
X2361701Y2014780D1*
X2359380Y2019588D1*
Y2029150D1*
X2400003Y2021965D2*
X2414373Y2007650D1*
X2368997Y1989779D2*
X2366565Y1984970D1*
X2359435Y1977785D1*
X2409620D1*
Y1952785D2*
X2359435Y1928853D1*
Y1962346D1*
X1910558Y2029122D2*
X1912879Y2033875D1*
X1917688Y2038684D1*
X1922496Y2041060D1*
X1929681Y2043492D1*
X1941619D1*
X1948804Y2041060D1*
X1953557Y2038684D1*
X1958366Y2033875D1*
X1960743Y2029122D1*
Y2019561D1*
X1958366Y2014752D1*
X1953557Y2009999D1*
X1948804Y2007622D1*
X1941619Y2005191D1*
X1929681D1*
X1922496Y2007622D1*
X1917688Y2009999D1*
X1912879Y2014752D1*
X1910558Y2019561D1*
Y2029122D1*
X1951181Y2021937D2*
X1965551Y2007622D1*
X1920175Y1989751D2*
X1917743Y1984943D1*
X1910613Y1977758D1*
X1960798D1*
X1910613Y1950380D2*
X1912990Y1957510D1*
X1917743Y1959942D1*
X1922551D1*
X1927304Y1957510D1*
X1929736Y1952757D1*
X1932113Y1943195D1*
X1934489Y1936010D1*
X1939298Y1931257D1*
X1944051Y1928881D1*
X1951236D1*
X1955989Y1931257D1*
X1958421Y1933634D1*
X1960798Y1940819D1*
Y1950380D1*
X1958421Y1957510D1*
X1955989Y1959942D1*
X1951236Y1962319D1*
X1944051D1*
X1939298Y1959942D1*
X1934490Y1955134D1*
X1932113Y1948004D1*
X1929736Y1938442D1*
X1927304Y1933634D1*
X1922551Y1931257D1*
X1917743D1*
X1912990Y1933634D1*
X1910613Y1940819D1*
Y1950380D1*
X2246880Y2334214D2*
X2249201Y2338967D1*
X2254010Y2343775D1*
X2258818Y2346152D1*
X2266003Y2348584D1*
X2277941D1*
X2285127Y2346152D1*
X2289880Y2343775D1*
X2294688Y2338967D1*
X2297065Y2334214D1*
Y2324652D1*
X2294688Y2319843D1*
X2289880Y2315090D1*
X2285127Y2312714D1*
X2277941Y2310282D1*
X2266003D1*
X2258818Y2312714D1*
X2254010Y2315090D1*
X2249201Y2319843D1*
X2246880Y2324652D1*
Y2334214D1*
X2287503Y2327028D2*
X2301873Y2312714D1*
X2256497Y2294843D2*
X2254065Y2290034D1*
X2246935Y2282849D1*
X2297120D1*
X2263627Y2236293D2*
X2270812Y2238725D1*
X2275620Y2243478D1*
X2277997Y2250663D1*
Y2253040D1*
X2275620Y2260225D1*
X2270812Y2264978D1*
X2263627Y2267410D1*
X2261250D1*
X2254065Y2264978D1*
X2249312Y2260225D1*
X2246935Y2253040D1*
Y2250663D1*
X2249312Y2243478D1*
X2254065Y2238725D1*
X2263627Y2236293D1*
X2275620D1*
X2287558Y2238725D1*
X2294743Y2243478D1*
X2297120Y2250663D1*
Y2255416D1*
X2294743Y2262601D1*
X2289935Y2264978D1*
X2023058Y2339901D2*
X2025379Y2344654D1*
X2030188Y2349463D1*
X2034996Y2351839D1*
X2042181Y2354271D1*
X2054119D1*
X2061304Y2351839D1*
X2066057Y2349463D1*
X2070866Y2344654D1*
X2073243Y2339901D1*
Y2330339D1*
X2070866Y2325531D1*
X2066057Y2320778D1*
X2061304Y2318401D1*
X2054119Y2315969D1*
X2042181D1*
X2034996Y2318401D1*
X2030188Y2320778D1*
X2025379Y2325531D1*
X2023058Y2330339D1*
Y2339901D1*
X2063681Y2332716D2*
X2078051Y2318401D1*
X2035051Y2298098D2*
X2032675D1*
X2027866Y2295722D1*
X2025490Y2293345D1*
X2023113Y2288537D1*
Y2278975D1*
X2025490Y2274222D1*
X2027866Y2271845D1*
X2032675Y2269413D1*
X2037428D1*
X2042236Y2271845D1*
X2049366Y2276598D1*
X2073298Y2300530D1*
Y2267037D1*
X2023113Y2237228D2*
X2025490Y2244413D1*
X2032675Y2249221D1*
X2044613Y2251598D1*
X2051798D1*
X2063736Y2249221D1*
X2070921Y2244413D1*
X2073298Y2237228D1*
Y2232474D1*
X2070921Y2225289D1*
X2063736Y2220536D1*
X2051798Y2218104D1*
X2044613D1*
X2032675Y2220536D1*
X2025490Y2225289D1*
X2023113Y2232474D1*
Y2237228D1*
X2032675Y2220536D2*
X2063736Y2249221D1*
X2359380Y2479151D2*
X2361701Y2483904D1*
X2366510Y2488713D1*
X2371318Y2491089D1*
X2378503Y2493521D1*
X2390441D1*
X2397627Y2491089D1*
X2402380Y2488713D1*
X2407188Y2483904D1*
X2409565Y2479151D1*
Y2469590D1*
X2407188Y2464781D1*
X2402380Y2460028D1*
X2397627Y2457651D1*
X2390441Y2455219D1*
X2378503D1*
X2371318Y2457651D1*
X2366510Y2460028D1*
X2361701Y2464781D1*
X2359380Y2469590D1*
Y2479151D1*
X2400003Y2471966D2*
X2414373Y2457651D1*
X2371374Y2437348D2*
X2368997D1*
X2364188Y2434972D1*
X2361812Y2432595D1*
X2359435Y2427787D1*
Y2418225D1*
X2361812Y2413472D1*
X2364188Y2411095D1*
X2368997Y2408664D1*
X2373750D1*
X2378559Y2411095D1*
X2385688Y2415849D1*
X2409620Y2439780D1*
Y2406287D1*
X2368997Y2390848D2*
X2366565Y2386039D1*
X2359435Y2378854D1*
X2409620D1*
X1910558Y2489901D2*
X1912879Y2494654D1*
X1917688Y2499463D1*
X1922496Y2501839D1*
X1929681Y2504271D1*
X1941619D1*
X1948804Y2501839D1*
X1953557Y2499463D1*
X1958366Y2494654D1*
X1960743Y2489901D1*
Y2480339D1*
X1958366Y2475531D1*
X1953557Y2470778D1*
X1948804Y2468401D1*
X1941619Y2465969D1*
X1929681D1*
X1922496Y2468401D1*
X1917688Y2470778D1*
X1912879Y2475531D1*
X1910558Y2480339D1*
Y2489901D1*
X1951181Y2482716D2*
X1965551Y2468401D1*
X1922551Y2448098D2*
X1920175D1*
X1915366Y2445722D1*
X1912990Y2443345D1*
X1910613Y2438537D1*
Y2428975D1*
X1912990Y2424222D1*
X1915366Y2421845D1*
X1920175Y2419413D1*
X1924928D1*
X1929736Y2421845D1*
X1936866Y2426598D1*
X1960798Y2450530D1*
Y2417037D1*
X1922551Y2399166D2*
X1920175D1*
X1915366Y2396789D1*
X1912990Y2394413D1*
X1910613Y2389604D1*
Y2380043D1*
X1912990Y2375289D1*
X1915366Y2372913D1*
X1920175Y2370481D1*
X1924928D1*
X1929736Y2372913D1*
X1936866Y2377666D1*
X1960798Y2401598D1*
Y2368104D1*
X2359380Y2639901D2*
X2361701Y2644654D1*
X2366510Y2649463D1*
X2371318Y2651839D1*
X2378503Y2654271D1*
X2390441D1*
X2397626Y2651839D1*
X2402380Y2649463D1*
X2407188Y2644654D1*
X2409565Y2639901D1*
Y2630339D1*
X2407188Y2625531D1*
X2402380Y2620778D1*
X2397627Y2618401D1*
X2390441Y2615969D1*
X2378503D1*
X2371318Y2618401D1*
X2366510Y2620778D1*
X2361701Y2625531D1*
X2359380Y2630339D1*
Y2639901D1*
X2400003Y2632716D2*
X2414373Y2618401D1*
X2371374Y2598098D2*
X2368997D1*
X2364188Y2595722D1*
X2361812Y2593345D1*
X2359435Y2588537D1*
Y2578975D1*
X2361812Y2574222D1*
X2364188Y2571845D1*
X2368997Y2569413D1*
X2373750D1*
X2378559Y2571845D1*
X2385688Y2576598D1*
X2409620Y2600530D1*
Y2567037D1*
X2359435Y2546789D2*
Y2520536D1*
X2378559Y2534851D1*
Y2527666D1*
X2380935Y2522913D1*
X2383312Y2520536D1*
X2390497Y2518104D1*
X2395250D1*
X2402435Y2520536D1*
X2407243Y2525289D1*
X2409620Y2532474D1*
Y2539659D1*
X2407243Y2546789D1*
X2404812Y2549166D1*
X2400058Y2551598D1*
X1910558Y2641089D2*
X1912879Y2645843D1*
X1917688Y2650651D1*
X1922496Y2653028D1*
X1929681Y2655459D1*
X1941619D1*
X1948804Y2653028D1*
X1953557Y2650651D1*
X1958366Y2645843D1*
X1960743Y2641089D1*
Y2631528D1*
X1958366Y2626719D1*
X1953557Y2621966D1*
X1948804Y2619590D1*
X1941619Y2617158D1*
X1929681D1*
X1922496Y2619590D1*
X1917688Y2621966D1*
X1912879Y2626719D1*
X1910558Y2631528D1*
Y2641089D1*
X1951181Y2633904D2*
X1965551Y2619590D1*
X1922551Y2599287D2*
X1920175D1*
X1915366Y2596910D1*
X1912990Y2594533D1*
X1910613Y2589725D1*
Y2580163D1*
X1912990Y2575410D1*
X1915366Y2573034D1*
X1920175Y2570602D1*
X1924928D1*
X1929736Y2573034D1*
X1936866Y2577787D1*
X1960798Y2601718D1*
Y2568225D1*
Y2528854D2*
X1910613D1*
X1944051Y2552786D1*
Y2516916D1*
X2359380Y2789901D2*
X2361701Y2794654D1*
X2366510Y2799463D1*
X2371318Y2801839D1*
X2378503Y2804271D1*
X2390441D1*
X2397626Y2801839D1*
X2402380Y2799463D1*
X2407188Y2794654D1*
X2409565Y2789901D1*
Y2780339D1*
X2407188Y2775531D1*
X2402380Y2770778D1*
X2397627Y2768401D1*
X2390441Y2765969D1*
X2378503D1*
X2371318Y2768401D1*
X2366510Y2770778D1*
X2361701Y2775531D1*
X2359380Y2780339D1*
Y2789901D1*
X2400003Y2782716D2*
X2414373Y2768401D1*
X2371374Y2748098D2*
X2368997D1*
X2364188Y2745722D1*
X2361812Y2743345D1*
X2359435Y2738537D1*
Y2728975D1*
X2361812Y2724222D1*
X2364188Y2721845D1*
X2368997Y2719413D1*
X2373750D1*
X2378559Y2721845D1*
X2385688Y2726598D1*
X2409620Y2750530D1*
Y2717037D1*
X2359435Y2672913D2*
Y2696789D1*
X2380935Y2699166D1*
X2378559Y2696789D1*
X2376127Y2689604D1*
Y2682474D1*
X2378558Y2675289D1*
X2383312Y2670481D1*
X2390497Y2668104D1*
X2395250D1*
X2402435Y2670481D1*
X2407243Y2675289D1*
X2409620Y2682474D1*
Y2689604D1*
X2407243Y2696789D1*
X2404812Y2699166D1*
X2400058Y2701598D1*
X1910558Y2788685D2*
X1912879Y2793438D1*
X1917688Y2798247D1*
X1922496Y2800623D1*
X1929681Y2803055D1*
X1941619D1*
X1948804Y2800623D1*
X1953557Y2798247D1*
X1958366Y2793438D1*
X1960743Y2788685D1*
Y2779124D1*
X1958366Y2774315D1*
X1953557Y2769562D1*
X1948804Y2767185D1*
X1941619Y2764753D1*
X1929681D1*
X1922496Y2767185D1*
X1917688Y2769562D1*
X1912879Y2774315D1*
X1910558Y2779124D1*
Y2788685D1*
X1951181Y2781500D2*
X1965551Y2767185D1*
X1922551Y2746882D2*
X1920175D1*
X1915366Y2744506D1*
X1912990Y2742129D1*
X1910613Y2737321D1*
Y2727759D1*
X1912990Y2723006D1*
X1915366Y2720629D1*
X1920175Y2718198D1*
X1924928D1*
X1929736Y2720629D1*
X1936866Y2725383D1*
X1960798Y2749314D1*
Y2715821D1*
X1917743Y2671697D2*
X1912990Y2674073D1*
X1910613Y2681258D1*
Y2686012D1*
X1912990Y2693197D1*
X1920175Y2698005D1*
X1932113Y2700382D1*
X1944051D1*
X1953613Y2698005D1*
X1958421Y2693197D1*
X1960798Y2686012D1*
Y2683635D1*
X1958421Y2676505D1*
X1953613Y2671697D1*
X1946428Y2669320D1*
X1944051D1*
X1936866Y2671697D1*
X1932113Y2676505D1*
X1929736Y2683635D1*
Y2686012D1*
X1932113Y2693197D1*
X1936866Y2698005D1*
X1944051Y2700382D1*
X2246880Y3089901D2*
X2249201Y3094654D1*
X2254010Y3099463D1*
X2258818Y3101839D1*
X2266003Y3104271D1*
X2277941D1*
X2285126Y3101839D1*
X2289880Y3099463D1*
X2294688Y3094654D1*
X2297065Y3089901D1*
Y3080339D1*
X2294688Y3075531D1*
X2289880Y3070778D1*
X2285127Y3068401D1*
X2277941Y3065969D1*
X2266003D1*
X2258818Y3068401D1*
X2254010Y3070778D1*
X2249201Y3075531D1*
X2246880Y3080339D1*
Y3089901D1*
X2287503Y3082716D2*
X2301873Y3068401D1*
X2258874Y3048098D2*
X2256497D1*
X2251688Y3045722D1*
X2249312Y3043345D1*
X2246935Y3038537D1*
Y3028975D1*
X2249312Y3024222D1*
X2251688Y3021845D1*
X2256497Y3019413D1*
X2261250D1*
X2266059Y3021845D1*
X2273188Y3026598D1*
X2297120Y3050530D1*
Y3017037D1*
Y2992036D2*
X2246935Y2968104D1*
Y3001598D1*
X2016807Y3089873D2*
X2019128Y3094627D1*
X2023937Y3099435D1*
X2028745Y3101812D1*
X2035930Y3104244D1*
X2047869D1*
X2055054Y3101812D1*
X2059807Y3099435D1*
X2064615Y3094627D1*
X2066992Y3089873D1*
Y3080312D1*
X2064615Y3075503D1*
X2059807Y3070750D1*
X2055054Y3068374D1*
X2047869Y3065942D1*
X2035930D1*
X2028745Y3068374D1*
X2023937Y3070750D1*
X2019128Y3075503D1*
X2016807Y3080312D1*
Y3089873D1*
X2057430Y3082688D2*
X2071800Y3068374D1*
X2028801Y3048071D2*
X2026424D1*
X2021616Y3045694D1*
X2019239Y3043317D1*
X2016862Y3038509D1*
Y3028947D1*
X2019239Y3024194D1*
X2021616Y3021818D1*
X2026424Y3019386D1*
X2031177D1*
X2035986Y3021818D1*
X2043115Y3026571D1*
X2067047Y3050502D1*
Y3017009D1*
X2016862Y2989632D2*
X2019239Y2996762D1*
X2023992Y2999193D1*
X2028801D1*
X2033554Y2996762D1*
X2035986Y2992008D1*
X2038362Y2982447D1*
X2040739Y2975262D1*
X2045547Y2970509D1*
X2050300Y2968132D1*
X2057485D1*
X2062239Y2970509D1*
X2064671Y2972885D1*
X2067047Y2980070D1*
Y2989632D1*
X2064671Y2996761D1*
X2062239Y2999193D1*
X2057486Y3001570D1*
X2050301D1*
X2045547Y2999193D1*
X2040739Y2994385D1*
X2038362Y2987255D1*
X2035986Y2977694D1*
X2033554Y2972885D1*
X2028801Y2970509D1*
X2023992D1*
X2019239Y2972885D1*
X2016862Y2980070D1*
Y2989632D1*
X2359380Y3238713D2*
X2361701Y3243466D1*
X2366510Y3248274D1*
X2371318Y3250651D1*
X2378503Y3253083D1*
X2390441D1*
X2397626Y3250651D1*
X2402380Y3248274D1*
X2407188Y3243466D1*
X2409565Y3238713D1*
Y3229151D1*
X2407188Y3224343D1*
X2402380Y3219590D1*
X2397627Y3217213D1*
X2390441Y3214781D1*
X2378503D1*
X2371318Y3217213D1*
X2366510Y3219590D1*
X2361701Y3224343D1*
X2359380Y3229151D1*
Y3238713D1*
X2400003Y3231528D2*
X2414373Y3217213D1*
X2371374Y3196910D2*
X2368997D1*
X2364188Y3194533D1*
X2361812Y3192157D1*
X2359435Y3187348D1*
Y3177787D1*
X2361812Y3173034D1*
X2364188Y3170657D1*
X2368997Y3168225D1*
X2373750D1*
X2378559Y3170657D1*
X2385688Y3175410D1*
X2409620Y3199342D1*
Y3165848D1*
X2376127Y3119293D2*
X2383312Y3121724D1*
X2388120Y3126478D1*
X2390497Y3133663D1*
Y3136039D1*
X2388120Y3143224D1*
X2383312Y3147977D1*
X2376127Y3150409D1*
X2373750D1*
X2366565Y3147977D1*
X2361812Y3143224D1*
X2359435Y3136039D1*
Y3133663D1*
X2361812Y3126478D1*
X2366565Y3121724D1*
X2376127Y3119293D1*
X2388120D1*
X2400058Y3121724D1*
X2407243Y3126478D1*
X2409620Y3133663D1*
Y3138416D1*
X2407243Y3145601D1*
X2402435Y3147977D1*
X1910558Y3239901D2*
X1912879Y3244654D1*
X1917688Y3249463D1*
X1922496Y3251839D1*
X1929681Y3254271D1*
X1941619D1*
X1948804Y3251839D1*
X1953557Y3249463D1*
X1958366Y3244654D1*
X1960743Y3239901D1*
Y3230339D1*
X1958366Y3225531D1*
X1953557Y3220778D1*
X1948804Y3218401D1*
X1941619Y3215969D1*
X1929681D1*
X1922496Y3218401D1*
X1917688Y3220778D1*
X1912879Y3225531D1*
X1910558Y3230339D1*
Y3239901D1*
X1951181Y3232716D2*
X1965551Y3218401D1*
X1910613Y3195722D2*
Y3169469D1*
X1929736Y3183783D1*
Y3176598D1*
X1932113Y3171845D1*
X1934490Y3169469D1*
X1941675Y3167037D1*
X1946428D1*
X1953613Y3169469D1*
X1958421Y3174222D1*
X1960798Y3181407D1*
Y3188592D1*
X1958421Y3195722D1*
X1955989Y3198098D1*
X1951236Y3200530D1*
X1910613Y3137228D2*
X1912990Y3144413D1*
X1920175Y3149221D1*
X1932113Y3151598D1*
X1939298D1*
X1951236Y3149221D1*
X1958421Y3144413D1*
X1960798Y3137228D1*
Y3132474D1*
X1958421Y3125289D1*
X1951236Y3120536D1*
X1939298Y3118104D1*
X1932113D1*
X1920175Y3120536D1*
X1912990Y3125289D1*
X1910613Y3132474D1*
Y3137228D1*
X1920175Y3120536D2*
X1951236Y3149221D1*
X2359380Y3379151D2*
X2361701Y3383904D1*
X2366510Y3388713D1*
X2371318Y3391089D1*
X2378503Y3393521D1*
X2390441D1*
X2397627Y3391089D1*
X2402380Y3388713D1*
X2407188Y3383904D1*
X2409565Y3379151D1*
Y3369590D1*
X2407188Y3364781D1*
X2402380Y3360028D1*
X2397627Y3357651D1*
X2390441Y3355219D1*
X2378503D1*
X2371318Y3357651D1*
X2366510Y3360028D1*
X2361701Y3364781D1*
X2359380Y3369590D1*
Y3379151D1*
X2400003Y3371966D2*
X2414373Y3357651D1*
X2359435Y3334972D2*
Y3308719D1*
X2378559Y3323034D1*
Y3315849D1*
X2380935Y3311095D1*
X2383312Y3308719D1*
X2390497Y3306287D1*
X2395250D1*
X2402435Y3308719D1*
X2407243Y3313472D1*
X2409620Y3320657D1*
Y3327842D1*
X2407243Y3334972D1*
X2404812Y3337348D1*
X2400058Y3339780D1*
X2368997Y3290848D2*
X2366565Y3286039D1*
X2359435Y3278854D1*
X2409620D1*
X1910558Y3389901D2*
X1912879Y3394654D1*
X1917688Y3399463D1*
X1922496Y3401839D1*
X1929681Y3404271D1*
X1941619D1*
X1948804Y3401839D1*
X1953557Y3399463D1*
X1958366Y3394654D1*
X1960743Y3389901D1*
Y3380339D1*
X1958366Y3375531D1*
X1953557Y3370778D1*
X1948804Y3368401D1*
X1941619Y3365969D1*
X1929681D1*
X1922496Y3368401D1*
X1917688Y3370778D1*
X1912879Y3375531D1*
X1910558Y3380339D1*
Y3389901D1*
X1951181Y3382716D2*
X1965551Y3368401D1*
X1910613Y3345722D2*
Y3319469D1*
X1929736Y3333783D1*
Y3326598D1*
X1932113Y3321845D1*
X1934490Y3319469D1*
X1941675Y3317037D1*
X1946428D1*
X1953613Y3319469D1*
X1958421Y3324222D1*
X1960798Y3331407D1*
Y3338592D1*
X1958421Y3345722D1*
X1955989Y3348098D1*
X1951236Y3350530D1*
X1922551Y3299166D2*
X1920175D1*
X1915366Y3296789D1*
X1912990Y3294413D1*
X1910613Y3289604D1*
Y3280043D1*
X1912990Y3275289D1*
X1915366Y3272913D1*
X1920175Y3270481D1*
X1924928D1*
X1929736Y3272913D1*
X1936866Y3277666D1*
X1960798Y3301598D1*
Y3268104D1*
X2359380Y3539901D2*
X2361701Y3544654D1*
X2366510Y3549463D1*
X2371318Y3551839D1*
X2378503Y3554271D1*
X2390441D1*
X2397626Y3551839D1*
X2402380Y3549463D1*
X2407188Y3544654D1*
X2409565Y3539901D1*
Y3530339D1*
X2407188Y3525531D1*
X2402380Y3520778D1*
X2397627Y3518401D1*
X2390441Y3515969D1*
X2378503D1*
X2371318Y3518401D1*
X2366510Y3520778D1*
X2361701Y3525531D1*
X2359380Y3530339D1*
Y3539901D1*
X2400003Y3532716D2*
X2414373Y3518401D1*
X2359435Y3495722D2*
Y3469469D1*
X2378559Y3483783D1*
Y3476598D1*
X2380935Y3471845D1*
X2383312Y3469469D1*
X2390497Y3467037D1*
X2395250D1*
X2402435Y3469469D1*
X2407243Y3474222D1*
X2409620Y3481407D1*
Y3488592D1*
X2407243Y3495722D1*
X2404812Y3498098D1*
X2400058Y3500530D1*
X2359435Y3446789D2*
Y3420536D1*
X2378559Y3434851D1*
Y3427666D1*
X2380935Y3422913D1*
X2383312Y3420536D1*
X2390497Y3418104D1*
X2395250D1*
X2402435Y3420536D1*
X2407243Y3425289D1*
X2409620Y3432474D1*
Y3439659D1*
X2407243Y3446789D1*
X2404812Y3449166D1*
X2400058Y3451598D1*
X1916808Y3541089D2*
X1919130Y3545843D1*
X1923938Y3550651D1*
X1928747Y3553028D1*
X1935932Y3555459D1*
X1947870D1*
X1955055Y3553028D1*
X1959808Y3550651D1*
X1964617Y3545843D1*
X1966993Y3541089D1*
Y3531528D1*
X1964617Y3526719D1*
X1959808Y3521966D1*
X1955055Y3519590D1*
X1947870Y3517158D1*
X1935932D1*
X1928747Y3519590D1*
X1923938Y3521966D1*
X1919130Y3526719D1*
X1916808Y3531528D1*
Y3541089D1*
X1957432Y3533904D2*
X1971802Y3519590D1*
X1916864Y3496910D2*
Y3470657D1*
X1935987Y3484972D1*
Y3477787D1*
X1938364Y3473034D1*
X1940740Y3470657D1*
X1947925Y3468225D1*
X1952678D1*
X1959863Y3470657D1*
X1964672Y3475410D1*
X1967048Y3482595D1*
Y3489780D1*
X1964672Y3496910D1*
X1962240Y3499287D1*
X1957487Y3501718D1*
X1967048Y3428854D2*
X1916864D1*
X1950302Y3452786D1*
Y3416916D1*
X2259380Y3839901D2*
X2261701Y3844654D1*
X2266510Y3849463D1*
X2271318Y3851839D1*
X2278503Y3854271D1*
X2290441D1*
X2297626Y3851839D1*
X2302380Y3849463D1*
X2307188Y3844654D1*
X2309565Y3839901D1*
Y3830339D1*
X2307188Y3825531D1*
X2302380Y3820778D1*
X2297627Y3818401D1*
X2290441Y3815969D1*
X2278503D1*
X2271318Y3818401D1*
X2266510Y3820778D1*
X2261701Y3825531D1*
X2259380Y3830339D1*
Y3839901D1*
X2300003Y3832716D2*
X2314373Y3818401D1*
X2259435Y3795722D2*
Y3769469D1*
X2278559Y3783783D1*
Y3776598D1*
X2280935Y3771845D1*
X2283312Y3769469D1*
X2290497Y3767037D1*
X2295250D1*
X2302435Y3769469D1*
X2307243Y3774222D1*
X2309620Y3781407D1*
Y3788592D1*
X2307243Y3795722D1*
X2304812Y3798098D1*
X2300058Y3800530D1*
X2259435Y3722913D2*
Y3746789D1*
X2280935Y3749166D1*
X2278559Y3746789D1*
X2276127Y3739604D1*
Y3732474D1*
X2278558Y3725289D1*
X2283312Y3720481D1*
X2290497Y3718104D1*
X2295250D1*
X2302435Y3720481D1*
X2307243Y3725289D1*
X2309620Y3732474D1*
Y3739604D1*
X2307243Y3746789D1*
X2304812Y3749166D1*
X2300058Y3751598D1*
X2029307Y3838685D2*
X2031628Y3843438D1*
X2036437Y3848247D1*
X2041245Y3850623D1*
X2048430Y3853055D1*
X2060369D1*
X2067554Y3850623D1*
X2072307Y3848247D1*
X2077115Y3843438D1*
X2079492Y3838685D1*
Y3829124D1*
X2077115Y3824315D1*
X2072307Y3819562D1*
X2067554Y3817185D1*
X2060369Y3814753D1*
X2048430D1*
X2041245Y3817185D1*
X2036437Y3819562D1*
X2031628Y3824315D1*
X2029307Y3829124D1*
Y3838685D1*
X2069930Y3831500D2*
X2084300Y3817185D1*
X2029362Y3794506D2*
Y3768253D1*
X2048486Y3782568D1*
Y3775383D1*
X2050862Y3770629D1*
X2053239Y3768253D1*
X2060424Y3765821D1*
X2065177D1*
X2072362Y3768253D1*
X2077171Y3773006D1*
X2079547Y3780191D1*
Y3787376D1*
X2077171Y3794506D1*
X2074739Y3796882D1*
X2069986Y3799314D1*
X2036492Y3721697D2*
X2031739Y3724073D1*
X2029362Y3731258D1*
Y3736012D1*
X2031739Y3743197D1*
X2038924Y3748005D1*
X2050862Y3750382D1*
X2062801D1*
X2072362Y3748005D1*
X2077171Y3743197D1*
X2079547Y3736012D1*
Y3733635D1*
X2077171Y3726505D1*
X2072362Y3721697D1*
X2065177Y3719320D1*
X2062800D1*
X2055615Y3721697D1*
X2050862Y3726505D1*
X2048486Y3733635D1*
Y3736012D1*
X2050862Y3743197D1*
X2055615Y3748005D1*
X2062801Y3750382D1*
X2259380Y5189901D2*
X2261701Y5194654D1*
X2266510Y5199463D1*
X2271318Y5201839D1*
X2278503Y5204271D1*
X2290441D1*
X2297626Y5201839D1*
X2302380Y5199463D1*
X2307188Y5194654D1*
X2309565Y5189901D1*
Y5180339D1*
X2307188Y5175531D1*
X2302380Y5170778D1*
X2297627Y5168401D1*
X2290441Y5165969D1*
X2278503D1*
X2271318Y5168401D1*
X2266510Y5170778D1*
X2261701Y5175531D1*
X2259380Y5180339D1*
Y5189901D1*
X2300003Y5182716D2*
X2314373Y5168401D1*
X2259435Y5145722D2*
Y5119469D1*
X2278559Y5133783D1*
Y5126598D1*
X2280935Y5121845D1*
X2283312Y5119469D1*
X2290497Y5117037D1*
X2295250D1*
X2302435Y5119469D1*
X2307243Y5124222D1*
X2309620Y5131407D1*
Y5138592D1*
X2307243Y5145722D1*
X2304812Y5148098D1*
X2300058Y5150530D1*
X2309620Y5092036D2*
X2259435Y5068104D1*
Y5101598D1*
X2023058Y5196123D2*
X2025379Y5200876D1*
X2030188Y5205684D1*
X2034996Y5208061D1*
X2042181Y5210493D1*
X2054119D1*
X2061304Y5208061D1*
X2066057Y5205684D1*
X2070866Y5200876D1*
X2073243Y5196123D1*
Y5186561D1*
X2070866Y5181753D1*
X2066057Y5177000D1*
X2061304Y5174623D1*
X2054119Y5172191D1*
X2042181D1*
X2034996Y5174623D1*
X2030188Y5177000D1*
X2025379Y5181753D1*
X2023058Y5186561D1*
Y5196123D1*
X2063681Y5188938D2*
X2078051Y5174623D1*
X2023113Y5151943D2*
Y5125690D1*
X2042236Y5140005D1*
Y5132820D1*
X2044613Y5128067D1*
X2046990Y5125690D1*
X2054175Y5123259D1*
X2058928D1*
X2066113Y5125690D1*
X2070921Y5130444D1*
X2073298Y5137629D1*
Y5144814D1*
X2070921Y5151943D1*
X2068489Y5154320D1*
X2063736Y5156752D1*
X2023113Y5095881D2*
X2025490Y5103011D1*
X2030243Y5105443D1*
X2035051D1*
X2039804Y5103011D1*
X2042236Y5098258D1*
X2044613Y5088696D1*
X2046989Y5081511D1*
X2051798Y5076758D1*
X2056551Y5074381D1*
X2063736D1*
X2068489Y5076758D1*
X2070921Y5079134D1*
X2073298Y5086319D1*
Y5095881D1*
X2070921Y5103011D1*
X2068489Y5105443D1*
X2063736Y5107819D1*
X2056551D1*
X2051798Y5105443D1*
X2046990Y5100634D1*
X2044613Y5093505D1*
X2042236Y5083943D1*
X2039804Y5079134D1*
X2035051Y5076758D1*
X2030243D1*
X2025490Y5079134D1*
X2023113Y5086320D1*
Y5095881D1*
X2246880Y4888713D2*
X2249201Y4893466D1*
X2254010Y4898274D1*
X2258818Y4900651D1*
X2266003Y4903083D1*
X2277941D1*
X2285126Y4900651D1*
X2289880Y4898274D1*
X2294688Y4893466D1*
X2297065Y4888713D1*
Y4879151D1*
X2294688Y4874343D1*
X2289880Y4869590D1*
X2285127Y4867213D1*
X2277941Y4864781D1*
X2266003D1*
X2258818Y4867213D1*
X2254010Y4869590D1*
X2249201Y4874343D1*
X2246880Y4879151D1*
Y4888713D1*
X2287503Y4881528D2*
X2301873Y4867213D1*
X2246935Y4844533D2*
Y4818280D1*
X2266059Y4832595D1*
Y4825410D1*
X2268435Y4820657D1*
X2270812Y4818280D1*
X2277997Y4815849D1*
X2282750D1*
X2289935Y4818280D1*
X2294743Y4823034D1*
X2297120Y4830219D1*
Y4837404D1*
X2294743Y4844533D1*
X2292312Y4846910D1*
X2287558Y4849342D1*
X2263627Y4769293D2*
X2270812Y4771724D1*
X2275620Y4776478D1*
X2277997Y4783663D1*
Y4786039D1*
X2275620Y4793224D1*
X2270812Y4797977D1*
X2263627Y4800409D1*
X2261250D1*
X2254065Y4797977D1*
X2249312Y4793224D1*
X2246935Y4786039D1*
Y4783663D1*
X2249312Y4776478D1*
X2254065Y4771724D1*
X2263627Y4769293D1*
X2275620D1*
X2287558Y4771724D1*
X2294743Y4776478D1*
X2297120Y4783663D1*
Y4788416D1*
X2294743Y4795601D1*
X2289935Y4797977D1*
X2010558Y4891089D2*
X2012879Y4895843D1*
X2017688Y4900651D1*
X2022496Y4903028D1*
X2029681Y4905459D1*
X2041619D1*
X2048804Y4903028D1*
X2053557Y4900651D1*
X2058366Y4895843D1*
X2060743Y4891089D1*
Y4881528D1*
X2058366Y4876719D1*
X2053557Y4871966D1*
X2048804Y4869590D1*
X2041619Y4867158D1*
X2029681D1*
X2022496Y4869590D1*
X2017688Y4871966D1*
X2012879Y4876719D1*
X2010558Y4881528D1*
Y4891089D1*
X2051181Y4883904D2*
X2065551Y4869590D1*
X2060798Y4827787D2*
X2010613D1*
X2044051Y4851718D1*
Y4815849D1*
X2010613Y4786039D2*
X2012990Y4793224D1*
X2020175Y4798033D1*
X2032113Y4800409D1*
X2039298D1*
X2051236Y4798033D1*
X2058421Y4793224D1*
X2060798Y4786039D1*
Y4781286D1*
X2058421Y4774101D1*
X2051236Y4769348D1*
X2039298Y4766916D1*
X2032113D1*
X2020175Y4769348D1*
X2012990Y4774101D1*
X2010613Y4781286D1*
Y4786039D1*
X2020175Y4769348D2*
X2051236Y4798033D1*
X2246880Y4586589D2*
X2249201Y4591342D1*
X2254010Y4596150D1*
X2258818Y4598527D1*
X2266003Y4600959D1*
X2277941D1*
X2285127Y4598527D1*
X2289880Y4596150D1*
X2294688Y4591342D1*
X2297065Y4586589D1*
Y4577027D1*
X2294688Y4572219D1*
X2289880Y4567466D1*
X2285127Y4565089D1*
X2277941Y4562657D1*
X2266003D1*
X2258818Y4565089D1*
X2254010Y4567466D1*
X2249201Y4572219D1*
X2246880Y4577027D1*
Y4586589D1*
X2287503Y4579404D2*
X2301873Y4565089D1*
X2297120Y4523286D2*
X2246935D1*
X2280373Y4547218D1*
Y4511348D1*
X2256497Y4495909D2*
X2254065Y4491100D1*
X2246935Y4483915D1*
X2297120D1*
X2023058Y4584839D2*
X2025379Y4589592D1*
X2030188Y4594400D1*
X2034996Y4596777D1*
X2042181Y4599209D1*
X2054119D1*
X2061304Y4596777D1*
X2066057Y4594400D1*
X2070866Y4589592D1*
X2073243Y4584839D1*
Y4575277D1*
X2070866Y4570469D1*
X2066057Y4565715D1*
X2061304Y4563339D1*
X2054119Y4560907D1*
X2042181D1*
X2034996Y4563339D1*
X2030188Y4565715D1*
X2025379Y4570469D1*
X2023058Y4575277D1*
Y4584839D1*
X2063681Y4577654D2*
X2078051Y4563339D1*
X2073298Y4521536D2*
X2023113D1*
X2056551Y4545468D1*
Y4509598D1*
X2035051Y4491727D2*
X2032675D1*
X2027866Y4489350D1*
X2025490Y4486974D1*
X2023113Y4482165D1*
Y4472604D1*
X2025490Y4467850D1*
X2027866Y4465474D1*
X2032675Y4463042D1*
X2037428D1*
X2042236Y4465474D1*
X2049366Y4470227D1*
X2073298Y4494159D1*
Y4460665D1*
X2359380Y4291089D2*
X2361701Y4295843D1*
X2366510Y4300651D1*
X2371318Y4303028D1*
X2378503Y4305459D1*
X2390441D1*
X2397626Y4303028D1*
X2402380Y4300651D1*
X2407188Y4295843D1*
X2409565Y4291089D1*
Y4281528D1*
X2407188Y4276719D1*
X2402380Y4271966D1*
X2397627Y4269590D1*
X2390441Y4267158D1*
X2378503D1*
X2371318Y4269590D1*
X2366510Y4271966D1*
X2361701Y4276719D1*
X2359380Y4281528D1*
Y4291089D1*
X2400003Y4283904D2*
X2414373Y4269590D1*
X2409620Y4227787D2*
X2359435D1*
X2392873Y4251718D1*
Y4215849D1*
X2359435Y4195601D2*
Y4169348D1*
X2378559Y4183663D1*
Y4176478D1*
X2380935Y4171724D1*
X2383312Y4169348D1*
X2390497Y4166916D1*
X2395250D1*
X2402435Y4169348D1*
X2407243Y4174101D1*
X2409620Y4181286D1*
Y4188471D1*
X2407243Y4195601D1*
X2404812Y4197977D1*
X2400058Y4200409D1*
X1910558Y4292278D2*
X1912879Y4297031D1*
X1917688Y4301839D1*
X1922496Y4304216D1*
X1929681Y4306648D1*
X1941619D1*
X1948804Y4304216D1*
X1953557Y4301839D1*
X1958366Y4297031D1*
X1960743Y4292278D1*
Y4282716D1*
X1958366Y4277908D1*
X1953557Y4273154D1*
X1948804Y4270778D1*
X1941619Y4268346D1*
X1929681D1*
X1922496Y4270778D1*
X1917688Y4273154D1*
X1912879Y4277908D1*
X1910558Y4282716D1*
Y4292278D1*
X1951181Y4285093D2*
X1965551Y4270778D1*
X1960798Y4228975D2*
X1910613D1*
X1944051Y4252907D1*
Y4217037D1*
X1960798Y4177666D2*
X1910613D1*
X1944051Y4201598D1*
Y4165728D1*
X2359380Y4141089D2*
X2361701Y4145843D1*
X2366510Y4150651D1*
X2371318Y4153028D1*
X2378503Y4155459D1*
X2390441D1*
X2397626Y4153028D1*
X2402380Y4150651D1*
X2407188Y4145843D1*
X2409565Y4141089D1*
Y4131528D1*
X2407188Y4126719D1*
X2402380Y4121966D1*
X2397627Y4119590D1*
X2390441Y4117158D1*
X2378503D1*
X2371318Y4119590D1*
X2366510Y4121966D1*
X2361701Y4126719D1*
X2359380Y4131528D1*
Y4141089D1*
X2400003Y4133904D2*
X2414373Y4119590D1*
X2409620Y4077787D2*
X2359435D1*
X2392873Y4101718D1*
Y4065849D1*
X2359435Y4021724D2*
Y4045601D1*
X2380935Y4047977D1*
X2378559Y4045601D1*
X2376127Y4038416D1*
Y4031286D1*
X2378558Y4024101D1*
X2383312Y4019293D1*
X2390497Y4016916D1*
X2395250D1*
X2402435Y4019293D1*
X2407243Y4024101D1*
X2409620Y4031286D1*
Y4038416D1*
X2407243Y4045601D1*
X2404812Y4047977D1*
X2400058Y4050409D1*
X1910558Y4139873D2*
X1912879Y4144627D1*
X1917688Y4149435D1*
X1922496Y4151812D1*
X1929681Y4154244D1*
X1941619D1*
X1948804Y4151812D1*
X1953557Y4149435D1*
X1958366Y4144627D1*
X1960743Y4139873D1*
Y4130312D1*
X1958366Y4125503D1*
X1953557Y4120750D1*
X1948804Y4118374D1*
X1941619Y4115942D1*
X1929681D1*
X1922496Y4118374D1*
X1917688Y4120750D1*
X1912879Y4125503D1*
X1910558Y4130312D1*
Y4139873D1*
X1951181Y4132688D2*
X1965551Y4118374D1*
X1960798Y4076571D2*
X1910613D1*
X1944051Y4100502D1*
Y4064633D1*
X1917743Y4020509D2*
X1912990Y4022885D1*
X1910613Y4030070D1*
Y4034823D1*
X1912990Y4042008D1*
X1920175Y4046817D1*
X1932113Y4049193D1*
X1944051D1*
X1953613Y4046817D1*
X1958421Y4042008D1*
X1960798Y4034823D1*
Y4032447D1*
X1958421Y4025317D1*
X1953613Y4020509D1*
X1946428Y4018132D1*
X1944051D1*
X1936866Y4020509D1*
X1932113Y4025317D1*
X1929736Y4032447D1*
Y4034823D1*
X1932113Y4042008D1*
X1936866Y4046817D1*
X1944051Y4049193D1*
X2359380Y3984839D2*
X2361701Y3989592D1*
X2366510Y3994400D1*
X2371318Y3996777D1*
X2378503Y3999209D1*
X2390441D1*
X2397626Y3996777D1*
X2402380Y3994400D1*
X2407188Y3989592D1*
X2409565Y3984839D1*
Y3975277D1*
X2407188Y3970469D1*
X2402380Y3965715D1*
X2397627Y3963339D1*
X2390441Y3960907D1*
X2378503D1*
X2371318Y3963339D1*
X2366510Y3965715D1*
X2361701Y3970469D1*
X2359380Y3975277D1*
Y3984839D1*
X2400003Y3977654D2*
X2414373Y3963339D1*
X2409620Y3921536D2*
X2359435D1*
X2392873Y3945468D1*
Y3909598D1*
X2409620Y3884597D2*
X2359435Y3860665D1*
Y3894159D1*
X1910558Y3991062D2*
X1912879Y3995815D1*
X1917688Y4000623D1*
X1922496Y4003000D1*
X1929681Y4005432D1*
X1941619D1*
X1948804Y4003000D1*
X1953557Y4000623D1*
X1958366Y3995815D1*
X1960743Y3991062D1*
Y3981500D1*
X1958366Y3976692D1*
X1953557Y3971938D1*
X1948804Y3969562D1*
X1941619Y3967130D1*
X1929681D1*
X1922496Y3969562D1*
X1917688Y3971938D1*
X1912879Y3976692D1*
X1910558Y3981500D1*
Y3991062D1*
X1951181Y3983877D2*
X1965551Y3969562D1*
X1960798Y3927759D2*
X1910613D1*
X1944051Y3951691D1*
Y3915821D1*
X1910613Y3888443D2*
X1912990Y3895573D1*
X1917743Y3898005D1*
X1922551D1*
X1927304Y3895573D1*
X1929736Y3890820D1*
X1932113Y3881258D1*
X1934489Y3874073D1*
X1939298Y3869320D1*
X1944051Y3866944D1*
X1951236D1*
X1955989Y3869320D1*
X1958421Y3871697D1*
X1960798Y3878882D1*
Y3888443D1*
X1958421Y3895573D1*
X1955989Y3898005D1*
X1951236Y3900382D1*
X1944051D1*
X1939298Y3898005D1*
X1934490Y3893197D1*
X1932113Y3886067D1*
X1929736Y3876505D1*
X1927304Y3871697D1*
X1922551Y3869320D1*
X1917743D1*
X1912990Y3871697D1*
X1910613Y3878882D1*
Y3888443D1*
X1250296Y1003425D2*
X1228797D1*
X1221611Y1005857D1*
X1219180Y1008234D1*
X1216803Y1012987D1*
Y1017795D1*
X1219180Y1022548D1*
X1221611Y1024980D1*
X1228797Y1027357D1*
X1250296D1*
Y977117D1*
X1233550Y1003425D2*
X1216803Y977117D1*
X1201364Y1017740D2*
X1196555Y1020172D1*
X1189370Y1027302D1*
Y977117D1*
X1245248Y534676D2*
X1223749D1*
X1216564Y537108D1*
X1214132Y539484D1*
X1211755Y544238D1*
Y549046D1*
X1214132Y553799D1*
X1216564Y556231D1*
X1223749Y558608D1*
X1245248D1*
Y508368D1*
X1228502Y534676D2*
X1211755Y508368D1*
X1193884Y546614D2*
Y548991D1*
X1191507Y553799D1*
X1189131Y556176D1*
X1184322Y558552D1*
X1174761D1*
X1170008Y556176D1*
X1167631Y553799D1*
X1165199Y548991D1*
Y544238D1*
X1167631Y539429D1*
X1172384Y532299D1*
X1196316Y508368D1*
X1162822D1*
X1247315Y909676D2*
X1225815D1*
X1218630Y912108D1*
X1216199Y914484D1*
X1213822Y919238D1*
Y924046D1*
X1216199Y928799D1*
X1218630Y931231D1*
X1225815Y933608D1*
X1247315D1*
Y883368D1*
X1230569Y909676D2*
X1213822Y883368D1*
X1193574Y933552D2*
X1167321D1*
X1181636Y914429D1*
X1174451D1*
X1169698Y912052D1*
X1167321Y909676D1*
X1164889Y902491D1*
Y897738D1*
X1167321Y890553D1*
X1172074Y885744D1*
X1179259Y883368D1*
X1186445D1*
X1193574Y885744D1*
X1195951Y888176D1*
X1198383Y892929D1*
X1249735Y634675D2*
X1228235D1*
X1221050Y637106D1*
X1218618Y639483D1*
X1216241Y644236D1*
Y649045D1*
X1218618Y653798D1*
X1221050Y656230D1*
X1228235Y658606D1*
X1249735D1*
Y608366D1*
X1232988Y634675D2*
X1216241Y608366D1*
X1176870D2*
Y658551D1*
X1200802Y625113D1*
X1164932D1*
X2158251Y867297D2*
Y845797D1*
X2155819Y838612D1*
X2153443Y836180D1*
X2148689Y833804D1*
X2143881D1*
X2139128Y836180D1*
X2136696Y838612D1*
X2134319Y845797D1*
Y867297D1*
X2184559D1*
X2158251Y850550D2*
X2184559Y833804D1*
X2134375Y789680D2*
Y813556D1*
X2155874Y815933D1*
X2153498Y813556D1*
X2151066Y806371D1*
Y799241D1*
X2153498Y792056D1*
X2158251Y787248D1*
X2165436Y784871D1*
X2170189D1*
X2177374Y787248D1*
X2182183Y792056D1*
X2184559Y799241D1*
Y806371D1*
X2182183Y813556D1*
X2179751Y815933D1*
X2174998Y818364D1*
X2589120Y1022330D2*
Y1000831D1*
X2586688Y993646D1*
X2584312Y991214D1*
X2579558Y988837D1*
X2574750D1*
X2569997Y991214D1*
X2567565Y993646D1*
X2565188Y1000831D1*
Y1022330D1*
X2615428D1*
X2589120Y1005584D2*
X2615428Y988837D1*
X2572373Y944713D2*
X2567620Y947090D1*
X2565244Y954275D1*
Y959028D1*
X2567620Y966213D1*
X2574805Y971021D1*
X2586744Y973398D1*
X2598682D1*
X2608243Y971021D1*
X2613052Y966213D1*
X2615428Y959028D1*
Y956651D1*
X2613052Y949521D1*
X2608243Y944713D1*
X2601058Y942336D1*
X2598682D1*
X2591497Y944713D1*
X2586743Y949521D1*
X2584367Y956651D1*
Y959028D1*
X2586744Y966213D1*
X2591497Y971021D1*
X2598682Y973398D1*
X1858633Y986046D2*
Y964546D1*
X1856201Y957361D1*
X1853824Y954930D1*
X1849071Y952553D1*
X1844263D1*
X1839509Y954930D1*
X1837077Y957361D1*
X1834701Y964547D1*
Y986046D1*
X1884941D1*
X1858633Y969300D2*
X1884941Y952553D1*
Y927552D2*
X1834756Y903621D1*
Y937114D1*
X2158251Y1436019D2*
Y1414519D1*
X2155819Y1407334D1*
X2153443Y1404902D1*
X2148689Y1402525D1*
X2143881D1*
X2139128Y1404902D1*
X2136696Y1407334D1*
X2134319Y1414519D1*
Y1436019D1*
X2184559D1*
X2158251Y1419272D2*
X2184559Y1402525D1*
X2134375Y1375148D2*
X2136751Y1382278D1*
X2141504Y1384710D1*
X2146313D1*
X2151066Y1382278D1*
X2153498Y1377525D1*
X2155874Y1367963D1*
X2158251Y1360778D1*
X2163059Y1356025D1*
X2167813Y1353648D1*
X2174998D1*
X2179751Y1356025D1*
X2182183Y1358401D1*
X2184559Y1365586D1*
Y1375148D1*
X2182183Y1382278D1*
X2179751Y1384710D1*
X2174998Y1387086D1*
X2167813D1*
X2163059Y1384710D1*
X2158251Y1379901D1*
X2155874Y1372771D1*
X2153498Y1363210D1*
X2151066Y1358401D1*
X2146313Y1356025D1*
X2141504D1*
X2136751Y1358401D1*
X2134375Y1365586D1*
Y1375148D1*
X2589120Y1403412D2*
Y1381912D1*
X2586688Y1374727D1*
X2584312Y1372295D1*
X2579558Y1369919D1*
X2574750D1*
X2569997Y1372295D1*
X2567565Y1374727D1*
X2565188Y1381912D1*
Y1403412D1*
X2615428D1*
X2589120Y1386665D2*
X2615428Y1369918D1*
X2581935Y1323363D2*
X2589120Y1325794D1*
X2593929Y1330548D1*
X2596305Y1337733D1*
Y1340109D1*
X2593929Y1347294D1*
X2589120Y1352047D1*
X2581935Y1354479D1*
X2579558D1*
X2572373Y1352047D1*
X2567620Y1347294D1*
X2565244Y1340109D1*
Y1337733D1*
X2567620Y1330548D1*
X2572373Y1325794D1*
X2581935Y1323363D1*
X2593929D1*
X2605867Y1325794D1*
X2613052Y1330548D1*
X2615428Y1337733D1*
Y1342486D1*
X2613052Y1349671D1*
X2608243Y1352047D1*
X1596478Y1291247D2*
Y1269747D1*
X1594046Y1262562D1*
X1591669Y1260130D1*
X1586916Y1257754D1*
X1582108D1*
X1577354Y1260130D1*
X1574923Y1262562D1*
X1572546Y1269747D1*
Y1291247D1*
X1622786D1*
X1596478Y1274500D2*
X1622786Y1257754D1*
X1582163Y1242314D2*
X1579731Y1237506D1*
X1572601Y1230321D1*
X1622786D1*
X1572601Y1200512D2*
X1574978Y1207697D1*
X1582163Y1212505D1*
X1594101Y1214882D1*
X1601286D1*
X1613224Y1212505D1*
X1620409Y1207697D1*
X1622786Y1200512D1*
Y1195758D1*
X1620409Y1188573D1*
X1613224Y1183820D1*
X1601286Y1181388D1*
X1594101D1*
X1582163Y1183820D1*
X1574978Y1188573D1*
X1572601Y1195758D1*
Y1200512D1*
X1582163Y1183820D2*
X1613224Y1212505D1*
X2164500Y1164013D2*
Y1142513D1*
X2162069Y1135328D1*
X2159692Y1132896D1*
X2154939Y1130519D1*
X2150130D1*
X2145377Y1132896D1*
X2142945Y1135328D1*
X2140569Y1142513D1*
Y1164013D1*
X2190809D1*
X2164500Y1147266D2*
X2190809Y1130519D1*
X2150186Y1115080D2*
X2147754Y1110272D1*
X2140624Y1103087D1*
X2190809D1*
X2150186Y1087648D2*
X2147754Y1082839D1*
X2140624Y1075654D1*
X2190809D1*
X2589119Y1268316D2*
Y1246817D1*
X2586687Y1239632D1*
X2584310Y1237200D1*
X2579557Y1234823D1*
X2574749D1*
X2569996Y1237200D1*
X2567564Y1239632D1*
X2565187Y1246817D1*
Y1268317D1*
X2615427Y1268316D1*
X2589119Y1251570D2*
X2615427Y1234823D1*
X2574804Y1219384D2*
X2572372Y1214576D1*
X2565242Y1207390D1*
X2615427D1*
X2577181Y1189519D2*
X2574804D1*
X2569996Y1187143D1*
X2567619Y1184766D1*
X2565242Y1179958D1*
Y1170396D1*
X2567619Y1165643D1*
X2569995Y1163266D1*
X2574804Y1160835D1*
X2579557D1*
X2584366Y1163266D1*
X2591495Y1168020D1*
X2615427Y1191951D1*
Y1158458D1*
X1671133Y1293512D2*
Y1272012D1*
X1668701Y1264827D1*
X1666324Y1262395D1*
X1661571Y1260019D1*
X1656763D1*
X1652009Y1262395D1*
X1649577Y1264827D1*
X1647201Y1272012D1*
Y1293512D1*
X1697441D1*
X1671133Y1276765D2*
X1697441Y1260019D1*
X1656818Y1244579D2*
X1654386Y1239771D1*
X1647256Y1232586D1*
X1697441D1*
X1647256Y1212338D2*
Y1186085D1*
X1666379Y1200400D1*
Y1193215D1*
X1668756Y1188462D1*
X1671133Y1186085D1*
X1678318Y1183653D1*
X1683071D1*
X1690256Y1186085D1*
X1695064Y1190839D1*
X1697441Y1198024D1*
Y1205209D1*
X1695064Y1212338D1*
X1692632Y1214715D1*
X1687879Y1217147D1*
X2158251Y1600951D2*
Y1579451D1*
X2155819Y1572266D1*
X2153443Y1569834D1*
X2148689Y1567458D1*
X2143881D1*
X2139128Y1569834D1*
X2136696Y1572266D1*
X2134319Y1579451D1*
Y1600951D1*
X2184559D1*
X2158251Y1584204D2*
X2184559Y1567458D1*
X2143936Y1552018D2*
X2141504Y1547210D1*
X2134375Y1540025D1*
X2184559D1*
Y1500654D2*
X2134375D1*
X2167813Y1524586D1*
Y1488716D1*
X2589120Y1568316D2*
Y1546817D1*
X2586688Y1539632D1*
X2584312Y1537200D1*
X2579558Y1534823D1*
X2574750D1*
X2569997Y1537200D1*
X2567565Y1539632D1*
X2565188Y1546817D1*
Y1568317D1*
X2615428Y1568316D1*
X2589120Y1551570D2*
X2615428Y1534823D1*
X2574805Y1519384D2*
X2572373Y1514576D1*
X2565244Y1507390D1*
X2615428D1*
X2565244Y1463266D2*
Y1487143D1*
X2586744Y1489519D1*
X2584367Y1487143D1*
X2581935Y1479958D1*
Y1472828D1*
X2584367Y1465643D1*
X2589120Y1460835D1*
X2596305Y1458458D1*
X2601058D1*
X2608243Y1460835D1*
X2613052Y1465643D1*
X2615428Y1472828D1*
Y1479958D1*
X2613052Y1487143D1*
X2610620Y1489519D1*
X2605867Y1491951D1*
X1953566Y1586054D2*
X1932067D1*
X1924882Y1588486D1*
X1922450Y1590862D1*
X1920073Y1595615D1*
Y1600424D1*
X1922450Y1605177D1*
X1924882Y1607609D1*
X1932067Y1609986D1*
X1953566D1*
Y1559746D1*
X1936820Y1586054D2*
X1920073Y1559746D1*
X1904634Y1600369D2*
X1899825Y1602801D1*
X1892640Y1609930D1*
Y1559746D1*
X1848516Y1602801D2*
X1850893Y1607554D1*
X1858078Y1609930D1*
X1862831D1*
X1870016Y1607554D1*
X1874825Y1600369D1*
X1877201Y1588430D1*
Y1576492D1*
X1874825Y1566931D1*
X1870016Y1562122D1*
X1862831Y1559746D1*
X1860454D1*
X1853325Y1562122D1*
X1848516Y1566931D1*
X1846140Y1574116D1*
Y1576492D1*
X1848516Y1583677D1*
X1853325Y1588430D1*
X1860454Y1590807D1*
X1862831D1*
X1870016Y1588430D1*
X1874825Y1583677D1*
X1877201Y1576492D1*
X2158251Y1749763D2*
Y1728263D1*
X2155819Y1721078D1*
X2153443Y1718646D1*
X2148689Y1716269D1*
X2143881D1*
X2139128Y1718646D1*
X2136696Y1721078D1*
X2134319Y1728263D1*
Y1749763D1*
X2184559D1*
X2158251Y1733016D2*
X2184559Y1716269D1*
X2143936Y1700830D2*
X2141504Y1696022D1*
X2134375Y1688837D1*
X2184559D1*
Y1663836D2*
X2134375Y1639904D1*
Y1673397D1*
X2589119Y1718289D2*
Y1696789D1*
X2586687Y1689604D1*
X2584310Y1687172D1*
X2579557Y1684796D1*
X2574749D1*
X2569996Y1687172D1*
X2567564Y1689604D1*
X2565187Y1696789D1*
Y1718289D1*
X2615427D1*
X2589119Y1701542D2*
X2615427Y1684796D1*
X2574804Y1669356D2*
X2572372Y1664548D1*
X2565242Y1657363D1*
X2615427D1*
X2565242Y1629985D2*
X2567619Y1637115D1*
X2572372Y1639547D1*
X2577181D1*
X2581934Y1637115D1*
X2584366Y1632362D1*
X2586742Y1622800D1*
X2589119Y1615615D1*
X2593927Y1610862D1*
X2598680Y1608486D1*
X2605865D1*
X2610619Y1610862D1*
X2613050Y1613239D1*
X2615427Y1620424D1*
Y1629985D1*
X2613051Y1637115D1*
X2610619Y1639547D1*
X2605865Y1641924D1*
X2598680D1*
X2593927Y1639547D1*
X2589119Y1634739D1*
X2586742Y1627609D1*
X2584366Y1618047D1*
X2581934Y1613239D1*
X2577181Y1610862D1*
X2572372D1*
X2567619Y1613239D1*
X2565242Y1620424D1*
Y1629985D1*
X1858633Y1748574D2*
Y1727075D1*
X1856201Y1719890D1*
X1853824Y1717458D1*
X1849071Y1715081D1*
X1844263D1*
X1839509Y1717458D1*
X1837077Y1719890D1*
X1834701Y1727075D1*
Y1748574D1*
X1884941D1*
X1858633Y1731828D2*
X1884941Y1715081D1*
X1844318Y1699642D2*
X1841886Y1694833D1*
X1834756Y1687648D1*
X1884941D1*
X1851447Y1641092D2*
X1858633Y1643524D1*
X1863441Y1648277D1*
X1865818Y1655462D1*
Y1657839D1*
X1863441Y1665024D1*
X1858633Y1669777D1*
X1851448Y1672209D1*
X1849071D1*
X1841886Y1669777D1*
X1837133Y1665024D1*
X1834756Y1657839D1*
Y1655463D1*
X1837133Y1648277D1*
X1841886Y1643524D1*
X1851447Y1641092D1*
X1863441D1*
X1875379Y1643524D1*
X1882564Y1648277D1*
X1884941Y1655462D1*
Y1660216D1*
X1882564Y1667401D1*
X1877756Y1669777D1*
X2158251Y1910513D2*
Y1889013D1*
X2155819Y1881828D1*
X2153443Y1879396D1*
X2148689Y1877019D1*
X2143881D1*
X2139128Y1879396D1*
X2136696Y1881828D1*
X2134319Y1889013D1*
Y1910513D1*
X2184559D1*
X2158251Y1893766D2*
X2184559Y1877019D1*
X2146313Y1859148D2*
X2143936D1*
X2139128Y1856772D1*
X2136751Y1854395D1*
X2134375Y1849587D1*
Y1840025D1*
X2136751Y1835272D1*
X2139128Y1832895D1*
X2143936Y1830463D1*
X2148689D1*
X2153498Y1832895D1*
X2160628Y1837648D1*
X2184559Y1861580D1*
Y1828087D1*
X2134375Y1798277D2*
X2136751Y1805462D1*
X2143936Y1810271D1*
X2155874Y1812648D1*
X2163059Y1812647D1*
X2174998Y1810271D1*
X2182183Y1805462D1*
X2184559Y1798277D1*
Y1793524D1*
X2182183Y1786339D1*
X2174998Y1781586D1*
X2163059Y1779154D1*
X2155874D1*
X2143936Y1781586D1*
X2136751Y1786339D1*
X2134375Y1793524D1*
Y1798277D1*
X2143936Y1781586D2*
X2174998Y1810271D1*
X2589120Y1868316D2*
Y1846817D1*
X2586688Y1839632D1*
X2584312Y1837200D1*
X2579558Y1834823D1*
X2574750D1*
X2569997Y1837200D1*
X2567565Y1839632D1*
X2565188Y1846817D1*
Y1868317D1*
X2615428Y1868316D1*
X2589120Y1851570D2*
X2615428Y1834823D1*
X2577182Y1816952D2*
X2574805D1*
X2569997Y1814576D1*
X2567620Y1812199D1*
X2565244Y1807390D1*
Y1797829D1*
X2567620Y1793076D1*
X2569997Y1790699D1*
X2574805Y1788267D1*
X2579558D1*
X2584367Y1790699D1*
X2591497Y1795452D1*
X2615428Y1819384D1*
Y1785891D1*
X2574805Y1770451D2*
X2572373Y1765643D1*
X2565244Y1758458D1*
X2615428D1*
X1858633Y1910513D2*
Y1889013D1*
X1856201Y1881828D1*
X1853824Y1879396D1*
X1849071Y1877019D1*
X1844262D1*
X1839509Y1879396D1*
X1837077Y1881828D1*
X1834701Y1889013D1*
Y1910513D1*
X1884941D1*
X1858633Y1893766D2*
X1884941Y1877019D1*
X1846694Y1859148D2*
X1844318D1*
X1839509Y1856772D1*
X1837133Y1854395D1*
X1834756Y1849587D1*
Y1840025D1*
X1837133Y1835272D1*
X1839509Y1832895D1*
X1844318Y1830463D1*
X1849071D1*
X1853879Y1832895D1*
X1861009Y1837648D1*
X1884941Y1861580D1*
Y1828087D1*
X1846694Y1810216D2*
X1844318D1*
X1839509Y1807839D1*
X1837133Y1805462D1*
X1834756Y1800654D1*
Y1791092D1*
X1837133Y1786339D1*
X1839509Y1783963D1*
X1844318Y1781531D1*
X1849071D1*
X1853879Y1783963D1*
X1861009Y1788716D1*
X1884941Y1812647D1*
Y1779154D1*
X2158251Y2060513D2*
Y2039013D1*
X2155819Y2031828D1*
X2153443Y2029396D1*
X2148689Y2027019D1*
X2143881D1*
X2139128Y2029396D1*
X2136696Y2031828D1*
X2134319Y2039013D1*
Y2060513D1*
X2184559D1*
X2158251Y2043766D2*
X2184559Y2027019D1*
X2146313Y2009148D2*
X2143936D1*
X2139128Y2006772D1*
X2136751Y2004395D1*
X2134375Y1999587D1*
Y1990025D1*
X2136751Y1985272D1*
X2139128Y1982895D1*
X2143936Y1980463D1*
X2148689D1*
X2153498Y1982895D1*
X2160628Y1987648D1*
X2184559Y2011580D1*
Y1978087D1*
X2134375Y1957839D2*
Y1931586D1*
X2153498Y1945901D1*
Y1938716D1*
X2155874Y1933963D1*
X2158251Y1931586D1*
X2165436Y1929154D1*
X2170189D1*
X2177374Y1931586D1*
X2182183Y1936339D1*
X2184559Y1943524D1*
Y1950709D1*
X2182183Y1957839D1*
X2179751Y1960216D1*
X2174998Y1962647D1*
X2589120Y2030255D2*
Y2008755D1*
X2586688Y2001570D1*
X2584312Y1999138D1*
X2579558Y1996761D1*
X2574750D1*
X2569997Y1999138D1*
X2567565Y2001570D1*
X2565188Y2008755D1*
Y2030255D1*
X2615428D1*
X2589120Y2013508D2*
X2615428Y1996761D1*
X2577182Y1978890D2*
X2574805D1*
X2569997Y1976514D1*
X2567620Y1974137D1*
X2565244Y1969329D1*
Y1959767D1*
X2567620Y1955014D1*
X2569997Y1952637D1*
X2574805Y1950205D1*
X2579558D1*
X2584367Y1952637D1*
X2591497Y1957390D1*
X2615428Y1981322D1*
Y1947829D1*
Y1908458D2*
X2565244D1*
X2598682Y1932390D1*
Y1896520D1*
X1858633Y2060513D2*
Y2039013D1*
X1856201Y2031828D1*
X1853824Y2029396D1*
X1849071Y2027019D1*
X1844262D1*
X1839509Y2029396D1*
X1837077Y2031828D1*
X1834701Y2039013D1*
Y2060513D1*
X1884941D1*
X1858633Y2043766D2*
X1884941Y2027019D1*
X1846694Y2009148D2*
X1844318D1*
X1839509Y2006772D1*
X1837133Y2004395D1*
X1834756Y1999587D1*
Y1990025D1*
X1837133Y1985272D1*
X1839509Y1982895D1*
X1844318Y1980463D1*
X1849071D1*
X1853879Y1982895D1*
X1861009Y1987648D1*
X1884941Y2011580D1*
Y1978087D1*
X1834756Y1933963D2*
Y1957839D1*
X1856256Y1960216D1*
X1853879Y1957839D1*
X1851448Y1950654D1*
Y1943524D1*
X1853879Y1936339D1*
X1858633Y1931531D1*
X1865818Y1929154D1*
X1870571D1*
X1877756Y1931531D1*
X1882564Y1936339D1*
X1884941Y1943524D1*
Y1950654D1*
X1882564Y1957839D1*
X1880132Y1960216D1*
X1875379Y1962647D1*
X2164502Y2346797D2*
Y2325297D1*
X2162070Y2318112D1*
X2159693Y2315680D1*
X2154940Y2313303D1*
X2150132D1*
X2145378Y2315680D1*
X2142947Y2318112D1*
X2140570Y2325297D1*
Y2346797D1*
X2190810D1*
X2164502Y2330050D2*
X2190810Y2313303D1*
X2152563Y2295432D2*
X2150187D1*
X2145378Y2293056D1*
X2143002Y2290679D1*
X2140625Y2285871D1*
Y2276309D1*
X2143002Y2271556D1*
X2145378Y2269179D1*
X2150187Y2266747D1*
X2154940D1*
X2159749Y2269179D1*
X2166878Y2273932D1*
X2190810Y2297864D1*
Y2264371D1*
X2147755Y2220247D2*
X2143002Y2222623D1*
X2140625Y2229808D1*
Y2234562D1*
X2143002Y2241747D1*
X2150187Y2246555D1*
X2162125Y2248932D1*
X2174063D1*
X2183625Y2246555D1*
X2188433Y2241747D1*
X2190810Y2234561D1*
Y2232185D1*
X2188433Y2225055D1*
X2183625Y2220247D1*
X2176440Y2217870D1*
X2174063D1*
X2166878Y2220247D1*
X2162125Y2225055D1*
X2159748Y2232185D1*
Y2234562D1*
X2162125Y2241747D1*
X2166878Y2246555D1*
X2174063Y2248932D1*
X2589119Y2179066D2*
Y2157567D1*
X2586687Y2150382D1*
X2584310Y2147950D1*
X2579557Y2145573D1*
X2574749D1*
X2569996Y2147950D1*
X2567564Y2150382D1*
X2565187Y2157567D1*
Y2179066D1*
X2615427D1*
X2589119Y2162320D2*
X2615427Y2145573D1*
X2577181Y2127702D2*
X2574804D1*
X2569996Y2125325D1*
X2567619Y2122949D1*
X2565242Y2118140D1*
Y2108579D1*
X2567619Y2103826D1*
X2569996Y2101449D1*
X2574804Y2099017D1*
X2579557D1*
X2584366Y2101449D1*
X2591495Y2106202D1*
X2615427Y2130134D1*
Y2096640D1*
Y2071640D2*
X2565242Y2047708D1*
Y2081201D1*
X1939883Y2347985D2*
Y2326485D1*
X1937451Y2319300D1*
X1935075Y2316868D1*
X1930322Y2314492D1*
X1925513D1*
X1920760Y2316868D1*
X1918328Y2319300D1*
X1915952Y2326485D1*
Y2347985D1*
X1966191D1*
X1939883Y2331238D2*
X1966191Y2314492D1*
X1927945Y2296621D2*
X1925568D1*
X1920760Y2294244D1*
X1918383Y2291867D1*
X1916007Y2287059D1*
Y2277497D1*
X1918383Y2272744D1*
X1920760Y2270368D1*
X1925568Y2267936D1*
X1930322D1*
X1935130Y2270368D1*
X1942260Y2275121D1*
X1966191Y2299052D1*
X1966192Y2265559D1*
X1916007Y2238182D2*
X1918383Y2245311D1*
X1923137Y2247743D1*
X1927945D1*
X1932698Y2245311D1*
X1935130Y2240558D1*
X1937507Y2230997D1*
X1939883Y2223812D1*
X1944692Y2219058D1*
X1949445Y2216682D1*
X1956630D1*
X1961383Y2219058D1*
X1963815Y2221435D1*
X1966192Y2228620D1*
Y2238182D1*
X1963815Y2245311D1*
X1961383Y2247743D1*
X1956630Y2250120D1*
X1949445D1*
X1944692Y2247743D1*
X1939883Y2242935D1*
X1937507Y2235805D1*
X1935130Y2226243D1*
X1932698Y2221435D1*
X1927945Y2219058D1*
X1923137D1*
X1918383Y2221435D1*
X1916007Y2228620D1*
Y2238182D1*
X2158251Y2509323D2*
Y2487823D1*
X2155819Y2480638D1*
X2153443Y2478206D1*
X2148689Y2475830D1*
X2143881D1*
X2139128Y2478206D1*
X2136696Y2480638D1*
X2134319Y2487823D1*
Y2509323D1*
X2184559D1*
X2158251Y2492576D2*
X2184559Y2475830D1*
X2146313Y2457959D2*
X2143936D1*
X2139128Y2455582D1*
X2136751Y2453205D1*
X2134375Y2448397D1*
Y2438835D1*
X2136751Y2434082D1*
X2139128Y2431706D1*
X2143936Y2429274D1*
X2148689D1*
X2153498Y2431706D1*
X2160628Y2436459D1*
X2184559Y2460390D1*
Y2426897D1*
X2151066Y2380341D2*
X2158251Y2382773D1*
X2163059Y2387526D1*
X2165436Y2394711D1*
Y2397088D1*
X2163059Y2404273D1*
X2158251Y2409026D1*
X2151066Y2411458D1*
X2148689D1*
X2141504Y2409026D1*
X2136751Y2404273D1*
X2134375Y2397088D1*
Y2394711D1*
X2136751Y2387526D1*
X2141504Y2382773D1*
X2151066Y2380341D1*
X2163059D1*
X2174998Y2382773D1*
X2182183Y2387526D1*
X2184559Y2394711D1*
Y2399464D1*
X2182183Y2406649D1*
X2177374Y2409026D1*
X2589120Y2479066D2*
Y2457567D1*
X2586688Y2450382D1*
X2584312Y2447950D1*
X2579558Y2445573D1*
X2574750D1*
X2569997Y2447950D1*
X2567565Y2450382D1*
X2565188Y2457567D1*
Y2479066D1*
X2615428D1*
X2589120Y2462320D2*
X2615428Y2445573D1*
X2565244Y2425325D2*
Y2399072D1*
X2584367Y2413387D1*
Y2406202D1*
X2586744Y2401449D1*
X2589120Y2399072D1*
X2596305Y2396641D1*
X2601058D1*
X2608243Y2399072D1*
X2613052Y2403826D1*
X2615428Y2411011D1*
Y2418196D1*
X2613052Y2425325D1*
X2610620Y2427702D1*
X2605867Y2430134D1*
X2565244Y2366831D2*
X2567620Y2374016D1*
X2574805Y2378825D1*
X2586744Y2381201D1*
X2593929D1*
X2605867Y2378825D1*
X2613052Y2374016D1*
X2615428Y2366831D1*
Y2362078D1*
X2613052Y2354893D1*
X2605867Y2350140D1*
X2593929Y2347708D1*
X2586743D1*
X2574805Y2350140D1*
X2567620Y2354893D1*
X2565244Y2362078D1*
Y2366831D1*
X2574805Y2350140D2*
X2605867Y2378825D1*
X1858633Y2499761D2*
Y2478262D1*
X1856201Y2471076D1*
X1853824Y2468645D1*
X1849071Y2466268D1*
X1844263D1*
X1839509Y2468645D1*
X1837077Y2471077D1*
X1834701Y2478262D1*
Y2499761D1*
X1884941D1*
X1858633Y2483015D2*
X1884941Y2466268D1*
X1834756Y2446020D2*
Y2419767D1*
X1853879Y2434082D1*
Y2426897D1*
X1856256Y2422144D1*
X1858633Y2419767D1*
X1865818Y2417336D1*
X1870571D1*
X1877756Y2419767D1*
X1882564Y2424521D1*
X1884941Y2431706D1*
Y2438891D1*
X1882564Y2446020D1*
X1880132Y2448397D1*
X1875379Y2450829D1*
X1844318Y2401896D2*
X1841886Y2397088D1*
X1834756Y2389903D1*
X1884941D1*
X2158251Y2660513D2*
Y2639013D1*
X2155819Y2631828D1*
X2153443Y2629396D1*
X2148689Y2627019D1*
X2143881D1*
X2139128Y2629396D1*
X2136696Y2631828D1*
X2134319Y2639013D1*
Y2660513D1*
X2184559D1*
X2158251Y2643766D2*
X2184559Y2627019D1*
X2134375Y2606772D2*
Y2580519D1*
X2153498Y2594833D1*
Y2587648D1*
X2155874Y2582895D1*
X2158251Y2580519D1*
X2165436Y2578087D1*
X2170189D1*
X2177374Y2580519D1*
X2182183Y2585272D1*
X2184559Y2592457D1*
Y2599642D1*
X2182183Y2606772D1*
X2179751Y2609148D1*
X2174998Y2611580D1*
X2146313Y2560216D2*
X2143936D1*
X2139128Y2557839D1*
X2136751Y2555462D1*
X2134375Y2550654D1*
Y2541092D1*
X2136751Y2536339D1*
X2139128Y2533963D1*
X2143936Y2531531D1*
X2148689D1*
X2153498Y2533963D1*
X2160628Y2538716D1*
X2184559Y2562647D1*
Y2529154D1*
X2589120Y2629066D2*
Y2607567D1*
X2586688Y2600382D1*
X2584312Y2597950D1*
X2579558Y2595573D1*
X2574750D1*
X2569997Y2597950D1*
X2567565Y2600382D1*
X2565188Y2607567D1*
Y2629066D1*
X2615428D1*
X2589120Y2612320D2*
X2615428Y2595573D1*
X2565244Y2575325D2*
Y2549072D1*
X2584367Y2563387D1*
Y2556202D1*
X2586744Y2551449D1*
X2589120Y2549072D1*
X2596305Y2546641D1*
X2601058D1*
X2608243Y2549072D1*
X2613052Y2553826D1*
X2615428Y2561011D1*
Y2568196D1*
X2613052Y2575325D1*
X2610620Y2577702D1*
X2605867Y2580134D1*
X2565244Y2526393D2*
Y2500140D1*
X2584367Y2514455D1*
Y2507270D1*
X2586743Y2502516D1*
X2589120Y2500140D1*
X2596305Y2497708D1*
X2601058D1*
X2608243Y2500140D1*
X2613052Y2504893D1*
X2615428Y2512078D1*
Y2519263D1*
X2613052Y2526393D1*
X2610620Y2528769D1*
X2605867Y2531201D1*
X1858633Y2661701D2*
Y2640201D1*
X1856201Y2633016D1*
X1853824Y2630584D1*
X1849071Y2628208D1*
X1844262D1*
X1839509Y2630584D1*
X1837077Y2633016D1*
X1834701Y2640201D1*
Y2661701D1*
X1884941D1*
X1858633Y2644954D2*
X1884941Y2628208D1*
X1834756Y2607960D2*
Y2581707D1*
X1853879Y2596022D1*
Y2588837D1*
X1856256Y2584083D1*
X1858633Y2581707D1*
X1865818Y2579275D1*
X1870571D1*
X1877756Y2581707D1*
X1882564Y2586460D1*
X1884941Y2593645D1*
Y2600830D1*
X1882564Y2607960D1*
X1880132Y2610336D1*
X1875379Y2612768D1*
X1884941Y2539904D2*
X1834756D1*
X1868194Y2563836D1*
Y2527966D1*
X2158251Y2810511D2*
Y2789011D1*
X2155819Y2781826D1*
X2153443Y2779395D1*
X2148689Y2777018D1*
X2143881D1*
X2139128Y2779395D1*
X2136696Y2781826D1*
X2134319Y2789011D1*
Y2810511D1*
X2184559D1*
X2158251Y2793765D2*
X2184559Y2777018D1*
X2134375Y2756770D2*
Y2730517D1*
X2153498Y2744832D1*
Y2737647D1*
X2155874Y2732894D1*
X2158251Y2730517D1*
X2165436Y2728085D1*
X2170189D1*
X2177374Y2730517D1*
X2182183Y2735270D1*
X2184559Y2742455D1*
Y2749640D1*
X2182183Y2756770D1*
X2179751Y2759147D1*
X2174998Y2761579D1*
X2134375Y2683961D2*
Y2707838D1*
X2155874Y2710214D1*
X2153498Y2707838D1*
X2151066Y2700653D1*
Y2693523D1*
X2153498Y2686338D1*
X2158251Y2681529D1*
X2165436Y2679153D1*
X2170189D1*
X2177374Y2681529D1*
X2182183Y2686338D1*
X2184559Y2693523D1*
Y2700653D1*
X2182183Y2707838D1*
X2179751Y2710214D1*
X2174998Y2712646D1*
X2589120Y2777850D2*
Y2756351D1*
X2586688Y2749166D1*
X2584312Y2746734D1*
X2579558Y2744357D1*
X2574750D1*
X2569997Y2746734D1*
X2567565Y2749166D1*
X2565188Y2756351D1*
Y2777850D1*
X2615428D1*
X2589120Y2761104D2*
X2615428Y2744357D1*
X2565244Y2724109D2*
Y2697856D1*
X2584367Y2712171D1*
Y2704986D1*
X2586744Y2700233D1*
X2589120Y2697856D1*
X2596305Y2695425D1*
X2601058D1*
X2608243Y2697856D1*
X2613052Y2702610D1*
X2615428Y2709795D1*
Y2716980D1*
X2613052Y2724109D1*
X2610620Y2726486D1*
X2605867Y2728918D1*
X2572373Y2651301D2*
X2567620Y2653677D1*
X2565244Y2660862D1*
Y2665615D1*
X2567620Y2672800D1*
X2574805Y2677609D1*
X2586744Y2679985D1*
X2598682D1*
X2608243Y2677609D1*
X2613052Y2672800D1*
X2615428Y2665615D1*
Y2663239D1*
X2613052Y2656109D1*
X2608243Y2651301D1*
X2601058Y2648924D1*
X2598682D1*
X2591497Y2651301D1*
X2586743Y2656109D1*
X2584367Y2663239D1*
Y2665615D1*
X2586744Y2672800D1*
X2591497Y2677609D1*
X2598682Y2679985D1*
X1858633Y2810511D2*
Y2789011D1*
X1856201Y2781826D1*
X1853824Y2779395D1*
X1849071Y2777018D1*
X1844262D1*
X1839509Y2779395D1*
X1837077Y2781826D1*
X1834701Y2789011D1*
Y2810511D1*
X1884941D1*
X1858633Y2793765D2*
X1884941Y2777018D1*
X1834756Y2756770D2*
Y2730517D1*
X1853879Y2744832D1*
Y2737647D1*
X1856256Y2732894D1*
X1858633Y2730517D1*
X1865818Y2728085D1*
X1870571D1*
X1877756Y2730517D1*
X1882564Y2735270D1*
X1884941Y2742455D1*
Y2749640D1*
X1882564Y2756770D1*
X1880132Y2759147D1*
X1875379Y2761579D1*
X1884941Y2703085D2*
X1834756Y2679153D1*
Y2712646D1*
X2158251Y3097985D2*
Y3076485D1*
X2155819Y3069300D1*
X2153443Y3066868D1*
X2148689Y3064492D1*
X2143881D1*
X2139128Y3066868D1*
X2136696Y3069300D1*
X2134319Y3076485D1*
Y3097985D1*
X2184559D1*
X2158251Y3081238D2*
X2184559Y3064492D1*
X2134375Y3044244D2*
Y3017991D1*
X2153498Y3032306D1*
Y3025121D1*
X2155874Y3020368D1*
X2158251Y3017991D1*
X2165436Y3015559D1*
X2170189D1*
X2177374Y3017991D1*
X2182183Y3022744D1*
X2184559Y3029929D1*
Y3037114D1*
X2182183Y3044244D1*
X2179751Y3046621D1*
X2174998Y3049052D1*
X2134375Y2988182D2*
X2136751Y2995311D1*
X2141504Y2997743D1*
X2146313D1*
X2151066Y2995311D1*
X2153498Y2990558D1*
X2155874Y2980997D1*
X2158251Y2973812D1*
X2163059Y2969058D1*
X2167813Y2966682D1*
X2174998D1*
X2179751Y2969058D1*
X2182183Y2971435D1*
X2184559Y2978620D1*
Y2988182D1*
X2182183Y2995311D1*
X2179751Y2997743D1*
X2174998Y3000120D1*
X2167813D1*
X2163059Y2997743D1*
X2158251Y2992935D1*
X2155874Y2985805D1*
X2153498Y2976243D1*
X2151066Y2971435D1*
X2146313Y2969058D1*
X2141504D1*
X2136751Y2971435D1*
X2134375Y2978620D1*
Y2988182D1*
X2589120Y2927878D2*
Y2906378D1*
X2586688Y2899193D1*
X2584312Y2896761D1*
X2579558Y2894385D1*
X2574750D1*
X2569997Y2896761D1*
X2567565Y2899193D1*
X2565188Y2906378D1*
Y2927878D1*
X2615428D1*
X2589120Y2911131D2*
X2615428Y2894385D1*
X2565244Y2874137D2*
Y2847884D1*
X2584367Y2862199D1*
Y2855014D1*
X2586744Y2850261D1*
X2589120Y2847884D1*
X2596305Y2845452D1*
X2601058D1*
X2608243Y2847884D1*
X2613052Y2852637D1*
X2615428Y2859822D1*
Y2867007D1*
X2613052Y2874137D1*
X2610620Y2876514D1*
X2605867Y2878946D1*
X2581935Y2798896D2*
X2589120Y2801328D1*
X2593929Y2806081D1*
X2596305Y2813266D1*
Y2815643D1*
X2593929Y2822828D1*
X2589120Y2827581D1*
X2581935Y2830013D1*
X2579558D1*
X2572373Y2827581D1*
X2567620Y2822828D1*
X2565244Y2815643D1*
Y2813266D1*
X2567620Y2806081D1*
X2572373Y2801328D1*
X2581935Y2798896D1*
X2593929D1*
X2605867Y2801328D1*
X2613052Y2806081D1*
X2615428Y2813266D1*
Y2818020D1*
X2613052Y2825205D1*
X2608243Y2827581D1*
X1946133Y3099201D2*
Y3077701D1*
X1943701Y3070516D1*
X1941324Y3068084D1*
X1936571Y3065708D1*
X1931762D1*
X1927009Y3068084D1*
X1924577Y3070516D1*
X1922201Y3077701D1*
Y3099201D1*
X1972441D1*
X1946133Y3082454D2*
X1972441Y3065708D1*
Y3026337D2*
X1922256D1*
X1955694Y3050268D1*
Y3014398D1*
X1922256Y2984589D2*
X1924633Y2991774D1*
X1931818Y2996583D1*
X1943756Y2998959D1*
X1950941D1*
X1962879Y2996583D1*
X1970064Y2991774D1*
X1972441Y2984589D1*
Y2979836D1*
X1970064Y2972651D1*
X1962879Y2967898D1*
X1950941Y2965466D1*
X1943756D1*
X1931818Y2967898D1*
X1924633Y2972651D1*
X1922256Y2979836D1*
Y2984589D1*
X1931818Y2967898D2*
X1962879Y2996583D1*
X2158251Y3250951D2*
Y3229451D1*
X2155819Y3222266D1*
X2153443Y3219834D1*
X2148689Y3217458D1*
X2143881D1*
X2139128Y3219834D1*
X2136696Y3222266D1*
X2134319Y3229451D1*
Y3250951D1*
X2184559D1*
X2158251Y3234204D2*
X2184559Y3217458D1*
Y3178087D2*
X2134375D1*
X2167813Y3202018D1*
Y3166149D1*
X2143936Y3150709D2*
X2141504Y3145901D1*
X2134375Y3138716D1*
X2184559D1*
X2589119Y3230255D2*
Y3208755D1*
X2586687Y3201570D1*
X2584310Y3199138D1*
X2579557Y3196761D1*
X2574749D1*
X2569996Y3199138D1*
X2567564Y3201570D1*
X2565187Y3208755D1*
Y3230255D1*
X2615427D1*
X2589119Y3213508D2*
X2615427Y3196761D1*
Y3157390D2*
X2565242D1*
X2598680Y3181322D1*
Y3145452D1*
X2577181Y3127581D2*
X2574804D1*
X2569996Y3125205D1*
X2567619Y3122828D1*
X2565242Y3118020D1*
Y3108458D1*
X2567619Y3103705D1*
X2569995Y3101328D1*
X2574804Y3098896D1*
X2579557D1*
X2584366Y3101328D1*
X2591495Y3106081D1*
X2615427Y3130013D1*
Y3096520D1*
X1858633Y3261701D2*
Y3240201D1*
X1856201Y3233016D1*
X1853824Y3230584D1*
X1849071Y3228208D1*
X1844262D1*
X1839509Y3230584D1*
X1837077Y3233016D1*
X1834701Y3240201D1*
Y3261701D1*
X1884941D1*
X1858633Y3244954D2*
X1884941Y3228208D1*
Y3188837D2*
X1834756D1*
X1868194Y3212768D1*
Y3176898D1*
X1834756Y3156651D2*
Y3130398D1*
X1853879Y3144713D1*
Y3137528D1*
X1856256Y3132774D1*
X1858633Y3130398D1*
X1865818Y3127966D1*
X1870571D1*
X1877756Y3130398D1*
X1882564Y3135151D1*
X1884941Y3142336D1*
Y3149521D1*
X1882564Y3156651D1*
X1880132Y3159027D1*
X1875379Y3161459D1*
X2158251Y3412888D2*
Y3391388D1*
X2155819Y3384203D1*
X2153443Y3381771D1*
X2148689Y3379395D1*
X2143881D1*
X2139128Y3381771D1*
X2136696Y3384203D1*
X2134319Y3391388D1*
Y3412888D1*
X2184559D1*
X2158251Y3396141D2*
X2184559Y3379395D1*
Y3340024D2*
X2134375D1*
X2167813Y3363955D1*
Y3328085D1*
X2184559Y3288714D2*
X2134375Y3288715D1*
X2167813Y3312646D1*
Y3276776D1*
X2589119Y3380255D2*
Y3358755D1*
X2586687Y3351570D1*
X2584310Y3349138D1*
X2579557Y3346761D1*
X2574749D1*
X2569996Y3349138D1*
X2567564Y3351570D1*
X2565187Y3358755D1*
Y3380255D1*
X2615427D1*
X2589119Y3363508D2*
X2615427Y3346761D1*
Y3307390D2*
X2565242D1*
X2598680Y3331322D1*
Y3295452D1*
X2565242Y3251328D2*
Y3275205D1*
X2586742Y3277581D1*
X2584366Y3275205D1*
X2581934Y3268020D1*
Y3260890D1*
X2584366Y3253705D1*
X2589119Y3248896D1*
X2596304Y3246520D1*
X2601057D1*
X2608242Y3248896D1*
X2613050Y3253705D1*
X2615427Y3260890D1*
Y3268019D1*
X2613051Y3275205D1*
X2610619Y3277581D1*
X2605865Y3280013D1*
X1858633Y3410484D2*
Y3388984D1*
X1856201Y3381799D1*
X1853824Y3379367D1*
X1849071Y3376990D1*
X1844262D1*
X1839509Y3379367D1*
X1837077Y3381799D1*
X1834701Y3388984D1*
Y3410484D1*
X1884941D1*
X1858633Y3393737D2*
X1884941Y3376990D1*
Y3337619D2*
X1834756D1*
X1868194Y3361551D1*
Y3325681D1*
X1841886Y3281557D2*
X1837133Y3283934D1*
X1834756Y3291119D1*
Y3295872D1*
X1837133Y3303057D1*
X1844318Y3307865D1*
X1856256Y3310242D1*
X1868194D1*
X1877756Y3307865D1*
X1882564Y3303057D1*
X1884941Y3295872D1*
Y3293495D1*
X1882564Y3286366D1*
X1877756Y3281557D1*
X1870571Y3279181D1*
X1868194D1*
X1861009Y3281557D1*
X1856256Y3286366D1*
X1853879Y3293495D1*
Y3295872D1*
X1856256Y3303057D1*
X1861009Y3307865D1*
X1868194Y3310242D1*
X2158251Y3561701D2*
Y3540201D1*
X2155819Y3533016D1*
X2153443Y3530584D1*
X2148689Y3528208D1*
X2143881D1*
X2139128Y3530584D1*
X2136696Y3533016D1*
X2134319Y3540201D1*
Y3561701D1*
X2184559D1*
X2158251Y3544954D2*
X2184559Y3528208D1*
Y3488837D2*
X2134375D1*
X2167813Y3512768D1*
Y3476898D1*
X2184559Y3451898D2*
X2134375Y3427966D1*
Y3461459D1*
X2589119Y3530227D2*
Y3508727D1*
X2586687Y3501542D1*
X2584310Y3499110D1*
X2579557Y3496734D1*
X2574749D1*
X2569996Y3499110D1*
X2567564Y3501542D1*
X2565187Y3508727D1*
Y3530227D1*
X2615427D1*
X2589119Y3513480D2*
X2615427Y3496734D1*
Y3457363D2*
X2565242D1*
X2598680Y3481294D1*
Y3445425D1*
X2565242Y3418047D2*
X2567619Y3425177D1*
X2572372Y3427609D1*
X2577181D1*
X2581934Y3425177D1*
X2584366Y3420424D1*
X2586742Y3410862D1*
X2589119Y3403677D1*
X2593927Y3398924D1*
X2598680Y3396547D1*
X2605865D1*
X2610619Y3398924D1*
X2613050Y3401301D1*
X2615427Y3408486D1*
Y3418047D1*
X2613051Y3425177D1*
X2610619Y3427609D1*
X2605865Y3429985D1*
X2598680D1*
X2593927Y3427609D1*
X2589119Y3422800D1*
X2586742Y3415671D1*
X2584366Y3406109D1*
X2581934Y3401301D1*
X2577181Y3398924D1*
X2572372D1*
X2567619Y3401301D1*
X2565242Y3408486D1*
Y3418047D1*
X1858633Y3560513D2*
Y3539013D1*
X1856201Y3531828D1*
X1853824Y3529396D1*
X1849071Y3527019D1*
X1844262D1*
X1839509Y3529396D1*
X1837077Y3531828D1*
X1834701Y3539013D1*
Y3560513D1*
X1884941D1*
X1858633Y3543766D2*
X1884941Y3527019D1*
Y3487648D2*
X1834756D1*
X1868194Y3511580D1*
Y3475710D1*
X1851447Y3429154D2*
X1858633Y3431586D1*
X1863441Y3436339D1*
X1865818Y3443524D1*
Y3445901D1*
X1863441Y3453086D1*
X1858633Y3457839D1*
X1851448Y3460271D1*
X1849071D1*
X1841886Y3457839D1*
X1837133Y3453086D1*
X1834756Y3445901D1*
Y3443524D1*
X1837133Y3436339D1*
X1841886Y3431586D1*
X1851447Y3429154D1*
X1863441D1*
X1875379Y3431586D1*
X1882564Y3436339D1*
X1884941Y3443524D1*
Y3448277D1*
X1882564Y3455462D1*
X1877756Y3457839D1*
X2164500Y3847816D2*
Y3826316D1*
X2162068Y3819131D1*
X2159692Y3816699D1*
X2154939Y3814322D1*
X2150130D1*
X2145377Y3816699D1*
X2142945Y3819131D1*
X2140569Y3826316D1*
Y3847816D1*
X2190809D1*
X2164500Y3831069D2*
X2190809Y3814322D1*
X2140624Y3770198D2*
Y3794075D1*
X2162124Y3796451D1*
X2159747Y3794075D1*
X2157315Y3786890D1*
Y3779760D1*
X2159747Y3772575D1*
X2164500Y3767766D1*
X2171685Y3765390D1*
X2176439D1*
X2183624Y3767766D1*
X2188432Y3772575D1*
X2190809Y3779760D1*
Y3786890D1*
X2188432Y3794075D1*
X2186000Y3796451D1*
X2181247Y3798883D1*
X2140624Y3735581D2*
X2143000Y3742766D1*
X2150186Y3747574D1*
X2162124Y3749951D1*
X2169309D1*
X2181247Y3747574D1*
X2188432Y3742766D1*
X2190809Y3735581D1*
Y3730827D1*
X2188432Y3723642D1*
X2181247Y3718889D1*
X2169309Y3716457D1*
X2162124D1*
X2150185Y3718889D1*
X2143000Y3723642D1*
X2140624Y3730827D1*
Y3735581D1*
X2150185Y3718889D2*
X2181247Y3747574D1*
X2589120Y3668316D2*
Y3646817D1*
X2586688Y3639632D1*
X2584312Y3637200D1*
X2579558Y3634823D1*
X2574750D1*
X2569997Y3637200D1*
X2567565Y3639632D1*
X2565188Y3646817D1*
Y3668317D1*
X2615428Y3668316D1*
X2589120Y3651570D2*
X2615428Y3634823D1*
X2565244Y3590699D2*
Y3614576D1*
X2586744Y3616952D1*
X2584367Y3614575D1*
X2581935Y3607390D1*
Y3600261D1*
X2584367Y3593076D1*
X2589120Y3588267D1*
X2596305Y3585891D1*
X2601058D1*
X2608243Y3588267D1*
X2613052Y3593076D1*
X2615428Y3600261D1*
Y3607390D1*
X2613052Y3614575D1*
X2610620Y3616952D1*
X2605867Y3619384D1*
X2574805Y3570451D2*
X2572373Y3565643D1*
X2565244Y3558458D1*
X2615428D1*
X1939882Y3848011D2*
Y3826511D1*
X1937450Y3819326D1*
X1935073Y3816895D1*
X1930320Y3814518D1*
X1925512D1*
X1920759Y3816895D1*
X1918327Y3819326D1*
X1915950Y3826511D1*
Y3848011D1*
X1966190D1*
X1939882Y3831265D2*
X1966190Y3814518D1*
X1916005Y3770394D2*
Y3794270D1*
X1937505Y3796647D1*
X1935129Y3794270D1*
X1932697Y3787085D1*
Y3779955D1*
X1935129Y3772770D1*
X1939882Y3767962D1*
X1947067Y3765585D1*
X1951820D1*
X1959005Y3767962D1*
X1963814Y3772770D1*
X1966190Y3779955D1*
Y3787085D1*
X1963814Y3794270D1*
X1961382Y3796647D1*
X1956629Y3799079D1*
X1927944Y3747714D2*
X1925567D1*
X1920759Y3745338D1*
X1918382Y3742961D1*
X1916005Y3738153D1*
Y3728591D1*
X1918382Y3723838D1*
X1920759Y3721461D1*
X1925567Y3719029D1*
X1930320D1*
X1935129Y3721461D1*
X1942258Y3726215D1*
X1966190Y3750146D1*
Y3716653D1*
X2164500Y5198013D2*
Y5176513D1*
X2162068Y5169328D1*
X2159692Y5166896D1*
X2154939Y5164519D1*
X2150130D1*
X2145377Y5166896D1*
X2142945Y5169328D1*
X2140569Y5176513D1*
Y5198013D1*
X2190809D1*
X2164500Y5181266D2*
X2190809Y5164519D1*
X2140624Y5120395D2*
Y5144272D1*
X2162124Y5146648D1*
X2159747Y5144272D1*
X2157315Y5137087D1*
Y5129957D1*
X2159747Y5122772D1*
X2164500Y5117963D1*
X2171685Y5115587D1*
X2176439D1*
X2183624Y5117963D1*
X2188432Y5122772D1*
X2190809Y5129957D1*
Y5137087D1*
X2188432Y5144272D1*
X2186000Y5146648D1*
X2181247Y5149080D1*
X2140624Y5095339D2*
Y5069086D1*
X2159747Y5083401D1*
Y5076216D1*
X2162124Y5071463D1*
X2164500Y5069086D1*
X2171685Y5066654D1*
X2176439D1*
X2183624Y5069086D1*
X2188432Y5073839D1*
X2190809Y5081024D1*
Y5088209D1*
X2188432Y5095339D1*
X2186000Y5097716D1*
X2181247Y5100147D1*
X2585568Y4847005D2*
X2564068D1*
X2556883Y4849436D1*
X2554452Y4851813D1*
X2552075Y4856566D1*
Y4861375D1*
X2554452Y4866128D1*
X2556883Y4868560D1*
X2564068Y4870936D1*
X2585568D1*
Y4820696D1*
X2568822Y4847005D2*
X2552075Y4820696D1*
X2507951Y4870881D2*
X2531827D1*
X2534204Y4849381D1*
X2531827Y4851758D1*
X2524642Y4854190D1*
X2517512D1*
X2510327Y4851758D1*
X2505519Y4847005D1*
X2503142Y4839820D1*
Y4835066D1*
X2505519Y4827881D1*
X2510327Y4823073D1*
X2517512Y4820696D1*
X2524642D1*
X2531827Y4823073D1*
X2534204Y4825505D1*
X2536636Y4830258D1*
X2463771Y4820696D2*
Y4870881D1*
X2487703Y4837443D1*
X2451833D1*
X1946133Y5204263D2*
Y5182763D1*
X1943701Y5175578D1*
X1941324Y5173147D1*
X1936571Y5170770D1*
X1931762D1*
X1927009Y5173147D1*
X1924577Y5175578D1*
X1922201Y5182763D1*
Y5204263D1*
X1972441D1*
X1946133Y5187517D2*
X1972441Y5170770D1*
X1922256Y5126646D2*
Y5150522D1*
X1943756Y5152899D1*
X1941379Y5150522D1*
X1938948Y5143337D1*
Y5136207D1*
X1941379Y5129022D1*
X1946133Y5124214D1*
X1953318Y5121837D1*
X1958071D1*
X1965256Y5124214D1*
X1970064Y5129022D1*
X1972441Y5136207D1*
Y5143337D1*
X1970064Y5150522D1*
X1967632Y5152899D1*
X1962879Y5155331D1*
X1922256Y5077713D2*
Y5101590D1*
X1943756Y5103966D1*
X1941379Y5101590D1*
X1938948Y5094405D1*
Y5087275D1*
X1941379Y5080090D1*
X1946133Y5075281D1*
X1953318Y5072905D1*
X1958071D1*
X1965256Y5075281D1*
X1970064Y5080090D1*
X1972441Y5087275D1*
Y5094405D1*
X1970064Y5101590D1*
X1967632Y5103966D1*
X1962879Y5106398D1*
X2164500Y4903046D2*
Y4881546D1*
X2162068Y4874361D1*
X2159692Y4871929D1*
X2154939Y4869553D1*
X2150130D1*
X2145377Y4871929D1*
X2142945Y4874361D1*
X2140569Y4881546D1*
Y4903046D1*
X2190809D1*
X2164500Y4886299D2*
X2190809Y4869553D1*
X2140624Y4825429D2*
Y4849305D1*
X2162124Y4851682D1*
X2159747Y4849305D1*
X2157315Y4842120D1*
Y4834990D1*
X2159747Y4827805D1*
X2164500Y4822997D1*
X2171685Y4820620D1*
X2176439D1*
X2183624Y4822997D1*
X2188432Y4827805D1*
X2190809Y4834990D1*
Y4842120D1*
X2188432Y4849305D1*
X2186000Y4851682D1*
X2181247Y4854113D1*
X2147754Y4776496D2*
X2143000Y4778873D1*
X2140624Y4786058D1*
Y4790811D1*
X2143000Y4797996D1*
X2150186Y4802804D1*
X2162124Y4805181D1*
X2174062D1*
X2183624Y4802804D1*
X2188432Y4797996D1*
X2190809Y4790811D1*
Y4788434D1*
X2188432Y4781305D1*
X2183624Y4776496D1*
X2176439Y4774119D1*
X2174062D1*
X2166877Y4776496D1*
X2162124Y4781305D1*
X2159747Y4788434D1*
Y4790811D1*
X2162124Y4797996D1*
X2166877Y4802804D1*
X2174062Y4805181D1*
X2584381Y4559505D2*
X2562882D1*
X2555696Y4561936D1*
X2553265Y4564313D1*
X2550888Y4569066D1*
Y4573875D1*
X2553265Y4578628D1*
X2555696Y4581060D1*
X2562882Y4583436D1*
X2584381D1*
Y4533196D1*
X2567635Y4559505D2*
X2550888Y4533196D1*
X2506764Y4583381D2*
X2530640D1*
X2533017Y4561881D1*
X2530640Y4564258D1*
X2523455Y4566690D1*
X2516326D1*
X2509140Y4564258D1*
X2504332Y4559505D1*
X2501955Y4552320D1*
Y4547566D1*
X2504332Y4540381D1*
X2509140Y4535573D1*
X2516326Y4533196D1*
X2523455D1*
X2530640Y4535573D1*
X2533017Y4538005D1*
X2535449Y4542758D1*
X2476955Y4533196D2*
X2453023Y4583381D1*
X2486516D1*
X1939883Y4904236D2*
Y4882736D1*
X1937451Y4875551D1*
X1935075Y4873119D1*
X1930322Y4870742D1*
X1925513D1*
X1920760Y4873119D1*
X1918328Y4875551D1*
X1915952Y4882736D1*
Y4904236D1*
X1966191D1*
X1939883Y4887489D2*
X1966191Y4870742D1*
X1916007Y4826618D2*
Y4850495D1*
X1937507Y4852871D1*
X1935130Y4850495D1*
X1932698Y4843310D1*
Y4836180D1*
X1935130Y4828995D1*
X1939883Y4824186D1*
X1947068Y4821810D1*
X1951821D1*
X1959006Y4824186D1*
X1963815Y4828995D1*
X1966192Y4836180D1*
Y4843310D1*
X1963815Y4850495D1*
X1961383Y4852871D1*
X1956630Y4855303D1*
X1916007Y4794432D2*
X1918383Y4801562D1*
X1923137Y4803994D1*
X1927945D1*
X1932698Y4801562D1*
X1935130Y4796809D1*
X1937507Y4787247D1*
X1939883Y4780062D1*
X1944692Y4775309D1*
X1949445Y4772933D1*
X1956630D1*
X1961383Y4775309D1*
X1963815Y4777686D1*
X1966192Y4784871D1*
Y4794432D1*
X1963815Y4801562D1*
X1961383Y4803994D1*
X1956630Y4806370D1*
X1949445Y4806371D1*
X1944692Y4803994D1*
X1939883Y4799185D1*
X1937507Y4792056D1*
X1935130Y4782494D1*
X1932698Y4777686D1*
X1927945Y4775309D1*
X1923137D1*
X1918383Y4777686D1*
X1916007Y4784871D1*
Y4794432D1*
X2158251Y4596824D2*
Y4575324D1*
X2155819Y4568139D1*
X2153443Y4565708D1*
X2148689Y4563331D1*
X2143881D1*
X2139128Y4565708D1*
X2136696Y4568139D1*
X2134319Y4575324D1*
Y4596824D1*
X2184559D1*
X2158251Y4580078D2*
X2184559Y4563331D1*
X2134375Y4519207D2*
Y4543083D1*
X2155874Y4545460D1*
X2153498Y4543083D1*
X2151066Y4535898D1*
Y4528769D1*
X2153498Y4521583D1*
X2158251Y4516775D1*
X2165436Y4514398D1*
X2170189D1*
X2177374Y4516775D1*
X2182183Y4521583D1*
X2184559Y4528768D1*
Y4535898D1*
X2182183Y4543083D1*
X2179751Y4545460D1*
X2174998Y4547892D1*
X2151066Y4467843D2*
X2158251Y4470274D1*
X2163059Y4475028D1*
X2165436Y4482213D1*
Y4484589D1*
X2163059Y4491774D1*
X2158251Y4496527D1*
X2151066Y4498959D1*
X2148689D1*
X2141504Y4496527D1*
X2136751Y4491774D1*
X2134375Y4484589D1*
Y4482213D1*
X2136751Y4475028D1*
X2141504Y4470274D1*
X2151066Y4467843D1*
X2163059D1*
X2174998Y4470274D1*
X2182183Y4475028D1*
X2184559Y4482213D1*
Y4486966D1*
X2182183Y4494151D1*
X2177374Y4496527D1*
X2589120Y4421600D2*
Y4400100D1*
X2586688Y4392915D1*
X2584312Y4390483D1*
X2579558Y4388107D1*
X2574750D1*
X2569997Y4390483D1*
X2567565Y4392915D1*
X2565188Y4400100D1*
Y4421600D1*
X2615428D1*
X2589120Y4404853D2*
X2615428Y4388106D1*
X2572373Y4343982D2*
X2567620Y4346359D1*
X2565244Y4353544D1*
Y4358297D1*
X2567620Y4365482D1*
X2574805Y4370291D1*
X2586744Y4372667D1*
X2598682D1*
X2608243Y4370291D1*
X2613052Y4365482D1*
X2615428Y4358297D1*
Y4355921D1*
X2613052Y4348791D1*
X2608243Y4343982D1*
X2601058Y4341606D1*
X2598682D1*
X2591497Y4343982D1*
X2586744Y4348791D1*
X2584367Y4355921D1*
Y4358297D1*
X2586744Y4365482D1*
X2591497Y4370291D1*
X2598682Y4372667D1*
X2565244Y4311797D2*
X2567620Y4318982D1*
X2574805Y4323790D1*
X2586744Y4326167D1*
X2593929D1*
X2605867Y4323790D1*
X2613052Y4318982D1*
X2615428Y4311796D1*
Y4307043D1*
X2613052Y4299858D1*
X2605867Y4295105D1*
X2593929Y4292673D1*
X2586743D1*
X2574805Y4295105D1*
X2567620Y4299858D1*
X2565244Y4307043D1*
Y4311797D1*
X2574805Y4295105D2*
X2605867Y4323790D1*
X1952383Y4598547D2*
Y4577047D1*
X1949951Y4569862D1*
X1947575Y4567430D1*
X1942822Y4565053D1*
X1938013D1*
X1933260Y4567430D1*
X1930828Y4569862D1*
X1928452Y4577047D1*
Y4598547D1*
X1978691D1*
X1952383Y4581800D2*
X1978692Y4565053D1*
X1935637Y4520929D2*
X1930883Y4523306D1*
X1928507Y4530491D1*
Y4535244D1*
X1930883Y4542429D1*
X1938068Y4547238D1*
X1950007Y4549614D1*
X1961945D1*
X1971506Y4547238D1*
X1976315Y4542429D1*
X1978692Y4535244D1*
Y4532868D1*
X1976315Y4525738D1*
X1971506Y4520929D1*
X1964321Y4518553D1*
X1961945D1*
X1954760Y4520929D1*
X1950007Y4525738D1*
X1947630Y4532868D1*
Y4535244D1*
X1950007Y4542429D1*
X1954760Y4547238D1*
X1961945Y4549614D1*
X1938068Y4503114D2*
X1935637Y4498305D1*
X1928507Y4491120D1*
X1978691D1*
X2158251Y4309297D2*
Y4287797D1*
X2155819Y4280612D1*
X2153443Y4278180D1*
X2148689Y4275803D1*
X2143881D1*
X2139128Y4278180D1*
X2136696Y4280612D1*
X2134319Y4287797D1*
Y4309297D1*
X2184559D1*
X2158251Y4292550D2*
X2184559Y4275803D1*
X2141504Y4231679D2*
X2136751Y4234056D1*
X2134375Y4241241D1*
Y4245994D1*
X2136751Y4253179D1*
X2143936Y4257988D1*
X2155874Y4260364D1*
X2167813D1*
X2177374Y4257987D1*
X2182183Y4253179D1*
X2184559Y4245994D1*
Y4243617D1*
X2182183Y4236488D1*
X2177374Y4231679D1*
X2170189Y4229303D1*
X2167813D1*
X2160628Y4231679D1*
X2155874Y4236488D1*
X2153498Y4243617D1*
Y4245994D1*
X2155874Y4253179D1*
X2160628Y4257988D1*
X2167813Y4260364D1*
X2146313Y4211432D2*
X2143936D1*
X2139128Y4209055D1*
X2136751Y4206678D1*
X2134375Y4201870D1*
Y4192308D1*
X2136751Y4187555D1*
X2139128Y4185179D1*
X2143936Y4182747D1*
X2148689D1*
X2153498Y4185179D1*
X2160628Y4189932D1*
X2184559Y4213863D1*
Y4180370D1*
X2589119Y4271600D2*
Y4250100D1*
X2586687Y4242915D1*
X2584310Y4240483D1*
X2579557Y4238107D1*
X2574749D1*
X2569996Y4240483D1*
X2567564Y4242915D1*
X2565187Y4250100D1*
Y4271600D1*
X2615427D1*
X2589119Y4254853D2*
X2615427Y4238106D1*
X2572372Y4193982D2*
X2567619Y4196359D1*
X2565242Y4203544D1*
Y4208297D1*
X2567619Y4215482D1*
X2574804Y4220291D1*
X2586742Y4222667D1*
X2598680D1*
X2608242Y4220291D1*
X2613050Y4215482D1*
X2615427Y4208297D1*
Y4205921D1*
X2613050Y4198791D1*
X2608242Y4193982D1*
X2601057Y4191606D1*
X2598680D1*
X2591495Y4193982D1*
X2586742Y4198791D1*
X2584366Y4205921D1*
Y4208297D1*
X2586742Y4215482D1*
X2591495Y4220291D1*
X2598680Y4222667D1*
X2565242Y4171358D2*
Y4145105D1*
X2584366Y4159420D1*
Y4152235D1*
X2586742Y4147482D1*
X2589119Y4145105D1*
X2596304Y4142673D1*
X2601057D1*
X2608242Y4145105D1*
X2613050Y4149858D1*
X2615427Y4157043D1*
Y4164228D1*
X2613051Y4171358D1*
X2610619Y4173735D1*
X2605865Y4176167D1*
X1858633Y4310485D2*
Y4288985D1*
X1856201Y4281800D1*
X1853824Y4279368D1*
X1849071Y4276992D1*
X1844262D1*
X1839509Y4279368D1*
X1837077Y4281800D1*
X1834701Y4288985D1*
Y4310485D1*
X1884941D1*
X1858633Y4293738D2*
X1884941Y4276992D1*
X1841886Y4232868D2*
X1837133Y4235244D1*
X1834756Y4242429D1*
Y4247182D1*
X1837133Y4254367D1*
X1844318Y4259176D1*
X1856256Y4261552D1*
X1868194D1*
X1877756Y4259176D1*
X1882564Y4254367D1*
X1884941Y4247182D1*
Y4244806D1*
X1882564Y4237676D1*
X1877756Y4232868D1*
X1870571Y4230491D1*
X1868194D1*
X1861009Y4232868D1*
X1856256Y4237676D1*
X1853879Y4244806D1*
Y4247182D1*
X1856256Y4254367D1*
X1861009Y4259176D1*
X1868194Y4261552D1*
X1884941Y4191120D2*
X1834756D1*
X1868194Y4215052D1*
Y4179182D1*
X2158251Y4159297D2*
Y4137797D1*
X2155819Y4130612D1*
X2153443Y4128180D1*
X2148689Y4125803D1*
X2143881D1*
X2139128Y4128180D1*
X2136696Y4130612D1*
X2134319Y4137797D1*
Y4159297D1*
X2184559D1*
X2158251Y4142550D2*
X2184559Y4125803D1*
X2141504Y4081679D2*
X2136751Y4084056D1*
X2134375Y4091241D1*
Y4095994D1*
X2136751Y4103179D1*
X2143936Y4107988D1*
X2155874Y4110364D1*
X2167813D1*
X2177374Y4107987D1*
X2182183Y4103179D1*
X2184559Y4095994D1*
Y4093617D1*
X2182183Y4086488D1*
X2177374Y4081679D1*
X2170189Y4079303D1*
X2167813D1*
X2160628Y4081679D1*
X2155874Y4086488D1*
X2153498Y4093617D1*
Y4095994D1*
X2155874Y4103179D1*
X2160628Y4107988D1*
X2167813Y4110364D1*
X2134375Y4035179D2*
Y4059055D1*
X2155874Y4061432D1*
X2153498Y4059055D1*
X2151066Y4051870D1*
Y4044740D1*
X2153498Y4037555D1*
X2158251Y4032747D1*
X2165436Y4030370D1*
X2170189D1*
X2177374Y4032747D1*
X2182183Y4037555D1*
X2184559Y4044740D1*
Y4051870D1*
X2182183Y4059055D1*
X2179751Y4061432D1*
X2174998Y4063863D1*
X2589120Y4120384D2*
Y4098884D1*
X2586688Y4091699D1*
X2584312Y4089267D1*
X2579558Y4086891D1*
X2574750D1*
X2569997Y4089267D1*
X2567565Y4091699D1*
X2565188Y4098884D1*
Y4120384D1*
X2615428D1*
X2589120Y4103637D2*
X2615428Y4086891D1*
X2572373Y4042766D2*
X2567620Y4045143D1*
X2565244Y4052328D1*
Y4057081D1*
X2567620Y4064266D1*
X2574805Y4069075D1*
X2586744Y4071451D1*
X2598682D1*
X2608243Y4069075D1*
X2613052Y4064266D1*
X2615428Y4057081D1*
Y4054705D1*
X2613052Y4047575D1*
X2608243Y4042766D1*
X2601058Y4040390D1*
X2598682D1*
X2591497Y4042766D1*
X2586744Y4047575D1*
X2584367Y4054705D1*
Y4057081D1*
X2586744Y4064266D1*
X2591497Y4069075D1*
X2598682Y4071451D1*
X2572373Y3996266D2*
X2567620Y3998642D1*
X2565244Y4005827D1*
Y4010581D1*
X2567620Y4017766D1*
X2574805Y4022574D1*
X2586744Y4024951D1*
X2598682D1*
X2608243Y4022574D1*
X2613052Y4017766D1*
X2615428Y4010581D1*
Y4008204D1*
X2613052Y4001074D1*
X2608243Y3996266D1*
X2601058Y3993889D1*
X2598682D1*
X2591497Y3996266D1*
X2586743Y4001074D1*
X2584367Y4008204D1*
Y4010581D1*
X2586744Y4017766D1*
X2591497Y4022574D1*
X2598682Y4024951D1*
X1858633Y4159297D2*
Y4137797D1*
X1856201Y4130612D1*
X1853824Y4128180D1*
X1849071Y4125803D1*
X1844262D1*
X1839509Y4128180D1*
X1837077Y4130612D1*
X1834701Y4137797D1*
Y4159297D1*
X1884941D1*
X1858633Y4142550D2*
X1884941Y4125803D1*
X1841886Y4081679D2*
X1837133Y4084056D1*
X1834756Y4091241D1*
Y4095994D1*
X1837133Y4103179D1*
X1844318Y4107988D1*
X1856256Y4110364D1*
X1868194D1*
X1877756Y4107987D1*
X1882564Y4103179D1*
X1884941Y4095994D1*
Y4093617D1*
X1882564Y4086488D1*
X1877756Y4081679D1*
X1870571Y4079303D1*
X1868194D1*
X1861009Y4081679D1*
X1856256Y4086488D1*
X1853879Y4093617D1*
Y4095994D1*
X1856256Y4103179D1*
X1861009Y4107988D1*
X1868194Y4110364D1*
X1884941Y4054302D2*
X1834756Y4030370D1*
Y4063863D1*
X2158251Y4009269D2*
Y3987769D1*
X2155819Y3980584D1*
X2153443Y3978152D1*
X2148689Y3975776D1*
X2143881D1*
X2139128Y3978152D1*
X2136696Y3980584D1*
X2134319Y3987769D1*
Y4009269D1*
X2184559D1*
X2158251Y3992522D2*
X2184559Y3975776D1*
X2141504Y3931652D2*
X2136751Y3934028D1*
X2134375Y3941213D1*
Y3945966D1*
X2136751Y3953151D1*
X2143936Y3957960D1*
X2155874Y3960336D1*
X2167813D1*
X2177374Y3957960D1*
X2182183Y3953151D1*
X2184559Y3945966D1*
Y3943590D1*
X2182183Y3936460D1*
X2177374Y3931652D1*
X2170189Y3929275D1*
X2167813D1*
X2160628Y3931652D1*
X2155874Y3936460D1*
X2153498Y3943590D1*
Y3945966D1*
X2155874Y3953151D1*
X2160628Y3957960D1*
X2167813Y3960336D1*
X2134375Y3901898D2*
X2136751Y3909027D1*
X2141504Y3911459D1*
X2146313D1*
X2151066Y3909027D1*
X2153498Y3904274D1*
X2155874Y3894713D1*
X2158251Y3887528D1*
X2163059Y3882774D1*
X2167813Y3880398D1*
X2174998D1*
X2179751Y3882774D1*
X2182183Y3885151D1*
X2184559Y3892336D1*
Y3901898D1*
X2182183Y3909027D1*
X2179751Y3911459D1*
X2174998Y3913836D1*
X2167813D1*
X2163059Y3911459D1*
X2158251Y3906651D1*
X2155874Y3899521D1*
X2153498Y3889959D1*
X2151066Y3885151D1*
X2146313Y3882774D1*
X2141504D1*
X2136751Y3885151D1*
X2134375Y3892336D1*
Y3901898D1*
X2589119Y3970412D2*
Y3948912D1*
X2586687Y3941727D1*
X2584310Y3939295D1*
X2579557Y3936918D1*
X2574749D1*
X2569996Y3939295D1*
X2567564Y3941727D1*
X2565187Y3948912D1*
Y3970412D1*
X2615427D1*
X2589119Y3953665D2*
X2615427Y3936918D1*
X2572372Y3892794D2*
X2567619Y3895171D1*
X2565242Y3902356D1*
Y3907109D1*
X2567619Y3914294D1*
X2574804Y3919102D1*
X2586742Y3921479D1*
X2598680D1*
X2608242Y3919102D1*
X2613050Y3914294D1*
X2615427Y3907109D1*
Y3904732D1*
X2613050Y3897603D1*
X2608242Y3892794D1*
X2601057Y3890417D1*
X2598680D1*
X2591495Y3892794D1*
X2586742Y3897603D1*
X2584366Y3904732D1*
Y3907109D1*
X2586742Y3914294D1*
X2591495Y3919102D1*
X2598680Y3921479D1*
X2581934Y3843862D2*
X2589119Y3846293D1*
X2593927Y3851047D1*
X2596304Y3858232D1*
Y3860608D1*
X2593927Y3867793D1*
X2589119Y3872546D1*
X2581934Y3874978D1*
X2579557D1*
X2572372Y3872546D1*
X2567619Y3867793D1*
X2565242Y3860608D1*
Y3858232D1*
X2567619Y3851047D1*
X2572372Y3846293D1*
X2581934Y3843862D1*
X2593927D1*
X2605865Y3846293D1*
X2613050Y3851047D1*
X2615427Y3858232D1*
Y3862985D1*
X2613051Y3870170D1*
X2608242Y3872546D1*
X1858633Y4010513D2*
Y3989013D1*
X1856201Y3981828D1*
X1853824Y3979396D1*
X1849071Y3977019D1*
X1844262D1*
X1839509Y3979396D1*
X1837077Y3981828D1*
X1834701Y3989013D1*
Y4010513D1*
X1884941D1*
X1858633Y3993766D2*
X1884941Y3977019D1*
Y3952018D2*
X1834756Y3928087D1*
Y3961580D1*
Y3898277D2*
X1837133Y3905462D1*
X1844318Y3910271D1*
X1856256Y3912648D1*
X1863441Y3912647D1*
X1875379Y3910271D1*
X1882564Y3905462D1*
X1884941Y3898277D1*
Y3893524D1*
X1882564Y3886339D1*
X1875379Y3881586D1*
X1863441Y3879154D1*
X1856256D1*
X1844318Y3881586D1*
X1837133Y3886339D1*
X1834756Y3893524D1*
Y3898277D1*
X1844318Y3881586D2*
X1875379Y3910271D1*
X914883Y2911229D2*
Y2889729D1*
X912451Y2882544D1*
X910075Y2880112D1*
X905322Y2877735D1*
X900513D1*
X895760Y2880112D1*
X893328Y2882544D1*
X890952Y2889729D1*
Y2911229D1*
X941191D1*
X914883Y2894482D2*
X941192Y2877735D1*
Y2852734D2*
X891007Y2828803D1*
Y2862296D1*
X900568Y2813363D2*
X898137Y2808555D1*
X891007Y2801370D1*
X941191D1*
X896132Y2490532D2*
Y2469032D1*
X893700Y2461847D1*
X891323Y2459415D1*
X886570Y2457038D1*
X881762D1*
X877009Y2459415D1*
X874577Y2461847D1*
X872200Y2469032D1*
Y2490532D1*
X922440D1*
X896132Y2473785D2*
X922440Y2457038D1*
Y2432037D2*
X872255Y2408106D1*
Y2441599D1*
Y2363982D2*
Y2387858D1*
X893755Y2390235D1*
X891379Y2387858D1*
X888947Y2380673D1*
Y2373543D1*
X891379Y2366358D1*
X896132Y2361550D1*
X903317Y2359173D1*
X908070D1*
X915255Y2361550D1*
X920064Y2366358D1*
X922440Y2373543D1*
Y2380673D1*
X920064Y2387858D1*
X917632Y2390235D1*
X912879Y2392667D1*
X1370595Y3222520D2*
X1349095D1*
X1341910Y3224952D1*
X1339478Y3227328D1*
X1337101Y3232081D1*
Y3236890D1*
X1339478Y3241643D1*
X1341910Y3244075D1*
X1349095Y3246451D1*
X1370595D1*
Y3196211D1*
X1353848Y3222520D2*
X1337101Y3196211D1*
X1312100D2*
X1288169Y3246396D1*
X1321662D1*
X1241613Y3229705D2*
X1244045Y3222520D1*
X1248798Y3217711D1*
X1255983Y3215335D1*
X1258359D1*
X1265544Y3217711D1*
X1270298Y3222520D1*
X1272729Y3229705D1*
Y3232081D1*
X1270298Y3239266D1*
X1265544Y3244020D1*
X1258359Y3246396D1*
X1255983D1*
X1248798Y3244020D1*
X1244045Y3239266D1*
X1241613Y3229705D1*
Y3217711D1*
X1244045Y3205773D1*
X1248798Y3198588D1*
X1255983Y3196211D1*
X1260736D1*
X1267921Y3198588D1*
X1270298Y3203396D1*
X1408976Y1958220D2*
Y1936720D1*
X1406545Y1929535D1*
X1404168Y1927103D1*
X1399415Y1924727D1*
X1394606D1*
X1389853Y1927103D1*
X1387421Y1929535D1*
X1385045Y1936720D1*
Y1958220D1*
X1435285D1*
X1408976Y1941473D2*
X1435285Y1924727D1*
X1385100Y1897349D2*
X1387477Y1904479D1*
X1392230Y1906911D1*
X1397038D1*
X1401791Y1904479D1*
X1404223Y1899726D1*
X1406600Y1890164D1*
X1408976Y1882979D1*
X1413785Y1878226D1*
X1418538Y1875849D1*
X1425723D1*
X1430476Y1878226D1*
X1432908Y1880602D1*
X1435285Y1887787D1*
Y1897349D1*
X1432908Y1904479D1*
X1430476Y1906911D1*
X1425723Y1909287D1*
X1418538D1*
X1413785Y1906911D1*
X1408976Y1902102D1*
X1406600Y1894973D1*
X1404223Y1885411D1*
X1401791Y1880602D1*
X1397038Y1878226D1*
X1392230D1*
X1387477Y1880602D1*
X1385100Y1887788D1*
Y1897349D1*
Y1846040D2*
X1387477Y1853225D1*
X1394662Y1858033D1*
X1406600Y1860410D1*
X1413785D1*
X1425723Y1858033D1*
X1432908Y1853225D1*
X1435285Y1846040D1*
Y1841287D1*
X1432908Y1834102D1*
X1425723Y1829349D1*
X1413785Y1826917D1*
X1406600D1*
X1394662Y1829349D1*
X1387477Y1834102D1*
X1385100Y1841287D1*
Y1846040D1*
X1394662Y1829349D2*
X1425723Y1858033D1*
X1099735Y3040927D2*
X1078235D1*
X1071050Y3043358D1*
X1068618Y3045735D1*
X1066242Y3050488D1*
Y3055297D1*
X1068618Y3060050D1*
X1071050Y3062482D1*
X1078235Y3064858D1*
X1099735D1*
Y3014618D1*
X1082988Y3040927D2*
X1066242Y3014618D1*
X1038864Y3064803D2*
X1045994Y3062426D1*
X1048426Y3057673D1*
Y3052865D1*
X1045994Y3048112D1*
X1041241Y3045680D1*
X1031679Y3043303D1*
X1024494Y3040927D1*
X1019741Y3036118D1*
X1017364Y3031365D1*
Y3024180D1*
X1019741Y3019427D1*
X1022118Y3016995D1*
X1029303Y3014618D1*
X1038864D1*
X1045994Y3016995D1*
X1048426Y3019427D1*
X1050802Y3024180D1*
Y3031365D1*
X1048426Y3036118D1*
X1043617Y3040927D1*
X1036488Y3043303D1*
X1026926Y3045680D1*
X1022118Y3048112D1*
X1019741Y3052865D1*
Y3057673D1*
X1022118Y3062426D1*
X1029303Y3064803D1*
X1038864D1*
X1001925Y3055241D2*
X997117Y3057673D1*
X989932Y3064803D1*
Y3014618D1*
X821476Y3229234D2*
Y3207734D1*
X819045Y3200549D1*
X816668Y3198118D1*
X811915Y3195741D1*
X807106D1*
X802353Y3198118D1*
X799921Y3200549D1*
X797545Y3207734D1*
Y3229234D1*
X847785D1*
X821476Y3212488D2*
X847785Y3195741D1*
X797600Y3168364D2*
X799977Y3175493D1*
X804730Y3177925D1*
X809538D1*
X814291Y3175493D1*
X816723Y3170740D1*
X819100Y3161179D1*
X821476Y3153993D1*
X826285Y3149240D1*
X831038Y3146864D1*
X838223D1*
X842976Y3149240D1*
X845408Y3151617D1*
X847785Y3158802D1*
Y3168364D1*
X845408Y3175493D1*
X842976Y3177925D1*
X838223Y3180302D1*
X831038D1*
X826285Y3177925D1*
X821476Y3173117D1*
X819100Y3165987D1*
X816723Y3156425D1*
X814291Y3151617D1*
X809538Y3149240D1*
X804730D1*
X799977Y3151617D1*
X797600Y3158802D1*
Y3168364D1*
X809538Y3128993D2*
X807162D1*
X802353Y3126616D1*
X799977Y3124239D1*
X797600Y3119431D1*
Y3109869D1*
X799977Y3105116D1*
X802353Y3102740D1*
X807162Y3100308D1*
X811915D1*
X816723Y3102740D1*
X823853Y3107493D1*
X847785Y3131424D1*
Y3097931D1*
X1333809Y2711757D2*
Y2675887D1*
X1331433Y2668702D1*
X1326624Y2663949D1*
X1319439Y2661517D1*
X1314686D1*
X1307501Y2663949D1*
X1302693Y2668702D1*
X1300316Y2675887D1*
Y2711757D1*
X1284877Y2702140D2*
X1280068Y2704572D1*
X1272883Y2711702D1*
Y2661517D1*
X1659914Y1838577D2*
Y1802707D1*
X1657537Y1795522D1*
X1652729Y1790769D1*
X1645544Y1788337D1*
X1640790D1*
X1633605Y1790769D1*
X1628797Y1795522D1*
X1626420Y1802707D1*
Y1838577D1*
X1608549Y1826584D2*
Y1828961D1*
X1606173Y1833769D1*
X1603796Y1836146D1*
X1598988Y1838522D1*
X1589426D1*
X1584673Y1836146D1*
X1582296Y1833769D1*
X1579864Y1828961D1*
Y1824207D1*
X1582296Y1819399D1*
X1587049Y1812269D1*
X1610981Y1788337D1*
X1577488D1*
X1422414Y3037543D2*
Y3001673D1*
X1420037Y2994488D1*
X1415229Y2989735D1*
X1408044Y2987303D1*
X1403290D1*
X1396105Y2989735D1*
X1391297Y2994488D1*
X1388920Y3001673D1*
Y3037543D1*
X1368673Y3037488D2*
X1342420D1*
X1356734Y3018365D1*
X1349549D1*
X1344796Y3015988D1*
X1342420Y3013612D1*
X1339988Y3006427D1*
Y3001673D1*
X1342420Y2994488D1*
X1347173Y2989680D1*
X1354358Y2987303D1*
X1361543D1*
X1368673Y2989680D1*
X1371049Y2992112D1*
X1373481Y2996865D1*
X1255781Y4258312D2*
Y4222442D1*
X1253405Y4215257D1*
X1248596Y4210504D1*
X1241411Y4208072D1*
X1236658D1*
X1229473Y4210504D1*
X1224664Y4215257D1*
X1222288Y4222442D1*
Y4258312D1*
X1178164Y4258257D2*
X1202040D1*
X1204417Y4236757D1*
X1202040Y4239134D1*
X1194855Y4241566D1*
X1187725D1*
X1180540Y4239134D1*
X1175732Y4234381D1*
X1173355Y4227196D1*
Y4222442D1*
X1175732Y4215257D1*
X1180540Y4210449D1*
X1187725Y4208072D1*
X1194855D1*
X1202040Y4210449D1*
X1204417Y4212881D1*
X1206849Y4217634D1*
X1026816Y2760019D2*
X1005316D1*
X998131Y2762451D1*
X995700Y2764828D1*
X993323Y2769581D1*
Y2774389D1*
X995700Y2779142D1*
X998131Y2781574D1*
X1005316Y2783951D1*
X1026816D1*
Y2733711D1*
X1010070Y2760019D2*
X993323Y2733711D1*
X968322D2*
X944390Y2783895D1*
X977884D1*
X900266Y2776766D2*
X902643Y2781519D1*
X909828Y2783895D1*
X914581D1*
X921766Y2781519D1*
X926575Y2774334D1*
X928951Y2762396D1*
Y2750457D1*
X926575Y2740896D1*
X921766Y2736087D1*
X914581Y2733711D1*
X912205D1*
X905075Y2736087D1*
X900266Y2740896D1*
X897890Y2748081D1*
Y2750457D1*
X900266Y2757642D1*
X905075Y2762396D1*
X912205Y2764772D1*
X914581D1*
X921766Y2762396D1*
X926575Y2757642D1*
X928951Y2750457D1*
X1028032Y2697520D2*
X1006532D1*
X999347Y2699952D1*
X996916Y2702328D1*
X994539Y2707081D1*
Y2711890D1*
X996916Y2716643D1*
X999347Y2719075D1*
X1006532Y2721451D1*
X1028032D1*
Y2671211D1*
X1011286Y2697520D2*
X994539Y2671211D1*
X969538D2*
X945606Y2721396D1*
X979100D1*
X920605Y2671211D2*
X896674Y2721396D1*
X930167D1*
X1046932Y2484513D2*
X1049309Y2489266D1*
X1054117Y2494075D1*
X1058870Y2496451D1*
X1068432D1*
X1073240Y2494075D1*
X1077994Y2489266D1*
X1080425Y2484513D1*
X1082802Y2477328D1*
Y2465335D1*
X1080425Y2458205D1*
X1077994Y2453396D1*
X1073240Y2448643D1*
X1068432Y2446211D1*
X1058870D1*
X1054117Y2448643D1*
X1049309Y2453396D1*
X1046932Y2458205D1*
X1031493Y2486835D2*
X1026684Y2489266D1*
X1019499Y2496396D1*
Y2446211D1*
X1001628Y2484458D2*
Y2486835D1*
X999252Y2491643D1*
X996875Y2494020D1*
X992067Y2496396D1*
X982505D1*
X977752Y2494020D1*
X975375Y2491643D1*
X972943Y2486835D1*
Y2482081D1*
X975375Y2477273D1*
X980128Y2470143D1*
X1004060Y2446211D1*
X970567D1*
M02*
