G04 DipTrace 3.3.1.3*
G04 BottomMask.gbr*
%MOIN*%
G04 #@! TF.FileFunction,Soldermask,Bot*
G04 #@! TF.Part,Single*
%AMOUTLINE1*
4,1,10,
-0.104331,0.023622,
-0.035095,0.023622,
-0.011473,0.047244,
0.078402,0.047244,
0.104331,0.021316,
0.104331,-0.021316,
0.078402,-0.047244,
-0.011473,-0.047244,
-0.035095,-0.023622,
-0.104331,-0.023622,
-0.104331,0.023622,
0*%
%AMOUTLINE4*
4,1,20,
0.0,0.043339,
0.016215,0.041284,
0.030941,0.035282,
0.042783,0.025807,
0.050522,0.013657,
0.053226,0.0,
0.050522,-0.013657,
0.042783,-0.025807,
0.030941,-0.035282,
0.016215,-0.041284,
0.0,-0.043339,
-0.016215,-0.041284,
-0.030941,-0.035282,
-0.042783,-0.025807,
-0.050522,-0.013657,
-0.053226,0.0,
-0.050522,0.013657,
-0.042783,0.025807,
-0.030941,0.035282,
-0.016215,0.041284,
0.0,0.043339,
0*%
%ADD44C,0.11811*%
%ADD50C,0.07874*%
%ADD52R,0.07874X0.07874*%
%ADD54R,0.066929X0.047244*%
%ADD56R,0.145669X0.125984*%
%ADD58R,0.031496X0.086614*%
%ADD60R,0.027559X0.074803*%
%ADD62R,0.074803X0.027559*%
%ADD64R,0.07874X0.070866*%
%ADD66R,0.070866X0.07874*%
%ADD68R,0.049213X0.033465*%
%ADD70R,0.033465X0.049213*%
%ADD72R,0.070866X0.055118*%
%ADD74R,0.055118X0.070866*%
%ADD76C,0.066929*%
%ADD78R,0.066929X0.066929*%
%ADD80R,0.055118X0.055118*%
%ADD82R,0.059055X0.066929*%
%ADD84R,0.181102X0.07874*%
%ADD86R,0.066929X0.059055*%
%ADD92OUTLINE1*%
%ADD95OUTLINE4*%
%FSLAX26Y26*%
G04*
G70*
G90*
G75*
G01*
G04 BotMask*
%LPD*%
D86*
X1637451Y2356201D3*
Y2431004D3*
X1024951Y2424950D3*
Y2350147D3*
D84*
X1312449Y4587450D3*
X1021110D3*
D82*
X912451Y4837451D3*
X987255D3*
X999953Y3299950D3*
X1074756D3*
D84*
X1312449Y3549951D3*
X1021110D3*
D86*
X687451Y2693701D3*
Y2768504D3*
Y2581201D3*
Y2506398D3*
X768701Y2349950D3*
Y2275147D3*
Y3074950D3*
Y3000147D3*
D82*
X1274951Y3143701D3*
X1200148D3*
D80*
X687451Y2942668D3*
Y2832432D3*
Y2332235D3*
Y2442471D3*
X937451Y2931201D3*
Y2820965D3*
X918702Y2593701D3*
Y2483465D3*
D44*
X506202Y5287450D3*
X499951Y499950D3*
X2606202Y5287450D3*
Y499951D3*
D78*
X1749951Y4831201D3*
D76*
Y4731201D3*
Y4631201D3*
Y4531201D3*
Y4431201D3*
Y4331201D3*
Y4231201D3*
D78*
X1006202Y1956201D3*
D76*
Y2056201D3*
X906202Y1956201D3*
Y2056201D3*
X806202Y1956201D3*
Y2056201D3*
D78*
X837450Y5062450D3*
D76*
X937450D3*
X1037450D3*
X1137450D3*
D78*
X587453Y2749953D3*
D76*
Y2649953D3*
Y2549953D3*
D78*
X1012451Y1787450D3*
D76*
X912451D3*
D78*
X1012451Y1662450D3*
D76*
X912451D3*
D74*
X1637451Y2243701D3*
X1519341D3*
D72*
X1024951Y2281201D3*
Y2163091D3*
D70*
X1599953Y693702D3*
X1525150D3*
X1562551Y784253D3*
X1662453Y831201D3*
X1737256D3*
X1699854Y740650D3*
X1412453Y831201D3*
X1487256D3*
X1449854Y740650D3*
X1837451Y687450D3*
X1762648D3*
X1800050Y778001D3*
D68*
X2231201Y907235D3*
Y982038D3*
X2321752Y944636D3*
X2006201Y907235D3*
Y982038D3*
X2096752Y944636D3*
X2231201Y1357234D3*
Y1432037D3*
X2321752Y1394635D3*
X2006201Y1357234D3*
Y1432037D3*
X2096752Y1394635D3*
X2231201Y1207235D3*
Y1282038D3*
X2321752Y1244636D3*
X2006201Y1207235D3*
Y1282038D3*
X2096752Y1244636D3*
X2231201Y1507235D3*
Y1582038D3*
X2321752Y1544636D3*
X2006201Y1507235D3*
Y1582038D3*
X2096752Y1544636D3*
X2231201Y1657234D3*
Y1732037D3*
X2321752Y1694635D3*
X2006201Y1657234D3*
Y1732037D3*
X2096752Y1694635D3*
X2231201Y1807235D3*
Y1882038D3*
X2321752Y1844636D3*
X2006201Y1807235D3*
Y1882038D3*
X2096752Y1844636D3*
X2231201Y1957234D3*
Y2032037D3*
X2321752Y1994635D3*
X2006201Y1957234D3*
Y2032037D3*
X2096752Y1994635D3*
X2231201Y2107235D3*
Y2182038D3*
X2321752Y2144636D3*
X2006201Y2107235D3*
Y2182038D3*
X2096752Y2144636D3*
X2231201Y2407235D3*
Y2482038D3*
X2321752Y2444636D3*
X2006201Y2407235D3*
Y2482038D3*
X2096752Y2444636D3*
X2231201Y2557235D3*
Y2632038D3*
X2321752Y2594636D3*
X2006201Y2557235D3*
Y2632038D3*
X2096752Y2594636D3*
X2231201Y2707235D3*
Y2782038D3*
X2321752Y2744636D3*
X2006201Y2707235D3*
Y2782038D3*
X2096752Y2744636D3*
X2231201Y2857235D3*
Y2932038D3*
X2321752Y2894636D3*
X2006201Y2857235D3*
Y2932038D3*
X2096752Y2894636D3*
X2231201Y3157235D3*
Y3232038D3*
X2321752Y3194636D3*
X2006201Y3157235D3*
Y3232038D3*
X2096752Y3194636D3*
X2231201Y3307235D3*
Y3382038D3*
X2321752Y3344636D3*
X2006201Y3307235D3*
Y3382038D3*
X2096752Y3344636D3*
X2231201Y3457235D3*
Y3532038D3*
X2321752Y3494636D3*
X2012451Y3457235D3*
Y3532038D3*
X2103003Y3494636D3*
X2231201Y3607235D3*
Y3682038D3*
X2321752Y3644636D3*
X2006201Y3607235D3*
Y3682038D3*
X2096752Y3644636D3*
X2231201Y4957235D3*
Y5032038D3*
X2321752Y4994636D3*
X2006201Y4957235D3*
Y5032038D3*
X2096752Y4994636D3*
X2231201Y4657235D3*
Y4732038D3*
X2321752Y4694636D3*
X2006201Y4657235D3*
Y4732038D3*
X2096752Y4694636D3*
X2231201Y4357235D3*
Y4432038D3*
X2321752Y4394636D3*
X2006201Y4357235D3*
Y4432038D3*
X2096752Y4394636D3*
X2231201Y4207235D3*
Y4282038D3*
X2321752Y4244636D3*
X2006201Y4207235D3*
Y4282038D3*
X2096752Y4244636D3*
X2231201Y4057235D3*
Y4132038D3*
X2321752Y4094636D3*
X2006201Y4057235D3*
Y4132038D3*
X2096752Y4094636D3*
X2231201Y3907235D3*
Y3982038D3*
X2321752Y3944636D3*
X2006201Y3907235D3*
Y3982038D3*
X2096752Y3944636D3*
D66*
X1406202Y1006201D3*
X1295966D3*
X1292668Y531201D3*
X1402904D3*
X1294735Y912451D3*
X1404971D3*
X1406202Y631201D3*
X1295966D3*
D86*
X2162451Y982235D3*
Y907432D3*
X2518702Y1019735D3*
Y944932D3*
X1937451Y982235D3*
Y907432D3*
X2162451Y1432235D3*
Y1357432D3*
X2518702Y1325986D3*
Y1400789D3*
D64*
X1831202Y1224950D3*
Y1335186D3*
D86*
X2162451Y1282235D3*
Y1207432D3*
X2518701Y1175986D3*
Y1250789D3*
X1937451Y1282235D3*
Y1207432D3*
X2162451Y1582235D3*
Y1507432D3*
X2518702Y1475986D3*
Y1550789D3*
D82*
X1862451Y1507235D3*
X1937255D3*
D86*
X2162451Y1732235D3*
Y1657432D3*
X2518701Y1625986D3*
Y1700789D3*
X1937451Y1732235D3*
Y1657432D3*
X2162451Y1882235D3*
Y1807432D3*
X2518702Y1775986D3*
Y1850789D3*
X1937451Y1882235D3*
Y1807432D3*
X2162451Y2032235D3*
Y1957432D3*
X2518702Y1925986D3*
Y2000789D3*
X1937451Y2032235D3*
Y1957432D3*
X2162451Y2182235D3*
Y2107432D3*
X2518701Y2075986D3*
Y2150789D3*
X1937451Y2182235D3*
Y2107432D3*
X2162451Y2482234D3*
Y2407430D3*
X2518702Y2375986D3*
Y2450789D3*
X1937451Y2482234D3*
Y2407430D3*
X2162451Y2632235D3*
Y2557432D3*
X2518702Y2525986D3*
Y2600789D3*
X1937451Y2632235D3*
Y2557432D3*
X2162451Y2782234D3*
Y2707430D3*
X2518702Y2675986D3*
Y2750789D3*
X1937451Y2782234D3*
Y2707430D3*
X2162451Y2932235D3*
Y2857432D3*
X2518702Y2825986D3*
Y2900789D3*
X1937451Y2932235D3*
Y2857432D3*
X2162451Y3232235D3*
Y3157432D3*
X2518701Y3125986D3*
Y3200789D3*
X1937451Y3232235D3*
Y3157432D3*
X2162451Y3382234D3*
Y3307430D3*
X2518701Y3275986D3*
Y3350789D3*
X1937451Y3382234D3*
Y3307430D3*
X2162451Y3532235D3*
Y3457432D3*
X2518701Y3425986D3*
Y3500789D3*
X1937451Y3532235D3*
Y3457432D3*
X2162451Y3682038D3*
Y3607235D3*
X2518702Y3575986D3*
Y3650789D3*
X1937451Y3682234D3*
Y3607430D3*
X2162451Y5032235D3*
Y4957432D3*
X2518701Y4913486D3*
Y4988289D3*
X1937451Y5032235D3*
Y4957432D3*
X2162451Y4732235D3*
Y4657432D3*
X2518702Y4625986D3*
Y4700789D3*
X1937451Y4732235D3*
Y4657432D3*
X2162451Y4432235D3*
Y4357432D3*
X2518702Y4319735D3*
Y4394538D3*
X1937451Y4432235D3*
Y4357432D3*
X2162451Y4282235D3*
Y4207432D3*
X2518701Y4169735D3*
Y4244538D3*
X1937451Y4282235D3*
Y4207432D3*
X2162451Y4132235D3*
Y4057432D3*
X2518702Y4019735D3*
Y4094538D3*
X1937451Y4132235D3*
Y4057432D3*
X2162451Y3982235D3*
Y3907432D3*
X2518701Y3869735D3*
Y3944538D3*
X1937451Y3982235D3*
Y3907432D3*
D78*
X1131201Y2781201D3*
D76*
X1231201D3*
X1331201D3*
D78*
X1331202Y3024950D3*
D76*
X1231202D3*
X1131202D3*
D78*
X849951Y2281201D3*
D76*
Y2381201D3*
Y2481201D3*
D78*
Y2818702D3*
D76*
Y2918702D3*
Y3018702D3*
D86*
X687451Y3012451D3*
Y3087255D3*
Y2262451D3*
Y2187648D3*
D82*
X937451Y2999951D3*
X1012255D3*
D86*
X918701Y2649951D3*
Y2724755D3*
D82*
X1124951Y3212450D3*
X1199755D3*
D64*
X1493701Y1837450D3*
Y1947686D3*
D66*
X1099951Y3112451D3*
X989715D3*
D64*
X899951Y3212451D3*
Y3102215D3*
D62*
X1468701Y2549951D3*
Y2518455D3*
Y2486959D3*
Y2455463D3*
Y2423967D3*
Y2392471D3*
Y2360975D3*
Y2329479D3*
D60*
X1413583Y2274361D3*
X1382087D3*
X1350591D3*
X1319094D3*
X1287598D3*
X1256102D3*
X1224606D3*
X1193110D3*
D62*
X1137992Y2329479D3*
Y2360975D3*
Y2392471D3*
Y2423967D3*
Y2455463D3*
Y2486959D3*
Y2518455D3*
Y2549951D3*
D60*
X1193110Y2605070D3*
X1224606D3*
X1256102D3*
X1287598D3*
X1319094D3*
X1350591D3*
X1382087D3*
X1413583D3*
D58*
X1468701Y1725984D3*
X1518701D3*
X1568701D3*
X1618701D3*
X1668701D3*
X1718701D3*
X1768701D3*
Y1513386D3*
X1718701D3*
X1668701D3*
X1618701D3*
X1568701D3*
X1518701D3*
X1468701D3*
Y3112450D3*
X1518701D3*
X1568701D3*
X1618701D3*
X1668701D3*
X1718701D3*
X1768701D3*
Y2899852D3*
X1718701D3*
X1668701D3*
X1618701D3*
X1568701D3*
X1518701D3*
X1468701D3*
D56*
X1331202Y3299951D3*
X1324942Y4856211D3*
X662462Y3299951D3*
X656202Y4856211D3*
D54*
X1143702Y4037451D3*
D92*
X1214568Y4096507D3*
D54*
X1143702Y4155562D3*
D52*
X1512453Y4193699D3*
D50*
Y3993699D3*
Y4093699D3*
D95*
X2424951Y644735D3*
Y794735D3*
Y944735D3*
Y1244735D3*
Y1394735D3*
Y1544735D3*
Y1694735D3*
Y1844735D3*
Y1994735D3*
Y2144735D3*
Y2594735D3*
Y2444735D3*
Y2744735D3*
Y2894735D3*
Y3194735D3*
Y3344735D3*
Y3494735D3*
Y3644735D3*
Y3944735D3*
Y4094735D3*
Y4244735D3*
Y4394735D3*
Y4694735D3*
Y4994735D3*
Y5144735D3*
M02*
