G04 DipTrace 3.3.1.3*
G04 BottomSilk.gbr*
%MOIN*%
G04 #@! TF.FileFunction,Legend,Bot*
G04 #@! TF.Part,Single*
%ADD10C,0.009843*%
%ADD18C,0.031451*%
%ADD21C,0.015746*%
%ADD27C,0.015404*%
%ADD29C,0.015422*%
%ADD33O,0.016542X0.016422*%
%ADD38C,0.01542*%
%ADD88C,0.00772*%
%FSLAX26Y26*%
G04*
G70*
G90*
G75*
G01*
G04 BotSilk*
%LPD*%
X1611881Y2314841D2*
D10*
X1663022D1*
X1050522Y2466310D2*
X999381D1*
X1046643Y4422450D2*
X1331840D1*
X1001719Y4467330D2*
X1046643Y4422450D1*
Y4752450D2*
X1331840D1*
X1001719Y4707570D2*
X1046643Y4752450D1*
X1001719Y4536267D2*
Y4467330D1*
Y4707570D2*
Y4638633D1*
X1331840Y4536267D2*
Y4422450D1*
Y4752450D2*
Y4638633D1*
D18*
X969919Y4524453D3*
X871092Y4863022D2*
D10*
Y4811881D1*
X958593Y3325521D2*
Y3274379D1*
X1046643Y3384951D2*
X1331840D1*
X1001719Y3429831D2*
X1046643Y3384951D1*
Y3714951D2*
X1331840D1*
X1001719Y3670071D2*
X1046643Y3714951D1*
X1001719Y3498768D2*
Y3429831D1*
Y3670071D2*
Y3601134D1*
X1331840Y3498768D2*
Y3384951D1*
Y3714951D2*
Y3601134D1*
D18*
X969919Y3486954D3*
X661881Y2652341D2*
D10*
X713022D1*
Y2622560D2*
X661881D1*
X794272Y2391310D2*
X743130D1*
X794272Y3116310D2*
X743130D1*
X1316311Y3118130D2*
Y3169272D1*
X652022Y2911165D2*
Y2863932D1*
X722884Y2911165D2*
Y2863932D1*
D21*
X687453Y2983999D3*
X722881Y2363738D2*
D10*
Y2410971D1*
X652019Y2363738D2*
Y2410971D1*
D21*
X687450Y2290904D3*
X902022Y2899697D2*
D10*
Y2852465D1*
X972884Y2899697D2*
Y2852465D1*
D21*
X937453Y2972532D3*
X883272Y2562197D2*
D10*
Y2514965D1*
X954135Y2562197D2*
Y2514965D1*
D21*
X918703Y2635032D3*
X1594171Y2216110D2*
D10*
X1562671D1*
X1594171Y2271228D2*
X1562671D1*
X1052542Y2237920D2*
Y2206420D1*
X997424Y2237920D2*
Y2206420D1*
D27*
X1630802Y678993D3*
X1621601Y729135D2*
D10*
X1503496D1*
Y748820D1*
X1621601D1*
Y729135D1*
D27*
X1631604Y845910D3*
X1640805Y795768D2*
D10*
X1758909D1*
Y776083D1*
X1640805D1*
Y795768D1*
D27*
X1381604Y845910D3*
X1390805Y795768D2*
D10*
X1508909D1*
Y776083D1*
X1390805D1*
Y795768D1*
D27*
X1868300Y672741D3*
X1859100Y722883D2*
D10*
X1740995D1*
Y742568D1*
X1859100D1*
Y722883D1*
D29*
X2216492Y876386D3*
X2266634Y885587D2*
D10*
Y1003692D1*
X2286319D1*
Y885587D1*
X2266634D1*
D29*
X1991492Y876386D3*
X2041634Y885587D2*
D10*
Y1003692D1*
X2061319D1*
Y885587D1*
X2041634D1*
D29*
X2216492Y1326385D3*
X2266634Y1335585D2*
D10*
Y1453690D1*
X2286319D1*
Y1335585D1*
X2266634D1*
D29*
X1991492Y1326385D3*
X2041634Y1335585D2*
D10*
Y1453690D1*
X2061319D1*
Y1335585D1*
X2041634D1*
D29*
X2216492Y1176386D3*
X2266634Y1185587D2*
D10*
Y1303692D1*
X2286319D1*
Y1185587D1*
X2266634D1*
D29*
X1991492Y1176386D3*
X2041634Y1185587D2*
D10*
Y1303692D1*
X2061319D1*
Y1185587D1*
X2041634D1*
D29*
X2216492Y1476386D3*
X2266634Y1485587D2*
D10*
Y1603692D1*
X2286319D1*
Y1485587D1*
X2266634D1*
D29*
X1991492Y1476386D3*
X2041634Y1485587D2*
D10*
Y1603692D1*
X2061319D1*
Y1485587D1*
X2041634D1*
D29*
X2216492Y1626385D3*
X2266634Y1635585D2*
D10*
Y1753690D1*
X2286319D1*
Y1635585D1*
X2266634D1*
D29*
X1991492Y1626385D3*
X2041634Y1635585D2*
D10*
Y1753690D1*
X2061319D1*
Y1635585D1*
X2041634D1*
D29*
X2216492Y1776386D3*
X2266634Y1785587D2*
D10*
Y1903692D1*
X2286319D1*
Y1785587D1*
X2266634D1*
D29*
X1991492Y1776386D3*
X2041634Y1785587D2*
D10*
Y1903692D1*
X2061319D1*
Y1785587D1*
X2041634D1*
D29*
X2216492Y1926385D3*
X2266634Y1935585D2*
D10*
Y2053690D1*
X2286319D1*
Y1935585D1*
X2266634D1*
D29*
X1991492Y1926385D3*
X2041634Y1935585D2*
D10*
Y2053690D1*
X2061319D1*
Y1935585D1*
X2041634D1*
D29*
X2216492Y2076386D3*
X2266634Y2085587D2*
D10*
Y2203692D1*
X2286319D1*
Y2085587D1*
X2266634D1*
D29*
X1991492Y2076386D3*
X2041634Y2085587D2*
D10*
Y2203692D1*
X2061319D1*
Y2085587D1*
X2041634D1*
D29*
X2216492Y2376386D3*
X2266634Y2385587D2*
D10*
Y2503692D1*
X2286319D1*
Y2385587D1*
X2266634D1*
D29*
X1991492Y2376386D3*
X2041634Y2385587D2*
D10*
Y2503692D1*
X2061319D1*
Y2385587D1*
X2041634D1*
D29*
X2216492Y2526386D3*
X2266634Y2535587D2*
D10*
Y2653692D1*
X2286319D1*
Y2535587D1*
X2266634D1*
D29*
X1991492Y2526386D3*
X2041634Y2535587D2*
D10*
Y2653692D1*
X2061319D1*
Y2535587D1*
X2041634D1*
D29*
X2216492Y2676386D3*
X2266634Y2685587D2*
D10*
Y2803692D1*
X2286319D1*
Y2685587D1*
X2266634D1*
D29*
X1991492Y2676386D3*
X2041634Y2685587D2*
D10*
Y2803692D1*
X2061319D1*
Y2685587D1*
X2041634D1*
D29*
X2216492Y2826386D3*
X2266634Y2835587D2*
D10*
Y2953692D1*
X2286319D1*
Y2835587D1*
X2266634D1*
D29*
X1991492Y2826386D3*
X2041634Y2835587D2*
D10*
Y2953692D1*
X2061319D1*
Y2835587D1*
X2041634D1*
D29*
X2216492Y3126386D3*
X2266634Y3135587D2*
D10*
Y3253692D1*
X2286319D1*
Y3135587D1*
X2266634D1*
D29*
X1991492Y3126386D3*
X2041634Y3135587D2*
D10*
Y3253692D1*
X2061319D1*
Y3135587D1*
X2041634D1*
D29*
X2216492Y3276386D3*
X2266634Y3285587D2*
D10*
Y3403692D1*
X2286319D1*
Y3285587D1*
X2266634D1*
D29*
X1991492Y3276386D3*
X2041634Y3285587D2*
D10*
Y3403692D1*
X2061319D1*
Y3285587D1*
X2041634D1*
D29*
X2216492Y3426386D3*
X2266634Y3435587D2*
D10*
Y3553692D1*
X2286319D1*
Y3435587D1*
X2266634D1*
D29*
X1997743Y3426386D3*
X2047884Y3435587D2*
D10*
Y3553692D1*
X2067570D1*
Y3435587D1*
X2047884D1*
D29*
X2216492Y3576386D3*
X2266634Y3585587D2*
D10*
Y3703692D1*
X2286319D1*
Y3585587D1*
X2266634D1*
D29*
X1991492Y3576386D3*
X2041634Y3585587D2*
D10*
Y3703692D1*
X2061319D1*
Y3585587D1*
X2041634D1*
D29*
X2216492Y4926386D3*
X2266634Y4935587D2*
D10*
Y5053692D1*
X2286319D1*
Y4935587D1*
X2266634D1*
D29*
X1991492Y4926386D3*
X2041634Y4935587D2*
D10*
Y5053692D1*
X2061319D1*
Y4935587D1*
X2041634D1*
D29*
X2216492Y4626386D3*
X2266634Y4635587D2*
D10*
Y4753692D1*
X2286319D1*
Y4635587D1*
X2266634D1*
D29*
X1991492Y4626386D3*
X2041634Y4635587D2*
D10*
Y4753692D1*
X2061319D1*
Y4635587D1*
X2041634D1*
D29*
X2216492Y4326386D3*
X2266634Y4335587D2*
D10*
Y4453692D1*
X2286319D1*
Y4335587D1*
X2266634D1*
D29*
X1991492Y4326386D3*
X2041634Y4335587D2*
D10*
Y4453692D1*
X2061319D1*
Y4335587D1*
X2041634D1*
D29*
X2216492Y4176386D3*
X2266634Y4185587D2*
D10*
Y4303692D1*
X2286319D1*
Y4185587D1*
X2266634D1*
D29*
X1991492Y4176386D3*
X2041634Y4185587D2*
D10*
Y4303692D1*
X2061319D1*
Y4185587D1*
X2041634D1*
D29*
X2216492Y4026386D3*
X2266634Y4035587D2*
D10*
Y4153692D1*
X2286319D1*
Y4035587D1*
X2266634D1*
D29*
X1991492Y4026386D3*
X2041634Y4035587D2*
D10*
Y4153692D1*
X2061319D1*
Y4035587D1*
X2041634D1*
D29*
X2216492Y3876386D3*
X2266634Y3885587D2*
D10*
Y4003692D1*
X2286319D1*
Y3885587D1*
X2266634D1*
D29*
X1991492Y3876386D3*
X2041634Y3885587D2*
D10*
Y4003692D1*
X2061319D1*
Y3885587D1*
X2041634D1*
X1362864Y974736D2*
X1339304D1*
X1362864Y1037665D2*
X1339304D1*
X1336007Y562665D2*
X1359566D1*
X1336007Y499736D2*
X1359566D1*
X1338073Y943916D2*
X1361633D1*
X1338073Y880987D2*
X1361633D1*
X1362864Y599736D2*
X1339304D1*
X1362864Y662665D2*
X1339304D1*
X1799738Y1268289D2*
Y1291848D1*
X1862667Y1268289D2*
Y1291848D1*
X1462236Y1880789D2*
Y1904348D1*
X1525165Y1880789D2*
Y1904348D1*
X1056613Y3080987D2*
X1033054D1*
X1056613Y3143916D2*
X1033054D1*
X931416Y3169113D2*
Y3145554D1*
X868487Y3169113D2*
Y3145554D1*
X1417508Y2551929D2*
X1189185D1*
Y2323565D1*
X1417508D1*
Y2551929D1*
D33*
X1469161Y2583044D3*
G36*
X1417508Y2551929D2*
Y2520436D1*
X1386015Y2551929D1*
X1417508D1*
G37*
X1449404Y1670873D2*
D10*
X1787997D1*
X1449404Y1568497D2*
X1787997D1*
Y1670873D2*
Y1568497D1*
X1449404Y1670873D2*
Y1639380D1*
Y1599991D2*
Y1568497D1*
Y1639380D2*
G02X1449404Y1599991I12J-19694D01*
G01*
Y3057339D2*
X1787997D1*
X1449404Y2954963D2*
X1787997D1*
Y3057339D2*
Y2954963D1*
X1449404Y3057339D2*
Y3025845D1*
Y2986456D2*
Y2954963D1*
Y3025845D2*
G02X1449404Y2986456I12J-19694D01*
G01*
X1183085Y4007923D2*
X1281491D1*
Y4037464D1*
Y4155549D2*
Y4185089D1*
X1183085D1*
D38*
X1124455Y3998826D3*
X1546639Y2381499D2*
D88*
X1541886Y2383876D1*
X1537077Y2388684D1*
X1534701Y2393438D1*
Y2402999D1*
X1537077Y2407808D1*
X1541886Y2412561D1*
X1546639Y2414993D1*
X1553824Y2417369D1*
X1565818D1*
X1572947Y2414993D1*
X1577756Y2412561D1*
X1582509Y2407808D1*
X1584941Y2402999D1*
Y2393437D1*
X1582509Y2388684D1*
X1577756Y2383876D1*
X1572947Y2381499D1*
X1544318Y2366060D2*
X1541886Y2361252D1*
X1534756Y2354067D1*
X1584941D1*
X934139Y2401964D2*
X929386Y2404341D1*
X924577Y2409150D1*
X922201Y2413903D1*
Y2423464D1*
X924577Y2428273D1*
X929386Y2433026D1*
X934139Y2435458D1*
X941324Y2437834D1*
X953318D1*
X960447Y2435458D1*
X965256Y2433026D1*
X970009Y2428273D1*
X972441Y2423464D1*
Y2413903D1*
X970009Y2409149D1*
X965256Y2404341D1*
X960447Y2401964D1*
X934194Y2384093D2*
X931818D1*
X927009Y2381717D1*
X924633Y2379340D1*
X922256Y2374532D1*
Y2364970D1*
X924633Y2360217D1*
X927009Y2357840D1*
X931818Y2355409D1*
X936571D1*
X941379Y2357840D1*
X948509Y2362594D1*
X972441Y2386525D1*
Y2353032D1*
X1173311Y4813735D2*
X1175687Y4818488D1*
X1180496Y4823297D1*
X1185249Y4825673D1*
X1194811D1*
X1199619Y4823297D1*
X1204372Y4818488D1*
X1206804Y4813735D1*
X1209181Y4806550D1*
Y4794556D1*
X1206804Y4787427D1*
X1204372Y4782618D1*
X1199619Y4777865D1*
X1194811Y4775433D1*
X1185249D1*
X1180496Y4777865D1*
X1175687Y4782618D1*
X1173311Y4787427D1*
X1153063Y4825618D2*
X1126810D1*
X1141125Y4806495D1*
X1133940D1*
X1129187Y4804118D1*
X1126810Y4801741D1*
X1124378Y4794556D1*
Y4789803D1*
X1126810Y4782618D1*
X1131563Y4777810D1*
X1138748Y4775433D1*
X1145933D1*
X1153063Y4777810D1*
X1155440Y4780242D1*
X1157872Y4784995D1*
X949688Y4928264D2*
X952065Y4933017D1*
X956873Y4937825D1*
X961626Y4940202D1*
X971188D1*
X975996Y4937825D1*
X980750Y4933017D1*
X983181Y4928264D1*
X985558Y4921079D1*
Y4909085D1*
X983181Y4901956D1*
X980750Y4897147D1*
X975996Y4892394D1*
X971188Y4889962D1*
X961626D1*
X956873Y4892394D1*
X952065Y4897147D1*
X949688Y4901956D1*
X910317Y4889962D2*
Y4940147D1*
X934249Y4906709D1*
X898379D1*
X1036001Y3390763D2*
X1038378Y3395516D1*
X1043186Y3400324D1*
X1047939Y3402701D1*
X1057501D1*
X1062309Y3400324D1*
X1067063Y3395516D1*
X1069494Y3390763D1*
X1071871Y3383578D1*
Y3371584D1*
X1069494Y3364454D1*
X1067063Y3359646D1*
X1062309Y3354893D1*
X1057501Y3352461D1*
X1047939D1*
X1043186Y3354893D1*
X1038378Y3359646D1*
X1036001Y3364454D1*
X991877Y3402645D2*
X1015753D1*
X1018130Y3381146D1*
X1015753Y3383522D1*
X1008568Y3385954D1*
X1001439D1*
X994254Y3383522D1*
X989445Y3378769D1*
X987069Y3371584D1*
Y3366831D1*
X989445Y3359646D1*
X994254Y3354837D1*
X1001439Y3352461D1*
X1008568D1*
X1015753Y3354837D1*
X1018130Y3357269D1*
X1020562Y3362022D1*
X1172095Y3776236D2*
X1174472Y3780989D1*
X1179280Y3785798D1*
X1184033Y3788175D1*
X1193595D1*
X1198403Y3785798D1*
X1203156Y3780989D1*
X1205588Y3776236D1*
X1207965Y3769051D1*
Y3757058D1*
X1205588Y3749928D1*
X1203156Y3745120D1*
X1198403Y3740366D1*
X1193595Y3737935D1*
X1184033D1*
X1179280Y3740366D1*
X1174472Y3745120D1*
X1172095Y3749928D1*
X1127971Y3780989D2*
X1130347Y3785743D1*
X1137532Y3788119D1*
X1142286D1*
X1149471Y3785743D1*
X1154279Y3778558D1*
X1156656Y3766619D1*
Y3754681D1*
X1154279Y3745120D1*
X1149471Y3740311D1*
X1142286Y3737935D1*
X1139909D1*
X1132779Y3740311D1*
X1127971Y3745120D1*
X1125594Y3752305D1*
Y3754681D1*
X1127971Y3761866D1*
X1132779Y3766619D1*
X1139909Y3768996D1*
X1142286D1*
X1149471Y3766619D1*
X1154279Y3761866D1*
X1156656Y3754681D1*
X596639Y2729749D2*
X591886Y2732126D1*
X587077Y2736934D1*
X584701Y2741687D1*
Y2751249D1*
X587077Y2756058D1*
X591886Y2760811D1*
X596639Y2763243D1*
X603824Y2765619D1*
X615818D1*
X622947Y2763243D1*
X627756Y2760811D1*
X632509Y2756057D1*
X634941Y2751249D1*
Y2741687D1*
X632509Y2736934D1*
X627756Y2732126D1*
X622947Y2729749D1*
X634941Y2704748D2*
X584756Y2680817D1*
Y2714310D1*
X596639Y2558187D2*
X591886Y2560564D1*
X587077Y2565373D1*
X584701Y2570126D1*
Y2579687D1*
X587077Y2584496D1*
X591886Y2589249D1*
X596639Y2591681D1*
X603824Y2594057D1*
X615818D1*
X622947Y2591681D1*
X627756Y2589249D1*
X632509Y2584496D1*
X634941Y2579687D1*
Y2570126D1*
X632509Y2565372D1*
X627756Y2560564D1*
X622947Y2558187D1*
X584756Y2530810D2*
X587133Y2537940D1*
X591886Y2540372D1*
X596694D1*
X601448Y2537940D1*
X603879Y2533187D1*
X606256Y2523625D1*
X608633Y2516440D1*
X613441Y2511687D1*
X618194Y2509310D1*
X625379D1*
X630132Y2511687D1*
X632564Y2514063D1*
X634941Y2521248D1*
Y2530810D1*
X632564Y2537940D1*
X630132Y2540372D1*
X625379Y2542748D1*
X618194D1*
X613441Y2540372D1*
X608633Y2535563D1*
X606256Y2528433D1*
X603879Y2518872D1*
X601447Y2514063D1*
X596694Y2511687D1*
X591886D1*
X587133Y2514063D1*
X584756Y2521248D1*
Y2530810D1*
X677888Y2325776D2*
X673135Y2328153D1*
X668327Y2332961D1*
X665950Y2337714D1*
Y2347276D1*
X668327Y2352084D1*
X673135Y2356838D1*
X677888Y2359269D1*
X685073Y2361646D1*
X697067D1*
X704197Y2359269D1*
X709005Y2356838D1*
X713758Y2352084D1*
X716190Y2347276D1*
Y2337714D1*
X713758Y2332961D1*
X709005Y2328153D1*
X704197Y2325776D1*
X682697Y2279220D2*
X689882Y2281652D1*
X694690Y2286405D1*
X697067Y2293590D1*
Y2295967D1*
X694690Y2303152D1*
X689882Y2307905D1*
X682697Y2310337D1*
X680320D1*
X673135Y2307905D1*
X668382Y2303152D1*
X666005Y2295967D1*
Y2293590D1*
X668382Y2286405D1*
X673135Y2281652D1*
X682697Y2279220D1*
X694690D1*
X706629Y2281652D1*
X713814Y2286405D1*
X716190Y2293590D1*
Y2298343D1*
X713814Y2305528D1*
X709005Y2307905D1*
X677888Y3065681D2*
X673135Y3068057D1*
X668327Y3072866D1*
X665950Y3077619D1*
Y3087181D1*
X668327Y3091989D1*
X673135Y3096742D1*
X677888Y3099174D1*
X685073Y3101551D1*
X697067D1*
X704197Y3099174D1*
X709005Y3096742D1*
X713758Y3091989D1*
X716190Y3087181D1*
Y3077619D1*
X713758Y3072866D1*
X709005Y3068057D1*
X704197Y3065681D1*
X675567Y3050242D2*
X673135Y3045433D1*
X666005Y3038248D1*
X716190D1*
X666005Y3008439D2*
X668382Y3015624D1*
X675567Y3020432D1*
X687505Y3022809D1*
X694690D1*
X706629Y3020432D1*
X713814Y3015624D1*
X716190Y3008439D1*
Y3003686D1*
X713814Y2996501D1*
X706629Y2991747D1*
X694690Y2989316D1*
X687505D1*
X675567Y2991747D1*
X668382Y2996501D1*
X666005Y3003686D1*
Y3008439D1*
X675567Y2991747D2*
X706629Y3020432D1*
X1254932Y3234513D2*
X1257309Y3239266D1*
X1262117Y3244075D1*
X1266870Y3246451D1*
X1276432D1*
X1281240Y3244075D1*
X1285994Y3239266D1*
X1288425Y3234513D1*
X1290802Y3227328D1*
Y3215335D1*
X1288425Y3208205D1*
X1285994Y3203396D1*
X1281240Y3198643D1*
X1276432Y3196211D1*
X1266870D1*
X1262117Y3198643D1*
X1257309Y3203396D1*
X1254932Y3208205D1*
X1239493Y3236835D2*
X1234684Y3239266D1*
X1227499Y3246396D1*
Y3196211D1*
X1212060Y3236835D2*
X1207252Y3239266D1*
X1200067Y3246396D1*
Y3196211D1*
X578799Y2930808D2*
X629039D1*
Y2914062D1*
X626607Y2906877D1*
X621854Y2902068D1*
X617045Y2899692D1*
X609915Y2897315D1*
X597922D1*
X590737Y2899692D1*
X585984Y2902068D1*
X581175Y2906877D1*
X578799Y2914062D1*
Y2930808D1*
X588416Y2881876D2*
X585984Y2877067D1*
X578854Y2869882D1*
X629039D1*
X578796Y2415771D2*
X629036D1*
Y2399024D1*
X626604Y2391839D1*
X621851Y2387031D1*
X617043Y2384654D1*
X609913Y2382277D1*
X597919D1*
X590734Y2384654D1*
X585981Y2387031D1*
X581173Y2391839D1*
X578796Y2399024D1*
Y2415771D1*
X590789Y2364406D2*
X588413D1*
X583604Y2362030D1*
X581228Y2359653D1*
X578851Y2354845D1*
Y2345283D1*
X581228Y2340530D1*
X583604Y2338153D1*
X588413Y2335722D1*
X593166D1*
X597974Y2338153D1*
X605104Y2342907D1*
X629036Y2366838D1*
Y2333345D1*
X828799Y2930091D2*
X879039D1*
Y2913344D1*
X876607Y2906159D1*
X871854Y2901351D1*
X867045Y2898974D1*
X859915Y2896598D1*
X847922D1*
X840737Y2898974D1*
X835984Y2901351D1*
X831175Y2906159D1*
X828799Y2913344D1*
Y2930091D1*
X828854Y2876350D2*
Y2850097D1*
X847977Y2864412D1*
Y2857227D1*
X850354Y2852474D1*
X852730Y2850097D1*
X859915Y2847665D1*
X864669D1*
X871854Y2850097D1*
X876662Y2854850D1*
X879039Y2862035D1*
Y2869220D1*
X876662Y2876350D1*
X874230Y2878727D1*
X869477Y2881158D1*
X810049Y2593779D2*
X860289D1*
Y2577033D1*
X857857Y2569848D1*
X853104Y2565039D1*
X848296Y2562662D1*
X841166Y2560286D1*
X829173D1*
X821988Y2562663D1*
X817234Y2565039D1*
X812426Y2569848D1*
X810049Y2577033D1*
Y2593779D1*
X860289Y2520915D2*
X810105D1*
X843543Y2544847D1*
Y2508977D1*
X1606455Y2348420D2*
Y2298180D1*
X1577770D1*
X1562331Y2338803D2*
X1557523Y2341235D1*
X1550338Y2348365D1*
Y2298180D1*
X920232Y2260954D2*
X970472D1*
Y2232270D1*
X932226Y2214399D2*
X929849D1*
X925041Y2212022D1*
X922664Y2209645D1*
X920288Y2204837D1*
Y2195275D1*
X922664Y2190522D1*
X925041Y2188146D1*
X929849Y2185714D1*
X934602D1*
X939411Y2188146D1*
X946541Y2192899D1*
X970472Y2216830D1*
Y2183337D1*
X1589497Y878146D2*
X1594250Y875824D1*
X1599059Y871016D1*
X1601435Y866207D1*
X1603867Y859022D1*
Y847084D1*
X1601435Y839899D1*
X1599059Y835146D1*
X1594250Y830338D1*
X1589497Y827961D1*
X1579936D1*
X1575127Y830338D1*
X1570374Y835146D1*
X1567997Y839899D1*
X1565565Y847084D1*
Y859022D1*
X1567997Y866207D1*
X1570374Y871016D1*
X1575127Y875824D1*
X1579936Y878146D1*
X1589497D1*
X1582312Y837523D2*
X1567997Y823152D1*
X1550126Y868529D2*
X1545318Y870961D1*
X1538133Y878090D1*
Y827906D1*
X1720653Y926844D2*
X1725406Y924522D1*
X1730214Y919714D1*
X1732591Y914906D1*
X1735023Y907721D1*
Y895782D1*
X1732591Y888597D1*
X1730214Y883844D1*
X1725406Y879036D1*
X1720653Y876659D1*
X1711091D1*
X1706283Y879036D1*
X1701529Y883844D1*
X1699153Y888597D1*
X1696721Y895782D1*
Y907721D1*
X1699153Y914906D1*
X1701529Y919714D1*
X1706283Y924522D1*
X1711091Y926844D1*
X1720653D1*
X1713468Y886221D2*
X1699153Y871851D1*
X1678850Y914850D2*
Y917227D1*
X1676473Y922035D1*
X1674097Y924412D1*
X1669288Y926789D1*
X1659727D1*
X1654973Y924412D1*
X1652597Y922035D1*
X1650165Y917227D1*
Y912474D1*
X1652597Y907665D1*
X1657350Y900536D1*
X1681282Y876604D1*
X1647788D1*
X1470653Y926844D2*
X1475406Y924522D1*
X1480214Y919714D1*
X1482591Y914906D1*
X1485023Y907721D1*
Y895782D1*
X1482591Y888597D1*
X1480214Y883844D1*
X1475406Y879036D1*
X1470653Y876659D1*
X1461091D1*
X1456283Y879036D1*
X1451529Y883844D1*
X1449153Y888597D1*
X1446721Y895782D1*
Y907721D1*
X1449153Y914906D1*
X1451529Y919714D1*
X1456283Y924522D1*
X1461091Y926844D1*
X1470653D1*
X1463468Y886221D2*
X1449153Y871851D1*
X1426473Y926789D2*
X1400220D1*
X1414535Y907665D1*
X1407350D1*
X1402597Y905289D1*
X1400220Y902912D1*
X1397788Y895727D1*
Y890974D1*
X1400220Y883789D1*
X1404973Y878980D1*
X1412158Y876604D1*
X1419343D1*
X1426473Y878980D1*
X1428850Y881412D1*
X1431282Y886165D1*
X1838934Y871894D2*
X1843687Y869572D1*
X1848496Y864764D1*
X1850872Y859955D1*
X1853304Y852770D1*
Y840832D1*
X1850872Y833647D1*
X1848496Y828894D1*
X1843687Y824086D1*
X1838934Y821709D1*
X1829372D1*
X1824564Y824086D1*
X1819811Y828894D1*
X1817434Y833647D1*
X1815002Y840832D1*
Y852770D1*
X1817434Y859955D1*
X1819811Y864764D1*
X1824564Y869572D1*
X1829372Y871894D1*
X1838934D1*
X1831749Y831271D2*
X1817434Y816900D1*
X1775631Y821654D2*
Y871838D1*
X1799563Y838400D1*
X1763693D1*
X2359380Y965435D2*
X2361701Y970188D1*
X2366510Y974996D1*
X2371318Y977373D1*
X2378503Y979805D1*
X2390441D1*
X2397627Y977373D1*
X2402380Y974996D1*
X2407188Y970188D1*
X2409565Y965435D1*
Y955873D1*
X2407188Y951065D1*
X2402380Y946312D1*
X2397627Y943935D1*
X2390441Y941503D1*
X2378503D1*
X2371318Y943935D1*
X2366510Y946312D1*
X2361701Y951065D1*
X2359380Y955873D1*
Y965435D1*
X2400003Y958250D2*
X2414373Y943935D1*
X2359435Y897379D2*
Y921255D1*
X2380935Y923632D1*
X2378559Y921255D1*
X2376127Y914070D1*
Y906941D1*
X2378558Y899756D1*
X2383312Y894947D1*
X2390497Y892571D1*
X2395250D1*
X2402435Y894947D1*
X2407243Y899756D1*
X2409620Y906941D1*
Y914070D1*
X2407243Y921255D1*
X2404812Y923632D1*
X2400058Y926064D1*
X2078632Y1076915D2*
X2083385Y1074593D1*
X2088194Y1069785D1*
X2090570Y1064976D1*
X2093002Y1057791D1*
Y1045853D1*
X2090570Y1038668D1*
X2088194Y1033915D1*
X2083385Y1029107D1*
X2078632Y1026730D1*
X2069071D1*
X2064262Y1029107D1*
X2059509Y1033915D1*
X2057132Y1038668D1*
X2054701Y1045853D1*
Y1057791D1*
X2057132Y1064976D1*
X2059509Y1069785D1*
X2064262Y1074593D1*
X2069071Y1076915D1*
X2078632D1*
X2071447Y1036292D2*
X2057132Y1021921D1*
X2010576Y1069730D2*
X2012953Y1074483D1*
X2020138Y1076859D1*
X2024891D1*
X2032076Y1074483D1*
X2036885Y1067298D1*
X2039261Y1055360D1*
Y1043421D1*
X2036885Y1033860D1*
X2032076Y1029051D1*
X2024891Y1026675D1*
X2022515D1*
X2015385Y1029051D1*
X2010576Y1033860D1*
X2008200Y1041045D1*
Y1043421D1*
X2010576Y1050606D1*
X2015385Y1055360D1*
X2022515Y1057736D1*
X2024891D1*
X2032076Y1055360D1*
X2036885Y1050606D1*
X2039261Y1043421D1*
X2359380Y1415434D2*
X2361701Y1420187D1*
X2366510Y1424995D1*
X2371318Y1427372D1*
X2378503Y1429804D1*
X2390441D1*
X2397627Y1427372D1*
X2402380Y1424995D1*
X2407188Y1420187D1*
X2409565Y1415433D1*
Y1405872D1*
X2407188Y1401063D1*
X2402380Y1396310D1*
X2397627Y1393934D1*
X2390441Y1391502D1*
X2378503D1*
X2371318Y1393934D1*
X2366510Y1396310D1*
X2361701Y1401063D1*
X2359380Y1405872D1*
Y1415434D1*
X2400003Y1408248D2*
X2414373Y1393934D1*
X2409620Y1366501D2*
X2359435Y1342569D1*
Y1376063D1*
X2079821Y1526913D2*
X2084574Y1524592D1*
X2089382Y1519784D1*
X2091759Y1514975D1*
X2094191Y1507790D1*
Y1495852D1*
X2091759Y1488667D1*
X2089382Y1483914D1*
X2084574Y1479105D1*
X2079821Y1476729D1*
X2070259D1*
X2065450Y1479105D1*
X2060697Y1483914D1*
X2058321Y1488667D1*
X2055889Y1495852D1*
Y1507790D1*
X2058321Y1514975D1*
X2060697Y1519784D1*
X2065450Y1524592D1*
X2070259Y1526913D1*
X2079821D1*
X2072635Y1486290D2*
X2058321Y1471920D1*
X2028511Y1526858D2*
X2035641Y1524482D1*
X2038073Y1519728D1*
Y1514920D1*
X2035641Y1510167D1*
X2030888Y1507735D1*
X2021326Y1505358D1*
X2014141Y1502982D1*
X2009388Y1498173D1*
X2007011Y1493420D1*
Y1486235D1*
X2009388Y1481482D1*
X2011765Y1479050D1*
X2018950Y1476673D1*
X2028511D1*
X2035641Y1479050D1*
X2038073Y1481482D1*
X2040450Y1486235D1*
Y1493420D1*
X2038073Y1498173D1*
X2033265Y1502982D1*
X2026135Y1505358D1*
X2016573Y1507735D1*
X2011765Y1510167D1*
X2009388Y1514920D1*
Y1519728D1*
X2011765Y1524482D1*
X2018950Y1526858D1*
X2028511D1*
X2359380Y1264247D2*
X2361701Y1269000D1*
X2366510Y1273808D1*
X2371318Y1276185D1*
X2378503Y1278617D1*
X2390441D1*
X2397627Y1276185D1*
X2402380Y1273808D1*
X2407188Y1269000D1*
X2409565Y1264246D1*
Y1254685D1*
X2407188Y1249876D1*
X2402380Y1245123D1*
X2397627Y1242747D1*
X2390441Y1240315D1*
X2378503D1*
X2371318Y1242747D1*
X2366510Y1245123D1*
X2361701Y1249876D1*
X2359380Y1254685D1*
Y1264247D1*
X2400003Y1257061D2*
X2414373Y1242747D1*
X2376127Y1193759D2*
X2383312Y1196191D1*
X2388120Y1200944D1*
X2390497Y1208129D1*
Y1210506D1*
X2388120Y1217691D1*
X2383312Y1222444D1*
X2376127Y1224876D1*
X2373750D1*
X2366565Y1222444D1*
X2361812Y1217691D1*
X2359435Y1210506D1*
Y1208129D1*
X2361812Y1200944D1*
X2366565Y1196191D1*
X2376127Y1193759D1*
X2388120D1*
X2400058Y1196191D1*
X2407243Y1200944D1*
X2409620Y1208129D1*
Y1212882D1*
X2407243Y1220067D1*
X2402435Y1222444D1*
X1910558Y1279151D2*
X1912879Y1283904D1*
X1917688Y1288713D1*
X1922496Y1291089D1*
X1929681Y1293521D1*
X1941619D1*
X1948804Y1291089D1*
X1953557Y1288713D1*
X1958366Y1283904D1*
X1960743Y1279151D1*
Y1269590D1*
X1958366Y1264781D1*
X1953557Y1260028D1*
X1948804Y1257651D1*
X1941619Y1255219D1*
X1929681D1*
X1922496Y1257651D1*
X1917688Y1260028D1*
X1912879Y1264781D1*
X1910558Y1269590D1*
Y1279151D1*
X1951181Y1271966D2*
X1965551Y1257651D1*
X1920175Y1239780D2*
X1917743Y1234972D1*
X1910613Y1227787D1*
X1960798D1*
X1910613Y1197977D2*
X1912990Y1205163D1*
X1920175Y1209971D1*
X1932113Y1212348D1*
X1939298D1*
X1951236Y1209971D1*
X1958421Y1205162D1*
X1960798Y1197977D1*
Y1193224D1*
X1958421Y1186039D1*
X1951236Y1181286D1*
X1939298Y1178854D1*
X1932113D1*
X1920175Y1181286D1*
X1912990Y1186039D1*
X1910613Y1193224D1*
Y1197977D1*
X1920175Y1181286D2*
X1951236Y1209971D1*
X2359380Y1568401D2*
X2361701Y1573154D1*
X2366510Y1577963D1*
X2371318Y1580339D1*
X2378503Y1582771D1*
X2390441D1*
X2397627Y1580339D1*
X2402380Y1577963D1*
X2407188Y1573154D1*
X2409565Y1568401D1*
Y1558840D1*
X2407188Y1554031D1*
X2402380Y1549278D1*
X2397627Y1546901D1*
X2390441Y1544470D1*
X2378503D1*
X2371318Y1546901D1*
X2366510Y1549278D1*
X2361701Y1554031D1*
X2359380Y1558840D1*
Y1568401D1*
X2400003Y1561216D2*
X2414373Y1546901D1*
X2368997Y1529030D2*
X2366565Y1524222D1*
X2359435Y1517037D1*
X2409620D1*
X2368997Y1501598D2*
X2366565Y1496789D1*
X2359435Y1489604D1*
X2409620D1*
X1910558Y1579151D2*
X1912879Y1583904D1*
X1917688Y1588713D1*
X1922496Y1591089D1*
X1929681Y1593521D1*
X1941619D1*
X1948804Y1591089D1*
X1953557Y1588713D1*
X1958366Y1583904D1*
X1960743Y1579151D1*
Y1569590D1*
X1958366Y1564781D1*
X1953557Y1560028D1*
X1948804Y1557651D1*
X1941619Y1555219D1*
X1929681D1*
X1922496Y1557651D1*
X1917688Y1560028D1*
X1912879Y1564781D1*
X1910558Y1569590D1*
Y1579151D1*
X1951181Y1571966D2*
X1965551Y1557651D1*
X1920175Y1539780D2*
X1917743Y1534972D1*
X1910613Y1527787D1*
X1960798D1*
X1922551Y1509916D2*
X1920175D1*
X1915366Y1507539D1*
X1912990Y1505163D1*
X1910613Y1500354D1*
Y1490792D1*
X1912990Y1486039D1*
X1915366Y1483663D1*
X1920175Y1481231D1*
X1924928D1*
X1929736Y1483663D1*
X1936866Y1488416D1*
X1960798Y1512347D1*
Y1478854D1*
X2359380Y1729150D2*
X2361701Y1733903D1*
X2366510Y1738711D1*
X2371318Y1741088D1*
X2378503Y1743520D1*
X2390441D1*
X2397627Y1741088D1*
X2402380Y1738711D1*
X2407188Y1733903D1*
X2409565Y1729150D1*
Y1719588D1*
X2407188Y1714780D1*
X2402380Y1710027D1*
X2397627Y1707650D1*
X2390441Y1705218D1*
X2378503D1*
X2371318Y1707650D1*
X2366510Y1710027D1*
X2361701Y1714780D1*
X2359380Y1719588D1*
Y1729150D1*
X2400003Y1721965D2*
X2414373Y1707650D1*
X2368997Y1689779D2*
X2366565Y1684970D1*
X2359435Y1677785D1*
X2409620D1*
X2359435Y1657538D2*
Y1631285D1*
X2378559Y1645600D1*
Y1638415D1*
X2380935Y1633661D1*
X2383312Y1631285D1*
X2390497Y1628853D1*
X2395250D1*
X2402435Y1631285D1*
X2407243Y1636038D1*
X2409620Y1643223D1*
Y1650408D1*
X2407243Y1657538D1*
X2404812Y1659914D1*
X2400058Y1662346D1*
X1910558Y1730338D2*
X1912879Y1735091D1*
X1917688Y1739900D1*
X1922496Y1742276D1*
X1929681Y1744708D1*
X1941619D1*
X1948804Y1742276D1*
X1953557Y1739900D1*
X1958366Y1735091D1*
X1960743Y1730338D1*
Y1720776D1*
X1958366Y1715968D1*
X1953557Y1711215D1*
X1948804Y1708838D1*
X1941619Y1706406D1*
X1929681D1*
X1922496Y1708838D1*
X1917688Y1711215D1*
X1912879Y1715968D1*
X1910558Y1720777D1*
Y1730338D1*
X1951181Y1723153D2*
X1965551Y1708838D1*
X1920175Y1690967D2*
X1917743Y1686159D1*
X1910613Y1678974D1*
X1960798D1*
Y1639603D2*
X1910613D1*
X1944051Y1663534D1*
Y1627665D1*
X2359380Y1879151D2*
X2361701Y1883904D1*
X2366510Y1888713D1*
X2371318Y1891089D1*
X2378503Y1893521D1*
X2390441D1*
X2397627Y1891089D1*
X2402380Y1888713D1*
X2407188Y1883904D1*
X2409565Y1879151D1*
Y1869590D1*
X2407188Y1864781D1*
X2402380Y1860028D1*
X2397627Y1857651D1*
X2390441Y1855219D1*
X2378503D1*
X2371318Y1857651D1*
X2366510Y1860028D1*
X2361701Y1864781D1*
X2359380Y1869590D1*
Y1879151D1*
X2400003Y1871966D2*
X2414373Y1857651D1*
X2368997Y1839780D2*
X2366565Y1834972D1*
X2359435Y1827787D1*
X2409620D1*
X2359435Y1783663D2*
Y1807539D1*
X2380935Y1809916D1*
X2378559Y1807539D1*
X2376127Y1800354D1*
Y1793224D1*
X2378558Y1786039D1*
X2383312Y1781231D1*
X2390497Y1778854D1*
X2395250D1*
X2402435Y1781231D1*
X2407243Y1786039D1*
X2409620Y1793224D1*
Y1800354D1*
X2407243Y1807539D1*
X2404812Y1809916D1*
X2400058Y1812348D1*
X1910558Y1877935D2*
X1912879Y1882688D1*
X1917688Y1887497D1*
X1922496Y1889873D1*
X1929681Y1892305D1*
X1941619D1*
X1948804Y1889873D1*
X1953557Y1887497D1*
X1958366Y1882688D1*
X1960743Y1877935D1*
Y1868374D1*
X1958366Y1863565D1*
X1953558Y1858812D1*
X1948804Y1856435D1*
X1941619Y1854004D1*
X1929681D1*
X1922496Y1856435D1*
X1917688Y1858812D1*
X1912879Y1863565D1*
X1910558Y1868374D1*
Y1877935D1*
X1951181Y1870750D2*
X1965551Y1856435D1*
X1920175Y1838564D2*
X1917743Y1833756D1*
X1910613Y1826571D1*
X1960798D1*
X1917743Y1782447D2*
X1912990Y1784823D1*
X1910613Y1792008D1*
Y1796762D1*
X1912990Y1803947D1*
X1920175Y1808755D1*
X1932113Y1811132D1*
X1944051D1*
X1953613Y1808755D1*
X1958421Y1803947D1*
X1960798Y1796762D1*
Y1794385D1*
X1958421Y1787255D1*
X1953613Y1782447D1*
X1946428Y1780070D1*
X1944051D1*
X1936866Y1782447D1*
X1932113Y1787255D1*
X1929736Y1794385D1*
Y1796762D1*
X1932113Y1803947D1*
X1936866Y1808755D1*
X1944051Y1811132D1*
X2359380Y2029150D2*
X2361701Y2033903D1*
X2366510Y2038711D1*
X2371318Y2041088D1*
X2378503Y2043520D1*
X2390441D1*
X2397627Y2041088D1*
X2402380Y2038711D1*
X2407188Y2033903D1*
X2409565Y2029150D1*
Y2019588D1*
X2407188Y2014780D1*
X2402380Y2010027D1*
X2397627Y2007650D1*
X2390441Y2005218D1*
X2378503D1*
X2371318Y2007650D1*
X2366510Y2010027D1*
X2361701Y2014780D1*
X2359380Y2019588D1*
Y2029150D1*
X2400003Y2021965D2*
X2414373Y2007650D1*
X2368997Y1989779D2*
X2366565Y1984970D1*
X2359435Y1977785D1*
X2409620D1*
Y1952785D2*
X2359435Y1928853D1*
Y1962346D1*
X1910558Y2029122D2*
X1912879Y2033875D1*
X1917688Y2038684D1*
X1922496Y2041060D1*
X1929681Y2043492D1*
X1941619D1*
X1948804Y2041060D1*
X1953557Y2038684D1*
X1958366Y2033875D1*
X1960743Y2029122D1*
Y2019561D1*
X1958366Y2014752D1*
X1953557Y2009999D1*
X1948804Y2007622D1*
X1941619Y2005191D1*
X1929681D1*
X1922496Y2007622D1*
X1917688Y2009999D1*
X1912879Y2014752D1*
X1910558Y2019561D1*
Y2029122D1*
X1951181Y2021937D2*
X1965551Y2007622D1*
X1920175Y1989751D2*
X1917743Y1984943D1*
X1910613Y1977758D1*
X1960798D1*
X1910613Y1950380D2*
X1912990Y1957510D1*
X1917743Y1959942D1*
X1922551D1*
X1927304Y1957510D1*
X1929736Y1952757D1*
X1932113Y1943195D1*
X1934489Y1936010D1*
X1939298Y1931257D1*
X1944051Y1928881D1*
X1951236D1*
X1955989Y1931257D1*
X1958421Y1933634D1*
X1960798Y1940819D1*
Y1950380D1*
X1958421Y1957510D1*
X1955989Y1959942D1*
X1951236Y1962319D1*
X1944051D1*
X1939298Y1959942D1*
X1934490Y1955134D1*
X1932113Y1948004D1*
X1929736Y1938442D1*
X1927304Y1933634D1*
X1922551Y1931257D1*
X1917743D1*
X1912990Y1933634D1*
X1910613Y1940819D1*
Y1950380D1*
X2359380Y2177963D2*
X2361701Y2182716D1*
X2366510Y2187525D1*
X2371318Y2189901D1*
X2378503Y2192333D1*
X2390441D1*
X2397627Y2189901D1*
X2402380Y2187524D1*
X2407188Y2182716D1*
X2409565Y2177963D1*
Y2168401D1*
X2407188Y2163593D1*
X2402380Y2158840D1*
X2397627Y2156463D1*
X2390441Y2154031D1*
X2378503D1*
X2371318Y2156463D1*
X2366510Y2158840D1*
X2361701Y2163593D1*
X2359380Y2168401D1*
Y2177963D1*
X2400003Y2170778D2*
X2414373Y2156463D1*
X2368997Y2138592D2*
X2366565Y2133784D1*
X2359435Y2126598D1*
X2409620D1*
X2376127Y2080043D2*
X2383312Y2082474D1*
X2388120Y2087228D1*
X2390497Y2094413D1*
Y2096789D1*
X2388120Y2103974D1*
X2383312Y2108727D1*
X2376127Y2111159D1*
X2373750D1*
X2366565Y2108727D1*
X2361812Y2103974D1*
X2359435Y2096789D1*
Y2094413D1*
X2361812Y2087228D1*
X2366565Y2082474D1*
X2376127Y2080043D1*
X2388120D1*
X2400058Y2082474D1*
X2407243Y2087228D1*
X2409620Y2094413D1*
Y2099166D1*
X2407243Y2106351D1*
X2402435Y2108727D1*
X1910558Y2189901D2*
X1912879Y2194654D1*
X1917688Y2199463D1*
X1922496Y2201839D1*
X1929681Y2204271D1*
X1941619D1*
X1948804Y2201839D1*
X1953557Y2199463D1*
X1958366Y2194654D1*
X1960743Y2189901D1*
Y2180339D1*
X1958366Y2175531D1*
X1953557Y2170778D1*
X1948804Y2168401D1*
X1941619Y2165969D1*
X1929681D1*
X1922496Y2168401D1*
X1917688Y2170778D1*
X1912879Y2175531D1*
X1910558Y2180339D1*
Y2189901D1*
X1951181Y2182716D2*
X1965551Y2168401D1*
X1922551Y2148098D2*
X1920175D1*
X1915366Y2145722D1*
X1912990Y2143345D1*
X1910613Y2138537D1*
Y2128975D1*
X1912990Y2124222D1*
X1915366Y2121845D1*
X1920175Y2119413D1*
X1924928D1*
X1929736Y2121845D1*
X1936866Y2126598D1*
X1960798Y2150530D1*
Y2117037D1*
X1910613Y2087228D2*
X1912990Y2094413D1*
X1920175Y2099221D1*
X1932113Y2101598D1*
X1939298D1*
X1951236Y2099221D1*
X1958421Y2094413D1*
X1960798Y2087228D1*
Y2082474D1*
X1958421Y2075289D1*
X1951236Y2070536D1*
X1939298Y2068104D1*
X1932113D1*
X1920175Y2070536D1*
X1912990Y2075289D1*
X1910613Y2082474D1*
Y2087228D1*
X1920175Y2070536D2*
X1951236Y2099221D1*
X2359380Y2479151D2*
X2361701Y2483904D1*
X2366510Y2488713D1*
X2371318Y2491089D1*
X2378503Y2493521D1*
X2390441D1*
X2397627Y2491089D1*
X2402380Y2488713D1*
X2407188Y2483904D1*
X2409565Y2479151D1*
Y2469590D1*
X2407188Y2464781D1*
X2402380Y2460028D1*
X2397627Y2457651D1*
X2390441Y2455219D1*
X2378503D1*
X2371318Y2457651D1*
X2366510Y2460028D1*
X2361701Y2464781D1*
X2359380Y2469590D1*
Y2479151D1*
X2400003Y2471966D2*
X2414373Y2457651D1*
X2371374Y2437348D2*
X2368997D1*
X2364188Y2434972D1*
X2361812Y2432595D1*
X2359435Y2427787D1*
Y2418225D1*
X2361812Y2413472D1*
X2364188Y2411095D1*
X2368997Y2408664D1*
X2373750D1*
X2378559Y2411095D1*
X2385688Y2415849D1*
X2409620Y2439780D1*
Y2406287D1*
X2368997Y2390848D2*
X2366565Y2386039D1*
X2359435Y2378854D1*
X2409620D1*
X1910558Y2489901D2*
X1912879Y2494654D1*
X1917688Y2499463D1*
X1922496Y2501839D1*
X1929681Y2504271D1*
X1941619D1*
X1948804Y2501839D1*
X1953557Y2499463D1*
X1958366Y2494654D1*
X1960743Y2489901D1*
Y2480339D1*
X1958366Y2475531D1*
X1953557Y2470778D1*
X1948804Y2468401D1*
X1941619Y2465969D1*
X1929681D1*
X1922496Y2468401D1*
X1917688Y2470778D1*
X1912879Y2475531D1*
X1910558Y2480339D1*
Y2489901D1*
X1951181Y2482716D2*
X1965551Y2468401D1*
X1922551Y2448098D2*
X1920175D1*
X1915366Y2445722D1*
X1912990Y2443345D1*
X1910613Y2438537D1*
Y2428975D1*
X1912990Y2424222D1*
X1915366Y2421845D1*
X1920175Y2419413D1*
X1924928D1*
X1929736Y2421845D1*
X1936866Y2426598D1*
X1960798Y2450530D1*
Y2417037D1*
X1922551Y2399166D2*
X1920175D1*
X1915366Y2396789D1*
X1912990Y2394413D1*
X1910613Y2389604D1*
Y2380043D1*
X1912990Y2375289D1*
X1915366Y2372913D1*
X1920175Y2370481D1*
X1924928D1*
X1929736Y2372913D1*
X1936866Y2377666D1*
X1960798Y2401598D1*
Y2368104D1*
X2359380Y2639901D2*
X2361701Y2644654D1*
X2366510Y2649463D1*
X2371318Y2651839D1*
X2378503Y2654271D1*
X2390441D1*
X2397626Y2651839D1*
X2402380Y2649463D1*
X2407188Y2644654D1*
X2409565Y2639901D1*
Y2630339D1*
X2407188Y2625531D1*
X2402380Y2620778D1*
X2397627Y2618401D1*
X2390441Y2615969D1*
X2378503D1*
X2371318Y2618401D1*
X2366510Y2620778D1*
X2361701Y2625531D1*
X2359380Y2630339D1*
Y2639901D1*
X2400003Y2632716D2*
X2414373Y2618401D1*
X2371374Y2598098D2*
X2368997D1*
X2364188Y2595722D1*
X2361812Y2593345D1*
X2359435Y2588537D1*
Y2578975D1*
X2361812Y2574222D1*
X2364188Y2571845D1*
X2368997Y2569413D1*
X2373750D1*
X2378559Y2571845D1*
X2385688Y2576598D1*
X2409620Y2600530D1*
Y2567037D1*
X2359435Y2546789D2*
Y2520536D1*
X2378559Y2534851D1*
Y2527666D1*
X2380935Y2522913D1*
X2383312Y2520536D1*
X2390497Y2518104D1*
X2395250D1*
X2402435Y2520536D1*
X2407243Y2525289D1*
X2409620Y2532474D1*
Y2539659D1*
X2407243Y2546789D1*
X2404812Y2549166D1*
X2400058Y2551598D1*
X1910558Y2641089D2*
X1912879Y2645843D1*
X1917688Y2650651D1*
X1922496Y2653028D1*
X1929681Y2655459D1*
X1941619D1*
X1948804Y2653028D1*
X1953557Y2650651D1*
X1958366Y2645843D1*
X1960743Y2641089D1*
Y2631528D1*
X1958366Y2626719D1*
X1953557Y2621966D1*
X1948804Y2619590D1*
X1941619Y2617158D1*
X1929681D1*
X1922496Y2619590D1*
X1917688Y2621966D1*
X1912879Y2626719D1*
X1910558Y2631528D1*
Y2641089D1*
X1951181Y2633904D2*
X1965551Y2619590D1*
X1922551Y2599287D2*
X1920175D1*
X1915366Y2596910D1*
X1912990Y2594533D1*
X1910613Y2589725D1*
Y2580163D1*
X1912990Y2575410D1*
X1915366Y2573034D1*
X1920175Y2570602D1*
X1924928D1*
X1929736Y2573034D1*
X1936866Y2577787D1*
X1960798Y2601718D1*
Y2568225D1*
Y2528854D2*
X1910613D1*
X1944051Y2552786D1*
Y2516916D1*
X2359380Y2789901D2*
X2361701Y2794654D1*
X2366510Y2799463D1*
X2371318Y2801839D1*
X2378503Y2804271D1*
X2390441D1*
X2397626Y2801839D1*
X2402380Y2799463D1*
X2407188Y2794654D1*
X2409565Y2789901D1*
Y2780339D1*
X2407188Y2775531D1*
X2402380Y2770778D1*
X2397627Y2768401D1*
X2390441Y2765969D1*
X2378503D1*
X2371318Y2768401D1*
X2366510Y2770778D1*
X2361701Y2775531D1*
X2359380Y2780339D1*
Y2789901D1*
X2400003Y2782716D2*
X2414373Y2768401D1*
X2371374Y2748098D2*
X2368997D1*
X2364188Y2745722D1*
X2361812Y2743345D1*
X2359435Y2738537D1*
Y2728975D1*
X2361812Y2724222D1*
X2364188Y2721845D1*
X2368997Y2719413D1*
X2373750D1*
X2378559Y2721845D1*
X2385688Y2726598D1*
X2409620Y2750530D1*
Y2717037D1*
X2359435Y2672913D2*
Y2696789D1*
X2380935Y2699166D1*
X2378559Y2696789D1*
X2376127Y2689604D1*
Y2682474D1*
X2378558Y2675289D1*
X2383312Y2670481D1*
X2390497Y2668104D1*
X2395250D1*
X2402435Y2670481D1*
X2407243Y2675289D1*
X2409620Y2682474D1*
Y2689604D1*
X2407243Y2696789D1*
X2404812Y2699166D1*
X2400058Y2701598D1*
X1910558Y2788685D2*
X1912879Y2793438D1*
X1917688Y2798247D1*
X1922496Y2800623D1*
X1929681Y2803055D1*
X1941619D1*
X1948804Y2800623D1*
X1953557Y2798247D1*
X1958366Y2793438D1*
X1960743Y2788685D1*
Y2779124D1*
X1958366Y2774315D1*
X1953557Y2769562D1*
X1948804Y2767185D1*
X1941619Y2764753D1*
X1929681D1*
X1922496Y2767185D1*
X1917688Y2769562D1*
X1912879Y2774315D1*
X1910558Y2779124D1*
Y2788685D1*
X1951181Y2781500D2*
X1965551Y2767185D1*
X1922551Y2746882D2*
X1920175D1*
X1915366Y2744506D1*
X1912990Y2742129D1*
X1910613Y2737321D1*
Y2727759D1*
X1912990Y2723006D1*
X1915366Y2720629D1*
X1920175Y2718198D1*
X1924928D1*
X1929736Y2720629D1*
X1936866Y2725383D1*
X1960798Y2749314D1*
Y2715821D1*
X1917743Y2671697D2*
X1912990Y2674073D1*
X1910613Y2681258D1*
Y2686012D1*
X1912990Y2693197D1*
X1920175Y2698005D1*
X1932113Y2700382D1*
X1944051D1*
X1953613Y2698005D1*
X1958421Y2693197D1*
X1960798Y2686012D1*
Y2683635D1*
X1958421Y2676505D1*
X1953613Y2671697D1*
X1946428Y2669320D1*
X1944051D1*
X1936866Y2671697D1*
X1932113Y2676505D1*
X1929736Y2683635D1*
Y2686012D1*
X1932113Y2693197D1*
X1936866Y2698005D1*
X1944051Y2700382D1*
X2359380Y2939901D2*
X2361701Y2944654D1*
X2366510Y2949463D1*
X2371318Y2951839D1*
X2378503Y2954271D1*
X2390441D1*
X2397626Y2951839D1*
X2402380Y2949463D1*
X2407188Y2944654D1*
X2409565Y2939901D1*
Y2930339D1*
X2407188Y2925531D1*
X2402380Y2920778D1*
X2397627Y2918401D1*
X2390441Y2915969D1*
X2378503D1*
X2371318Y2918401D1*
X2366510Y2920778D1*
X2361701Y2925531D1*
X2359380Y2930339D1*
Y2939901D1*
X2400003Y2932716D2*
X2414373Y2918401D1*
X2371374Y2898098D2*
X2368997D1*
X2364188Y2895722D1*
X2361812Y2893345D1*
X2359435Y2888537D1*
Y2878975D1*
X2361812Y2874222D1*
X2364188Y2871845D1*
X2368997Y2869413D1*
X2373750D1*
X2378559Y2871845D1*
X2385688Y2876598D1*
X2409620Y2900530D1*
Y2867037D1*
Y2842036D2*
X2359435Y2818104D1*
Y2851598D1*
X1910558Y2939873D2*
X1912879Y2944627D1*
X1917688Y2949435D1*
X1922496Y2951812D1*
X1929681Y2954244D1*
X1941619D1*
X1948804Y2951812D1*
X1953557Y2949435D1*
X1958366Y2944627D1*
X1960743Y2939873D1*
Y2930312D1*
X1958366Y2925503D1*
X1953557Y2920750D1*
X1948804Y2918374D1*
X1941619Y2915942D1*
X1929681D1*
X1922496Y2918374D1*
X1917688Y2920750D1*
X1912879Y2925503D1*
X1910558Y2930312D1*
Y2939873D1*
X1951181Y2932688D2*
X1965551Y2918374D1*
X1922551Y2898071D2*
X1920175D1*
X1915366Y2895694D1*
X1912990Y2893317D1*
X1910613Y2888509D1*
Y2878947D1*
X1912990Y2874194D1*
X1915366Y2871818D1*
X1920175Y2869386D1*
X1924928D1*
X1929736Y2871818D1*
X1936866Y2876571D1*
X1960798Y2900502D1*
Y2867009D1*
X1910613Y2839632D2*
X1912990Y2846762D1*
X1917743Y2849193D1*
X1922551D1*
X1927304Y2846762D1*
X1929736Y2842008D1*
X1932113Y2832447D1*
X1934489Y2825262D1*
X1939298Y2820509D1*
X1944051Y2818132D1*
X1951236D1*
X1955989Y2820509D1*
X1958421Y2822885D1*
X1960798Y2830070D1*
Y2839632D1*
X1958421Y2846761D1*
X1955989Y2849193D1*
X1951236Y2851570D1*
X1944051D1*
X1939298Y2849193D1*
X1934490Y2844385D1*
X1932113Y2837255D1*
X1929736Y2827694D1*
X1927304Y2822885D1*
X1922551Y2820509D1*
X1917743D1*
X1912990Y2822885D1*
X1910613Y2830070D1*
Y2839632D1*
X2359380Y3238713D2*
X2361701Y3243466D1*
X2366510Y3248274D1*
X2371318Y3250651D1*
X2378503Y3253083D1*
X2390441D1*
X2397626Y3250651D1*
X2402380Y3248274D1*
X2407188Y3243466D1*
X2409565Y3238713D1*
Y3229151D1*
X2407188Y3224343D1*
X2402380Y3219590D1*
X2397627Y3217213D1*
X2390441Y3214781D1*
X2378503D1*
X2371318Y3217213D1*
X2366510Y3219590D1*
X2361701Y3224343D1*
X2359380Y3229151D1*
Y3238713D1*
X2400003Y3231528D2*
X2414373Y3217213D1*
X2371374Y3196910D2*
X2368997D1*
X2364188Y3194533D1*
X2361812Y3192157D1*
X2359435Y3187348D1*
Y3177787D1*
X2361812Y3173034D1*
X2364188Y3170657D1*
X2368997Y3168225D1*
X2373750D1*
X2378559Y3170657D1*
X2385688Y3175410D1*
X2409620Y3199342D1*
Y3165848D1*
X2376127Y3119293D2*
X2383312Y3121724D1*
X2388120Y3126478D1*
X2390497Y3133663D1*
Y3136039D1*
X2388120Y3143224D1*
X2383312Y3147977D1*
X2376127Y3150409D1*
X2373750D1*
X2366565Y3147977D1*
X2361812Y3143224D1*
X2359435Y3136039D1*
Y3133663D1*
X2361812Y3126478D1*
X2366565Y3121724D1*
X2376127Y3119293D1*
X2388120D1*
X2400058Y3121724D1*
X2407243Y3126478D1*
X2409620Y3133663D1*
Y3138416D1*
X2407243Y3145601D1*
X2402435Y3147977D1*
X1910558Y3239901D2*
X1912879Y3244654D1*
X1917688Y3249463D1*
X1922496Y3251839D1*
X1929681Y3254271D1*
X1941619D1*
X1948804Y3251839D1*
X1953557Y3249463D1*
X1958366Y3244654D1*
X1960743Y3239901D1*
Y3230339D1*
X1958366Y3225531D1*
X1953557Y3220778D1*
X1948804Y3218401D1*
X1941619Y3215969D1*
X1929681D1*
X1922496Y3218401D1*
X1917688Y3220778D1*
X1912879Y3225531D1*
X1910558Y3230339D1*
Y3239901D1*
X1951181Y3232716D2*
X1965551Y3218401D1*
X1910613Y3195722D2*
Y3169469D1*
X1929736Y3183783D1*
Y3176598D1*
X1932113Y3171845D1*
X1934490Y3169469D1*
X1941675Y3167037D1*
X1946428D1*
X1953613Y3169469D1*
X1958421Y3174222D1*
X1960798Y3181407D1*
Y3188592D1*
X1958421Y3195722D1*
X1955989Y3198098D1*
X1951236Y3200530D1*
X1910613Y3137228D2*
X1912990Y3144413D1*
X1920175Y3149221D1*
X1932113Y3151598D1*
X1939298D1*
X1951236Y3149221D1*
X1958421Y3144413D1*
X1960798Y3137228D1*
Y3132474D1*
X1958421Y3125289D1*
X1951236Y3120536D1*
X1939298Y3118104D1*
X1932113D1*
X1920175Y3120536D1*
X1912990Y3125289D1*
X1910613Y3132474D1*
Y3137228D1*
X1920175Y3120536D2*
X1951236Y3149221D1*
X2359380Y3379151D2*
X2361701Y3383904D1*
X2366510Y3388713D1*
X2371318Y3391089D1*
X2378503Y3393521D1*
X2390441D1*
X2397627Y3391089D1*
X2402380Y3388713D1*
X2407188Y3383904D1*
X2409565Y3379151D1*
Y3369590D1*
X2407188Y3364781D1*
X2402380Y3360028D1*
X2397627Y3357651D1*
X2390441Y3355219D1*
X2378503D1*
X2371318Y3357651D1*
X2366510Y3360028D1*
X2361701Y3364781D1*
X2359380Y3369590D1*
Y3379151D1*
X2400003Y3371966D2*
X2414373Y3357651D1*
X2359435Y3334972D2*
Y3308719D1*
X2378559Y3323034D1*
Y3315849D1*
X2380935Y3311095D1*
X2383312Y3308719D1*
X2390497Y3306287D1*
X2395250D1*
X2402435Y3308719D1*
X2407243Y3313472D1*
X2409620Y3320657D1*
Y3327842D1*
X2407243Y3334972D1*
X2404812Y3337348D1*
X2400058Y3339780D1*
X2368997Y3290848D2*
X2366565Y3286039D1*
X2359435Y3278854D1*
X2409620D1*
X1910558Y3389901D2*
X1912879Y3394654D1*
X1917688Y3399463D1*
X1922496Y3401839D1*
X1929681Y3404271D1*
X1941619D1*
X1948804Y3401839D1*
X1953557Y3399463D1*
X1958366Y3394654D1*
X1960743Y3389901D1*
Y3380339D1*
X1958366Y3375531D1*
X1953557Y3370778D1*
X1948804Y3368401D1*
X1941619Y3365969D1*
X1929681D1*
X1922496Y3368401D1*
X1917688Y3370778D1*
X1912879Y3375531D1*
X1910558Y3380339D1*
Y3389901D1*
X1951181Y3382716D2*
X1965551Y3368401D1*
X1910613Y3345722D2*
Y3319469D1*
X1929736Y3333783D1*
Y3326598D1*
X1932113Y3321845D1*
X1934490Y3319469D1*
X1941675Y3317037D1*
X1946428D1*
X1953613Y3319469D1*
X1958421Y3324222D1*
X1960798Y3331407D1*
Y3338592D1*
X1958421Y3345722D1*
X1955989Y3348098D1*
X1951236Y3350530D1*
X1922551Y3299166D2*
X1920175D1*
X1915366Y3296789D1*
X1912990Y3294413D1*
X1910613Y3289604D1*
Y3280043D1*
X1912990Y3275289D1*
X1915366Y3272913D1*
X1920175Y3270481D1*
X1924928D1*
X1929736Y3272913D1*
X1936866Y3277666D1*
X1960798Y3301598D1*
Y3268104D1*
X2359380Y3539901D2*
X2361701Y3544654D1*
X2366510Y3549463D1*
X2371318Y3551839D1*
X2378503Y3554271D1*
X2390441D1*
X2397626Y3551839D1*
X2402380Y3549463D1*
X2407188Y3544654D1*
X2409565Y3539901D1*
Y3530339D1*
X2407188Y3525531D1*
X2402380Y3520778D1*
X2397627Y3518401D1*
X2390441Y3515969D1*
X2378503D1*
X2371318Y3518401D1*
X2366510Y3520778D1*
X2361701Y3525531D1*
X2359380Y3530339D1*
Y3539901D1*
X2400003Y3532716D2*
X2414373Y3518401D1*
X2359435Y3495722D2*
Y3469469D1*
X2378559Y3483783D1*
Y3476598D1*
X2380935Y3471845D1*
X2383312Y3469469D1*
X2390497Y3467037D1*
X2395250D1*
X2402435Y3469469D1*
X2407243Y3474222D1*
X2409620Y3481407D1*
Y3488592D1*
X2407243Y3495722D1*
X2404812Y3498098D1*
X2400058Y3500530D1*
X2359435Y3446789D2*
Y3420536D1*
X2378559Y3434851D1*
Y3427666D1*
X2380935Y3422913D1*
X2383312Y3420536D1*
X2390497Y3418104D1*
X2395250D1*
X2402435Y3420536D1*
X2407243Y3425289D1*
X2409620Y3432474D1*
Y3439659D1*
X2407243Y3446789D1*
X2404812Y3449166D1*
X2400058Y3451598D1*
X1916808Y3541089D2*
X1919130Y3545843D1*
X1923938Y3550651D1*
X1928747Y3553028D1*
X1935932Y3555459D1*
X1947870D1*
X1955055Y3553028D1*
X1959808Y3550651D1*
X1964617Y3545843D1*
X1966993Y3541089D1*
Y3531528D1*
X1964617Y3526719D1*
X1959808Y3521966D1*
X1955055Y3519590D1*
X1947870Y3517158D1*
X1935932D1*
X1928747Y3519590D1*
X1923938Y3521966D1*
X1919130Y3526719D1*
X1916808Y3531528D1*
Y3541089D1*
X1957432Y3533904D2*
X1971802Y3519590D1*
X1916864Y3496910D2*
Y3470657D1*
X1935987Y3484972D1*
Y3477787D1*
X1938364Y3473034D1*
X1940740Y3470657D1*
X1947925Y3468225D1*
X1952678D1*
X1959863Y3470657D1*
X1964672Y3475410D1*
X1967048Y3482595D1*
Y3489780D1*
X1964672Y3496910D1*
X1962240Y3499287D1*
X1957487Y3501718D1*
X1967048Y3428854D2*
X1916864D1*
X1950302Y3452786D1*
Y3416916D1*
X2359380Y3689901D2*
X2361701Y3694654D1*
X2366510Y3699463D1*
X2371318Y3701839D1*
X2378503Y3704271D1*
X2390441D1*
X2397626Y3701839D1*
X2402380Y3699463D1*
X2407188Y3694654D1*
X2409565Y3689901D1*
Y3680339D1*
X2407188Y3675531D1*
X2402380Y3670778D1*
X2397627Y3668401D1*
X2390441Y3665969D1*
X2378503D1*
X2371318Y3668401D1*
X2366510Y3670778D1*
X2361701Y3675531D1*
X2359380Y3680339D1*
Y3689901D1*
X2400003Y3682716D2*
X2414373Y3668401D1*
X2359435Y3645722D2*
Y3619469D1*
X2378559Y3633783D1*
Y3626598D1*
X2380935Y3621845D1*
X2383312Y3619469D1*
X2390497Y3617037D1*
X2395250D1*
X2402435Y3619469D1*
X2407243Y3624222D1*
X2409620Y3631407D1*
Y3638592D1*
X2407243Y3645722D1*
X2404812Y3648098D1*
X2400058Y3650530D1*
X2359435Y3572913D2*
Y3596789D1*
X2380935Y3599166D1*
X2378559Y3596789D1*
X2376127Y3589604D1*
Y3582474D1*
X2378558Y3575289D1*
X2383312Y3570481D1*
X2390497Y3568104D1*
X2395250D1*
X2402435Y3570481D1*
X2407243Y3575289D1*
X2409620Y3582474D1*
Y3589604D1*
X2407243Y3596789D1*
X2404812Y3599166D1*
X2400058Y3601598D1*
X1910558Y3688685D2*
X1912879Y3693438D1*
X1917688Y3698247D1*
X1922496Y3700623D1*
X1929681Y3703055D1*
X1941619D1*
X1948804Y3700623D1*
X1953557Y3698247D1*
X1958366Y3693438D1*
X1960743Y3688685D1*
Y3679124D1*
X1958366Y3674315D1*
X1953557Y3669562D1*
X1948804Y3667185D1*
X1941619Y3664753D1*
X1929681D1*
X1922496Y3667185D1*
X1917688Y3669562D1*
X1912879Y3674315D1*
X1910558Y3679124D1*
Y3688685D1*
X1951181Y3681500D2*
X1965551Y3667185D1*
X1910613Y3644506D2*
Y3618253D1*
X1929736Y3632568D1*
Y3625383D1*
X1932113Y3620629D1*
X1934490Y3618253D1*
X1941675Y3615821D1*
X1946428D1*
X1953613Y3618253D1*
X1958421Y3623006D1*
X1960798Y3630191D1*
Y3637376D1*
X1958421Y3644506D1*
X1955989Y3646882D1*
X1951236Y3649314D1*
X1917743Y3571697D2*
X1912990Y3574073D1*
X1910613Y3581258D1*
Y3586012D1*
X1912990Y3593197D1*
X1920175Y3598005D1*
X1932113Y3600382D1*
X1944051D1*
X1953613Y3598005D1*
X1958421Y3593197D1*
X1960798Y3586012D1*
Y3583635D1*
X1958421Y3576505D1*
X1953613Y3571697D1*
X1946428Y3569320D1*
X1944051D1*
X1936866Y3571697D1*
X1932113Y3576505D1*
X1929736Y3583635D1*
Y3586012D1*
X1932113Y3593197D1*
X1936866Y3598005D1*
X1944051Y3600382D1*
X2359380Y5039901D2*
X2361701Y5044654D1*
X2366510Y5049463D1*
X2371318Y5051839D1*
X2378503Y5054271D1*
X2390441D1*
X2397626Y5051839D1*
X2402380Y5049463D1*
X2407188Y5044654D1*
X2409565Y5039901D1*
Y5030339D1*
X2407188Y5025531D1*
X2402380Y5020778D1*
X2397627Y5018401D1*
X2390441Y5015969D1*
X2378503D1*
X2371318Y5018401D1*
X2366510Y5020778D1*
X2361701Y5025531D1*
X2359380Y5030339D1*
Y5039901D1*
X2400003Y5032716D2*
X2414373Y5018401D1*
X2359435Y4995722D2*
Y4969469D1*
X2378559Y4983783D1*
Y4976598D1*
X2380935Y4971845D1*
X2383312Y4969469D1*
X2390497Y4967037D1*
X2395250D1*
X2402435Y4969469D1*
X2407243Y4974222D1*
X2409620Y4981407D1*
Y4988592D1*
X2407243Y4995722D1*
X2404812Y4998098D1*
X2400058Y5000530D1*
X2409620Y4942036D2*
X2359435Y4918104D1*
Y4951598D1*
X1910558Y5039873D2*
X1912879Y5044627D1*
X1917688Y5049435D1*
X1922496Y5051812D1*
X1929681Y5054244D1*
X1941619D1*
X1948804Y5051812D1*
X1953557Y5049435D1*
X1958366Y5044627D1*
X1960743Y5039873D1*
Y5030312D1*
X1958366Y5025503D1*
X1953557Y5020750D1*
X1948804Y5018374D1*
X1941619Y5015942D1*
X1929681D1*
X1922496Y5018374D1*
X1917688Y5020750D1*
X1912879Y5025503D1*
X1910558Y5030312D1*
Y5039873D1*
X1951181Y5032688D2*
X1965551Y5018374D1*
X1910613Y4995694D2*
Y4969441D1*
X1929736Y4983756D1*
Y4976571D1*
X1932113Y4971818D1*
X1934490Y4969441D1*
X1941675Y4967009D1*
X1946428D1*
X1953613Y4969441D1*
X1958421Y4974194D1*
X1960798Y4981379D1*
Y4988564D1*
X1958421Y4995694D1*
X1955989Y4998071D1*
X1951236Y5000502D1*
X1910613Y4939632D2*
X1912990Y4946762D1*
X1917743Y4949193D1*
X1922551D1*
X1927304Y4946762D1*
X1929736Y4942008D1*
X1932113Y4932447D1*
X1934489Y4925262D1*
X1939298Y4920509D1*
X1944051Y4918132D1*
X1951236D1*
X1955989Y4920509D1*
X1958421Y4922885D1*
X1960798Y4930070D1*
Y4939632D1*
X1958421Y4946761D1*
X1955989Y4949193D1*
X1951236Y4951570D1*
X1944051D1*
X1939298Y4949193D1*
X1934490Y4944385D1*
X1932113Y4937255D1*
X1929736Y4927694D1*
X1927304Y4922885D1*
X1922551Y4920509D1*
X1917743D1*
X1912990Y4922885D1*
X1910613Y4930070D1*
Y4939632D1*
X2359380Y4738713D2*
X2361701Y4743466D1*
X2366510Y4748274D1*
X2371318Y4750651D1*
X2378503Y4753083D1*
X2390441D1*
X2397626Y4750651D1*
X2402380Y4748274D1*
X2407188Y4743466D1*
X2409565Y4738713D1*
Y4729151D1*
X2407188Y4724343D1*
X2402380Y4719590D1*
X2397627Y4717213D1*
X2390441Y4714781D1*
X2378503D1*
X2371318Y4717213D1*
X2366510Y4719590D1*
X2361701Y4724343D1*
X2359380Y4729151D1*
Y4738713D1*
X2400003Y4731528D2*
X2414373Y4717213D1*
X2359435Y4694533D2*
Y4668280D1*
X2378559Y4682595D1*
Y4675410D1*
X2380935Y4670657D1*
X2383312Y4668280D1*
X2390497Y4665849D1*
X2395250D1*
X2402435Y4668280D1*
X2407243Y4673034D1*
X2409620Y4680219D1*
Y4687404D1*
X2407243Y4694533D1*
X2404812Y4696910D1*
X2400058Y4699342D1*
X2376127Y4619293D2*
X2383312Y4621724D1*
X2388120Y4626478D1*
X2390497Y4633663D1*
Y4636039D1*
X2388120Y4643224D1*
X2383312Y4647977D1*
X2376127Y4650409D1*
X2373750D1*
X2366565Y4647977D1*
X2361812Y4643224D1*
X2359435Y4636039D1*
Y4633663D1*
X2361812Y4626478D1*
X2366565Y4621724D1*
X2376127Y4619293D1*
X2388120D1*
X2400058Y4621724D1*
X2407243Y4626478D1*
X2409620Y4633663D1*
Y4638416D1*
X2407243Y4645601D1*
X2402435Y4647977D1*
X1910558Y4741089D2*
X1912879Y4745843D1*
X1917688Y4750651D1*
X1922496Y4753028D1*
X1929681Y4755459D1*
X1941619D1*
X1948804Y4753028D1*
X1953557Y4750651D1*
X1958366Y4745843D1*
X1960743Y4741089D1*
Y4731528D1*
X1958366Y4726719D1*
X1953557Y4721966D1*
X1948804Y4719590D1*
X1941619Y4717158D1*
X1929681D1*
X1922496Y4719590D1*
X1917688Y4721966D1*
X1912879Y4726719D1*
X1910558Y4731528D1*
Y4741089D1*
X1951181Y4733904D2*
X1965551Y4719590D1*
X1960798Y4677787D2*
X1910613D1*
X1944051Y4701718D1*
Y4665849D1*
X1910613Y4636039D2*
X1912990Y4643224D1*
X1920175Y4648033D1*
X1932113Y4650409D1*
X1939298D1*
X1951236Y4648033D1*
X1958421Y4643224D1*
X1960798Y4636039D1*
Y4631286D1*
X1958421Y4624101D1*
X1951236Y4619348D1*
X1939298Y4616916D1*
X1932113D1*
X1920175Y4619348D1*
X1912990Y4624101D1*
X1910613Y4631286D1*
Y4636039D1*
X1920175Y4619348D2*
X1951236Y4648033D1*
X2359380Y4430339D2*
X2361701Y4435093D1*
X2366510Y4439901D1*
X2371318Y4442278D1*
X2378503Y4444710D1*
X2390441D1*
X2397627Y4442278D1*
X2402380Y4439901D1*
X2407188Y4435093D1*
X2409565Y4430339D1*
Y4420778D1*
X2407188Y4415969D1*
X2402380Y4411216D1*
X2397627Y4408840D1*
X2390441Y4406408D1*
X2378503D1*
X2371318Y4408840D1*
X2366510Y4411216D1*
X2361701Y4415969D1*
X2359380Y4420778D1*
Y4430339D1*
X2400003Y4423154D2*
X2414373Y4408840D1*
X2409620Y4367037D2*
X2359435D1*
X2392873Y4390969D1*
Y4355099D1*
X2368997Y4339659D2*
X2366565Y4334851D1*
X2359435Y4327666D1*
X2409620D1*
X1910558Y4441089D2*
X1912879Y4445843D1*
X1917688Y4450651D1*
X1922496Y4453028D1*
X1929681Y4455459D1*
X1941619D1*
X1948804Y4453028D1*
X1953557Y4450651D1*
X1958366Y4445843D1*
X1960743Y4441089D1*
Y4431528D1*
X1958366Y4426719D1*
X1953557Y4421966D1*
X1948804Y4419590D1*
X1941619Y4417158D1*
X1929681D1*
X1922496Y4419590D1*
X1917688Y4421966D1*
X1912879Y4426719D1*
X1910558Y4431528D1*
Y4441089D1*
X1951181Y4433904D2*
X1965551Y4419590D1*
X1960798Y4377787D2*
X1910613D1*
X1944051Y4401718D1*
Y4365849D1*
X1922551Y4347977D2*
X1920175D1*
X1915366Y4345601D1*
X1912990Y4343224D1*
X1910613Y4338416D1*
Y4328854D1*
X1912990Y4324101D1*
X1915366Y4321724D1*
X1920175Y4319293D1*
X1924928D1*
X1929736Y4321724D1*
X1936866Y4326478D1*
X1960798Y4350409D1*
Y4316916D1*
X2359380Y4291089D2*
X2361701Y4295843D1*
X2366510Y4300651D1*
X2371318Y4303028D1*
X2378503Y4305459D1*
X2390441D1*
X2397626Y4303028D1*
X2402380Y4300651D1*
X2407188Y4295843D1*
X2409565Y4291089D1*
Y4281528D1*
X2407188Y4276719D1*
X2402380Y4271966D1*
X2397627Y4269590D1*
X2390441Y4267158D1*
X2378503D1*
X2371318Y4269590D1*
X2366510Y4271966D1*
X2361701Y4276719D1*
X2359380Y4281528D1*
Y4291089D1*
X2400003Y4283904D2*
X2414373Y4269590D1*
X2409620Y4227787D2*
X2359435D1*
X2392873Y4251718D1*
Y4215849D1*
X2359435Y4195601D2*
Y4169348D1*
X2378559Y4183663D1*
Y4176478D1*
X2380935Y4171724D1*
X2383312Y4169348D1*
X2390497Y4166916D1*
X2395250D1*
X2402435Y4169348D1*
X2407243Y4174101D1*
X2409620Y4181286D1*
Y4188471D1*
X2407243Y4195601D1*
X2404812Y4197977D1*
X2400058Y4200409D1*
X1910558Y4292278D2*
X1912879Y4297031D1*
X1917688Y4301839D1*
X1922496Y4304216D1*
X1929681Y4306648D1*
X1941619D1*
X1948804Y4304216D1*
X1953557Y4301839D1*
X1958366Y4297031D1*
X1960743Y4292278D1*
Y4282716D1*
X1958366Y4277908D1*
X1953557Y4273154D1*
X1948804Y4270778D1*
X1941619Y4268346D1*
X1929681D1*
X1922496Y4270778D1*
X1917688Y4273154D1*
X1912879Y4277908D1*
X1910558Y4282716D1*
Y4292278D1*
X1951181Y4285093D2*
X1965551Y4270778D1*
X1960798Y4228975D2*
X1910613D1*
X1944051Y4252907D1*
Y4217037D1*
X1960798Y4177666D2*
X1910613D1*
X1944051Y4201598D1*
Y4165728D1*
X2359380Y4141089D2*
X2361701Y4145843D1*
X2366510Y4150651D1*
X2371318Y4153028D1*
X2378503Y4155459D1*
X2390441D1*
X2397626Y4153028D1*
X2402380Y4150651D1*
X2407188Y4145843D1*
X2409565Y4141089D1*
Y4131528D1*
X2407188Y4126719D1*
X2402380Y4121966D1*
X2397627Y4119590D1*
X2390441Y4117158D1*
X2378503D1*
X2371318Y4119590D1*
X2366510Y4121966D1*
X2361701Y4126719D1*
X2359380Y4131528D1*
Y4141089D1*
X2400003Y4133904D2*
X2414373Y4119590D1*
X2409620Y4077787D2*
X2359435D1*
X2392873Y4101718D1*
Y4065849D1*
X2359435Y4021724D2*
Y4045601D1*
X2380935Y4047977D1*
X2378559Y4045601D1*
X2376127Y4038416D1*
Y4031286D1*
X2378558Y4024101D1*
X2383312Y4019293D1*
X2390497Y4016916D1*
X2395250D1*
X2402435Y4019293D1*
X2407243Y4024101D1*
X2409620Y4031286D1*
Y4038416D1*
X2407243Y4045601D1*
X2404812Y4047977D1*
X2400058Y4050409D1*
X1910558Y4139873D2*
X1912879Y4144627D1*
X1917688Y4149435D1*
X1922496Y4151812D1*
X1929681Y4154244D1*
X1941619D1*
X1948804Y4151812D1*
X1953557Y4149435D1*
X1958366Y4144627D1*
X1960743Y4139873D1*
Y4130312D1*
X1958366Y4125503D1*
X1953557Y4120750D1*
X1948804Y4118374D1*
X1941619Y4115942D1*
X1929681D1*
X1922496Y4118374D1*
X1917688Y4120750D1*
X1912879Y4125503D1*
X1910558Y4130312D1*
Y4139873D1*
X1951181Y4132688D2*
X1965551Y4118374D1*
X1960798Y4076571D2*
X1910613D1*
X1944051Y4100502D1*
Y4064633D1*
X1917743Y4020509D2*
X1912990Y4022885D1*
X1910613Y4030070D1*
Y4034823D1*
X1912990Y4042008D1*
X1920175Y4046817D1*
X1932113Y4049193D1*
X1944051D1*
X1953613Y4046817D1*
X1958421Y4042008D1*
X1960798Y4034823D1*
Y4032447D1*
X1958421Y4025317D1*
X1953613Y4020509D1*
X1946428Y4018132D1*
X1944051D1*
X1936866Y4020509D1*
X1932113Y4025317D1*
X1929736Y4032447D1*
Y4034823D1*
X1932113Y4042008D1*
X1936866Y4046817D1*
X1944051Y4049193D1*
X2359380Y3991089D2*
X2361701Y3995843D1*
X2366510Y4000651D1*
X2371318Y4003028D1*
X2378503Y4005459D1*
X2390441D1*
X2397626Y4003028D1*
X2402380Y4000651D1*
X2407188Y3995843D1*
X2409565Y3991089D1*
Y3981528D1*
X2407188Y3976719D1*
X2402380Y3971966D1*
X2397627Y3969590D1*
X2390441Y3967158D1*
X2378503D1*
X2371318Y3969590D1*
X2366510Y3971966D1*
X2361701Y3976719D1*
X2359380Y3981528D1*
Y3991089D1*
X2400003Y3983904D2*
X2414373Y3969590D1*
X2409620Y3927787D2*
X2359435D1*
X2392873Y3951718D1*
Y3915849D1*
X2409620Y3890848D2*
X2359435Y3866916D1*
Y3900409D1*
X1910558Y3991062D2*
X1912879Y3995815D1*
X1917688Y4000623D1*
X1922496Y4003000D1*
X1929681Y4005432D1*
X1941619D1*
X1948804Y4003000D1*
X1953557Y4000623D1*
X1958366Y3995815D1*
X1960743Y3991062D1*
Y3981500D1*
X1958366Y3976692D1*
X1953557Y3971938D1*
X1948804Y3969562D1*
X1941619Y3967130D1*
X1929681D1*
X1922496Y3969562D1*
X1917688Y3971938D1*
X1912879Y3976692D1*
X1910558Y3981500D1*
Y3991062D1*
X1951181Y3983877D2*
X1965551Y3969562D1*
X1960798Y3927759D2*
X1910613D1*
X1944051Y3951691D1*
Y3915821D1*
X1910613Y3888443D2*
X1912990Y3895573D1*
X1917743Y3898005D1*
X1922551D1*
X1927304Y3895573D1*
X1929736Y3890820D1*
X1932113Y3881258D1*
X1934489Y3874073D1*
X1939298Y3869320D1*
X1944051Y3866944D1*
X1951236D1*
X1955989Y3869320D1*
X1958421Y3871697D1*
X1960798Y3878882D1*
Y3888443D1*
X1958421Y3895573D1*
X1955989Y3898005D1*
X1951236Y3900382D1*
X1944051D1*
X1939298Y3898005D1*
X1934490Y3893197D1*
X1932113Y3886067D1*
X1929736Y3876505D1*
X1927304Y3871697D1*
X1922551Y3869320D1*
X1917743D1*
X1912990Y3871697D1*
X1910613Y3878882D1*
Y3888443D1*
X1381547Y1090925D2*
X1360047D1*
X1352862Y1093357D1*
X1350430Y1095734D1*
X1348054Y1100487D1*
Y1105295D1*
X1350430Y1110048D1*
X1352862Y1112480D1*
X1360047Y1114857D1*
X1381547D1*
Y1064617D1*
X1364800Y1090925D2*
X1348054Y1064617D1*
X1332614Y1105240D2*
X1327806Y1107672D1*
X1320621Y1114802D1*
Y1064617D1*
X1388999Y615925D2*
X1367499D1*
X1360314Y618357D1*
X1357882Y620734D1*
X1355506Y625487D1*
Y630295D1*
X1357882Y635048D1*
X1360314Y637480D1*
X1367499Y639857D1*
X1388999D1*
Y589617D1*
X1372252Y615925D2*
X1355506Y589617D1*
X1337635Y627863D2*
Y630240D1*
X1335258Y635048D1*
X1332881Y637425D1*
X1328073Y639802D1*
X1318511D1*
X1313758Y637425D1*
X1311382Y635048D1*
X1308950Y630240D1*
Y625487D1*
X1311382Y620678D1*
X1316135Y613549D1*
X1340066Y589617D1*
X1306573D1*
X1391066Y997176D2*
X1369566D1*
X1362381Y999608D1*
X1359949Y1001984D1*
X1357573Y1006738D1*
Y1011546D1*
X1359949Y1016299D1*
X1362381Y1018731D1*
X1369566Y1021108D1*
X1391066D1*
Y970868D1*
X1374319Y997176D2*
X1357573Y970868D1*
X1337325Y1021052D2*
X1311072D1*
X1325387Y1001929D1*
X1318202D1*
X1313449Y999552D1*
X1311072Y997176D1*
X1308640Y989991D1*
Y985238D1*
X1311072Y978053D1*
X1315825Y973244D1*
X1323010Y970868D1*
X1330195D1*
X1337325Y973244D1*
X1339702Y975676D1*
X1342133Y980429D1*
X1393485Y715925D2*
X1371985D1*
X1364800Y718357D1*
X1362368Y720734D1*
X1359992Y725487D1*
Y730295D1*
X1362368Y735048D1*
X1364800Y737480D1*
X1371985Y739857D1*
X1393485D1*
Y689617D1*
X1376739Y715925D2*
X1359992Y689617D1*
X1320621D2*
Y739802D1*
X1344553Y706364D1*
X1308683D1*
X2158251Y986046D2*
Y964546D1*
X2155819Y957361D1*
X2153443Y954930D1*
X2148689Y952553D1*
X2143881D1*
X2139128Y954930D1*
X2136696Y957361D1*
X2134319Y964547D1*
Y986046D1*
X2184559D1*
X2158251Y969300D2*
X2184559Y952553D1*
X2134375Y908429D2*
Y932305D1*
X2155874Y934682D1*
X2153498Y932305D1*
X2151066Y925120D1*
Y917991D1*
X2153498Y910806D1*
X2158251Y905997D1*
X2165436Y903621D1*
X2170189D1*
X2177374Y905997D1*
X2182183Y910806D1*
X2184559Y917991D1*
Y925120D1*
X2182183Y932305D1*
X2179751Y934682D1*
X2174998Y937114D1*
X2589120Y1022330D2*
Y1000831D1*
X2586688Y993646D1*
X2584312Y991214D1*
X2579558Y988837D1*
X2574750D1*
X2569997Y991214D1*
X2567565Y993646D1*
X2565188Y1000831D1*
Y1022330D1*
X2615428D1*
X2589120Y1005584D2*
X2615428Y988837D1*
X2572373Y944713D2*
X2567620Y947090D1*
X2565244Y954275D1*
Y959028D1*
X2567620Y966213D1*
X2574805Y971021D1*
X2586744Y973398D1*
X2598682D1*
X2608243Y971021D1*
X2613052Y966213D1*
X2615428Y959028D1*
Y956651D1*
X2613052Y949521D1*
X2608243Y944713D1*
X2601058Y942336D1*
X2598682D1*
X2591497Y944713D1*
X2586743Y949521D1*
X2584367Y956651D1*
Y959028D1*
X2586744Y966213D1*
X2591497Y971021D1*
X2598682Y973398D1*
X1858633Y986046D2*
Y964546D1*
X1856201Y957361D1*
X1853824Y954930D1*
X1849071Y952553D1*
X1844263D1*
X1839509Y954930D1*
X1837077Y957361D1*
X1834701Y964547D1*
Y986046D1*
X1884941D1*
X1858633Y969300D2*
X1884941Y952553D1*
Y927552D2*
X1834756Y903621D1*
Y937114D1*
X2158251Y1436019D2*
Y1414519D1*
X2155819Y1407334D1*
X2153443Y1404902D1*
X2148689Y1402525D1*
X2143881D1*
X2139128Y1404902D1*
X2136696Y1407334D1*
X2134319Y1414519D1*
Y1436019D1*
X2184559D1*
X2158251Y1419272D2*
X2184559Y1402525D1*
X2134375Y1375148D2*
X2136751Y1382278D1*
X2141504Y1384710D1*
X2146313D1*
X2151066Y1382278D1*
X2153498Y1377525D1*
X2155874Y1367963D1*
X2158251Y1360778D1*
X2163059Y1356025D1*
X2167813Y1353648D1*
X2174998D1*
X2179751Y1356025D1*
X2182183Y1358401D1*
X2184559Y1365586D1*
Y1375148D1*
X2182183Y1382278D1*
X2179751Y1384710D1*
X2174998Y1387086D1*
X2167813D1*
X2163059Y1384710D1*
X2158251Y1379901D1*
X2155874Y1372771D1*
X2153498Y1363210D1*
X2151066Y1358401D1*
X2146313Y1356025D1*
X2141504D1*
X2136751Y1358401D1*
X2134375Y1365586D1*
Y1375148D1*
X2589120Y1403412D2*
Y1381912D1*
X2586688Y1374727D1*
X2584312Y1372295D1*
X2579558Y1369919D1*
X2574750D1*
X2569997Y1372295D1*
X2567565Y1374727D1*
X2565188Y1381912D1*
Y1403412D1*
X2615428D1*
X2589120Y1386665D2*
X2615428Y1369918D1*
X2581935Y1323363D2*
X2589120Y1325794D1*
X2593929Y1330548D1*
X2596305Y1337733D1*
Y1340109D1*
X2593929Y1347294D1*
X2589120Y1352047D1*
X2581935Y1354479D1*
X2579558D1*
X2572373Y1352047D1*
X2567620Y1347294D1*
X2565244Y1340109D1*
Y1337733D1*
X2567620Y1330548D1*
X2572373Y1325794D1*
X2581935Y1323363D1*
X2593929D1*
X2605867Y1325794D1*
X2613052Y1330548D1*
X2615428Y1337733D1*
Y1342486D1*
X2613052Y1349671D1*
X2608243Y1352047D1*
X1746478Y1334998D2*
Y1313498D1*
X1744046Y1306313D1*
X1741669Y1303881D1*
X1736916Y1301504D1*
X1732108D1*
X1727354Y1303881D1*
X1724923Y1306313D1*
X1722546Y1313498D1*
Y1334998D1*
X1772786D1*
X1746478Y1318251D2*
X1772786Y1301504D1*
X1732163Y1286065D2*
X1729731Y1281257D1*
X1722601Y1274072D1*
X1772786D1*
X1722601Y1244262D2*
X1724978Y1251447D1*
X1732163Y1256256D1*
X1744101Y1258632D1*
X1751286D1*
X1763224Y1256256D1*
X1770409Y1251447D1*
X1772786Y1244262D1*
Y1239509D1*
X1770409Y1232324D1*
X1763224Y1227571D1*
X1751286Y1225139D1*
X1744101D1*
X1732163Y1227571D1*
X1724978Y1232324D1*
X1722601Y1239509D1*
Y1244262D1*
X1732163Y1227571D2*
X1763224Y1256256D1*
X2158251Y1289013D2*
Y1267513D1*
X2155819Y1260328D1*
X2153443Y1257896D1*
X2148689Y1255519D1*
X2143881D1*
X2139128Y1257896D1*
X2136696Y1260328D1*
X2134319Y1267513D1*
Y1289013D1*
X2184559D1*
X2158251Y1272266D2*
X2184559Y1255519D1*
X2143936Y1240080D2*
X2141504Y1235272D1*
X2134375Y1228087D1*
X2184559D1*
X2143936Y1212648D2*
X2141504Y1207839D1*
X2134375Y1200654D1*
X2184559D1*
X2589119Y1268316D2*
Y1246817D1*
X2586687Y1239632D1*
X2584310Y1237200D1*
X2579557Y1234823D1*
X2574749D1*
X2569996Y1237200D1*
X2567564Y1239632D1*
X2565187Y1246817D1*
Y1268317D1*
X2615427Y1268316D1*
X2589119Y1251570D2*
X2615427Y1234823D1*
X2574804Y1219384D2*
X2572372Y1214576D1*
X2565242Y1207390D1*
X2615427D1*
X2577181Y1189519D2*
X2574804D1*
X2569996Y1187143D1*
X2567619Y1184766D1*
X2565242Y1179958D1*
Y1170396D1*
X2567619Y1165643D1*
X2569995Y1163266D1*
X2574804Y1160835D1*
X2579557D1*
X2584366Y1163266D1*
X2591495Y1168020D1*
X2615427Y1191951D1*
Y1158458D1*
X1858633Y1299763D2*
Y1278263D1*
X1856201Y1271078D1*
X1853824Y1268646D1*
X1849071Y1266269D1*
X1844263D1*
X1839509Y1268646D1*
X1837077Y1271078D1*
X1834701Y1278263D1*
Y1299763D1*
X1884941D1*
X1858633Y1283016D2*
X1884941Y1266269D1*
X1844318Y1250830D2*
X1841886Y1246022D1*
X1834756Y1238837D1*
X1884941D1*
X1834756Y1218589D2*
Y1192336D1*
X1853879Y1206651D1*
Y1199466D1*
X1856256Y1194713D1*
X1858633Y1192336D1*
X1865818Y1189904D1*
X1870571D1*
X1877756Y1192336D1*
X1882564Y1197089D1*
X1884941Y1204274D1*
Y1211459D1*
X1882564Y1218589D1*
X1880132Y1220966D1*
X1875379Y1223397D1*
X2158251Y1600951D2*
Y1579451D1*
X2155819Y1572266D1*
X2153443Y1569834D1*
X2148689Y1567458D1*
X2143881D1*
X2139128Y1569834D1*
X2136696Y1572266D1*
X2134319Y1579451D1*
Y1600951D1*
X2184559D1*
X2158251Y1584204D2*
X2184559Y1567458D1*
X2143936Y1552018D2*
X2141504Y1547210D1*
X2134375Y1540025D1*
X2184559D1*
Y1500654D2*
X2134375D1*
X2167813Y1524586D1*
Y1488716D1*
X2589120Y1568316D2*
Y1546817D1*
X2586688Y1539632D1*
X2584312Y1537200D1*
X2579558Y1534823D1*
X2574750D1*
X2569997Y1537200D1*
X2567565Y1539632D1*
X2565188Y1546817D1*
Y1568317D1*
X2615428Y1568316D1*
X2589120Y1551570D2*
X2615428Y1534823D1*
X2574805Y1519384D2*
X2572373Y1514576D1*
X2565244Y1507390D1*
X2615428D1*
X2565244Y1463266D2*
Y1487143D1*
X2586744Y1489519D1*
X2584367Y1487143D1*
X2581935Y1479958D1*
Y1472828D1*
X2584367Y1465643D1*
X2589120Y1460835D1*
X2596305Y1458458D1*
X2601058D1*
X2608243Y1460835D1*
X2613052Y1465643D1*
X2615428Y1472828D1*
Y1479958D1*
X2613052Y1487143D1*
X2610620Y1489519D1*
X2605867Y1491951D1*
X1953566Y1586054D2*
X1932067D1*
X1924882Y1588486D1*
X1922450Y1590862D1*
X1920073Y1595615D1*
Y1600424D1*
X1922450Y1605177D1*
X1924882Y1607609D1*
X1932067Y1609986D1*
X1953566D1*
Y1559746D1*
X1936820Y1586054D2*
X1920073Y1559746D1*
X1904634Y1600369D2*
X1899825Y1602801D1*
X1892640Y1609930D1*
Y1559746D1*
X1848516Y1602801D2*
X1850893Y1607554D1*
X1858078Y1609930D1*
X1862831D1*
X1870016Y1607554D1*
X1874825Y1600369D1*
X1877201Y1588430D1*
Y1576492D1*
X1874825Y1566931D1*
X1870016Y1562122D1*
X1862831Y1559746D1*
X1860454D1*
X1853325Y1562122D1*
X1848516Y1566931D1*
X1846140Y1574116D1*
Y1576492D1*
X1848516Y1583677D1*
X1853325Y1588430D1*
X1860454Y1590807D1*
X1862831D1*
X1870016Y1588430D1*
X1874825Y1583677D1*
X1877201Y1576492D1*
X2158251Y1749763D2*
Y1728263D1*
X2155819Y1721078D1*
X2153443Y1718646D1*
X2148689Y1716269D1*
X2143881D1*
X2139128Y1718646D1*
X2136696Y1721078D1*
X2134319Y1728263D1*
Y1749763D1*
X2184559D1*
X2158251Y1733016D2*
X2184559Y1716269D1*
X2143936Y1700830D2*
X2141504Y1696022D1*
X2134375Y1688837D1*
X2184559D1*
Y1663836D2*
X2134375Y1639904D1*
Y1673397D1*
X2589119Y1718289D2*
Y1696789D1*
X2586687Y1689604D1*
X2584310Y1687172D1*
X2579557Y1684796D1*
X2574749D1*
X2569996Y1687172D1*
X2567564Y1689604D1*
X2565187Y1696789D1*
Y1718289D1*
X2615427D1*
X2589119Y1701542D2*
X2615427Y1684796D1*
X2574804Y1669356D2*
X2572372Y1664548D1*
X2565242Y1657363D1*
X2615427D1*
X2565242Y1629985D2*
X2567619Y1637115D1*
X2572372Y1639547D1*
X2577181D1*
X2581934Y1637115D1*
X2584366Y1632362D1*
X2586742Y1622800D1*
X2589119Y1615615D1*
X2593927Y1610862D1*
X2598680Y1608486D1*
X2605865D1*
X2610619Y1610862D1*
X2613050Y1613239D1*
X2615427Y1620424D1*
Y1629985D1*
X2613051Y1637115D1*
X2610619Y1639547D1*
X2605865Y1641924D1*
X2598680D1*
X2593927Y1639547D1*
X2589119Y1634739D1*
X2586742Y1627609D1*
X2584366Y1618047D1*
X2581934Y1613239D1*
X2577181Y1610862D1*
X2572372D1*
X2567619Y1613239D1*
X2565242Y1620424D1*
Y1629985D1*
X1858633Y1748574D2*
Y1727075D1*
X1856201Y1719890D1*
X1853824Y1717458D1*
X1849071Y1715081D1*
X1844263D1*
X1839509Y1717458D1*
X1837077Y1719890D1*
X1834701Y1727075D1*
Y1748574D1*
X1884941D1*
X1858633Y1731828D2*
X1884941Y1715081D1*
X1844318Y1699642D2*
X1841886Y1694833D1*
X1834756Y1687648D1*
X1884941D1*
X1851447Y1641092D2*
X1858633Y1643524D1*
X1863441Y1648277D1*
X1865818Y1655462D1*
Y1657839D1*
X1863441Y1665024D1*
X1858633Y1669777D1*
X1851448Y1672209D1*
X1849071D1*
X1841886Y1669777D1*
X1837133Y1665024D1*
X1834756Y1657839D1*
Y1655463D1*
X1837133Y1648277D1*
X1841886Y1643524D1*
X1851447Y1641092D1*
X1863441D1*
X1875379Y1643524D1*
X1882564Y1648277D1*
X1884941Y1655462D1*
Y1660216D1*
X1882564Y1667401D1*
X1877756Y1669777D1*
X2158251Y1910513D2*
Y1889013D1*
X2155819Y1881828D1*
X2153443Y1879396D1*
X2148689Y1877019D1*
X2143881D1*
X2139128Y1879396D1*
X2136696Y1881828D1*
X2134319Y1889013D1*
Y1910513D1*
X2184559D1*
X2158251Y1893766D2*
X2184559Y1877019D1*
X2146313Y1859148D2*
X2143936D1*
X2139128Y1856772D1*
X2136751Y1854395D1*
X2134375Y1849587D1*
Y1840025D1*
X2136751Y1835272D1*
X2139128Y1832895D1*
X2143936Y1830463D1*
X2148689D1*
X2153498Y1832895D1*
X2160628Y1837648D1*
X2184559Y1861580D1*
Y1828087D1*
X2134375Y1798277D2*
X2136751Y1805462D1*
X2143936Y1810271D1*
X2155874Y1812648D1*
X2163059Y1812647D1*
X2174998Y1810271D1*
X2182183Y1805462D1*
X2184559Y1798277D1*
Y1793524D1*
X2182183Y1786339D1*
X2174998Y1781586D1*
X2163059Y1779154D1*
X2155874D1*
X2143936Y1781586D1*
X2136751Y1786339D1*
X2134375Y1793524D1*
Y1798277D1*
X2143936Y1781586D2*
X2174998Y1810271D1*
X2589120Y1868316D2*
Y1846817D1*
X2586688Y1839632D1*
X2584312Y1837200D1*
X2579558Y1834823D1*
X2574750D1*
X2569997Y1837200D1*
X2567565Y1839632D1*
X2565188Y1846817D1*
Y1868317D1*
X2615428Y1868316D1*
X2589120Y1851570D2*
X2615428Y1834823D1*
X2577182Y1816952D2*
X2574805D1*
X2569997Y1814576D1*
X2567620Y1812199D1*
X2565244Y1807390D1*
Y1797829D1*
X2567620Y1793076D1*
X2569997Y1790699D1*
X2574805Y1788267D1*
X2579558D1*
X2584367Y1790699D1*
X2591497Y1795452D1*
X2615428Y1819384D1*
Y1785891D1*
X2574805Y1770451D2*
X2572373Y1765643D1*
X2565244Y1758458D1*
X2615428D1*
X1858633Y1910513D2*
Y1889013D1*
X1856201Y1881828D1*
X1853824Y1879396D1*
X1849071Y1877019D1*
X1844262D1*
X1839509Y1879396D1*
X1837077Y1881828D1*
X1834701Y1889013D1*
Y1910513D1*
X1884941D1*
X1858633Y1893766D2*
X1884941Y1877019D1*
X1846694Y1859148D2*
X1844318D1*
X1839509Y1856772D1*
X1837133Y1854395D1*
X1834756Y1849587D1*
Y1840025D1*
X1837133Y1835272D1*
X1839509Y1832895D1*
X1844318Y1830463D1*
X1849071D1*
X1853879Y1832895D1*
X1861009Y1837648D1*
X1884941Y1861580D1*
Y1828087D1*
X1846694Y1810216D2*
X1844318D1*
X1839509Y1807839D1*
X1837133Y1805462D1*
X1834756Y1800654D1*
Y1791092D1*
X1837133Y1786339D1*
X1839509Y1783963D1*
X1844318Y1781531D1*
X1849071D1*
X1853879Y1783963D1*
X1861009Y1788716D1*
X1884941Y1812647D1*
Y1779154D1*
X2158251Y2060513D2*
Y2039013D1*
X2155819Y2031828D1*
X2153443Y2029396D1*
X2148689Y2027019D1*
X2143881D1*
X2139128Y2029396D1*
X2136696Y2031828D1*
X2134319Y2039013D1*
Y2060513D1*
X2184559D1*
X2158251Y2043766D2*
X2184559Y2027019D1*
X2146313Y2009148D2*
X2143936D1*
X2139128Y2006772D1*
X2136751Y2004395D1*
X2134375Y1999587D1*
Y1990025D1*
X2136751Y1985272D1*
X2139128Y1982895D1*
X2143936Y1980463D1*
X2148689D1*
X2153498Y1982895D1*
X2160628Y1987648D1*
X2184559Y2011580D1*
Y1978087D1*
X2134375Y1957839D2*
Y1931586D1*
X2153498Y1945901D1*
Y1938716D1*
X2155874Y1933963D1*
X2158251Y1931586D1*
X2165436Y1929154D1*
X2170189D1*
X2177374Y1931586D1*
X2182183Y1936339D1*
X2184559Y1943524D1*
Y1950709D1*
X2182183Y1957839D1*
X2179751Y1960216D1*
X2174998Y1962647D1*
X2589120Y2030255D2*
Y2008755D1*
X2586688Y2001570D1*
X2584312Y1999138D1*
X2579558Y1996761D1*
X2574750D1*
X2569997Y1999138D1*
X2567565Y2001570D1*
X2565188Y2008755D1*
Y2030255D1*
X2615428D1*
X2589120Y2013508D2*
X2615428Y1996761D1*
X2577182Y1978890D2*
X2574805D1*
X2569997Y1976514D1*
X2567620Y1974137D1*
X2565244Y1969329D1*
Y1959767D1*
X2567620Y1955014D1*
X2569997Y1952637D1*
X2574805Y1950205D1*
X2579558D1*
X2584367Y1952637D1*
X2591497Y1957390D1*
X2615428Y1981322D1*
Y1947829D1*
Y1908458D2*
X2565244D1*
X2598682Y1932390D1*
Y1896520D1*
X1858633Y2060513D2*
Y2039013D1*
X1856201Y2031828D1*
X1853824Y2029396D1*
X1849071Y2027019D1*
X1844262D1*
X1839509Y2029396D1*
X1837077Y2031828D1*
X1834701Y2039013D1*
Y2060513D1*
X1884941D1*
X1858633Y2043766D2*
X1884941Y2027019D1*
X1846694Y2009148D2*
X1844318D1*
X1839509Y2006772D1*
X1837133Y2004395D1*
X1834756Y1999587D1*
Y1990025D1*
X1837133Y1985272D1*
X1839509Y1982895D1*
X1844318Y1980463D1*
X1849071D1*
X1853879Y1982895D1*
X1861009Y1987648D1*
X1884941Y2011580D1*
Y1978087D1*
X1834756Y1933963D2*
Y1957839D1*
X1856256Y1960216D1*
X1853879Y1957839D1*
X1851448Y1950654D1*
Y1943524D1*
X1853879Y1936339D1*
X1858633Y1931531D1*
X1865818Y1929154D1*
X1870571D1*
X1877756Y1931531D1*
X1882564Y1936339D1*
X1884941Y1943524D1*
Y1950654D1*
X1882564Y1957839D1*
X1880132Y1960216D1*
X1875379Y1962647D1*
X2158251Y2209297D2*
Y2187797D1*
X2155819Y2180612D1*
X2153443Y2178180D1*
X2148689Y2175803D1*
X2143881D1*
X2139128Y2178180D1*
X2136696Y2180612D1*
X2134319Y2187797D1*
Y2209297D1*
X2184559D1*
X2158251Y2192550D2*
X2184559Y2175803D1*
X2146313Y2157932D2*
X2143936D1*
X2139128Y2155556D1*
X2136751Y2153179D1*
X2134375Y2148371D1*
Y2138809D1*
X2136751Y2134056D1*
X2139128Y2131679D1*
X2143936Y2129247D1*
X2148689D1*
X2153498Y2131679D1*
X2160628Y2136432D1*
X2184559Y2160364D1*
Y2126871D1*
X2141504Y2082747D2*
X2136751Y2085123D1*
X2134375Y2092308D1*
Y2097062D1*
X2136751Y2104247D1*
X2143936Y2109055D1*
X2155874Y2111432D1*
X2167813D1*
X2177374Y2109055D1*
X2182183Y2104247D1*
X2184559Y2097061D1*
Y2094685D1*
X2182183Y2087555D1*
X2177374Y2082747D1*
X2170189Y2080370D1*
X2167813D1*
X2160628Y2082747D1*
X2155874Y2087555D1*
X2153498Y2094685D1*
Y2097062D1*
X2155874Y2104247D1*
X2160628Y2109055D1*
X2167813Y2111432D1*
X2589119Y2179066D2*
Y2157567D1*
X2586687Y2150382D1*
X2584310Y2147950D1*
X2579557Y2145573D1*
X2574749D1*
X2569996Y2147950D1*
X2567564Y2150382D1*
X2565187Y2157567D1*
Y2179066D1*
X2615427D1*
X2589119Y2162320D2*
X2615427Y2145573D1*
X2577181Y2127702D2*
X2574804D1*
X2569996Y2125325D1*
X2567619Y2122949D1*
X2565242Y2118140D1*
Y2108579D1*
X2567619Y2103826D1*
X2569996Y2101449D1*
X2574804Y2099017D1*
X2579557D1*
X2584366Y2101449D1*
X2591495Y2106202D1*
X2615427Y2130134D1*
Y2096640D1*
Y2071640D2*
X2565242Y2047708D1*
Y2081201D1*
X1858633Y2210485D2*
Y2188985D1*
X1856201Y2181800D1*
X1853824Y2179368D1*
X1849071Y2176992D1*
X1844262D1*
X1839509Y2179368D1*
X1837077Y2181800D1*
X1834701Y2188985D1*
Y2210485D1*
X1884941D1*
X1858633Y2193738D2*
X1884941Y2176992D1*
X1846694Y2159121D2*
X1844318D1*
X1839509Y2156744D1*
X1837133Y2154367D1*
X1834756Y2149559D1*
Y2139997D1*
X1837133Y2135244D1*
X1839509Y2132868D1*
X1844318Y2130436D1*
X1849071D1*
X1853879Y2132868D1*
X1861009Y2137621D1*
X1884941Y2161552D1*
Y2128059D1*
X1834756Y2100682D2*
X1837133Y2107811D1*
X1841886Y2110243D1*
X1846694D1*
X1851448Y2107811D1*
X1853879Y2103058D1*
X1856256Y2093497D1*
X1858633Y2086312D1*
X1863441Y2081558D1*
X1868194Y2079182D1*
X1875379D1*
X1880132Y2081558D1*
X1882564Y2083935D1*
X1884941Y2091120D1*
Y2100682D1*
X1882564Y2107811D1*
X1880132Y2110243D1*
X1875379Y2112620D1*
X1868194D1*
X1863441Y2110243D1*
X1858633Y2105435D1*
X1856256Y2098305D1*
X1853879Y2088743D1*
X1851447Y2083935D1*
X1846694Y2081558D1*
X1841886D1*
X1837133Y2083935D1*
X1834756Y2091120D1*
Y2100682D1*
X2158251Y2509323D2*
Y2487823D1*
X2155819Y2480638D1*
X2153443Y2478206D1*
X2148689Y2475830D1*
X2143881D1*
X2139128Y2478206D1*
X2136696Y2480638D1*
X2134319Y2487823D1*
Y2509323D1*
X2184559D1*
X2158251Y2492576D2*
X2184559Y2475830D1*
X2146313Y2457959D2*
X2143936D1*
X2139128Y2455582D1*
X2136751Y2453205D1*
X2134375Y2448397D1*
Y2438835D1*
X2136751Y2434082D1*
X2139128Y2431706D1*
X2143936Y2429274D1*
X2148689D1*
X2153498Y2431706D1*
X2160628Y2436459D1*
X2184559Y2460390D1*
Y2426897D1*
X2151066Y2380341D2*
X2158251Y2382773D1*
X2163059Y2387526D1*
X2165436Y2394711D1*
Y2397088D1*
X2163059Y2404273D1*
X2158251Y2409026D1*
X2151066Y2411458D1*
X2148689D1*
X2141504Y2409026D1*
X2136751Y2404273D1*
X2134375Y2397088D1*
Y2394711D1*
X2136751Y2387526D1*
X2141504Y2382773D1*
X2151066Y2380341D1*
X2163059D1*
X2174998Y2382773D1*
X2182183Y2387526D1*
X2184559Y2394711D1*
Y2399464D1*
X2182183Y2406649D1*
X2177374Y2409026D1*
X2589120Y2479066D2*
Y2457567D1*
X2586688Y2450382D1*
X2584312Y2447950D1*
X2579558Y2445573D1*
X2574750D1*
X2569997Y2447950D1*
X2567565Y2450382D1*
X2565188Y2457567D1*
Y2479066D1*
X2615428D1*
X2589120Y2462320D2*
X2615428Y2445573D1*
X2565244Y2425325D2*
Y2399072D1*
X2584367Y2413387D1*
Y2406202D1*
X2586744Y2401449D1*
X2589120Y2399072D1*
X2596305Y2396641D1*
X2601058D1*
X2608243Y2399072D1*
X2613052Y2403826D1*
X2615428Y2411011D1*
Y2418196D1*
X2613052Y2425325D1*
X2610620Y2427702D1*
X2605867Y2430134D1*
X2565244Y2366831D2*
X2567620Y2374016D1*
X2574805Y2378825D1*
X2586744Y2381201D1*
X2593929D1*
X2605867Y2378825D1*
X2613052Y2374016D1*
X2615428Y2366831D1*
Y2362078D1*
X2613052Y2354893D1*
X2605867Y2350140D1*
X2593929Y2347708D1*
X2586743D1*
X2574805Y2350140D1*
X2567620Y2354893D1*
X2565244Y2362078D1*
Y2366831D1*
X2574805Y2350140D2*
X2605867Y2378825D1*
X1858633Y2499761D2*
Y2478262D1*
X1856201Y2471076D1*
X1853824Y2468645D1*
X1849071Y2466268D1*
X1844263D1*
X1839509Y2468645D1*
X1837077Y2471077D1*
X1834701Y2478262D1*
Y2499761D1*
X1884941D1*
X1858633Y2483015D2*
X1884941Y2466268D1*
X1834756Y2446020D2*
Y2419767D1*
X1853879Y2434082D1*
Y2426897D1*
X1856256Y2422144D1*
X1858633Y2419767D1*
X1865818Y2417336D1*
X1870571D1*
X1877756Y2419767D1*
X1882564Y2424521D1*
X1884941Y2431706D1*
Y2438891D1*
X1882564Y2446020D1*
X1880132Y2448397D1*
X1875379Y2450829D1*
X1844318Y2401896D2*
X1841886Y2397088D1*
X1834756Y2389903D1*
X1884941D1*
X2158251Y2660513D2*
Y2639013D1*
X2155819Y2631828D1*
X2153443Y2629396D1*
X2148689Y2627019D1*
X2143881D1*
X2139128Y2629396D1*
X2136696Y2631828D1*
X2134319Y2639013D1*
Y2660513D1*
X2184559D1*
X2158251Y2643766D2*
X2184559Y2627019D1*
X2134375Y2606772D2*
Y2580519D1*
X2153498Y2594833D1*
Y2587648D1*
X2155874Y2582895D1*
X2158251Y2580519D1*
X2165436Y2578087D1*
X2170189D1*
X2177374Y2580519D1*
X2182183Y2585272D1*
X2184559Y2592457D1*
Y2599642D1*
X2182183Y2606772D1*
X2179751Y2609148D1*
X2174998Y2611580D1*
X2146313Y2560216D2*
X2143936D1*
X2139128Y2557839D1*
X2136751Y2555462D1*
X2134375Y2550654D1*
Y2541092D1*
X2136751Y2536339D1*
X2139128Y2533963D1*
X2143936Y2531531D1*
X2148689D1*
X2153498Y2533963D1*
X2160628Y2538716D1*
X2184559Y2562647D1*
Y2529154D1*
X2589120Y2629066D2*
Y2607567D1*
X2586688Y2600382D1*
X2584312Y2597950D1*
X2579558Y2595573D1*
X2574750D1*
X2569997Y2597950D1*
X2567565Y2600382D1*
X2565188Y2607567D1*
Y2629066D1*
X2615428D1*
X2589120Y2612320D2*
X2615428Y2595573D1*
X2565244Y2575325D2*
Y2549072D1*
X2584367Y2563387D1*
Y2556202D1*
X2586744Y2551449D1*
X2589120Y2549072D1*
X2596305Y2546641D1*
X2601058D1*
X2608243Y2549072D1*
X2613052Y2553826D1*
X2615428Y2561011D1*
Y2568196D1*
X2613052Y2575325D1*
X2610620Y2577702D1*
X2605867Y2580134D1*
X2565244Y2526393D2*
Y2500140D1*
X2584367Y2514455D1*
Y2507270D1*
X2586743Y2502516D1*
X2589120Y2500140D1*
X2596305Y2497708D1*
X2601058D1*
X2608243Y2500140D1*
X2613052Y2504893D1*
X2615428Y2512078D1*
Y2519263D1*
X2613052Y2526393D1*
X2610620Y2528769D1*
X2605867Y2531201D1*
X1858633Y2661701D2*
Y2640201D1*
X1856201Y2633016D1*
X1853824Y2630584D1*
X1849071Y2628208D1*
X1844262D1*
X1839509Y2630584D1*
X1837077Y2633016D1*
X1834701Y2640201D1*
Y2661701D1*
X1884941D1*
X1858633Y2644954D2*
X1884941Y2628208D1*
X1834756Y2607960D2*
Y2581707D1*
X1853879Y2596022D1*
Y2588837D1*
X1856256Y2584083D1*
X1858633Y2581707D1*
X1865818Y2579275D1*
X1870571D1*
X1877756Y2581707D1*
X1882564Y2586460D1*
X1884941Y2593645D1*
Y2600830D1*
X1882564Y2607960D1*
X1880132Y2610336D1*
X1875379Y2612768D1*
X1884941Y2539904D2*
X1834756D1*
X1868194Y2563836D1*
Y2527966D1*
X2158251Y2810511D2*
Y2789011D1*
X2155819Y2781826D1*
X2153443Y2779395D1*
X2148689Y2777018D1*
X2143881D1*
X2139128Y2779395D1*
X2136696Y2781826D1*
X2134319Y2789011D1*
Y2810511D1*
X2184559D1*
X2158251Y2793765D2*
X2184559Y2777018D1*
X2134375Y2756770D2*
Y2730517D1*
X2153498Y2744832D1*
Y2737647D1*
X2155874Y2732894D1*
X2158251Y2730517D1*
X2165436Y2728085D1*
X2170189D1*
X2177374Y2730517D1*
X2182183Y2735270D1*
X2184559Y2742455D1*
Y2749640D1*
X2182183Y2756770D1*
X2179751Y2759147D1*
X2174998Y2761579D1*
X2134375Y2683961D2*
Y2707838D1*
X2155874Y2710214D1*
X2153498Y2707838D1*
X2151066Y2700653D1*
Y2693523D1*
X2153498Y2686338D1*
X2158251Y2681529D1*
X2165436Y2679153D1*
X2170189D1*
X2177374Y2681529D1*
X2182183Y2686338D1*
X2184559Y2693523D1*
Y2700653D1*
X2182183Y2707838D1*
X2179751Y2710214D1*
X2174998Y2712646D1*
X2589120Y2777850D2*
Y2756351D1*
X2586688Y2749166D1*
X2584312Y2746734D1*
X2579558Y2744357D1*
X2574750D1*
X2569997Y2746734D1*
X2567565Y2749166D1*
X2565188Y2756351D1*
Y2777850D1*
X2615428D1*
X2589120Y2761104D2*
X2615428Y2744357D1*
X2565244Y2724109D2*
Y2697856D1*
X2584367Y2712171D1*
Y2704986D1*
X2586744Y2700233D1*
X2589120Y2697856D1*
X2596305Y2695425D1*
X2601058D1*
X2608243Y2697856D1*
X2613052Y2702610D1*
X2615428Y2709795D1*
Y2716980D1*
X2613052Y2724109D1*
X2610620Y2726486D1*
X2605867Y2728918D1*
X2572373Y2651301D2*
X2567620Y2653677D1*
X2565244Y2660862D1*
Y2665615D1*
X2567620Y2672800D1*
X2574805Y2677609D1*
X2586744Y2679985D1*
X2598682D1*
X2608243Y2677609D1*
X2613052Y2672800D1*
X2615428Y2665615D1*
Y2663239D1*
X2613052Y2656109D1*
X2608243Y2651301D1*
X2601058Y2648924D1*
X2598682D1*
X2591497Y2651301D1*
X2586743Y2656109D1*
X2584367Y2663239D1*
Y2665615D1*
X2586744Y2672800D1*
X2591497Y2677609D1*
X2598682Y2679985D1*
X1858633Y2810511D2*
Y2789011D1*
X1856201Y2781826D1*
X1853824Y2779395D1*
X1849071Y2777018D1*
X1844262D1*
X1839509Y2779395D1*
X1837077Y2781826D1*
X1834701Y2789011D1*
Y2810511D1*
X1884941D1*
X1858633Y2793765D2*
X1884941Y2777018D1*
X1834756Y2756770D2*
Y2730517D1*
X1853879Y2744832D1*
Y2737647D1*
X1856256Y2732894D1*
X1858633Y2730517D1*
X1865818Y2728085D1*
X1870571D1*
X1877756Y2730517D1*
X1882564Y2735270D1*
X1884941Y2742455D1*
Y2749640D1*
X1882564Y2756770D1*
X1880132Y2759147D1*
X1875379Y2761579D1*
X1884941Y2703085D2*
X1834756Y2679153D1*
Y2712646D1*
X2158251Y2960485D2*
Y2938985D1*
X2155819Y2931800D1*
X2153443Y2929368D1*
X2148689Y2926992D1*
X2143881D1*
X2139128Y2929368D1*
X2136696Y2931800D1*
X2134319Y2938985D1*
Y2960485D1*
X2184559D1*
X2158251Y2943738D2*
X2184559Y2926992D1*
X2134375Y2906744D2*
Y2880491D1*
X2153498Y2894806D1*
Y2887621D1*
X2155874Y2882868D1*
X2158251Y2880491D1*
X2165436Y2878059D1*
X2170189D1*
X2177374Y2880491D1*
X2182183Y2885244D1*
X2184559Y2892429D1*
Y2899614D1*
X2182183Y2906744D1*
X2179751Y2909121D1*
X2174998Y2911552D1*
X2134375Y2850682D2*
X2136751Y2857811D1*
X2141504Y2860243D1*
X2146313D1*
X2151066Y2857811D1*
X2153498Y2853058D1*
X2155874Y2843497D1*
X2158251Y2836312D1*
X2163059Y2831558D1*
X2167813Y2829182D1*
X2174998D1*
X2179751Y2831558D1*
X2182183Y2833935D1*
X2184559Y2841120D1*
Y2850682D1*
X2182183Y2857811D1*
X2179751Y2860243D1*
X2174998Y2862620D1*
X2167813D1*
X2163059Y2860243D1*
X2158251Y2855435D1*
X2155874Y2848305D1*
X2153498Y2838743D1*
X2151066Y2833935D1*
X2146313Y2831558D1*
X2141504D1*
X2136751Y2833935D1*
X2134375Y2841120D1*
Y2850682D1*
X2589120Y2927878D2*
Y2906378D1*
X2586688Y2899193D1*
X2584312Y2896761D1*
X2579558Y2894385D1*
X2574750D1*
X2569997Y2896761D1*
X2567565Y2899193D1*
X2565188Y2906378D1*
Y2927878D1*
X2615428D1*
X2589120Y2911131D2*
X2615428Y2894385D1*
X2565244Y2874137D2*
Y2847884D1*
X2584367Y2862199D1*
Y2855014D1*
X2586744Y2850261D1*
X2589120Y2847884D1*
X2596305Y2845452D1*
X2601058D1*
X2608243Y2847884D1*
X2613052Y2852637D1*
X2615428Y2859822D1*
Y2867007D1*
X2613052Y2874137D1*
X2610620Y2876514D1*
X2605867Y2878946D1*
X2581935Y2798896D2*
X2589120Y2801328D1*
X2593929Y2806081D1*
X2596305Y2813266D1*
Y2815643D1*
X2593929Y2822828D1*
X2589120Y2827581D1*
X2581935Y2830013D1*
X2579558D1*
X2572373Y2827581D1*
X2567620Y2822828D1*
X2565244Y2815643D1*
Y2813266D1*
X2567620Y2806081D1*
X2572373Y2801328D1*
X2581935Y2798896D1*
X2593929D1*
X2605867Y2801328D1*
X2613052Y2806081D1*
X2615428Y2813266D1*
Y2818020D1*
X2613052Y2825205D1*
X2608243Y2827581D1*
X1858633Y2961701D2*
Y2940201D1*
X1856201Y2933016D1*
X1853824Y2930584D1*
X1849071Y2928208D1*
X1844262D1*
X1839509Y2930584D1*
X1837077Y2933016D1*
X1834701Y2940201D1*
Y2961701D1*
X1884941D1*
X1858633Y2944954D2*
X1884941Y2928208D1*
Y2888837D2*
X1834756D1*
X1868194Y2912768D1*
Y2876898D1*
X1834756Y2847089D2*
X1837133Y2854274D1*
X1844318Y2859083D1*
X1856256Y2861459D1*
X1863441D1*
X1875379Y2859083D1*
X1882564Y2854274D1*
X1884941Y2847089D1*
Y2842336D1*
X1882564Y2835151D1*
X1875379Y2830398D1*
X1863441Y2827966D1*
X1856256D1*
X1844318Y2830398D1*
X1837133Y2835151D1*
X1834756Y2842336D1*
Y2847089D1*
X1844318Y2830398D2*
X1875379Y2859083D1*
X2158251Y3250951D2*
Y3229451D1*
X2155819Y3222266D1*
X2153443Y3219834D1*
X2148689Y3217458D1*
X2143881D1*
X2139128Y3219834D1*
X2136696Y3222266D1*
X2134319Y3229451D1*
Y3250951D1*
X2184559D1*
X2158251Y3234204D2*
X2184559Y3217458D1*
Y3178087D2*
X2134375D1*
X2167813Y3202018D1*
Y3166149D1*
X2143936Y3150709D2*
X2141504Y3145901D1*
X2134375Y3138716D1*
X2184559D1*
X2589119Y3230255D2*
Y3208755D1*
X2586687Y3201570D1*
X2584310Y3199138D1*
X2579557Y3196761D1*
X2574749D1*
X2569996Y3199138D1*
X2567564Y3201570D1*
X2565187Y3208755D1*
Y3230255D1*
X2615427D1*
X2589119Y3213508D2*
X2615427Y3196761D1*
Y3157390D2*
X2565242D1*
X2598680Y3181322D1*
Y3145452D1*
X2577181Y3127581D2*
X2574804D1*
X2569996Y3125205D1*
X2567619Y3122828D1*
X2565242Y3118020D1*
Y3108458D1*
X2567619Y3103705D1*
X2569995Y3101328D1*
X2574804Y3098896D1*
X2579557D1*
X2584366Y3101328D1*
X2591495Y3106081D1*
X2615427Y3130013D1*
Y3096520D1*
X1858633Y3261701D2*
Y3240201D1*
X1856201Y3233016D1*
X1853824Y3230584D1*
X1849071Y3228208D1*
X1844262D1*
X1839509Y3230584D1*
X1837077Y3233016D1*
X1834701Y3240201D1*
Y3261701D1*
X1884941D1*
X1858633Y3244954D2*
X1884941Y3228208D1*
Y3188837D2*
X1834756D1*
X1868194Y3212768D1*
Y3176898D1*
X1834756Y3156651D2*
Y3130398D1*
X1853879Y3144713D1*
Y3137528D1*
X1856256Y3132774D1*
X1858633Y3130398D1*
X1865818Y3127966D1*
X1870571D1*
X1877756Y3130398D1*
X1882564Y3135151D1*
X1884941Y3142336D1*
Y3149521D1*
X1882564Y3156651D1*
X1880132Y3159027D1*
X1875379Y3161459D1*
X2158251Y3412888D2*
Y3391388D1*
X2155819Y3384203D1*
X2153443Y3381771D1*
X2148689Y3379395D1*
X2143881D1*
X2139128Y3381771D1*
X2136696Y3384203D1*
X2134319Y3391388D1*
Y3412888D1*
X2184559D1*
X2158251Y3396141D2*
X2184559Y3379395D1*
Y3340024D2*
X2134375D1*
X2167813Y3363955D1*
Y3328085D1*
X2184559Y3288714D2*
X2134375Y3288715D1*
X2167813Y3312646D1*
Y3276776D1*
X2589119Y3380255D2*
Y3358755D1*
X2586687Y3351570D1*
X2584310Y3349138D1*
X2579557Y3346761D1*
X2574749D1*
X2569996Y3349138D1*
X2567564Y3351570D1*
X2565187Y3358755D1*
Y3380255D1*
X2615427D1*
X2589119Y3363508D2*
X2615427Y3346761D1*
Y3307390D2*
X2565242D1*
X2598680Y3331322D1*
Y3295452D1*
X2565242Y3251328D2*
Y3275205D1*
X2586742Y3277581D1*
X2584366Y3275205D1*
X2581934Y3268020D1*
Y3260890D1*
X2584366Y3253705D1*
X2589119Y3248896D1*
X2596304Y3246520D1*
X2601057D1*
X2608242Y3248896D1*
X2613050Y3253705D1*
X2615427Y3260890D1*
Y3268019D1*
X2613051Y3275205D1*
X2610619Y3277581D1*
X2605865Y3280013D1*
X1858633Y3410484D2*
Y3388984D1*
X1856201Y3381799D1*
X1853824Y3379367D1*
X1849071Y3376990D1*
X1844262D1*
X1839509Y3379367D1*
X1837077Y3381799D1*
X1834701Y3388984D1*
Y3410484D1*
X1884941D1*
X1858633Y3393737D2*
X1884941Y3376990D1*
Y3337619D2*
X1834756D1*
X1868194Y3361551D1*
Y3325681D1*
X1841886Y3281557D2*
X1837133Y3283934D1*
X1834756Y3291119D1*
Y3295872D1*
X1837133Y3303057D1*
X1844318Y3307865D1*
X1856256Y3310242D1*
X1868194D1*
X1877756Y3307865D1*
X1882564Y3303057D1*
X1884941Y3295872D1*
Y3293495D1*
X1882564Y3286366D1*
X1877756Y3281557D1*
X1870571Y3279181D1*
X1868194D1*
X1861009Y3281557D1*
X1856256Y3286366D1*
X1853879Y3293495D1*
Y3295872D1*
X1856256Y3303057D1*
X1861009Y3307865D1*
X1868194Y3310242D1*
X2158251Y3561701D2*
Y3540201D1*
X2155819Y3533016D1*
X2153443Y3530584D1*
X2148689Y3528208D1*
X2143881D1*
X2139128Y3530584D1*
X2136696Y3533016D1*
X2134319Y3540201D1*
Y3561701D1*
X2184559D1*
X2158251Y3544954D2*
X2184559Y3528208D1*
Y3488837D2*
X2134375D1*
X2167813Y3512768D1*
Y3476898D1*
X2184559Y3451898D2*
X2134375Y3427966D1*
Y3461459D1*
X2589119Y3530227D2*
Y3508727D1*
X2586687Y3501542D1*
X2584310Y3499110D1*
X2579557Y3496734D1*
X2574749D1*
X2569996Y3499110D1*
X2567564Y3501542D1*
X2565187Y3508727D1*
Y3530227D1*
X2615427D1*
X2589119Y3513480D2*
X2615427Y3496734D1*
Y3457363D2*
X2565242D1*
X2598680Y3481294D1*
Y3445425D1*
X2565242Y3418047D2*
X2567619Y3425177D1*
X2572372Y3427609D1*
X2577181D1*
X2581934Y3425177D1*
X2584366Y3420424D1*
X2586742Y3410862D1*
X2589119Y3403677D1*
X2593927Y3398924D1*
X2598680Y3396547D1*
X2605865D1*
X2610619Y3398924D1*
X2613050Y3401301D1*
X2615427Y3408486D1*
Y3418047D1*
X2613051Y3425177D1*
X2610619Y3427609D1*
X2605865Y3429985D1*
X2598680D1*
X2593927Y3427609D1*
X2589119Y3422800D1*
X2586742Y3415671D1*
X2584366Y3406109D1*
X2581934Y3401301D1*
X2577181Y3398924D1*
X2572372D1*
X2567619Y3401301D1*
X2565242Y3408486D1*
Y3418047D1*
X1858633Y3560513D2*
Y3539013D1*
X1856201Y3531828D1*
X1853824Y3529396D1*
X1849071Y3527019D1*
X1844262D1*
X1839509Y3529396D1*
X1837077Y3531828D1*
X1834701Y3539013D1*
Y3560513D1*
X1884941D1*
X1858633Y3543766D2*
X1884941Y3527019D1*
Y3487648D2*
X1834756D1*
X1868194Y3511580D1*
Y3475710D1*
X1851447Y3429154D2*
X1858633Y3431586D1*
X1863441Y3436339D1*
X1865818Y3443524D1*
Y3445901D1*
X1863441Y3453086D1*
X1858633Y3457839D1*
X1851448Y3460271D1*
X1849071D1*
X1841886Y3457839D1*
X1837133Y3453086D1*
X1834756Y3445901D1*
Y3443524D1*
X1837133Y3436339D1*
X1841886Y3431586D1*
X1851447Y3429154D1*
X1863441D1*
X1875379Y3431586D1*
X1882564Y3436339D1*
X1884941Y3443524D1*
Y3448277D1*
X1882564Y3455462D1*
X1877756Y3457839D1*
X2158251Y3710316D2*
Y3688816D1*
X2155819Y3681631D1*
X2153443Y3679199D1*
X2148689Y3676822D1*
X2143881D1*
X2139128Y3679199D1*
X2136696Y3681631D1*
X2134319Y3688816D1*
Y3710316D1*
X2184559D1*
X2158251Y3693569D2*
X2184559Y3676822D1*
X2134375Y3632698D2*
Y3656575D1*
X2155874Y3658951D1*
X2153498Y3656575D1*
X2151066Y3649390D1*
Y3642260D1*
X2153498Y3635075D1*
X2158251Y3630266D1*
X2165436Y3627890D1*
X2170189D1*
X2177374Y3630266D1*
X2182183Y3635075D1*
X2184559Y3642260D1*
Y3649390D1*
X2182183Y3656575D1*
X2179751Y3658951D1*
X2174998Y3661383D1*
X2134375Y3598081D2*
X2136751Y3605266D1*
X2143936Y3610074D1*
X2155874Y3612451D1*
X2163059D1*
X2174998Y3610074D1*
X2182183Y3605266D1*
X2184559Y3598081D1*
Y3593327D1*
X2182183Y3586142D1*
X2174998Y3581389D1*
X2163059Y3578957D1*
X2155874D1*
X2143936Y3581389D1*
X2136751Y3586142D1*
X2134375Y3593327D1*
Y3598081D1*
X2143936Y3581389D2*
X2174998Y3610074D1*
X2589120Y3668316D2*
Y3646817D1*
X2586688Y3639632D1*
X2584312Y3637200D1*
X2579558Y3634823D1*
X2574750D1*
X2569997Y3637200D1*
X2567565Y3639632D1*
X2565188Y3646817D1*
Y3668317D1*
X2615428Y3668316D1*
X2589120Y3651570D2*
X2615428Y3634823D1*
X2565244Y3590699D2*
Y3614576D1*
X2586744Y3616952D1*
X2584367Y3614575D1*
X2581935Y3607390D1*
Y3600261D1*
X2584367Y3593076D1*
X2589120Y3588267D1*
X2596305Y3585891D1*
X2601058D1*
X2608243Y3588267D1*
X2613052Y3593076D1*
X2615428Y3600261D1*
Y3607390D1*
X2613052Y3614575D1*
X2610620Y3616952D1*
X2605867Y3619384D1*
X2574805Y3570451D2*
X2572373Y3565643D1*
X2565244Y3558458D1*
X2615428D1*
X1858633Y3710511D2*
Y3689011D1*
X1856201Y3681826D1*
X1853824Y3679395D1*
X1849071Y3677018D1*
X1844262D1*
X1839509Y3679395D1*
X1837077Y3681826D1*
X1834701Y3689011D1*
Y3710511D1*
X1884941D1*
X1858633Y3693765D2*
X1884941Y3677018D1*
X1834756Y3632894D2*
Y3656770D1*
X1856256Y3659147D1*
X1853879Y3656770D1*
X1851448Y3649585D1*
Y3642455D1*
X1853879Y3635270D1*
X1858633Y3630462D1*
X1865818Y3628085D1*
X1870571D1*
X1877756Y3630462D1*
X1882564Y3635270D1*
X1884941Y3642455D1*
Y3649585D1*
X1882564Y3656770D1*
X1880132Y3659147D1*
X1875379Y3661579D1*
X1846694Y3610214D2*
X1844318D1*
X1839509Y3607838D1*
X1837133Y3605461D1*
X1834756Y3600653D1*
Y3591091D1*
X1837133Y3586338D1*
X1839509Y3583961D1*
X1844318Y3581529D1*
X1849071D1*
X1853879Y3583961D1*
X1861009Y3588715D1*
X1884941Y3612646D1*
Y3579153D1*
X2158251Y5060513D2*
Y5039013D1*
X2155819Y5031828D1*
X2153443Y5029396D1*
X2148689Y5027019D1*
X2143881D1*
X2139128Y5029396D1*
X2136696Y5031828D1*
X2134319Y5039013D1*
Y5060513D1*
X2184559D1*
X2158251Y5043766D2*
X2184559Y5027019D1*
X2134375Y4982895D2*
Y5006772D1*
X2155874Y5009148D1*
X2153498Y5006772D1*
X2151066Y4999587D1*
Y4992457D1*
X2153498Y4985272D1*
X2158251Y4980463D1*
X2165436Y4978087D1*
X2170189D1*
X2177374Y4980463D1*
X2182183Y4985272D1*
X2184559Y4992457D1*
Y4999587D1*
X2182183Y5006772D1*
X2179751Y5009148D1*
X2174998Y5011580D1*
X2134375Y4957839D2*
Y4931586D1*
X2153498Y4945901D1*
Y4938716D1*
X2155874Y4933963D1*
X2158251Y4931586D1*
X2165436Y4929154D1*
X2170189D1*
X2177374Y4931586D1*
X2182183Y4936339D1*
X2184559Y4943524D1*
Y4950709D1*
X2182183Y4957839D1*
X2179751Y4960216D1*
X2174998Y4962647D1*
X2585568Y4847005D2*
X2564068D1*
X2556883Y4849436D1*
X2554452Y4851813D1*
X2552075Y4856566D1*
Y4861375D1*
X2554452Y4866128D1*
X2556883Y4868560D1*
X2564068Y4870936D1*
X2585568D1*
Y4820696D1*
X2568822Y4847005D2*
X2552075Y4820696D1*
X2507951Y4870881D2*
X2531827D1*
X2534204Y4849381D1*
X2531827Y4851758D1*
X2524642Y4854190D1*
X2517512D1*
X2510327Y4851758D1*
X2505519Y4847005D1*
X2503142Y4839820D1*
Y4835066D1*
X2505519Y4827881D1*
X2510327Y4823073D1*
X2517512Y4820696D1*
X2524642D1*
X2531827Y4823073D1*
X2534204Y4825505D1*
X2536636Y4830258D1*
X2463771Y4820696D2*
Y4870881D1*
X2487703Y4837443D1*
X2451833D1*
X1858633Y5060513D2*
Y5039013D1*
X1856201Y5031828D1*
X1853824Y5029396D1*
X1849071Y5027019D1*
X1844262D1*
X1839509Y5029396D1*
X1837077Y5031828D1*
X1834701Y5039013D1*
Y5060513D1*
X1884941D1*
X1858633Y5043766D2*
X1884941Y5027019D1*
X1834756Y4982895D2*
Y5006772D1*
X1856256Y5009148D1*
X1853879Y5006772D1*
X1851448Y4999587D1*
Y4992457D1*
X1853879Y4985272D1*
X1858633Y4980463D1*
X1865818Y4978087D1*
X1870571D1*
X1877756Y4980463D1*
X1882564Y4985272D1*
X1884941Y4992457D1*
Y4999587D1*
X1882564Y5006772D1*
X1880132Y5009148D1*
X1875379Y5011580D1*
X1834756Y4933963D2*
Y4957839D1*
X1856256Y4960216D1*
X1853879Y4957839D1*
X1851448Y4950654D1*
Y4943524D1*
X1853879Y4936339D1*
X1858633Y4931531D1*
X1865818Y4929154D1*
X1870571D1*
X1877756Y4931531D1*
X1882564Y4936339D1*
X1884941Y4943524D1*
Y4950654D1*
X1882564Y4957839D1*
X1880132Y4960216D1*
X1875379Y4962647D1*
X2158251Y4759297D2*
Y4737797D1*
X2155819Y4730612D1*
X2153443Y4728180D1*
X2148689Y4725803D1*
X2143881D1*
X2139128Y4728180D1*
X2136696Y4730612D1*
X2134319Y4737797D1*
Y4759297D1*
X2184559D1*
X2158251Y4742550D2*
X2184559Y4725803D1*
X2134375Y4681679D2*
Y4705556D1*
X2155874Y4707932D1*
X2153498Y4705556D1*
X2151066Y4698371D1*
Y4691241D1*
X2153498Y4684056D1*
X2158251Y4679247D1*
X2165436Y4676871D1*
X2170189D1*
X2177374Y4679247D1*
X2182183Y4684056D1*
X2184559Y4691241D1*
Y4698371D1*
X2182183Y4705556D1*
X2179751Y4707932D1*
X2174998Y4710364D1*
X2141504Y4632747D2*
X2136751Y4635123D1*
X2134375Y4642308D1*
Y4647062D1*
X2136751Y4654247D1*
X2143936Y4659055D1*
X2155874Y4661432D1*
X2167813D1*
X2177374Y4659055D1*
X2182183Y4654247D1*
X2184559Y4647061D1*
Y4644685D1*
X2182183Y4637555D1*
X2177374Y4632747D1*
X2170189Y4630370D1*
X2167813D1*
X2160628Y4632747D1*
X2155874Y4637555D1*
X2153498Y4644685D1*
Y4647062D1*
X2155874Y4654247D1*
X2160628Y4659055D1*
X2167813Y4661432D1*
X2584381Y4559505D2*
X2562882D1*
X2555696Y4561936D1*
X2553265Y4564313D1*
X2550888Y4569066D1*
Y4573875D1*
X2553265Y4578628D1*
X2555696Y4581060D1*
X2562882Y4583436D1*
X2584381D1*
Y4533196D1*
X2567635Y4559505D2*
X2550888Y4533196D1*
X2506764Y4583381D2*
X2530640D1*
X2533017Y4561881D1*
X2530640Y4564258D1*
X2523455Y4566690D1*
X2516326D1*
X2509140Y4564258D1*
X2504332Y4559505D1*
X2501955Y4552320D1*
Y4547566D1*
X2504332Y4540381D1*
X2509140Y4535573D1*
X2516326Y4533196D1*
X2523455D1*
X2530640Y4535573D1*
X2533017Y4538005D1*
X2535449Y4542758D1*
X2476955Y4533196D2*
X2453023Y4583381D1*
X2486516D1*
X1858633Y4760485D2*
Y4738985D1*
X1856201Y4731800D1*
X1853824Y4729368D1*
X1849071Y4726992D1*
X1844262D1*
X1839509Y4729368D1*
X1837077Y4731800D1*
X1834701Y4738985D1*
Y4760485D1*
X1884941D1*
X1858633Y4743738D2*
X1884941Y4726992D1*
X1834756Y4682868D2*
Y4706744D1*
X1856256Y4709121D1*
X1853879Y4706744D1*
X1851448Y4699559D1*
Y4692429D1*
X1853879Y4685244D1*
X1858633Y4680436D1*
X1865818Y4678059D1*
X1870571D1*
X1877756Y4680436D1*
X1882564Y4685244D1*
X1884941Y4692429D1*
Y4699559D1*
X1882564Y4706744D1*
X1880132Y4709121D1*
X1875379Y4711552D1*
X1834756Y4650682D2*
X1837133Y4657811D1*
X1841886Y4660243D1*
X1846694D1*
X1851448Y4657811D1*
X1853879Y4653058D1*
X1856256Y4643497D1*
X1858633Y4636312D1*
X1863441Y4631558D1*
X1868194Y4629182D1*
X1875379D1*
X1880132Y4631558D1*
X1882564Y4633935D1*
X1884941Y4641120D1*
Y4650682D1*
X1882564Y4657811D1*
X1880132Y4660243D1*
X1875379Y4662620D1*
X1868194D1*
X1863441Y4660243D1*
X1858633Y4655435D1*
X1856256Y4648305D1*
X1853879Y4638743D1*
X1851447Y4633935D1*
X1846694Y4631558D1*
X1841886D1*
X1837133Y4633935D1*
X1834756Y4641120D1*
Y4650682D1*
X2158251Y4459324D2*
Y4437824D1*
X2155819Y4430639D1*
X2153443Y4428208D1*
X2148689Y4425831D1*
X2143881D1*
X2139128Y4428208D1*
X2136696Y4430639D1*
X2134319Y4437824D1*
Y4459324D1*
X2184559D1*
X2158251Y4442578D2*
X2184559Y4425831D1*
X2134375Y4381707D2*
Y4405583D1*
X2155874Y4407960D1*
X2153498Y4405583D1*
X2151066Y4398398D1*
Y4391269D1*
X2153498Y4384083D1*
X2158251Y4379275D1*
X2165436Y4376898D1*
X2170189D1*
X2177374Y4379275D1*
X2182183Y4384083D1*
X2184559Y4391268D1*
Y4398398D1*
X2182183Y4405583D1*
X2179751Y4407960D1*
X2174998Y4410392D1*
X2151066Y4330343D2*
X2158251Y4332774D1*
X2163059Y4337528D1*
X2165436Y4344713D1*
Y4347089D1*
X2163059Y4354274D1*
X2158251Y4359027D1*
X2151066Y4361459D1*
X2148689D1*
X2141504Y4359027D1*
X2136751Y4354274D1*
X2134375Y4347089D1*
Y4344713D1*
X2136751Y4337528D1*
X2141504Y4332774D1*
X2151066Y4330343D1*
X2163059D1*
X2174998Y4332774D1*
X2182183Y4337528D1*
X2184559Y4344713D1*
Y4349466D1*
X2182183Y4356651D1*
X2177374Y4359027D1*
X2589120Y4421600D2*
Y4400100D1*
X2586688Y4392915D1*
X2584312Y4390483D1*
X2579558Y4388107D1*
X2574750D1*
X2569997Y4390483D1*
X2567565Y4392915D1*
X2565188Y4400100D1*
Y4421600D1*
X2615428D1*
X2589120Y4404853D2*
X2615428Y4388106D1*
X2572373Y4343982D2*
X2567620Y4346359D1*
X2565244Y4353544D1*
Y4358297D1*
X2567620Y4365482D1*
X2574805Y4370291D1*
X2586744Y4372667D1*
X2598682D1*
X2608243Y4370291D1*
X2613052Y4365482D1*
X2615428Y4358297D1*
Y4355921D1*
X2613052Y4348791D1*
X2608243Y4343982D1*
X2601058Y4341606D1*
X2598682D1*
X2591497Y4343982D1*
X2586744Y4348791D1*
X2584367Y4355921D1*
Y4358297D1*
X2586744Y4365482D1*
X2591497Y4370291D1*
X2598682Y4372667D1*
X2565244Y4311797D2*
X2567620Y4318982D1*
X2574805Y4323790D1*
X2586744Y4326167D1*
X2593929D1*
X2605867Y4323790D1*
X2613052Y4318982D1*
X2615428Y4311796D1*
Y4307043D1*
X2613052Y4299858D1*
X2605867Y4295105D1*
X2593929Y4292673D1*
X2586743D1*
X2574805Y4295105D1*
X2567620Y4299858D1*
X2565244Y4307043D1*
Y4311797D1*
X2574805Y4295105D2*
X2605867Y4323790D1*
X1858633Y4448547D2*
Y4427047D1*
X1856201Y4419862D1*
X1853824Y4417430D1*
X1849071Y4415053D1*
X1844263D1*
X1839509Y4417430D1*
X1837077Y4419862D1*
X1834701Y4427047D1*
Y4448547D1*
X1884941D1*
X1858633Y4431800D2*
X1884941Y4415053D1*
X1841886Y4370929D2*
X1837133Y4373306D1*
X1834756Y4380491D1*
Y4385244D1*
X1837133Y4392429D1*
X1844318Y4397238D1*
X1856256Y4399614D1*
X1868194D1*
X1877756Y4397238D1*
X1882564Y4392429D1*
X1884941Y4385244D1*
Y4382868D1*
X1882564Y4375738D1*
X1877756Y4370929D1*
X1870571Y4368553D1*
X1868194D1*
X1861009Y4370929D1*
X1856256Y4375738D1*
X1853879Y4382868D1*
Y4385244D1*
X1856256Y4392429D1*
X1861009Y4397238D1*
X1868194Y4399614D1*
X1844318Y4353114D2*
X1841886Y4348305D1*
X1834756Y4341120D1*
X1884941D1*
X2158251Y4309297D2*
Y4287797D1*
X2155819Y4280612D1*
X2153443Y4278180D1*
X2148689Y4275803D1*
X2143881D1*
X2139128Y4278180D1*
X2136696Y4280612D1*
X2134319Y4287797D1*
Y4309297D1*
X2184559D1*
X2158251Y4292550D2*
X2184559Y4275803D1*
X2141504Y4231679D2*
X2136751Y4234056D1*
X2134375Y4241241D1*
Y4245994D1*
X2136751Y4253179D1*
X2143936Y4257988D1*
X2155874Y4260364D1*
X2167813D1*
X2177374Y4257987D1*
X2182183Y4253179D1*
X2184559Y4245994D1*
Y4243617D1*
X2182183Y4236488D1*
X2177374Y4231679D1*
X2170189Y4229303D1*
X2167813D1*
X2160628Y4231679D1*
X2155874Y4236488D1*
X2153498Y4243617D1*
Y4245994D1*
X2155874Y4253179D1*
X2160628Y4257988D1*
X2167813Y4260364D1*
X2146313Y4211432D2*
X2143936D1*
X2139128Y4209055D1*
X2136751Y4206678D1*
X2134375Y4201870D1*
Y4192308D1*
X2136751Y4187555D1*
X2139128Y4185179D1*
X2143936Y4182747D1*
X2148689D1*
X2153498Y4185179D1*
X2160628Y4189932D1*
X2184559Y4213863D1*
Y4180370D1*
X2589119Y4271600D2*
Y4250100D1*
X2586687Y4242915D1*
X2584310Y4240483D1*
X2579557Y4238107D1*
X2574749D1*
X2569996Y4240483D1*
X2567564Y4242915D1*
X2565187Y4250100D1*
Y4271600D1*
X2615427D1*
X2589119Y4254853D2*
X2615427Y4238106D1*
X2572372Y4193982D2*
X2567619Y4196359D1*
X2565242Y4203544D1*
Y4208297D1*
X2567619Y4215482D1*
X2574804Y4220291D1*
X2586742Y4222667D1*
X2598680D1*
X2608242Y4220291D1*
X2613050Y4215482D1*
X2615427Y4208297D1*
Y4205921D1*
X2613050Y4198791D1*
X2608242Y4193982D1*
X2601057Y4191606D1*
X2598680D1*
X2591495Y4193982D1*
X2586742Y4198791D1*
X2584366Y4205921D1*
Y4208297D1*
X2586742Y4215482D1*
X2591495Y4220291D1*
X2598680Y4222667D1*
X2565242Y4171358D2*
Y4145105D1*
X2584366Y4159420D1*
Y4152235D1*
X2586742Y4147482D1*
X2589119Y4145105D1*
X2596304Y4142673D1*
X2601057D1*
X2608242Y4145105D1*
X2613050Y4149858D1*
X2615427Y4157043D1*
Y4164228D1*
X2613051Y4171358D1*
X2610619Y4173735D1*
X2605865Y4176167D1*
X1858633Y4310485D2*
Y4288985D1*
X1856201Y4281800D1*
X1853824Y4279368D1*
X1849071Y4276992D1*
X1844262D1*
X1839509Y4279368D1*
X1837077Y4281800D1*
X1834701Y4288985D1*
Y4310485D1*
X1884941D1*
X1858633Y4293738D2*
X1884941Y4276992D1*
X1841886Y4232868D2*
X1837133Y4235244D1*
X1834756Y4242429D1*
Y4247182D1*
X1837133Y4254367D1*
X1844318Y4259176D1*
X1856256Y4261552D1*
X1868194D1*
X1877756Y4259176D1*
X1882564Y4254367D1*
X1884941Y4247182D1*
Y4244806D1*
X1882564Y4237676D1*
X1877756Y4232868D1*
X1870571Y4230491D1*
X1868194D1*
X1861009Y4232868D1*
X1856256Y4237676D1*
X1853879Y4244806D1*
Y4247182D1*
X1856256Y4254367D1*
X1861009Y4259176D1*
X1868194Y4261552D1*
X1884941Y4191120D2*
X1834756D1*
X1868194Y4215052D1*
Y4179182D1*
X2158251Y4159297D2*
Y4137797D1*
X2155819Y4130612D1*
X2153443Y4128180D1*
X2148689Y4125803D1*
X2143881D1*
X2139128Y4128180D1*
X2136696Y4130612D1*
X2134319Y4137797D1*
Y4159297D1*
X2184559D1*
X2158251Y4142550D2*
X2184559Y4125803D1*
X2141504Y4081679D2*
X2136751Y4084056D1*
X2134375Y4091241D1*
Y4095994D1*
X2136751Y4103179D1*
X2143936Y4107988D1*
X2155874Y4110364D1*
X2167813D1*
X2177374Y4107987D1*
X2182183Y4103179D1*
X2184559Y4095994D1*
Y4093617D1*
X2182183Y4086488D1*
X2177374Y4081679D1*
X2170189Y4079303D1*
X2167813D1*
X2160628Y4081679D1*
X2155874Y4086488D1*
X2153498Y4093617D1*
Y4095994D1*
X2155874Y4103179D1*
X2160628Y4107988D1*
X2167813Y4110364D1*
X2134375Y4035179D2*
Y4059055D1*
X2155874Y4061432D1*
X2153498Y4059055D1*
X2151066Y4051870D1*
Y4044740D1*
X2153498Y4037555D1*
X2158251Y4032747D1*
X2165436Y4030370D1*
X2170189D1*
X2177374Y4032747D1*
X2182183Y4037555D1*
X2184559Y4044740D1*
Y4051870D1*
X2182183Y4059055D1*
X2179751Y4061432D1*
X2174998Y4063863D1*
X2589120Y4120384D2*
Y4098884D1*
X2586688Y4091699D1*
X2584312Y4089267D1*
X2579558Y4086891D1*
X2574750D1*
X2569997Y4089267D1*
X2567565Y4091699D1*
X2565188Y4098884D1*
Y4120384D1*
X2615428D1*
X2589120Y4103637D2*
X2615428Y4086891D1*
X2572373Y4042766D2*
X2567620Y4045143D1*
X2565244Y4052328D1*
Y4057081D1*
X2567620Y4064266D1*
X2574805Y4069075D1*
X2586744Y4071451D1*
X2598682D1*
X2608243Y4069075D1*
X2613052Y4064266D1*
X2615428Y4057081D1*
Y4054705D1*
X2613052Y4047575D1*
X2608243Y4042766D1*
X2601058Y4040390D1*
X2598682D1*
X2591497Y4042766D1*
X2586744Y4047575D1*
X2584367Y4054705D1*
Y4057081D1*
X2586744Y4064266D1*
X2591497Y4069075D1*
X2598682Y4071451D1*
X2572373Y3996266D2*
X2567620Y3998642D1*
X2565244Y4005827D1*
Y4010581D1*
X2567620Y4017766D1*
X2574805Y4022574D1*
X2586744Y4024951D1*
X2598682D1*
X2608243Y4022574D1*
X2613052Y4017766D1*
X2615428Y4010581D1*
Y4008204D1*
X2613052Y4001074D1*
X2608243Y3996266D1*
X2601058Y3993889D1*
X2598682D1*
X2591497Y3996266D1*
X2586743Y4001074D1*
X2584367Y4008204D1*
Y4010581D1*
X2586744Y4017766D1*
X2591497Y4022574D1*
X2598682Y4024951D1*
X1858633Y4159297D2*
Y4137797D1*
X1856201Y4130612D1*
X1853824Y4128180D1*
X1849071Y4125803D1*
X1844262D1*
X1839509Y4128180D1*
X1837077Y4130612D1*
X1834701Y4137797D1*
Y4159297D1*
X1884941D1*
X1858633Y4142550D2*
X1884941Y4125803D1*
X1841886Y4081679D2*
X1837133Y4084056D1*
X1834756Y4091241D1*
Y4095994D1*
X1837133Y4103179D1*
X1844318Y4107988D1*
X1856256Y4110364D1*
X1868194D1*
X1877756Y4107987D1*
X1882564Y4103179D1*
X1884941Y4095994D1*
Y4093617D1*
X1882564Y4086488D1*
X1877756Y4081679D1*
X1870571Y4079303D1*
X1868194D1*
X1861009Y4081679D1*
X1856256Y4086488D1*
X1853879Y4093617D1*
Y4095994D1*
X1856256Y4103179D1*
X1861009Y4107988D1*
X1868194Y4110364D1*
X1884941Y4054302D2*
X1834756Y4030370D1*
Y4063863D1*
X2158251Y4009269D2*
Y3987769D1*
X2155819Y3980584D1*
X2153443Y3978152D1*
X2148689Y3975776D1*
X2143881D1*
X2139128Y3978152D1*
X2136696Y3980584D1*
X2134319Y3987769D1*
Y4009269D1*
X2184559D1*
X2158251Y3992522D2*
X2184559Y3975776D1*
X2141504Y3931652D2*
X2136751Y3934028D1*
X2134375Y3941213D1*
Y3945966D1*
X2136751Y3953151D1*
X2143936Y3957960D1*
X2155874Y3960336D1*
X2167813D1*
X2177374Y3957960D1*
X2182183Y3953151D1*
X2184559Y3945966D1*
Y3943590D1*
X2182183Y3936460D1*
X2177374Y3931652D1*
X2170189Y3929275D1*
X2167813D1*
X2160628Y3931652D1*
X2155874Y3936460D1*
X2153498Y3943590D1*
Y3945966D1*
X2155874Y3953151D1*
X2160628Y3957960D1*
X2167813Y3960336D1*
X2134375Y3901898D2*
X2136751Y3909027D1*
X2141504Y3911459D1*
X2146313D1*
X2151066Y3909027D1*
X2153498Y3904274D1*
X2155874Y3894713D1*
X2158251Y3887528D1*
X2163059Y3882774D1*
X2167813Y3880398D1*
X2174998D1*
X2179751Y3882774D1*
X2182183Y3885151D1*
X2184559Y3892336D1*
Y3901898D1*
X2182183Y3909027D1*
X2179751Y3911459D1*
X2174998Y3913836D1*
X2167813D1*
X2163059Y3911459D1*
X2158251Y3906651D1*
X2155874Y3899521D1*
X2153498Y3889959D1*
X2151066Y3885151D1*
X2146313Y3882774D1*
X2141504D1*
X2136751Y3885151D1*
X2134375Y3892336D1*
Y3901898D1*
X2589119Y3970412D2*
Y3948912D1*
X2586687Y3941727D1*
X2584310Y3939295D1*
X2579557Y3936918D1*
X2574749D1*
X2569996Y3939295D1*
X2567564Y3941727D1*
X2565187Y3948912D1*
Y3970412D1*
X2615427D1*
X2589119Y3953665D2*
X2615427Y3936918D1*
X2572372Y3892794D2*
X2567619Y3895171D1*
X2565242Y3902356D1*
Y3907109D1*
X2567619Y3914294D1*
X2574804Y3919102D1*
X2586742Y3921479D1*
X2598680D1*
X2608242Y3919102D1*
X2613050Y3914294D1*
X2615427Y3907109D1*
Y3904732D1*
X2613050Y3897603D1*
X2608242Y3892794D1*
X2601057Y3890417D1*
X2598680D1*
X2591495Y3892794D1*
X2586742Y3897603D1*
X2584366Y3904732D1*
Y3907109D1*
X2586742Y3914294D1*
X2591495Y3919102D1*
X2598680Y3921479D1*
X2581934Y3843862D2*
X2589119Y3846293D1*
X2593927Y3851047D1*
X2596304Y3858232D1*
Y3860608D1*
X2593927Y3867793D1*
X2589119Y3872546D1*
X2581934Y3874978D1*
X2579557D1*
X2572372Y3872546D1*
X2567619Y3867793D1*
X2565242Y3860608D1*
Y3858232D1*
X2567619Y3851047D1*
X2572372Y3846293D1*
X2581934Y3843862D1*
X2593927D1*
X2605865Y3846293D1*
X2613050Y3851047D1*
X2615427Y3858232D1*
Y3862985D1*
X2613051Y3870170D1*
X2608242Y3872546D1*
X1858633Y4010513D2*
Y3989013D1*
X1856201Y3981828D1*
X1853824Y3979396D1*
X1849071Y3977019D1*
X1844262D1*
X1839509Y3979396D1*
X1837077Y3981828D1*
X1834701Y3989013D1*
Y4010513D1*
X1884941D1*
X1858633Y3993766D2*
X1884941Y3977019D1*
Y3952018D2*
X1834756Y3928087D1*
Y3961580D1*
Y3898277D2*
X1837133Y3905462D1*
X1844318Y3910271D1*
X1856256Y3912648D1*
X1863441Y3912647D1*
X1875379Y3910271D1*
X1882564Y3905462D1*
X1884941Y3898277D1*
Y3893524D1*
X1882564Y3886339D1*
X1875379Y3881586D1*
X1863441Y3879154D1*
X1856256D1*
X1844318Y3881586D1*
X1837133Y3886339D1*
X1834756Y3893524D1*
Y3898277D1*
X1844318Y3881586D2*
X1875379Y3910271D1*
X608633Y3115532D2*
Y3094032D1*
X606201Y3086847D1*
X603824Y3084416D1*
X599071Y3082039D1*
X594262D1*
X589509Y3084416D1*
X587077Y3086847D1*
X584701Y3094032D1*
Y3115532D1*
X634941D1*
X608633Y3098786D2*
X634941Y3082039D1*
Y3057038D2*
X584756Y3033106D1*
Y3066600D1*
Y2988982D2*
Y3012859D1*
X606256Y3015235D1*
X603879Y3012859D1*
X601448Y3005674D1*
Y2998544D1*
X603879Y2991359D1*
X608633Y2986550D1*
X615818Y2984174D1*
X620571D1*
X627756Y2986550D1*
X632564Y2991359D1*
X634941Y2998544D1*
Y3005674D1*
X632564Y3012859D1*
X630132Y3015235D1*
X625379Y3017667D1*
X608633Y2289513D2*
Y2268013D1*
X606201Y2260828D1*
X603824Y2258396D1*
X599071Y2256020D1*
X594262D1*
X589509Y2258396D1*
X587077Y2260828D1*
X584701Y2268013D1*
Y2289513D1*
X634941D1*
X608633Y2272767D2*
X634941Y2256020D1*
Y2231019D2*
X584756Y2207087D1*
Y2240581D1*
X591886Y2162963D2*
X587133Y2165340D1*
X584756Y2172525D1*
Y2177278D1*
X587133Y2184463D1*
X594318Y2189272D1*
X606256Y2191648D1*
X618194D1*
X627756Y2189271D1*
X632564Y2184463D1*
X634941Y2177278D1*
Y2174901D1*
X632564Y2167772D1*
X627756Y2162963D1*
X620571Y2160587D1*
X618194D1*
X611009Y2162963D1*
X606256Y2167772D1*
X603879Y2174901D1*
Y2177278D1*
X606256Y2184463D1*
X611009Y2189272D1*
X618194Y2191648D1*
X1040532Y3078770D2*
X1019032D1*
X1011847Y3081202D1*
X1009416Y3083579D1*
X1007039Y3088332D1*
Y3093140D1*
X1009416Y3097894D1*
X1011847Y3100325D1*
X1019032Y3102702D1*
X1040532D1*
Y3052462D1*
X1023786Y3078770D2*
X1007039Y3052462D1*
X982038D2*
X958106Y3102647D1*
X991600D1*
X933105Y3052462D2*
X909174Y3102647D1*
X942667D1*
X839882Y2753005D2*
Y2731505D1*
X837450Y2724320D1*
X835073Y2721888D1*
X830320Y2719511D1*
X825512D1*
X820759Y2721888D1*
X818327Y2724320D1*
X815950Y2731505D1*
Y2753005D1*
X866190D1*
X839882Y2736258D2*
X866190Y2719511D1*
Y2694510D2*
X816005Y2670579D1*
Y2704072D1*
Y2643201D2*
X818382Y2650331D1*
X823135Y2652763D1*
X827944D1*
X832697Y2650331D1*
X835129Y2645578D1*
X837505Y2636016D1*
X839882Y2628831D1*
X844690Y2624078D1*
X849443Y2621702D1*
X856629D1*
X861382Y2624078D1*
X863814Y2626455D1*
X866190Y2633640D1*
Y2643201D1*
X863814Y2650331D1*
X861382Y2652763D1*
X856629Y2655140D1*
X849444D1*
X844690Y2652763D1*
X839882Y2647955D1*
X837505Y2640825D1*
X835129Y2631263D1*
X832697Y2626455D1*
X827944Y2624078D1*
X823135D1*
X818382Y2626455D1*
X816005Y2633640D1*
Y2643201D1*
X1226844Y3291269D2*
X1205344D1*
X1198159Y3293701D1*
X1195727Y3296078D1*
X1193351Y3300831D1*
Y3305639D1*
X1195727Y3310392D1*
X1198159Y3312824D1*
X1205344Y3315201D1*
X1226844D1*
Y3264961D1*
X1210097Y3291269D2*
X1193351Y3264961D1*
X1168350D2*
X1144418Y3315145D1*
X1177911D1*
X1097862Y3298454D2*
X1100294Y3291269D1*
X1105047Y3286461D1*
X1112232Y3284084D1*
X1114609D1*
X1121794Y3286461D1*
X1126547Y3291269D1*
X1128979Y3298454D1*
Y3300831D1*
X1126547Y3308016D1*
X1121794Y3312769D1*
X1114609Y3315145D1*
X1112232D1*
X1105047Y3312769D1*
X1100294Y3308016D1*
X1097862Y3298454D1*
Y3286461D1*
X1100294Y3274522D1*
X1105047Y3267337D1*
X1112232Y3264961D1*
X1116985D1*
X1124170Y3267337D1*
X1126547Y3272146D1*
X1408976Y1958220D2*
Y1936720D1*
X1406545Y1929535D1*
X1404168Y1927103D1*
X1399415Y1924727D1*
X1394606D1*
X1389853Y1927103D1*
X1387421Y1929535D1*
X1385045Y1936720D1*
Y1958220D1*
X1435285D1*
X1408976Y1941473D2*
X1435285Y1924727D1*
X1385100Y1897349D2*
X1387477Y1904479D1*
X1392230Y1906911D1*
X1397038D1*
X1401791Y1904479D1*
X1404223Y1899726D1*
X1406600Y1890164D1*
X1408976Y1882979D1*
X1413785Y1878226D1*
X1418538Y1875849D1*
X1425723D1*
X1430476Y1878226D1*
X1432908Y1880602D1*
X1435285Y1887787D1*
Y1897349D1*
X1432908Y1904479D1*
X1430476Y1906911D1*
X1425723Y1909287D1*
X1418538D1*
X1413785Y1906911D1*
X1408976Y1902102D1*
X1406600Y1894973D1*
X1404223Y1885411D1*
X1401791Y1880602D1*
X1397038Y1878226D1*
X1392230D1*
X1387477Y1880602D1*
X1385100Y1887788D1*
Y1897349D1*
Y1846040D2*
X1387477Y1853225D1*
X1394662Y1858033D1*
X1406600Y1860410D1*
X1413785D1*
X1425723Y1858033D1*
X1432908Y1853225D1*
X1435285Y1846040D1*
Y1841287D1*
X1432908Y1834102D1*
X1425723Y1829349D1*
X1413785Y1826917D1*
X1406600D1*
X1394662Y1829349D1*
X1387477Y1834102D1*
X1385100Y1841287D1*
Y1846040D1*
X1394662Y1829349D2*
X1425723Y1858033D1*
X1099735Y3197176D2*
X1078235D1*
X1071050Y3199608D1*
X1068618Y3201984D1*
X1066242Y3206738D1*
Y3211546D1*
X1068618Y3216299D1*
X1071050Y3218731D1*
X1078235Y3221108D1*
X1099735D1*
Y3170868D1*
X1082988Y3197176D2*
X1066242Y3170868D1*
X1038864Y3221052D2*
X1045994Y3218676D1*
X1048426Y3213923D1*
Y3209114D1*
X1045994Y3204361D1*
X1041241Y3201929D1*
X1031679Y3199552D1*
X1024494Y3197176D1*
X1019741Y3192367D1*
X1017364Y3187614D1*
Y3180429D1*
X1019741Y3175676D1*
X1022118Y3173244D1*
X1029303Y3170868D1*
X1038864D1*
X1045994Y3173244D1*
X1048426Y3175676D1*
X1050802Y3180429D1*
Y3187614D1*
X1048426Y3192367D1*
X1043617Y3197176D1*
X1036488Y3199552D1*
X1026926Y3201929D1*
X1022118Y3204361D1*
X1019741Y3209114D1*
Y3213923D1*
X1022118Y3218676D1*
X1029303Y3221052D1*
X1038864D1*
X1001925Y3211491D2*
X997117Y3213923D1*
X989932Y3221052D1*
Y3170868D1*
X815227Y3222985D2*
Y3201485D1*
X812795Y3194300D1*
X810419Y3191868D1*
X805665Y3189492D1*
X800857D1*
X796104Y3191868D1*
X793672Y3194300D1*
X791295Y3201485D1*
Y3222985D1*
X841535D1*
X815227Y3206238D2*
X841535Y3189492D1*
X791351Y3162114D2*
X793727Y3169244D1*
X798480Y3171676D1*
X803289D1*
X808042Y3169244D1*
X810474Y3164491D1*
X812850Y3154929D1*
X815227Y3147744D1*
X820036Y3142991D1*
X824789Y3140614D1*
X831974D1*
X836727Y3142991D1*
X839159Y3145367D1*
X841535Y3152553D1*
Y3162114D1*
X839159Y3169244D1*
X836727Y3171676D1*
X831974Y3174052D1*
X824789D1*
X820036Y3171676D1*
X815227Y3166867D1*
X812850Y3159738D1*
X810474Y3150176D1*
X808042Y3145368D1*
X803289Y3142991D1*
X798480D1*
X793727Y3145368D1*
X791351Y3152553D1*
Y3162114D1*
X803289Y3122743D2*
X800912D1*
X796104Y3120367D1*
X793727Y3117990D1*
X791351Y3113182D1*
Y3103620D1*
X793727Y3098867D1*
X796104Y3096490D1*
X800912Y3094058D1*
X805665D1*
X810474Y3096490D1*
X817604Y3101243D1*
X841535Y3125175D1*
Y3091682D1*
X1333809Y2711757D2*
Y2675887D1*
X1331433Y2668702D1*
X1326624Y2663949D1*
X1319439Y2661517D1*
X1314686D1*
X1307501Y2663949D1*
X1302693Y2668702D1*
X1300316Y2675887D1*
Y2711757D1*
X1284877Y2702140D2*
X1280068Y2704572D1*
X1272883Y2711702D1*
Y2661517D1*
X1659914Y1838577D2*
Y1802707D1*
X1657537Y1795522D1*
X1652729Y1790769D1*
X1645544Y1788337D1*
X1640790D1*
X1633605Y1790769D1*
X1628797Y1795522D1*
X1626420Y1802707D1*
Y1838577D1*
X1608549Y1826584D2*
Y1828961D1*
X1606173Y1833769D1*
X1603796Y1836146D1*
X1598988Y1838522D1*
X1589426D1*
X1584673Y1836146D1*
X1582296Y1833769D1*
X1579864Y1828961D1*
Y1824207D1*
X1582296Y1819399D1*
X1587049Y1812269D1*
X1610981Y1788337D1*
X1577488D1*
X1659914Y3225043D2*
Y3189173D1*
X1657537Y3181988D1*
X1652729Y3177235D1*
X1645544Y3174803D1*
X1640790D1*
X1633605Y3177235D1*
X1628797Y3181988D1*
X1626420Y3189173D1*
Y3225043D1*
X1606173Y3224988D2*
X1579920D1*
X1594234Y3205865D1*
X1587049D1*
X1582296Y3203488D1*
X1579920Y3201112D1*
X1577488Y3193927D1*
Y3189173D1*
X1579920Y3181988D1*
X1584673Y3177180D1*
X1591858Y3174803D1*
X1599043D1*
X1606173Y3177180D1*
X1608549Y3179612D1*
X1610981Y3184365D1*
X1255781Y4258312D2*
Y4222442D1*
X1253405Y4215257D1*
X1248596Y4210504D1*
X1241411Y4208072D1*
X1236658D1*
X1229473Y4210504D1*
X1224664Y4215257D1*
X1222288Y4222442D1*
Y4258312D1*
X1178164Y4258257D2*
X1202040D1*
X1204417Y4236757D1*
X1202040Y4239134D1*
X1194855Y4241566D1*
X1187725D1*
X1180540Y4239134D1*
X1175732Y4234381D1*
X1173355Y4227196D1*
Y4222442D1*
X1175732Y4215257D1*
X1180540Y4210449D1*
X1187725Y4208072D1*
X1194855D1*
X1202040Y4210449D1*
X1204417Y4212881D1*
X1206849Y4217634D1*
M02*
