G04 DipTrace 3.3.1.3*
G04 Top.gbr*
%MOIN*%
G04 #@! TF.FileFunction,Copper,L1,Top*
G04 #@! TF.Part,Single*
%AMOUTLINE3*
4,1,20,
0.0,0.03937,
0.015208,0.037443,
0.028926,0.031851,
0.039814,0.023141,
0.046804,0.012166,
0.049213,0.0,
0.046804,-0.012166,
0.039814,-0.023141,
0.028926,-0.031851,
0.015208,-0.037443,
0.0,-0.03937,
-0.015208,-0.037443,
-0.028926,-0.031851,
-0.039814,-0.023141,
-0.046804,-0.012166,
-0.049213,0.0,
-0.046804,0.012166,
-0.039814,0.023141,
-0.028926,0.031851,
-0.015208,0.037443,
0.0,0.03937,
0*%
G04 #@! TA.AperFunction,Conductor*
%ADD13C,0.019685*%
G04 #@! TA.AperFunction,ComponentPad*
%ADD23R,0.059055X0.059055*%
%ADD24C,0.059055*%
%ADD37R,0.137795X0.11811*%
%ADD40R,0.070866X0.070866*%
%ADD41C,0.070866*%
G04 #@! TA.AperFunction,ViaPad*
%ADD42C,0.059055*%
G04 #@! TA.AperFunction,ComponentPad*
%ADD94OUTLINE3*%
%FSLAX26Y26*%
G04*
G70*
G90*
G75*
G01*
G04 Top*
%LPD*%
X1118702Y2612450D2*
D13*
X1118701Y2162450D1*
X1518702D1*
X1524951Y2156201D1*
Y2731201D1*
Y2156201D2*
Y1412450D1*
X1531201Y1406201D1*
X1531202Y918701D2*
Y1406199D1*
X1531201Y1406201D1*
X1324942Y4856211D2*
Y3306211D1*
X1331202Y3299951D1*
D42*
X1118701Y2162450D3*
X1524951Y2156201D3*
X1531201Y1406201D3*
X1531202Y918701D3*
X1524951Y2731201D3*
X1118702Y2612450D3*
D23*
X1749951Y4831201D3*
D24*
Y4731201D3*
Y4631201D3*
Y4531201D3*
Y4431201D3*
Y4331201D3*
Y4231201D3*
D23*
X1006202Y1956201D3*
D24*
Y2056201D3*
X906202Y1956201D3*
Y2056201D3*
X806202Y1956201D3*
Y2056201D3*
D23*
X837450Y5062450D3*
D24*
X937450D3*
X1037450D3*
X1137450D3*
D23*
X587453Y2749953D3*
D24*
Y2649953D3*
Y2549953D3*
D23*
X1012451Y1787450D3*
D24*
X912451D3*
D23*
X1012451Y1662450D3*
D24*
X912451D3*
D23*
X1131201Y2781201D3*
D24*
X1231201D3*
X1331201D3*
D23*
X1331202Y3024950D3*
D24*
X1231202D3*
X1131202D3*
D23*
X849951Y2281201D3*
D24*
Y2381201D3*
Y2481201D3*
D23*
Y2818702D3*
D24*
Y2918702D3*
Y3018702D3*
D37*
X1331202Y3299951D3*
X1324942Y4856211D3*
X662462Y3299951D3*
X656202Y4856211D3*
D40*
X1512453Y4193699D3*
D41*
Y3993699D3*
Y4093699D3*
D94*
X2424951Y644735D3*
Y794735D3*
Y944735D3*
Y1244735D3*
Y1394735D3*
Y1544735D3*
Y1694735D3*
Y1844735D3*
Y1994735D3*
Y2144735D3*
Y2594735D3*
Y2444735D3*
Y2744735D3*
Y2894735D3*
Y3194735D3*
Y3344735D3*
Y3494735D3*
Y3644735D3*
Y3944735D3*
Y4094735D3*
Y4244735D3*
Y4394735D3*
Y4694735D3*
Y4994735D3*
Y5144735D3*
M02*
