G04 DipTrace 3.3.1.3*
G04 Bottom.gbr*
%MOIN*%
G04 #@! TF.FileFunction,Copper,L2,Bot*
G04 #@! TF.Part,Single*
%AMOUTLINE0*
4,1,10,
-0.100394,0.019685,
-0.033465,0.019685,
-0.009843,0.043307,
0.076772,0.043307,
0.100394,0.019685,
0.100394,-0.019685,
0.076772,-0.043307,
-0.009843,-0.043307,
-0.033465,-0.019685,
-0.100394,-0.019685,
-0.100394,0.019685,
0*%
%AMOUTLINE3*
4,1,20,
0.0,0.03937,
0.015208,0.037443,
0.028926,0.031851,
0.039814,0.023141,
0.046804,0.012166,
0.049213,0.0,
0.046804,-0.012166,
0.039814,-0.023141,
0.028926,-0.031851,
0.015208,-0.037443,
0.0,-0.03937,
-0.015208,-0.037443,
-0.028926,-0.031851,
-0.039814,-0.023141,
-0.046804,-0.012166,
-0.049213,0.0,
-0.046804,0.012166,
-0.039814,0.023141,
-0.028926,0.031851,
-0.015208,0.037443,
0.0,0.03937,
0*%
G04 #@! TA.AperFunction,CopperBalancing*
%ADD13C,0.019685*%
G04 #@! TA.AperFunction,Conductor*
%ADD14C,0.03937*%
%ADD15C,0.012992*%
%ADD16C,0.020512*%
G04 #@! TA.AperFunction,CopperBalancing*
%ADD17C,0.025*%
%ADD18R,0.059055X0.051181*%
%ADD20R,0.173228X0.070866*%
%ADD21R,0.051181X0.059055*%
G04 #@! TA.AperFunction,ComponentPad*
%ADD22R,0.059055X0.059055*%
%ADD23C,0.059055*%
%ADD24R,0.047244X0.062992*%
%ADD25R,0.062992X0.047244*%
%ADD27R,0.025591X0.041339*%
%ADD29R,0.041339X0.025591*%
%ADD30R,0.062992X0.070866*%
%ADD31R,0.070866X0.062992*%
%ADD33R,0.066929X0.019685*%
%ADD34R,0.019685X0.066929*%
%ADD35R,0.023622X0.07874*%
G04 #@! TA.AperFunction,ComponentPad*
%ADD36R,0.137795X0.11811*%
%ADD38R,0.059055X0.03937*%
G04 #@! TA.AperFunction,ComponentPad*
%ADD39R,0.070866X0.070866*%
%ADD40C,0.070866*%
G04 #@! TA.AperFunction,ViaPad*
%ADD41C,0.059055*%
%ADD86C,0.013895*%
%ADD88OUTLINE0*%
G04 #@! TA.AperFunction,ComponentPad*
%ADD91OUTLINE3*%
%FSLAX26Y26*%
G04*
G70*
G90*
G75*
G01*
G04 Bottom*
%LPD*%
X1800050Y778001D2*
D13*
Y812352D1*
X1781201Y831201D1*
X1737256D1*
X2424951Y644735D2*
Y674950D1*
X2406201Y693701D1*
X2281201D1*
X2168701Y806201D1*
X2062451D1*
X2037451Y831201D1*
X1781201D1*
X999953Y3299950D2*
D14*
Y3528794D1*
X1021110Y3549951D1*
X1512453Y3993699D2*
Y3956202D1*
X1412451Y3856201D1*
X1062451D1*
Y3993702D1*
X1106201Y4037451D1*
X1143702D1*
X1718701Y1513386D2*
D13*
Y1557236D1*
X1693702Y1582235D1*
X1481202D1*
X1468701Y1569734D1*
Y1513386D1*
X1718701Y2899852D2*
Y3012450D1*
X1468701D1*
Y2899852D1*
X1562551Y784253D2*
X1656251D1*
X1699854Y740650D1*
X999953Y3299950D2*
Y3224951D1*
X1124951D1*
Y3212450D1*
X1043701D1*
Y3062451D1*
X1081202Y3024950D1*
X1131202D1*
X1006202Y1956201D2*
X993701D1*
X956201Y1993701D1*
Y2106199D1*
X1013092Y2163091D1*
X1024951D1*
X1062451Y3856201D2*
D14*
Y3591293D1*
X1021110Y3549951D1*
X1118701Y2162450D2*
D13*
X1025592D1*
X1024951Y2163091D1*
X1524951Y2156201D2*
Y2238091D1*
X1519341Y2243701D1*
X1531201Y1406201D2*
X1506201D1*
X1468701Y1443701D1*
Y1513386D1*
X1562551Y784253D2*
Y887352D1*
X1531202Y918701D1*
X1524951Y2731201D2*
Y2737450D1*
X1468701Y2793701D1*
Y2899852D1*
X1118702Y2612450D2*
Y2987450D1*
G02X1131202Y3024950I62473J9D01*
G01*
D3*
X937450Y5062450D2*
D14*
Y5006202D1*
X987255Y4956398D1*
Y4837451D1*
X1068701D1*
X1312449Y4593703D1*
Y4587450D1*
X1331202Y3299951D2*
X1074756D1*
Y3299950D1*
X1312449Y3549951D2*
Y3318705D1*
X1331202Y3299951D1*
X1512453Y4093699D2*
X1217375D1*
X1214568Y4096507D1*
X1312449Y4587450D2*
X1424951D1*
Y4437451D1*
X1599951Y4262451D1*
Y4231201D1*
Y4096507D1*
X1214568D1*
X1312449Y3549951D2*
Y3699950D1*
X1374951D1*
X1599951Y3924950D1*
Y4096507D1*
X1137450Y5062450D2*
X1281202D1*
X1324942Y5018710D1*
Y4856211D1*
X2518702Y1019735D2*
D13*
Y1175984D1*
X2518701Y1175986D1*
X2518702Y1019735D2*
X2562450D1*
X2574951Y1007234D1*
Y788484D1*
X2517668Y731201D1*
X2306202D1*
X2187451Y849951D1*
X2087451D1*
X2049951Y887451D1*
Y982235D1*
X2006398D1*
X2006201Y982038D1*
Y1282038D2*
X2049951D1*
Y982235D1*
X2006201Y1432037D2*
X2049951D1*
Y1582038D1*
Y1732038D1*
Y1882038D1*
Y2032038D1*
Y2182038D1*
Y2476769D1*
Y2632038D1*
Y2787904D1*
Y2932037D1*
Y3071824D1*
Y3232037D1*
Y3382038D1*
Y3532037D1*
Y3682038D1*
Y3850984D1*
Y3982038D1*
Y4132037D1*
Y4282038D1*
Y4432038D1*
Y4732038D1*
Y5032235D1*
X2006398D1*
X2006201Y5032038D1*
Y4732038D2*
X2049951D1*
X2006201Y4432038D2*
X2049951D1*
X2006201Y4282038D2*
X2049951D1*
X2006201Y4132038D2*
X2049951Y4132037D1*
X2006201Y3982038D2*
X2049951D1*
X2006201Y3682038D2*
X2049951D1*
X2012451Y3532038D2*
X2049951Y3532037D1*
X2006201Y3382038D2*
X2049951D1*
X2006201Y3232038D2*
X2049951Y3232037D1*
X2006201Y2932038D2*
X2049951Y2932037D1*
X2006201Y2782038D2*
X2044085D1*
X2049951Y2787904D1*
X2006201Y2632038D2*
X2049951D1*
X2006201Y2482038D2*
X2044682D1*
X2049951Y2476769D1*
X2006201Y2182038D2*
X2049951D1*
X2006201Y2032037D2*
X2049951Y2032038D1*
X2006201Y1882038D2*
X2049951D1*
X2006201Y1732037D2*
X2049951Y1732038D1*
X2006201Y1582038D2*
X2049951D1*
Y1432037D2*
Y1282038D1*
X2518701Y4913486D2*
X2549951D1*
X2574951Y4888486D1*
Y4625986D1*
Y4319735D1*
Y4169734D1*
Y4010416D1*
Y3869735D1*
Y3575986D1*
Y3425984D1*
Y3275986D1*
Y3125984D1*
Y2825986D1*
Y2675986D1*
Y2525986D1*
Y2375986D1*
Y2075986D1*
Y1925986D1*
Y1775986D1*
Y1619323D1*
Y1475986D1*
Y1325986D1*
Y1007234D1*
X2518702Y1325986D2*
X2574951D1*
X2518702Y1475986D2*
X2574951D1*
X2518701Y1625986D2*
X2568289D1*
X2574951Y1619323D1*
X2518702Y1775986D2*
X2574951D1*
X2518702Y1925986D2*
X2574951D1*
X2518701Y2075986D2*
X2574951D1*
X2518702Y2375986D2*
X2574951D1*
X2518702Y2525986D2*
X2574951D1*
X2518702Y2675986D2*
X2574951D1*
X2518702Y2825986D2*
X2574951D1*
X2518701Y3125986D2*
X2574951Y3125984D1*
X2518701Y3275986D2*
X2574951D1*
X2518701Y3425986D2*
X2574951Y3425984D1*
X2518702Y3575986D2*
X2574951D1*
X2518701Y3869735D2*
X2574951D1*
X2518702Y4019735D2*
X2565633D1*
X2574951Y4010416D1*
X2518701Y4169735D2*
X2574951Y4169734D1*
X2518702Y4319735D2*
X2574951D1*
X2518702Y4625986D2*
X2574951D1*
X1749951Y4231201D2*
X1762451D1*
Y4032235D1*
X1868701Y3925986D1*
Y3882235D1*
X1899951Y3850984D1*
X2049951D1*
X1768701Y3112450D2*
Y3149950D1*
X1787451Y3168701D1*
X1856201D1*
X1868701Y3156201D1*
Y3112451D1*
X1909328Y3071824D1*
X2049951D1*
X1768701Y1725984D2*
Y1638486D1*
X1825148Y1582038D1*
X2006201D1*
X1137992Y2455463D2*
X1269437D1*
X1274101Y2450799D1*
X1300933Y2423967D1*
X1468701D1*
Y2486959D2*
X1310261D1*
X1274101Y2450799D1*
X1487256Y831201D2*
Y781398D1*
X1531202Y737451D1*
X1624951D1*
X1674953Y687450D1*
X1762648D1*
X1468701Y2486959D2*
X1612944D1*
X1637451Y2462451D1*
Y2431004D1*
X1137992Y2455463D2*
X1055465D1*
X1024951Y2424950D1*
X768701Y2349950D2*
Y2462450D1*
X787451Y2481201D1*
X849951D1*
X768701Y3000147D2*
Y2843702D1*
X793701Y2818702D1*
X849951D1*
X587453Y2649953D2*
Y2637450D1*
X831198D1*
X849951Y2656203D1*
Y2818702D1*
Y2481201D2*
Y2656203D1*
X1331202Y3299951D2*
Y3104478D1*
Y3024950D1*
X1274951Y3143701D2*
X1291979D1*
X1331202Y3104478D1*
X806202Y1956201D2*
X856201D1*
Y2099951D1*
X818702Y2137450D1*
X631202D1*
X531202Y2237450D1*
Y2593702D1*
X587453Y2649953D1*
X856202Y1956201D2*
Y1912450D1*
X912451Y1856201D1*
Y1662450D1*
Y1787450D2*
Y1662450D1*
X1762648Y687450D2*
Y712647D1*
X1781202Y731201D1*
X2181202D1*
X2287451Y624951D1*
X2331201D1*
X2381201Y574951D1*
X2449953D1*
X2500440Y625438D1*
Y713972D1*
X2517668Y731201D1*
X768701Y2349950D2*
X799951D1*
X818701Y2331201D1*
X887451D1*
X937451Y2381201D1*
X956201D1*
X999950Y2424950D1*
X1024951D1*
X531202Y2593702D2*
Y2618677D1*
Y2653129D1*
Y2680400D1*
Y3087451D1*
X587451Y3143701D1*
X787451D1*
X828937Y3102215D1*
X899951D1*
Y3212451D2*
Y4012450D1*
X984008Y4096507D1*
X1214568D1*
X1749951Y4231201D2*
X1599951D1*
X587453Y2649953D2*
X561650D1*
X531202Y2680400D1*
X587453Y2649953D2*
X562478D1*
X531202Y2618677D1*
X587453Y2649953D2*
X534378D1*
X531202Y2653129D1*
X1525150Y693702D2*
X1462451D1*
X1449854Y706299D1*
Y740650D1*
Y706299D2*
X1381299D1*
X1349951Y674951D1*
Y474950D1*
X1387450Y437451D1*
X2374953D1*
X2649951Y712450D1*
Y5031201D1*
X2536417Y5144735D1*
X2424951D1*
X1406202Y1006201D2*
X1537451D1*
X1662453Y881199D1*
Y831201D1*
X1402904Y531201D2*
X1793701D1*
X1837451Y574951D1*
Y687450D1*
X1404971Y912451D2*
X1412453D1*
Y831201D1*
X1599953Y693702D2*
Y637453D1*
X1593701Y631201D1*
X1406202D1*
X1292668Y531201D2*
Y627903D1*
X1295966Y631201D1*
X1382087Y2274361D2*
Y2113335D1*
X1249951Y1981199D1*
Y1118701D1*
X1231201Y1099950D1*
Y681201D1*
X1281201Y631201D1*
X1295966D1*
X1294735Y912451D2*
Y1004970D1*
X1295966Y1006201D1*
X1293701D1*
Y1968699D1*
X1413583Y2088581D1*
Y2274361D1*
X656202Y4856211D2*
D14*
Y5162451D1*
X712451Y5218701D1*
X1037450D1*
Y5062450D1*
X2231201Y5032038D2*
D13*
X2274951D1*
Y4732038D1*
Y4432038D1*
Y4282038D1*
Y4132038D1*
Y3982038D1*
Y3682038D1*
Y3526510D1*
Y3382038D1*
Y3232038D1*
Y2932038D1*
Y2782038D1*
Y2632038D1*
Y2473720D1*
Y2182038D1*
Y2032038D1*
Y1882038D1*
Y1732038D1*
Y1582038D1*
Y1432038D1*
Y1282038D1*
Y1000984D1*
X2256005Y982038D1*
X2231201D1*
Y1282038D2*
X2274951D1*
X2231201Y1432037D2*
X2274951Y1432038D1*
X2231201Y1582038D2*
X2274951D1*
X2231201Y1732037D2*
X2274951Y1732038D1*
X2231201Y1882038D2*
X2274951D1*
X2231201Y2032037D2*
X2274951Y2032038D1*
X2231201Y2182038D2*
X2274951D1*
Y1000984D2*
Y832235D1*
X2312451Y794735D1*
X2424951D1*
X2274951Y5032038D2*
X2277163Y5029827D1*
Y5060240D1*
X2231202Y5106201D1*
X2056201D1*
X1943701Y5218701D1*
X1037450D1*
X2231201Y4732038D2*
X2274951D1*
X2231201Y4432038D2*
X2274951D1*
X2231201Y4282038D2*
X2274951D1*
X2231201Y4132038D2*
X2274951D1*
X2231201Y3982038D2*
X2274951D1*
X2231201Y3682038D2*
X2274951D1*
X2231201Y3532038D2*
X2269424D1*
X2274951Y3526510D1*
X2231201Y3382038D2*
X2274951D1*
X2231201Y3232038D2*
X2274951D1*
X2231201Y2932038D2*
X2274951D1*
X2231201Y2782038D2*
X2274951D1*
X2231201Y2632038D2*
X2274951D1*
X2231201Y2482038D2*
X2266634D1*
X2274951Y2473720D1*
X2321752Y944636D2*
X2424853D1*
X2424951Y944735D1*
X2518505D1*
X2518702Y944932D1*
X2231201Y907235D2*
X2162648D1*
X2162451Y907432D1*
X2096752Y944636D2*
Y966535D1*
X2112451Y982235D1*
X2162451D1*
X1937451Y3982235D2*
X1899951D1*
X1806201Y4075986D1*
Y4300986D1*
X1768702Y4338484D1*
X1749951D1*
Y4331201D1*
X2006201Y907235D2*
X1937648D1*
X1937451Y907432D1*
X2321752Y1394635D2*
X2424852D1*
X2424951Y1394735D1*
X2512648D1*
X2518702Y1400789D1*
X2162451Y1357432D2*
X2231003D1*
X2231201Y1357234D1*
X2096752Y1394635D2*
Y1403001D1*
X2125986Y1432235D1*
X2162451D1*
X2321752Y1244636D2*
X2424853D1*
X2424951Y1244735D1*
X2512647D1*
X2518701Y1250789D1*
X2006201Y1357234D2*
X1853249D1*
X1831202Y1335186D1*
X2162451Y1207432D2*
X2231004D1*
X2231201Y1207235D1*
X2096752Y1244636D2*
Y1260285D1*
X2118702Y1282235D1*
X2162451D1*
X2006201Y1207235D2*
X1937648D1*
X1937451Y1207432D1*
X2321752Y1544636D2*
X2424853D1*
X2424951Y1544735D1*
X2512648D1*
X2518702Y1550789D1*
X2162451Y1507432D2*
X2231004D1*
X2231201Y1507235D1*
X2096752Y1544636D2*
Y1565501D1*
X2113486Y1582235D1*
X2162451D1*
X2006201Y1507235D2*
X1937255D1*
X2321752Y1694635D2*
X2424852D1*
X2424951Y1694735D1*
X2512647D1*
X2518701Y1700789D1*
X2162451Y1657432D2*
X2231003D1*
X2231201Y1657234D1*
X2096752Y1694635D2*
Y1715501D1*
X2113486Y1732235D1*
X2162451D1*
X1937451Y1657432D2*
X2006003D1*
X2006201Y1657234D1*
X2321752Y1844636D2*
X2424853D1*
X2424951Y1844735D1*
X2512648D1*
X2518702Y1850789D1*
X2162451Y1807432D2*
X2231004D1*
X2231201Y1807235D1*
X2096752Y1844636D2*
Y1859251D1*
X2119736Y1882235D1*
X2162451D1*
X1937451Y1807432D2*
X2006004D1*
X2006201Y1807235D1*
X2321752Y1994635D2*
X2424852D1*
X2424951Y1994735D1*
X2512648D1*
X2518702Y2000789D1*
X2162451Y1957432D2*
X2231003D1*
X2231201Y1957234D1*
X2096752Y1994635D2*
Y2021751D1*
X2107236Y2032235D1*
X2162451D1*
X1937451Y1957432D2*
X2006003D1*
X2006201Y1957234D1*
X2321752Y2144636D2*
X2424853D1*
X2424951Y2144735D1*
X2512647D1*
X2518701Y2150789D1*
X2162451Y2107432D2*
X2231004D1*
X2231201Y2107235D1*
X2096752Y2144636D2*
Y2165501D1*
X2113486Y2182235D1*
X2162451D1*
X2006201Y2107235D2*
X1937648D1*
X1937451Y2107432D1*
X2321752Y2444636D2*
X2424853D1*
X2424951Y2444735D1*
X2512648D1*
X2518702Y2450789D1*
X2231201Y2407235D2*
X2162647D1*
X2162451Y2407430D1*
X2096752Y2444636D2*
Y2459251D1*
X2119735Y2482234D1*
X2162451D1*
X2006201Y2407235D2*
X1937647D1*
X1937451Y2407430D1*
X2321752Y2594636D2*
X2424853D1*
X2424951Y2594735D1*
X2512648D1*
X2518702Y2600789D1*
X2231201Y2557235D2*
X2162648D1*
X2162451Y2557432D1*
X2096752Y2594636D2*
Y2609251D1*
X2119736Y2632235D1*
X2162451D1*
X2006201Y2557235D2*
X1937648D1*
X1937451Y2557432D1*
X2321752Y2744636D2*
X2424853D1*
X2424951Y2744735D1*
X2512648D1*
X2518702Y2750789D1*
X2231201Y2707235D2*
X2162647D1*
X2162451Y2707430D1*
X2096752Y2744636D2*
Y2759251D1*
X2119735Y2782234D1*
X2162451D1*
X2006201Y2707235D2*
X1937647D1*
X1937451Y2707430D1*
X2321752Y2894636D2*
X2424853D1*
X2424951Y2894735D1*
X2512648D1*
X2518702Y2900789D1*
X2231201Y2857235D2*
X2162648D1*
X2162451Y2857432D1*
X2096752Y2894636D2*
Y2921751D1*
X2107236Y2932235D1*
X2162451D1*
X2006201Y2857235D2*
X1937648D1*
X1937451Y2857432D1*
X2321752Y3194636D2*
X2424853D1*
X2424951Y3194735D1*
X2512647D1*
X2518701Y3200789D1*
X2231201Y3157235D2*
X2162648D1*
X2162451Y3157432D1*
X2096752Y3194636D2*
Y3215501D1*
X2113486Y3232235D1*
X2162451D1*
X2006201Y3157235D2*
X1937648D1*
X1937451Y3157432D1*
X2321752Y3344636D2*
X2424853D1*
X2424951Y3344735D1*
X2512647D1*
X2518701Y3350789D1*
X2231201Y3307235D2*
X2162647D1*
X2162451Y3307430D1*
X2096752Y3344636D2*
Y3365501D1*
X2113484Y3382234D1*
X2162451D1*
X2006201Y3307235D2*
X1937647D1*
X1937451Y3307430D1*
X2321752Y3494636D2*
X2424853D1*
X2424951Y3494735D1*
X2512647D1*
X2518701Y3500789D1*
X2231201Y3457235D2*
X2162648D1*
X2162451Y3457432D1*
X2103003Y3494636D2*
Y3515501D1*
X2119736Y3532235D1*
X2162451D1*
X2012451Y3457235D2*
X1937648D1*
X1937451Y3457432D1*
X2321752Y3644636D2*
X2424853D1*
X2424951Y3644735D1*
X2512648D1*
X2518702Y3650789D1*
X2231201Y3607235D2*
X2162451D1*
X2096752Y3644636D2*
Y3671751D1*
X2107039Y3682038D1*
X2162451D1*
X2006201Y3607235D2*
X1937647D1*
X1937451Y3607430D1*
X2518701Y4988289D2*
X2431398D1*
X2424951Y4994735D1*
X2321752Y4994636D2*
X2424853D1*
X2424951Y4994735D1*
X2231201Y4957235D2*
X2162648D1*
X2162451Y4957432D1*
X2096752Y4994636D2*
Y5003001D1*
X2125986Y5032235D1*
X2162451D1*
X2006201Y4957235D2*
X1937648D1*
X1937451Y4957432D1*
X2321752Y4694636D2*
X2424853D1*
X2424951Y4694735D1*
X2512648D1*
X2518702Y4700789D1*
X2231201Y4657235D2*
X2162648D1*
X2162451Y4657432D1*
X2096752Y4694636D2*
Y4709251D1*
X2119736Y4732235D1*
X2162451D1*
X1937451Y4657432D2*
X2006004D1*
X2006201Y4657235D1*
X1937451Y4132235D2*
X1899951D1*
X1843701Y4188486D1*
Y4400986D1*
X1813486Y4431201D1*
X1749951D1*
X2321752Y4394636D2*
X2424853D1*
X2424951Y4394735D1*
X2518505D1*
X2518702Y4394538D1*
X2162451Y4357432D2*
X2231004D1*
X2231201Y4357235D1*
X2096752Y4394636D2*
Y4409251D1*
X2119736Y4432235D1*
X2162451D1*
X1937451Y4357432D2*
X2006004D1*
X2006201Y4357235D1*
X2321752Y4244636D2*
X2424853D1*
X2424951Y4244735D1*
X2518504D1*
X2518701Y4244538D1*
X2231201Y4207235D2*
X2162648D1*
X2162451Y4207432D1*
X2096752Y4244636D2*
Y4259251D1*
X2119736Y4282235D1*
X2162451D1*
X2006201Y4207235D2*
X1937648D1*
X1937451Y4207432D1*
X2321752Y4094636D2*
X2424853D1*
X2424951Y4094735D1*
X2518505D1*
X2518702Y4094538D1*
X2162451Y4057432D2*
X2231004D1*
X2231201Y4057235D1*
X2096752Y4094636D2*
Y4109251D1*
X2119736Y4132235D1*
X2162451D1*
X1937451Y4057432D2*
X2006004D1*
X2006201Y4057235D1*
X2321752Y3944636D2*
X2424853D1*
X2424951Y3944735D1*
X2518504D1*
X2518701Y3944538D1*
X2162451Y3907432D2*
X2231004D1*
X2231201Y3907235D1*
X2096752Y3944636D2*
Y3953001D1*
X2125986Y3982235D1*
X2162451D1*
X1968702Y3907235D2*
X2006201D1*
X1937451Y4282235D2*
X1899951D1*
X1881201Y4300986D1*
Y4488486D1*
X1838486Y4531201D1*
X1749951D1*
X1937451Y4432235D2*
Y4538484D1*
X1844735Y4631201D1*
X1749951D1*
X1937451Y4732235D2*
X1887451D1*
Y4731201D1*
X1749951D1*
X1937451Y5032235D2*
X1799951D1*
X1749951Y4982235D1*
Y4831201D1*
X1568701Y3112450D2*
Y3193701D1*
X1831201Y3456201D1*
Y3631199D1*
X1882235Y3682234D1*
X1937451D1*
X1618701Y3112450D2*
Y3181201D1*
X1868701Y3431201D1*
Y3506199D1*
X1894736Y3532235D1*
X1937451D1*
X1668701Y3112450D2*
Y3168699D1*
X1882235Y3382234D1*
X1937451D1*
X1718701Y3112450D2*
Y3156199D1*
X1794736Y3232235D1*
X1937451D1*
X1668701Y2899852D2*
Y2856201D1*
X1687451Y2837450D1*
X1793701D1*
X1888486Y2932235D1*
X1937451D1*
X1618701Y2899852D2*
Y2849951D1*
X1662451Y2806201D1*
X1693701D1*
X1717668Y2782234D1*
X1937451D1*
X1568701Y2899852D2*
Y2837451D1*
X1637451Y2768701D1*
X1668701D1*
X1805167Y2632235D1*
X1937451D1*
X1518701Y2899852D2*
Y2818701D1*
X1606201Y2731201D1*
X1649951D1*
X1898919Y2482234D1*
X1937451D1*
X1568701Y1725984D2*
Y1806201D1*
X1868701Y2106201D1*
Y2174950D1*
X1875986Y2182235D1*
X1937451D1*
X1618701Y1725984D2*
Y1793699D1*
X1857236Y2032235D1*
X1937451D1*
X1668701Y1725984D2*
Y1787450D1*
X1763486Y1882235D1*
X1937451D1*
X1718701Y1725984D2*
Y1782234D1*
X1731202Y1794735D1*
X1812451D1*
X1843702Y1763484D1*
Y1738484D1*
X1849951Y1732235D1*
X1937451D1*
X1668701Y1513386D2*
Y1450986D1*
X1681202Y1438484D1*
X1843701D1*
X1862451Y1457235D1*
Y1507235D1*
X1618701Y1513386D2*
Y1369735D1*
X1706201Y1282235D1*
D15*
X1937451D1*
X1468701Y1725984D2*
D13*
Y1781199D1*
X1475986Y1788484D1*
X1493701D1*
X1512453D1*
X1518701Y1782236D1*
Y1725984D1*
X1493701Y1788484D2*
Y1837450D1*
X1468701Y3112450D2*
Y3143701D1*
X1518701D1*
Y3112450D1*
X1350591Y2605070D2*
Y2669340D1*
X1393701Y2712450D1*
Y3062450D1*
X1431201Y3099950D1*
Y3124950D1*
X1449951Y3143701D1*
X1468701D1*
X1768701Y2899852D2*
Y3031202D1*
X1756202Y3043701D1*
X1431202D1*
Y2693701D1*
X1382087Y2644585D1*
Y2605070D1*
X1431202Y2693701D2*
Y2674951D1*
X1649950D1*
X1831201Y2493701D1*
Y2131199D1*
X1593702Y1893701D1*
X1424951D1*
Y1624951D1*
X1718701D1*
X1768701Y1574951D1*
Y1513386D1*
X1006202Y2056201D2*
X1099951D1*
X1193110Y2149360D1*
Y2274361D1*
X906202Y2056201D2*
Y2131202D1*
X956201Y2181201D1*
Y2199950D1*
X981202Y2224951D1*
X1049953D1*
X1081202Y2256201D1*
Y2318702D1*
X1091979Y2329479D1*
X1137992D1*
X906202Y1956201D2*
X924951D1*
Y1943701D1*
X968701Y1899951D1*
X1062451D1*
X1118701Y1956201D1*
Y2018699D1*
X1224606Y2124605D1*
Y2274361D1*
X1199755Y3212450D2*
Y3144094D1*
X1200148Y3143701D1*
X1319094Y2605070D2*
Y2693307D1*
X1281201Y2731201D1*
Y3049951D1*
X1187451Y3143701D1*
X1200148D1*
X1099951Y3112451D2*
X1168899D1*
X1200148Y3143701D1*
X1137992Y2360975D2*
X1035780D1*
X1024951Y2350147D1*
Y2281201D2*
Y2350147D1*
X1468701Y2455463D2*
X1544437D1*
X1556201Y2443699D1*
Y2399949D1*
X1548723Y2392471D1*
X1468701D1*
X1548723D2*
X1559705Y2390198D1*
X1593702Y2356201D1*
X1637451D1*
Y2243701D2*
X1662451D1*
Y2331201D1*
X1637451Y2356201D1*
X1468701Y2518455D2*
X1637697D1*
X1718701Y2437451D1*
Y2193701D1*
X1574951Y2049951D1*
X1431202D1*
X1337451Y1956201D1*
Y1324950D1*
X1680167Y982235D1*
X1937451D1*
X587453Y2749953D2*
D16*
X637451D1*
G03X687451Y2799951I12J49988D01*
G01*
Y2850148D1*
X837450Y5062450D2*
D14*
Y4837451D1*
Y4701537D1*
X811270Y4675357D1*
X784437Y4648524D1*
X757723Y4621810D1*
X723364Y4587450D1*
X662462Y4526549D1*
Y3299951D1*
X912451Y4837451D2*
X837450D1*
X1021110Y4587450D2*
X951537D1*
X837450Y4701537D1*
X1021110Y4587450D2*
X723364D1*
X1021110D2*
X899177D1*
X811270Y4675357D1*
X1021110Y4587450D2*
X845510D1*
X784437Y4648524D1*
X1021110Y4587450D2*
X792083D1*
X757723Y4621810D1*
X1512453Y4193699D2*
Y4237450D1*
X1412451Y4337451D1*
X1081199D1*
X1068699Y4324951D1*
Y4181202D1*
X1094340Y4155562D1*
X1143702D1*
X1068699Y4324951D2*
Y4539861D1*
X1021110Y4587450D1*
X587453Y2549953D2*
D13*
X649951D1*
G02X687451Y2512450I2J-37498D01*
G01*
Y2424755D1*
X768701Y2275147D2*
X849951D1*
Y2281201D1*
X768701Y2275147D2*
X774951D1*
Y2262450D1*
X687451Y2349951D2*
Y2299951D1*
G03X712451Y2274951I24993J-7D01*
G01*
X768701Y2275147D1*
X849951Y3018702D2*
X787453Y3081201D1*
X731202D1*
X737453Y3074950D1*
X768701D1*
X687451Y2924951D2*
D16*
Y3031201D1*
G02X737453Y3074950I44727J-671D01*
G01*
X849951Y2918702D2*
D13*
X931202D1*
G02X981202Y2868701I3J-49997D01*
G01*
Y2618701D1*
G03X1049951Y2549951I68741J-8D01*
G01*
X1137992D1*
Y2518455D2*
X956202D1*
G03X924951Y2487450I-461J-30787D01*
G01*
D3*
G02X906202Y2443701I-60299J-51D01*
G01*
G03X849951Y2381201I375005J-394072D01*
G01*
X1193110Y2605070D2*
Y2719293D1*
X1181202Y2731201D1*
Y2974950D1*
X1231202Y3024950D1*
X1468701Y2549951D2*
X1662450D1*
X1756201Y2456201D1*
Y2174950D1*
X1587451Y2006201D1*
X1443701D1*
X1381201Y1943701D1*
Y1412451D1*
X1568702Y1224950D1*
X1831202D1*
X1493701Y1947686D2*
Y1949951D1*
X1587451D1*
X1793701Y2156201D1*
Y2474950D1*
X1631201Y2637450D1*
X1418701D1*
X1413583Y2632332D1*
Y2605070D1*
X1319094Y2274361D2*
Y2106594D1*
X1193701Y1981201D1*
Y1843699D1*
X1012451Y1662450D1*
Y1787450D2*
X1037450D1*
X1156201Y1906201D1*
Y1999950D1*
X1287598Y2131348D1*
Y2274361D1*
X989715Y3112451D2*
X993701D1*
X949951Y3156201D1*
X831202D1*
X787451Y3199951D1*
X562453D1*
X493701Y3131199D1*
Y2212451D1*
X612451Y2093701D1*
X718701D1*
X749951Y2062450D1*
X806201D1*
X799951Y2056201D1*
X806202D1*
D41*
X1118701Y2162450D3*
X1524951Y2156201D3*
X1531201Y1406201D3*
X1531202Y918701D3*
X1524951Y2731201D3*
X1118702Y2612450D3*
X1048547Y4893832D2*
D17*
X1220349D1*
X1429530D2*
X1684727D1*
X1048547Y4868963D2*
X1220349D1*
X1429530D2*
X1684727D1*
X1048547Y4844094D2*
X1220349D1*
X1429530D2*
X1684727D1*
X1048547Y4819226D2*
X1220349D1*
X1429530D2*
X1684727D1*
X1048547Y4794357D2*
X1220349D1*
X1429530D2*
X1684727D1*
X892811Y4769488D2*
X1220349D1*
X1429530D2*
X1684727D1*
X892811Y4744619D2*
X1391194D1*
X1421205D2*
X1684942D1*
X896507Y4719751D2*
X1391194D1*
X1421205D2*
X1684942D1*
X921374Y4694882D2*
X1391194D1*
X1421205D2*
X1684942D1*
X946241Y4670013D2*
X1391194D1*
X1421205D2*
X1684942D1*
X1143425Y4645144D2*
X1190135D1*
X1434734D2*
X1684942D1*
X1143425Y4620276D2*
X1190135D1*
X1434734D2*
X1684942D1*
X1143425Y4595407D2*
X1190135D1*
X1434734D2*
X1684942D1*
X1143425Y4570538D2*
X1190135D1*
X1434734D2*
X1684942D1*
X1143425Y4545669D2*
X1190135D1*
X1434734D2*
X1684942D1*
X733987Y4520801D2*
X898827D1*
X1143425D2*
X1190135D1*
X1434734D2*
X1684942D1*
X717839Y4495932D2*
X1013333D1*
X1124084D2*
X1391194D1*
X1421205D2*
X1684942D1*
X717839Y4471063D2*
X1013333D1*
X1124084D2*
X1391194D1*
X1421205D2*
X1684942D1*
X717839Y4446194D2*
X1013333D1*
X1124084D2*
X1391194D1*
X1421205D2*
X1684942D1*
X717839Y4421325D2*
X1013333D1*
X1124084D2*
X1391194D1*
X1421205D2*
X1684942D1*
X717839Y4396457D2*
X1013333D1*
X1124084D2*
X1391194D1*
X1421205D2*
X1684942D1*
X717839Y4371588D2*
X1013333D1*
X1455583D2*
X1684942D1*
X717839Y4346719D2*
X1013333D1*
X1480450D2*
X1684942D1*
X717839Y4321850D2*
X1013333D1*
X1505318D2*
X1684942D1*
X717839Y4296982D2*
X1013333D1*
X1530185D2*
X1684942D1*
X717839Y4272113D2*
X1013333D1*
X1124084D2*
X1400524D1*
X1554874D2*
X1684942D1*
X717839Y4247244D2*
X1013333D1*
X1124084D2*
X1425391D1*
X1583581D2*
X1684942D1*
X717839Y4222375D2*
X1013333D1*
X1124084D2*
X1441324D1*
X1583581D2*
X1685228D1*
X717839Y4197507D2*
X1013333D1*
X1208915D2*
X1441324D1*
X1583581D2*
X1694559D1*
X717839Y4172638D2*
X1014014D1*
X1298732D2*
X1441324D1*
X1583581D2*
X1725025D1*
X717839Y4147769D2*
X1025247D1*
X1332823D2*
X1441324D1*
X1583581D2*
X1743899D1*
X717839Y4122900D2*
X1049720D1*
X1349975D2*
X1447854D1*
X1577050D2*
X1744654D1*
X717839Y4098031D2*
X1078499D1*
X1350656D2*
X1441467D1*
X1583437D2*
X1745407D1*
X717839Y4073163D2*
X1064648D1*
X1350441D2*
X1444482D1*
X1580423D2*
X1746160D1*
X717839Y4048294D2*
X1039780D1*
X1335873D2*
X1458513D1*
X1566392D2*
X1746913D1*
X717839Y4023425D2*
X1016240D1*
X1308493D2*
X1448106D1*
X1576799D2*
X1750143D1*
X717839Y3998556D2*
X1007304D1*
X1208915D2*
X1441504D1*
X1583402D2*
X1769018D1*
X717839Y3973688D2*
X1007089D1*
X1119706D2*
X1444302D1*
X1580602D2*
X1787894D1*
X717839Y3948819D2*
X1007089D1*
X1117804D2*
X1427795D1*
X1567290D2*
X1806769D1*
X717839Y3923950D2*
X1007089D1*
X1117804D2*
X1402928D1*
X1556848D2*
X1825608D1*
X717839Y3899081D2*
X1007089D1*
X1532589D2*
X1844483D1*
X717839Y3874213D2*
X1007089D1*
X1507722D2*
X1863358D1*
X717839Y3849344D2*
X1007089D1*
X1482854D2*
X1872222D1*
X717839Y3824475D2*
X1007089D1*
X1457987D2*
X2034957D1*
X717839Y3799606D2*
X1007089D1*
X1117804D2*
X2034957D1*
X717839Y3774738D2*
X1007089D1*
X1117804D2*
X2034957D1*
X717839Y3749869D2*
X1007089D1*
X1117804D2*
X2034957D1*
X717839Y3725000D2*
X1007089D1*
X1117804D2*
X1872222D1*
X717839Y3700131D2*
X1007089D1*
X1117804D2*
X1836768D1*
X717839Y3675262D2*
X1007089D1*
X1117804D2*
X1811900D1*
X717839Y3650394D2*
X1007089D1*
X1117804D2*
X1790190D1*
X717839Y3625525D2*
X1007089D1*
X1117804D2*
X1785668D1*
X717839Y3600656D2*
X898827D1*
X1143425D2*
X1190135D1*
X1434734D2*
X1785668D1*
X717839Y3575787D2*
X898827D1*
X1143425D2*
X1190135D1*
X1434734D2*
X1785668D1*
X717839Y3550919D2*
X898827D1*
X1143425D2*
X1190135D1*
X1434734D2*
X1785668D1*
X717839Y3526050D2*
X898827D1*
X1143425D2*
X1190135D1*
X1434734D2*
X1785668D1*
X717839Y3501181D2*
X898827D1*
X1143425D2*
X1190135D1*
X1434734D2*
X1785668D1*
X717839Y3476312D2*
X944579D1*
X1055329D2*
X1785668D1*
X717839Y3451444D2*
X944579D1*
X1055329D2*
X1763097D1*
X717839Y3426575D2*
X944579D1*
X1055329D2*
X1738230D1*
X717839Y3401706D2*
X944579D1*
X1055329D2*
X1713362D1*
X767037Y3376837D2*
X944579D1*
X1055329D2*
X1226629D1*
X1435774D2*
X1688495D1*
X767037Y3351969D2*
X938694D1*
X1136033D2*
X1226629D1*
X1435774D2*
X1663626D1*
X767037Y3327100D2*
X938694D1*
X1136033D2*
X1226629D1*
X1435774D2*
X1638759D1*
X1194487Y4656068D2*
X1393694D1*
X1393701Y4763990D1*
X1222860Y4763971D1*
Y4918697D1*
X890320Y4918701D1*
X890421Y4900164D1*
X1046030D1*
Y4774739D1*
X890308D1*
X890320Y4723448D1*
X957681Y4656076D1*
X1140909Y4656068D1*
Y4518832D1*
X1121568D1*
X1121570Y4390332D1*
X1393715Y4390322D1*
X1393665Y4518832D1*
X1192650D1*
Y4656068D1*
X1194487D1*
X1418698D2*
X1432248D1*
Y4518832D1*
X1418705D1*
X1418701Y4389916D1*
X1424794Y4388861D1*
X1432684Y4386297D1*
X1440076Y4382530D1*
X1446787Y4377655D1*
X1469323Y4355349D1*
X1552656Y4271786D1*
X1557539Y4265060D1*
X1563257Y4262318D1*
X1581071D1*
Y4125081D1*
X1573538Y4124955D1*
X1576530Y4118247D1*
X1578786Y4111256D1*
X1580283Y4104066D1*
X1581003Y4096755D1*
X1580849Y4088194D1*
X1579869Y4080913D1*
X1578115Y4073781D1*
X1575610Y4066875D1*
X1572382Y4060278D1*
X1568466Y4054063D1*
X1563907Y4048303D1*
X1559445Y4043706D1*
X1564630Y4038264D1*
X1570959Y4029552D1*
X1575848Y4019958D1*
X1579175Y4009718D1*
X1580860Y3999083D1*
Y3988316D1*
X1579175Y3977681D1*
X1575848Y3967441D1*
X1570959Y3957846D1*
X1564904Y3949483D1*
X1563862Y3943860D1*
X1561298Y3935970D1*
X1557531Y3928577D1*
X1552656Y3921866D1*
X1530350Y3899329D1*
X1446787Y3815997D1*
X1440076Y3811122D1*
X1432684Y3807356D1*
X1424794Y3804791D1*
X1416600Y3803493D1*
X1384892Y3803331D1*
X1115294D1*
X1115322Y3618539D1*
X1140909Y3618570D1*
Y3481333D1*
X1052814D1*
X1052823Y3362686D1*
X1133531Y3362663D1*
Y3312461D1*
X1229098Y3312451D1*
X1229119Y3392192D1*
X1433285D1*
Y3312450D1*
X1626623Y3312451D1*
X1788184Y3474034D1*
X1788306Y3634575D1*
X1789362Y3641244D1*
X1791449Y3647665D1*
X1794513Y3653681D1*
X1798483Y3659143D1*
X1826759Y3687608D1*
X1854291Y3714951D1*
X1859753Y3718921D1*
X1865769Y3721986D1*
X1872203Y3724075D1*
X1874739Y3733694D1*
Y3741009D1*
X2000164D1*
Y3727983D1*
X2037428Y3728018D1*
X2037451Y3831740D1*
X1898252Y3837567D1*
X1895408Y3838306D1*
X1892815Y3839689D1*
X1890617Y3841639D1*
X1885243Y3848657D1*
X1874739Y3848656D1*
Y3862471D1*
X1751491Y4025192D1*
X1750391Y4027916D1*
X1749957Y4030823D1*
X1745576Y4168640D1*
X1738293Y4169581D1*
X1731168Y4171367D1*
X1724301Y4173974D1*
X1717786Y4177365D1*
X1711713Y4181495D1*
X1706163Y4186307D1*
X1701214Y4191735D1*
X1696934Y4197703D1*
X1693382Y4204133D1*
X1690605Y4210932D1*
X1688642Y4218009D1*
X1687490Y4223971D1*
X1687255Y4232609D1*
X1687451Y4243324D1*
X1687239Y4331201D1*
X1687451Y4344374D1*
X1687239Y4431201D1*
X1687451Y4445424D1*
X1687239Y4531201D1*
X1687451Y4546474D1*
X1687239Y4631201D1*
X1687451Y4647524D1*
X1687239Y4731201D1*
X1687451Y4748573D1*
X1687239Y4768488D1*
X1687451Y4904741D1*
Y4918701D1*
X1427052D1*
X1427025Y4763971D1*
X1418707D1*
X1418702Y4656033D1*
X1014992Y4518832D2*
X901311D1*
Y4534585D1*
X745269Y4534580D1*
X715354Y4504671D1*
X715332Y3392214D1*
X764545Y3392192D1*
Y3312421D1*
X941164Y3312450D1*
X941177Y3362663D1*
X947098D1*
X947083Y3481345D1*
X901311Y3481333D1*
Y3618570D1*
X1009573D1*
X1009744Y3997850D1*
X1011042Y4006045D1*
X1013606Y4013934D1*
X1017373Y4021327D1*
X1022248Y4028038D1*
X1044554Y4050575D1*
X1071865Y4077655D1*
X1078591Y4082538D1*
X1080990Y4084171D1*
Y4104402D1*
X1074108Y4106717D1*
X1066715Y4110483D1*
X1060004Y4115358D1*
X1037469Y4137664D1*
X1028496Y4146866D1*
X1023621Y4153577D1*
X1019854Y4160970D1*
X1017290Y4168860D1*
X1015992Y4177054D1*
X1015829Y4208761D1*
Y4517972D1*
X1194487Y3618570D2*
X1432248D1*
Y3481333D1*
X1192650D1*
Y3618570D1*
X1194487D1*
X1206415Y4020024D2*
Y3984581D1*
X1128080D1*
X1115344Y3971825D1*
X1115322Y3909051D1*
X1390541Y3909071D1*
X1449031Y3967551D1*
X1445731Y3977681D1*
X1444046Y3988316D1*
Y3999083D1*
X1445731Y4009718D1*
X1449058Y4019958D1*
X1453946Y4029552D1*
X1460276Y4038264D1*
X1465493Y4043663D1*
X1460194Y4049231D1*
X1455740Y4055072D1*
X1451936Y4061356D1*
X1448825Y4068009D1*
X1446444Y4074958D1*
X1444819Y4082122D1*
X1443969Y4089419D1*
X1443903Y4096764D1*
X1444623Y4104073D1*
X1446121Y4111265D1*
X1448379Y4118255D1*
X1451434Y4125084D1*
X1443835Y4125081D1*
Y4231335D1*
X1390547Y4284585D1*
X1121538Y4284581D1*
X1121570Y4208436D1*
X1206415Y4208432D1*
X1206563Y4172999D1*
X1293987Y4172894D1*
X1299419Y4172000D1*
X1304629Y4170222D1*
X1309474Y4167606D1*
X1313819Y4164226D1*
X1340224Y4137711D1*
X1343434Y4133239D1*
X1345861Y4128297D1*
X1347437Y4123021D1*
X1348119Y4117559D1*
X1348042Y4074176D1*
X1347148Y4068743D1*
X1345370Y4063533D1*
X1342755Y4058688D1*
X1339374Y4054343D1*
X1313471Y4028471D1*
X1309079Y4025152D1*
X1304197Y4022606D1*
X1298962Y4020902D1*
X1293517Y4020085D1*
X1221524Y4020014D1*
X1206416D1*
X1312449Y4656033D2*
D13*
Y4518867D1*
X1192685Y4587450D2*
X1432213D1*
X987255Y4900129D2*
Y4774774D1*
Y4837451D2*
X1045995D1*
X1074756Y3362627D2*
Y3299950D1*
X1312449Y3618534D2*
Y3481369D1*
X1192685Y3549951D2*
X1432213D1*
X1749951Y4231201D2*
Y4168524D1*
X1687274Y4231201D2*
X1749951D1*
X2006201Y3727982D2*
Y3682038D1*
X1331202Y3392156D2*
Y3299951D1*
X1324942Y4856211D2*
Y4764007D1*
X1222895Y4856211D2*
X1426990D1*
X1214568Y4172991D2*
Y4020022D1*
X1080997Y4096507D2*
X1348139D1*
X1443870Y4093699D2*
X1581035D1*
D18*
X1637451Y2356201D3*
Y2431004D3*
X1024951Y2424950D3*
Y2350147D3*
D20*
X1312449Y4587450D3*
X1021110D3*
D21*
X912451Y4837451D3*
X987255D3*
X999953Y3299950D3*
X1074756D3*
D20*
X1312449Y3549951D3*
X1021110D3*
D18*
X768701Y2349950D3*
Y2275147D3*
Y3074950D3*
Y3000147D3*
D21*
X1274951Y3143701D3*
X1200148D3*
D18*
X687451Y2924951D3*
Y2850148D3*
Y2349951D3*
Y2424755D3*
D22*
X1749951Y4831201D3*
D23*
Y4731201D3*
Y4631201D3*
Y4531201D3*
Y4431201D3*
Y4331201D3*
Y4231201D3*
D22*
X1006202Y2056201D3*
D23*
Y1956201D3*
X906202Y2056201D3*
Y1956201D3*
X806202Y2056201D3*
Y1956201D3*
D22*
X837450Y5062450D3*
D23*
X937450D3*
X1037450D3*
X1137450D3*
D22*
X587453Y2749953D3*
D23*
Y2649953D3*
Y2549953D3*
D22*
X1012451Y1787450D3*
D23*
X912451D3*
D22*
X1012451Y1662450D3*
D23*
X912451D3*
D24*
X1637451Y2243701D3*
X1519341D3*
D25*
X1024951Y2281201D3*
Y2163091D3*
D27*
X1599953Y693702D3*
X1525150D3*
X1562551Y784253D3*
X1662453Y831201D3*
X1737256D3*
X1699854Y740650D3*
X1412453Y831201D3*
X1487256D3*
X1449854Y740650D3*
X1837451Y687450D3*
X1762648D3*
X1800050Y778001D3*
D29*
X2231201Y907235D3*
Y982038D3*
X2321752Y944636D3*
X2006201Y907235D3*
Y982038D3*
X2096752Y944636D3*
X2231201Y1357234D3*
Y1432037D3*
X2321752Y1394635D3*
X2006201Y1357234D3*
Y1432037D3*
X2096752Y1394635D3*
X2231201Y1207235D3*
Y1282038D3*
X2321752Y1244636D3*
X2006201Y1207235D3*
Y1282038D3*
X2096752Y1244636D3*
X2231201Y1507235D3*
Y1582038D3*
X2321752Y1544636D3*
X2006201Y1507235D3*
Y1582038D3*
X2096752Y1544636D3*
X2231201Y1657234D3*
Y1732037D3*
X2321752Y1694635D3*
X2006201Y1657234D3*
Y1732037D3*
X2096752Y1694635D3*
X2231201Y1807235D3*
Y1882038D3*
X2321752Y1844636D3*
X2006201Y1807235D3*
Y1882038D3*
X2096752Y1844636D3*
X2231201Y1957234D3*
Y2032037D3*
X2321752Y1994635D3*
X2006201Y1957234D3*
Y2032037D3*
X2096752Y1994635D3*
X2231201Y2107235D3*
Y2182038D3*
X2321752Y2144636D3*
X2006201Y2107235D3*
Y2182038D3*
X2096752Y2144636D3*
X2231201Y2407235D3*
Y2482038D3*
X2321752Y2444636D3*
X2006201Y2407235D3*
Y2482038D3*
X2096752Y2444636D3*
X2231201Y2557235D3*
Y2632038D3*
X2321752Y2594636D3*
X2006201Y2557235D3*
Y2632038D3*
X2096752Y2594636D3*
X2231201Y2707235D3*
Y2782038D3*
X2321752Y2744636D3*
X2006201Y2707235D3*
Y2782038D3*
X2096752Y2744636D3*
X2231201Y2857235D3*
Y2932038D3*
X2321752Y2894636D3*
X2006201Y2857235D3*
Y2932038D3*
X2096752Y2894636D3*
X2231201Y3157235D3*
Y3232038D3*
X2321752Y3194636D3*
X2006201Y3157235D3*
Y3232038D3*
X2096752Y3194636D3*
X2231201Y3307235D3*
Y3382038D3*
X2321752Y3344636D3*
X2006201Y3307235D3*
Y3382038D3*
X2096752Y3344636D3*
X2231201Y3457235D3*
Y3532038D3*
X2321752Y3494636D3*
X2012451Y3457235D3*
Y3532038D3*
X2103003Y3494636D3*
X2231201Y3607235D3*
Y3682038D3*
X2321752Y3644636D3*
X2006201Y3607235D3*
Y3682038D3*
X2096752Y3644636D3*
X2231201Y4957235D3*
Y5032038D3*
X2321752Y4994636D3*
X2006201Y4957235D3*
Y5032038D3*
X2096752Y4994636D3*
X2231201Y4657235D3*
Y4732038D3*
X2321752Y4694636D3*
X2006201Y4657235D3*
Y4732038D3*
X2096752Y4694636D3*
X2231201Y4357235D3*
Y4432038D3*
X2321752Y4394636D3*
X2006201Y4357235D3*
Y4432038D3*
X2096752Y4394636D3*
X2231201Y4207235D3*
Y4282038D3*
X2321752Y4244636D3*
X2006201Y4207235D3*
Y4282038D3*
X2096752Y4244636D3*
X2231201Y4057235D3*
Y4132038D3*
X2321752Y4094636D3*
X2006201Y4057235D3*
Y4132038D3*
X2096752Y4094636D3*
X2231201Y3907235D3*
Y3982038D3*
X2321752Y3944636D3*
X2006201Y3907235D3*
Y3982038D3*
X2096752Y3944636D3*
D30*
X1406202Y1006201D3*
X1295966D3*
X1292668Y531201D3*
X1402904D3*
X1294735Y912451D3*
X1404971D3*
X1406202Y631201D3*
X1295966D3*
D18*
X2162451Y982235D3*
Y907432D3*
X2518702Y1019735D3*
Y944932D3*
X1937451Y982235D3*
Y907432D3*
X2162451Y1432235D3*
Y1357432D3*
X2518702Y1325986D3*
Y1400789D3*
D31*
X1831202Y1224950D3*
Y1335186D3*
D18*
X2162451Y1282235D3*
Y1207432D3*
X2518701Y1175986D3*
Y1250789D3*
X1937451Y1282235D3*
Y1207432D3*
X2162451Y1582235D3*
Y1507432D3*
X2518702Y1475986D3*
Y1550789D3*
D21*
X1862451Y1507235D3*
X1937255D3*
D18*
X2162451Y1732235D3*
Y1657432D3*
X2518701Y1625986D3*
Y1700789D3*
X1937451Y1732235D3*
Y1657432D3*
X2162451Y1882235D3*
Y1807432D3*
X2518702Y1775986D3*
Y1850789D3*
X1937451Y1882235D3*
Y1807432D3*
X2162451Y2032235D3*
Y1957432D3*
X2518702Y1925986D3*
Y2000789D3*
X1937451Y2032235D3*
Y1957432D3*
X2162451Y2182235D3*
Y2107432D3*
X2518701Y2075986D3*
Y2150789D3*
X1937451Y2182235D3*
Y2107432D3*
X2162451Y2482234D3*
Y2407430D3*
X2518702Y2375986D3*
Y2450789D3*
X1937451Y2482234D3*
Y2407430D3*
X2162451Y2632235D3*
Y2557432D3*
X2518702Y2525986D3*
Y2600789D3*
X1937451Y2632235D3*
Y2557432D3*
X2162451Y2782234D3*
Y2707430D3*
X2518702Y2675986D3*
Y2750789D3*
X1937451Y2782234D3*
Y2707430D3*
X2162451Y2932235D3*
Y2857432D3*
X2518702Y2825986D3*
Y2900789D3*
X1937451Y2932235D3*
Y2857432D3*
X2162451Y3232235D3*
Y3157432D3*
X2518701Y3125986D3*
Y3200789D3*
X1937451Y3232235D3*
Y3157432D3*
X2162451Y3382234D3*
Y3307430D3*
X2518701Y3275986D3*
Y3350789D3*
X1937451Y3382234D3*
Y3307430D3*
X2162451Y3532235D3*
Y3457432D3*
X2518701Y3425986D3*
Y3500789D3*
X1937451Y3532235D3*
Y3457432D3*
X2162451Y3682038D3*
Y3607235D3*
X2518702Y3575986D3*
Y3650789D3*
X1937451Y3682234D3*
Y3607430D3*
X2162451Y5032235D3*
Y4957432D3*
X2518701Y4913486D3*
Y4988289D3*
X1937451Y5032235D3*
Y4957432D3*
X2162451Y4732235D3*
Y4657432D3*
X2518702Y4625986D3*
Y4700789D3*
X1937451Y4732235D3*
Y4657432D3*
X2162451Y4432235D3*
Y4357432D3*
X2518702Y4319735D3*
Y4394538D3*
X1937451Y4432235D3*
Y4357432D3*
X2162451Y4282235D3*
Y4207432D3*
X2518701Y4169735D3*
Y4244538D3*
X1937451Y4282235D3*
Y4207432D3*
X2162451Y4132235D3*
Y4057432D3*
X2518702Y4019735D3*
Y4094538D3*
X1937451Y4132235D3*
Y4057432D3*
X2162451Y3982235D3*
Y3907432D3*
X2518701Y3869735D3*
Y3944538D3*
X1937451Y3982235D3*
Y3907432D3*
D22*
X1331202Y3024950D3*
D23*
X1231202D3*
X1131202D3*
D22*
X849951Y2281201D3*
D23*
Y2381201D3*
Y2481201D3*
D22*
Y2818702D3*
D23*
Y2918702D3*
Y3018702D3*
D21*
X1124951Y3212450D3*
X1199755D3*
D31*
X1493701Y1837450D3*
Y1947686D3*
D30*
X1099951Y3112451D3*
X989715D3*
D31*
X899951Y3212451D3*
Y3102215D3*
D33*
X1468701Y2549951D3*
Y2518455D3*
Y2486959D3*
Y2455463D3*
Y2423967D3*
Y2392471D3*
Y2360975D3*
Y2329479D3*
D34*
X1413583Y2274361D3*
X1382087D3*
X1350591D3*
X1319094D3*
X1287598D3*
X1256102D3*
X1224606D3*
X1193110D3*
D33*
X1137992Y2329479D3*
Y2360975D3*
Y2392471D3*
Y2423967D3*
Y2455463D3*
Y2486959D3*
Y2518455D3*
Y2549951D3*
D34*
X1193110Y2605070D3*
X1224606D3*
X1256102D3*
X1287598D3*
X1319094D3*
X1350591D3*
X1382087D3*
X1413583D3*
D35*
X1468701Y1725984D3*
X1518701D3*
X1568701D3*
X1618701D3*
X1668701D3*
X1718701D3*
X1768701D3*
Y1513386D3*
X1718701D3*
X1668701D3*
X1618701D3*
X1568701D3*
X1518701D3*
X1468701D3*
Y3112450D3*
X1518701D3*
X1568701D3*
X1618701D3*
X1668701D3*
X1718701D3*
X1768701D3*
Y2899852D3*
X1718701D3*
X1668701D3*
X1618701D3*
X1568701D3*
X1518701D3*
X1468701D3*
D36*
X1331202Y3299951D3*
X1324942Y4856211D3*
X662462Y3299951D3*
X656202Y4856211D3*
D38*
X1143702Y4037451D3*
D88*
X1214568Y4096507D3*
D38*
X1143702Y4155562D3*
D39*
X1512453Y4193699D3*
D40*
Y3993699D3*
Y4093699D3*
D91*
X2424951Y644735D3*
Y794735D3*
Y944735D3*
Y1244735D3*
Y1394735D3*
Y1544735D3*
Y1694735D3*
Y1844735D3*
Y1994735D3*
Y2144735D3*
Y2594735D3*
Y2444735D3*
Y2744735D3*
Y2894735D3*
Y3194735D3*
Y3344735D3*
Y3494735D3*
Y3644735D3*
Y3944735D3*
Y4094735D3*
Y4244735D3*
Y4394735D3*
Y4694735D3*
Y4994735D3*
Y5144735D3*
X553946Y2049940D2*
D86*
Y2011140D1*
X549668Y1998307D1*
X545291Y1993929D1*
X536735Y1989652D1*
X523802D1*
X515246Y1993929D1*
X510869Y1998307D1*
X506591Y2011140D1*
Y2049940D1*
X597023D1*
X536735Y1961861D2*
X597023D1*
X562601D2*
X549668Y1957484D1*
X541013Y1948928D1*
X536735Y1940273D1*
Y1927340D1*
Y1878060D2*
X541013Y1886616D1*
X549668Y1895271D1*
X562601Y1899549D1*
X571157D1*
X584090Y1895271D1*
X592646Y1886616D1*
X597023Y1878060D1*
Y1865127D1*
X592646Y1856472D1*
X584090Y1847916D1*
X571157Y1843539D1*
X562601D1*
X549668Y1847916D1*
X541013Y1856472D1*
X536735Y1865127D1*
Y1878060D1*
X506492Y1798537D2*
X510770Y1794160D1*
X506492Y1789882D1*
X502214Y1794160D1*
X506492Y1798537D1*
X536636Y1794160D2*
X609857D1*
X622790Y1798537D1*
X627068Y1807093D1*
Y1815748D1*
X562601Y1762091D2*
Y1710459D1*
X553946D1*
X545291Y1714736D1*
X541013Y1719014D1*
X536735Y1727670D1*
Y1740603D1*
X541013Y1749158D1*
X549668Y1757814D1*
X562601Y1762091D1*
X571157D1*
X584090Y1757814D1*
X592646Y1749158D1*
X597023Y1740603D1*
Y1727670D1*
X592646Y1719014D1*
X584090Y1710459D1*
X549668Y1630936D2*
X541013Y1639591D1*
X536735Y1648246D1*
Y1661080D1*
X541013Y1669735D1*
X549668Y1678291D1*
X562601Y1682668D1*
X571157D1*
X584090Y1678291D1*
X592646Y1669735D1*
X597023Y1661080D1*
Y1648246D1*
X592646Y1639591D1*
X584090Y1630936D1*
X506591Y1590212D2*
X579812D1*
X592646Y1585934D1*
X597023Y1577279D1*
Y1568723D1*
X536735Y1603145D2*
Y1573001D1*
X515346Y1449073D2*
X510969Y1453451D1*
X506691Y1449073D1*
X510969Y1444796D1*
X519624D1*
X528180Y1449073D1*
X532557Y1453451D1*
X515346Y1431862D2*
X510969Y1436240D1*
X506691Y1431862D1*
X510969Y1427585D1*
X519624D1*
X528180Y1431862D1*
X532557Y1436240D1*
X506591Y1399794D2*
X597023Y1365372D1*
X506591Y1330950D1*
Y1247249D2*
Y1303160D1*
X597023D1*
Y1247249D1*
X549668Y1303160D2*
Y1268738D1*
X506591Y1159170D2*
X597023D1*
X506591Y1219458D1*
X597023D1*
X506591Y1131380D2*
X571157D1*
X584090Y1127102D1*
X592646Y1118447D1*
X597023Y1105514D1*
Y1096958D1*
X592646Y1084025D1*
X584090Y1075369D1*
X571157Y1071092D1*
X506591D1*
X519524Y983013D2*
X510869Y991569D1*
X506591Y1004502D1*
Y1021713D1*
X510869Y1034646D1*
X519524Y1043301D1*
X528080D1*
X536735Y1038924D1*
X541013Y1034646D1*
X545291Y1026090D1*
X553946Y1000224D1*
X558224Y991569D1*
X562601Y987291D1*
X571157Y983013D1*
X584090D1*
X592646Y991569D1*
X597023Y1004502D1*
Y1021713D1*
X592646Y1034646D1*
X584090Y1043301D1*
X515346Y950845D2*
X510969Y955222D1*
X506691Y950845D1*
X510969Y946567D1*
X519624D1*
X528180Y950845D1*
X532557Y955222D1*
X515346Y933634D2*
X510969Y938011D1*
X506691Y933634D1*
X510969Y929356D1*
X519624D1*
X528180Y933634D1*
X532557Y938011D1*
X523902Y814084D2*
X519524Y805429D1*
X506691Y792496D1*
X597023D1*
X588368Y760427D2*
X592745Y764705D1*
X597023Y760427D1*
X592745Y756050D1*
X588368Y760427D1*
X523902Y728259D2*
X519524Y719604D1*
X506691Y706671D1*
X597023D1*
X811101Y1576765D2*
Y1537966D1*
X806823Y1525132D1*
X802446Y1520755D1*
X793890Y1516477D1*
X780957D1*
X772401Y1520755D1*
X768024Y1525132D1*
X763746Y1537966D1*
Y1576765D1*
X854178D1*
X785235Y1424120D2*
X776679Y1428398D1*
X768024Y1437053D1*
X763746Y1445609D1*
Y1462820D1*
X768024Y1471475D1*
X776679Y1480031D1*
X785235Y1484408D1*
X798168Y1488686D1*
X819756D1*
X832590Y1484408D1*
X841245Y1480031D1*
X849801Y1471475D1*
X854178Y1462820D1*
Y1445609D1*
X849801Y1437053D1*
X841245Y1428398D1*
X832590Y1424120D1*
X763746Y1396330D2*
X854178D1*
Y1357530D1*
X849801Y1344597D1*
X845523Y1340319D1*
X836967Y1336042D1*
X824034D1*
X815379Y1340319D1*
X811101Y1344597D1*
X806823Y1357530D1*
X802446Y1344597D1*
X798168Y1340319D1*
X789612Y1336042D1*
X780957D1*
X772401Y1340319D1*
X768024Y1344597D1*
X763746Y1357530D1*
Y1396330D1*
X806823D2*
Y1357530D1*
X763746Y1220769D2*
X854178Y1186347D1*
X763746Y1151926D1*
X819756Y1124135D2*
Y1072502D1*
X811101D1*
X802446Y1076780D1*
X798168Y1081058D1*
X793890Y1089713D1*
Y1102646D1*
X798168Y1111202D1*
X806823Y1119857D1*
X819756Y1124135D1*
X828312D1*
X841245Y1119857D1*
X849801Y1111202D1*
X854178Y1102646D1*
Y1089713D1*
X849801Y1081058D1*
X841245Y1072502D1*
X793890Y1044711D2*
X854178D1*
X819756D2*
X806823Y1040334D1*
X798168Y1031778D1*
X793890Y1023123D1*
Y1010190D1*
X806823Y935045D2*
X798168Y939322D1*
X793890Y952255D1*
Y965189D1*
X798168Y978122D1*
X806823Y982399D1*
X815379Y978122D1*
X819756Y969466D1*
X824034Y947978D1*
X828312Y939322D1*
X836967Y935045D1*
X841245D1*
X849801Y939322D1*
X854178Y952255D1*
Y965189D1*
X849801Y978122D1*
X841245Y982399D1*
X763746Y907254D2*
X768024Y902976D1*
X763746Y898599D1*
X759369Y902976D1*
X763746Y907254D1*
X793890Y902976D2*
X854178D1*
X793890Y849319D2*
X798168Y857875D1*
X806823Y866530D1*
X819756Y870808D1*
X828312D1*
X841245Y866530D1*
X849801Y857875D1*
X854178Y849319D1*
Y836386D1*
X849801Y827731D1*
X841245Y819175D1*
X828312Y814798D1*
X819756D1*
X806823Y819175D1*
X798168Y827731D1*
X793890Y836386D1*
Y849319D1*
Y787007D2*
X854178D1*
X811101D2*
X798168Y774074D1*
X793890Y765419D1*
Y752585D1*
X798168Y743930D1*
X811101Y739652D1*
X854178D1*
X809012Y711862D2*
Y662119D1*
X785334Y629951D2*
X781057D1*
X772401Y625673D1*
X768124Y621395D1*
X763846Y612740D1*
Y595529D1*
X768124Y586974D1*
X772401Y582696D1*
X781057Y578318D1*
X789612D1*
X798268Y582696D1*
X811101Y591251D1*
X854178Y634328D1*
Y574040D1*
X845523Y541972D2*
X849900Y546250D1*
X854178Y541972D1*
X849900Y537595D1*
X845523Y541972D1*
X785334Y505427D2*
X781057D1*
X772401Y501149D1*
X768124Y496871D1*
X763846Y488216D1*
Y471005D1*
X768123Y462449D1*
X772401Y458171D1*
X781057Y453794D1*
X789612D1*
X798267Y458171D1*
X811101Y466727D1*
X854178Y509804D1*
Y449516D1*
X882997Y1578378D2*
X973429D1*
Y1539579D1*
X969051Y1526646D1*
X964774Y1522368D1*
X956218Y1518090D1*
X943285D1*
X934630Y1522368D1*
X930352Y1526646D1*
X926074Y1539579D1*
X921697Y1526646D1*
X917419Y1522368D1*
X908863Y1518090D1*
X900208D1*
X891652Y1522368D1*
X887275Y1526646D1*
X882997Y1539579D1*
Y1578378D1*
X926074D2*
Y1539579D1*
X913141Y1485922D2*
X973429Y1460155D1*
X990640Y1468711D1*
X999295Y1477366D1*
X1003573Y1485922D1*
Y1490299D1*
X913141Y1434289D2*
X973429Y1460155D1*
X882997Y1319017D2*
X973429Y1284595D1*
X882997Y1250173D1*
X973429Y1153439D2*
X882997Y1187961D1*
X973429Y1222383D1*
X943285Y1209450D2*
Y1166372D1*
X882997Y1125649D2*
X973429D1*
Y1074016D1*
X631619Y2053334D2*
X722051Y2018913D1*
X631619Y1984491D1*
Y1956700D2*
X696185D1*
X709118Y1952422D1*
X717673Y1943767D1*
X722051Y1930834D1*
Y1922278D1*
X717673Y1909345D1*
X709118Y1900690D1*
X696185Y1896412D1*
X631619D1*
X676885Y1868621D2*
Y1818879D1*
X661763Y1791088D2*
X722051D1*
X678974D2*
X666041Y1778155D1*
X661763Y1769500D1*
Y1756666D1*
X666041Y1748011D1*
X678974Y1743733D1*
X722051D1*
X678974D2*
X666041Y1730800D1*
X661763Y1722145D1*
Y1709311D1*
X666041Y1700656D1*
X678974Y1696279D1*
X722051D1*
X687629Y1668488D2*
Y1616855D1*
X678974D1*
X670319Y1621133D1*
X666041Y1625411D1*
X661763Y1634066D1*
Y1646999D1*
X666041Y1655555D1*
X674696Y1664210D1*
X687629Y1668488D1*
X696185D1*
X709118Y1664210D1*
X717673Y1655555D1*
X722051Y1646999D1*
Y1634066D1*
X717673Y1625411D1*
X709118Y1616855D1*
X631619Y1576132D2*
X704840D1*
X717673Y1571854D1*
X722051Y1563199D1*
Y1554643D1*
X661763Y1589065D2*
Y1558921D1*
X687629Y1526852D2*
Y1475219D1*
X678974D1*
X670319Y1479497D1*
X666041Y1483775D1*
X661763Y1492430D1*
Y1505363D1*
X666041Y1513919D1*
X674696Y1522574D1*
X687629Y1526852D1*
X696185D1*
X709118Y1522574D1*
X717673Y1513919D1*
X722051Y1505363D1*
Y1492430D1*
X717673Y1483775D1*
X709118Y1475219D1*
X661763Y1447429D2*
X722051D1*
X687629D2*
X674696Y1443051D1*
X666041Y1434496D1*
X661763Y1425840D1*
Y1412907D1*
Y1276146D2*
X666041Y1284702D1*
X674696Y1293357D1*
X687629Y1297635D1*
X696185D1*
X709118Y1293357D1*
X717673Y1284702D1*
X722051Y1276146D1*
Y1263213D1*
X717673Y1254558D1*
X709118Y1246002D1*
X696185Y1241625D1*
X687629D1*
X674696Y1246002D1*
X666041Y1254558D1*
X661763Y1263213D1*
Y1276146D1*
Y1213834D2*
X722051D1*
X678974D2*
X666041Y1200901D1*
X661763Y1192246D1*
Y1179412D1*
X666041Y1170757D1*
X678974Y1166479D1*
X722051D1*
X631619Y1051207D2*
X722051D1*
X631619Y1023416D2*
X722051D1*
Y971783D1*
X631619Y913849D2*
X722051D1*
X631619Y943993D2*
Y883705D1*
X644552Y804281D2*
X635996Y808559D1*
X631718Y821492D1*
Y830048D1*
X635996Y842981D1*
X648929Y851636D1*
X670418Y855914D1*
X691907D1*
X709118Y851636D1*
X717773Y842981D1*
X722051Y830048D1*
Y825770D1*
X717773Y812937D1*
X709118Y804281D1*
X696185Y800004D1*
X691907D1*
X678974Y804281D1*
X670418Y812937D1*
X666140Y825770D1*
Y830048D1*
X670418Y842981D1*
X678974Y851636D1*
X691907Y855914D1*
X676885Y772213D2*
Y722470D1*
X631718Y686024D2*
Y638769D1*
X666140Y664536D1*
Y651603D1*
X670418Y643047D1*
X674696Y638769D1*
X687629Y634392D1*
X696185D1*
X709118Y638769D1*
X717773Y647325D1*
X722051Y660258D1*
Y673191D1*
X717773Y686024D1*
X713396Y690302D1*
X704840Y694680D1*
X631718Y580735D2*
X635996Y593668D1*
X648929Y602323D1*
X670418Y606601D1*
X683351D1*
X704840Y602323D1*
X717773Y593668D1*
X722051Y580735D1*
Y572179D1*
X717773Y559246D1*
X704840Y550690D1*
X683351Y546313D1*
X670418D1*
X648929Y550690D1*
X635996Y559246D1*
X631718Y572179D1*
Y580735D1*
X648929Y550690D2*
X704840Y602323D1*
X722051Y449679D2*
X631619D1*
X722051Y484101D1*
X631619Y518522D1*
X722051D1*
M02*
