M48
INCH
T01C0.0315
T02C0.0354
T03C0.0394
T04C0.0472
T05C0.1181
%
T01
X+011187Y+021625
X+015250Y+021562
X+015250Y+027312
X+011187Y+026125
X+015312Y+014062
X+015312Y+009187
T02
X+017500Y+048312
X+017500Y+047312
X+017500Y+046312
X+017500Y+045312
X+017500Y+044312
X+017500Y+043312
X+017500Y+042312
X+024250Y+042447
X+024250Y+043947
X+024250Y+040947
X+024250Y+039447
X+024250Y+036447
X+024250Y+034947
X+024250Y+033447
X+024250Y+031947
X+024250Y+028947
X+024250Y+027447
X+024250Y+025947
X+024250Y+024447
X+024250Y+021447
X+024250Y+019947
X+024250Y+018447
X+024250Y+016947
X+024250Y+015447
X+024250Y+013947
X+024250Y+012447
X+024250Y+009447
X+024250Y+007947
X+024250Y+006447
X+010125Y+016625
X+009125Y+016625
X+009125Y+017875
X+010125Y+017875
X+010062Y+019562
X+009062Y+019562
X+008062Y+019562
X+008062Y+020562
X+009062Y+020562
X+010062Y+020562
X+008500Y+022812
X+008500Y+023812
X+008500Y+024812
X+005875Y+025500
X+005875Y+026500
X+005875Y+027500
X+008500Y+028187
X+008500Y+029187
X+008500Y+030187
X+011312Y+030250
X+012312Y+030250
X+013312Y+030250
X+024250Y+046947
X+024250Y+049947
X+024250Y+051447
X+011375Y+050625
X+010375Y+050625
X+009375Y+050625
X+008375Y+050625
T03
X+013312Y+033000
X+006625Y+033000
X+006562Y+048562
X+013249Y+048562
T04
X+015125Y+041937
X+015125Y+040937
X+015125Y+039937
T05
X+005062Y+052875
X+026062Y+052875
X+026062Y+005000
X+005000Y+005000
T00
M30
